<svg xmlns="http://www.w3.org/2000/svg" xmlns:xlink="http://www.w3.org/1999/xlink" width="500" zoomAndPan="magnify" viewBox="0 0 375 374.999991" height="500" preserveAspectRatio="xMidYMid meet" version="1.0"><path fill="#100f0d" d="M 318.570312 249.828125 C 302.941406 281.734375 276.710938 306.96875 244.285156 321.304688 L 242.152344 315.90625 C 273.140625 302.15625 298.25 278.007812 313.246094 247.519531 Z M 309.683594 243.082031 C 295.003906 274.238281 269.496094 298.773438 237.851562 312.179688 L 235.542969 313.152344 L 241.445312 328.101562 L 243.867188 327.078125 C 279.394531 312.117188 307.984375 284.605469 324.363281 249.617188 L 325.480469 247.226562 L 310.738281 240.828125 Z M 325.042969 234.730469 L 319.144531 232.339844 C 324.007812 220.007812 327.078125 210.726562 327.832031 196.808594 L 333.644531 196.808594 C 333.007812 211.613281 330.691406 220.382812 325.042969 234.730469 Z M 322.882812 191.671875 L 322.796875 194.15625 C 322.316406 209.035156 319.4375 217.765625 313.421875 232.808594 L 312.484375 235.1875 L 327.902344 241.433594 L 328.855469 239.03125 C 335.492188 222.503906 338.355469 212.636719 338.875 194.3125 L 338.949219 191.671875 Z M 175.863281 43.246094 C 162.605469 43.675781 155.421875 44.414062 143.90625 48.269531 L 142.265625 43.195312 C 154.597656 39.007812 162.929688 37.921875 175.863281 37.449219 Z M 138.195312 39.175781 L 135.84375 40.007812 L 140.636719 54.855469 L 143.121094 53.96875 C 156.195312 49.34375 163.210938 48.738281 178.507812 48.300781 L 181 48.226562 L 181 32.15625 L 178.359375 32.230469 C 162.761719 32.691406 153.261719 33.796875 138.195312 39.175781 Z M 187.539062 369.9375 C 86.960938 369.9375 5.136719 288.113281 5.136719 187.546875 C 5.136719 86.972656 86.960938 5.148438 187.539062 5.148438 C 288.101562 5.148438 369.929688 86.972656 369.929688 187.546875 C 369.929688 288.113281 288.101562 369.9375 187.539062 369.9375 Z M 187.539062 0.0117188 C 84.121094 0.0117188 0 84.140625 0 187.546875 C 0 290.953125 84.121094 375.074219 187.539062 375.074219 C 290.941406 375.074219 375.066406 290.953125 375.066406 187.546875 C 375.066406 84.140625 290.941406 0.0117188 187.539062 0.0117188 Z M 186.136719 333.875 L 186.136719 328.089844 C 200.359375 327.453125 214.671875 324.929688 226.972656 320.886719 L 228.644531 326.171875 C 216 330.378906 200.472656 333.1875 186.136719 333.875 Z M 227.777344 315.175781 C 214.714844 319.800781 198.992188 322.589844 183.496094 323.039062 L 181 323.121094 L 181 339.191406 L 183.652344 339.117188 C 200.085938 338.625 218.433594 335.296875 232.714844 330.199219 L 235.042969 329.375 L 230.28125 314.300781 Z M 57.414062 123.828125 L 52.089844 121.519531 C 67.71875 89.613281 93.945312 64.378906 126.375 50.042969 L 128.503906 55.429688 C 97.507812 69.191406 72.40625 93.351562 57.414062 123.828125 Z M 126.792969 44.257812 C 91.261719 59.230469 62.675781 86.742188 46.292969 121.71875 L 45.175781 124.121094 L 59.917969 130.511719 L 60.972656 128.253906 C 75.644531 97.109375 101.160156 72.574219 132.808594 59.167969 L 135.113281 58.1875 L 129.214844 43.246094 Z M 51.910156 139.207031 C 46.921875 152.644531 43.589844 168.996094 42.828125 183.96875 L 37.011719 183.96875 C 37.742188 166.957031 40.832031 150.878906 46.003906 137.160156 Z M 42.117188 132.964844 C 35.917969 148.425781 32.335938 166.925781 31.78125 186.460938 L 31.707031 189.105469 L 47.765625 189.105469 L 47.851562 186.617188 C 48.371094 170.625 52.035156 152.675781 57.652344 138.601562 L 58.65625 136.105469 L 43.035156 130.6875 L 42.117188 132.964844 " fill-opacity="1" fill-rule="nonzero"/></svg>