<svg xmlns="http://www.w3.org/2000/svg" xmlns:xlink="http://www.w3.org/1999/xlink" width="500" zoomAndPan="magnify" viewBox="0 0 375 374.999991" height="500" preserveAspectRatio="xMidYMid meet" version="1.0"><defs><clipPath id="id1"><path d="M 7.402344 0 L 367.402344 0 L 367.402344 375 L 7.402344 375 Z M 7.402344 0 " clip-rule="nonzero"/></clipPath></defs><path fill="#f8c592" d="M 173.300781 82.535156 C 173.875 78.359375 174.296875 74.1875 174.777344 70.015625 C 175.066406 67.421875 175.183594 64.808594 175.394531 62.191406 C 175.699219 58.441406 176.046875 54.695312 176.316406 50.945312 C 176.449219 48.945312 176.585938 46.925781 176.71875 44.925781 C 176.929688 41.621094 177.066406 38.3125 177.488281 35.003906 C 177.507812 34.8125 177.488281 34.621094 177.488281 34.429688 C 170.492188 34.257812 163.554688 35.082031 156.675781 36.199219 C 146.164062 37.910156 135.671875 39.753906 125.640625 43.542969 C 123.164062 44.484375 123.164062 44.386719 121.375 42.292969 C 120.722656 41.523438 120.183594 40.660156 119.417969 39.945312 C 116.976562 37.660156 114.171875 35.871094 111.363281 34.0625 C 105.792969 30.449219 99.988281 27.296875 93.820312 24.816406 C 85.960938 21.644531 78.003906 18.703125 69.933594 16.125 C 64.59375 14.433594 59.210938 12.855469 53.714844 11.761719 C 43.144531 9.703125 32.40625 9.320312 21.71875 8.722656 C 21.257812 8.703125 20.757812 8.644531 20.335938 8.953125 C 20.433594 9.339844 20.757812 9.53125 21.007812 9.761719 C 24.296875 13.050781 27.886719 16.011719 31.597656 18.796875 C 39.378906 24.644531 47.664062 29.777344 55.867188 34.988281 C 67.398438 42.3125 78.925781 49.65625 89.34375 58.578125 C 93.667969 62.269531 97.703125 66.230469 100.777344 71.074219 C 101.929688 72.882812 102.949219 74.765625 103.3125 76.9375 C 103.429688 77.628906 103.292969 78.285156 102.46875 78.398438 C 101.660156 78.515625 101.332031 77.917969 101.238281 77.226562 C 101.101562 76.398438 100.816406 75.632812 100.46875 74.882812 C 98.894531 71.496094 96.605469 68.632812 94.070312 65.941406 C 89.554688 61.152344 84.382812 57.078125 79.121094 53.15625 C 76.949219 51.539062 74.777344 49.886719 72.453125 48.464844 C 72.394531 48.386719 72.316406 48.308594 72.238281 48.445312 C 72.222656 48.464844 72.296875 48.542969 72.335938 48.578125 C 73.738281 53.195312 74.851562 57.867188 76.027344 62.539062 C 77.582031 68.710938 79.351562 74.804688 81.925781 80.628906 C 83.886719 85.089844 86.324219 89.222656 89.863281 92.648438 C 90.574219 93.339844 90.417969 94.222656 89.628906 94.492188 C 89.035156 94.703125 88.652344 94.359375 88.285156 93.992188 C 86.171875 91.953125 84.421875 89.648438 82.925781 87.128906 C 81.597656 84.917969 80.503906 82.589844 79.332031 79.996094 C 79.3125 80.398438 79.292969 80.554688 79.292969 80.6875 C 79.234375 84.550781 79.175781 88.4375 79.675781 92.28125 C 80.214844 96.320312 81.328125 100.144531 83.75 103.507812 C 84.578125 104.664062 85.5 105.703125 86.480469 106.71875 C 86.921875 107.183594 86.980469 107.699219 86.535156 108.179688 C 86.09375 108.644531 85.558594 108.605469 85.078125 108.21875 C 84.902344 108.085938 84.75 107.914062 84.597656 107.757812 C 79.8125 103.007812 77.945312 97.070312 77.390625 90.550781 C 77.121094 87.28125 77.179688 84.015625 77.21875 80.765625 C 77.234375 79.324219 77.3125 77.878906 77.851562 76.515625 C 77.964844 76.226562 77.871094 76.015625 77.792969 75.785156 C 75.890625 70.421875 74.546875 64.902344 73.105469 59.421875 C 71.953125 54.980469 71.164062 50.425781 68.992188 46.3125 C 68.761719 45.867188 68.433594 45.636719 68.089844 45.40625 C 59.671875 39.734375 50.988281 34.507812 42.492188 28.949219 C 35.285156 24.238281 28.234375 19.296875 21.835938 13.492188 C 20.875 12.625 19.953125 11.722656 18.953125 10.78125 C 18.875 10.972656 18.820312 11.070312 18.820312 11.144531 C 18.722656 11.992188 18.914062 12.800781 18.953125 13.625 C 19.164062 20.644531 19.835938 27.605469 20.664062 34.582031 C 21.988281 45.847656 24.910156 56.691406 29.097656 67.210938 C 31.347656 72.84375 34.019531 78.246094 37.035156 83.515625 C 41.03125 90.492188 45.335938 97.28125 50.332031 103.585938 C 54.3125 108.605469 58.460938 113.46875 63.4375 117.582031 C 67.917969 121.273438 72.683594 124.5625 77.640625 127.5625 C 82 130.195312 86.441406 132.675781 91.339844 134.214844 C 92.898438 134.695312 93.859375 135.808594 94.800781 136.964844 C 95.050781 137.269531 95.089844 137.65625 95.03125 138.058594 C 94.628906 141.617188 94.398438 145.191406 94.511719 148.769531 C 94.644531 153.09375 94.859375 157.402344 95.222656 161.707031 C 95.78125 168.246094 96.835938 174.667969 99.199219 180.820312 C 100.121094 183.222656 101.101562 185.566406 102.738281 187.585938 C 102.738281 186.316406 102.199219 185.183594 101.949219 183.953125 C 100.777344 177.992188 101.851562 172.398438 104.195312 166.878906 C 105.292969 164.324219 107.289062 162.6875 109.25 160.996094 C 113.035156 157.707031 116.976562 154.613281 121.03125 151.652344 C 125.679688 148.269531 130.542969 145.191406 135.519531 142.308594 C 140.246094 139.558594 145.148438 137.136719 149.703125 134.078125 C 155.023438 130.503906 159.214844 125.890625 162.460938 120.390625 C 166.152344 114.160156 168.304688 107.355469 169.992188 100.375 C 171.414062 94.492188 172.453125 88.53125 173.300781 82.535156 Z M 137.902344 58.460938 C 137.863281 57.960938 138.152344 57.65625 138.535156 57.460938 C 138.980469 57.25 139.34375 57.539062 139.632812 57.828125 C 140.976562 59.210938 142.128906 60.730469 143.28125 62.269531 C 144.667969 64.113281 145.953125 66.019531 146.855469 68.152344 C 147.070312 68.671875 147.222656 69.230469 147.394531 69.785156 C 147.605469 70.460938 147.320312 70.960938 146.703125 71.152344 C 146.03125 71.34375 145.609375 70.941406 145.414062 70.304688 C 144.839844 68.34375 143.839844 66.613281 142.667969 64.941406 C 141.304688 63 139.804688 61.171875 138.285156 59.367188 C 138.054688 59.097656 137.84375 58.828125 137.902344 58.460938 Z M 132.925781 63.132812 C 133.425781 62.421875 134.136719 62.613281 134.710938 63 C 137.902344 65.171875 140.632812 67.84375 142.839844 71.035156 C 142.996094 71.246094 143.109375 71.476562 143.089844 71.746094 C 143.148438 72.304688 142.839844 72.691406 142.359375 72.863281 C 141.746094 73.074219 141.378906 72.59375 141.128906 72.171875 C 140.132812 70.59375 138.804688 69.285156 137.5 67.980469 C 136.308594 66.769531 134.980469 65.710938 133.578125 64.769531 C 133.003906 64.382812 132.367188 63.902344 132.925781 63.132812 Z M 148.796875 118.292969 C 148.066406 119.46875 147.203125 120.523438 146.144531 121.429688 C 142.148438 124.8125 137.519531 123.910156 134.269531 120.003906 C 131.582031 116.777344 130.292969 112.929688 129.734375 108.855469 C 128.964844 103.242188 129.484375 97.742188 131.886719 92.53125 C 132.828125 90.472656 134.058594 88.609375 135.867188 87.207031 C 139.476562 84.378906 143.476562 84.609375 146.722656 87.898438 C 149.46875 90.683594 150.855469 94.164062 151.699219 97.894531 C 152.199219 100.046875 152.390625 102.257812 152.351562 104.472656 C 152.332031 109.375 151.410156 114.046875 148.796875 118.292969 Z M 148.796875 118.292969 " fill-opacity="1" fill-rule="nonzero"/><path fill="#f8c592" d="M 357.488281 35.753906 C 355.546875 36.101562 353.566406 36.3125 351.609375 36.582031 C 346.285156 37.351562 340.960938 38.253906 335.695312 39.390625 C 325.800781 41.523438 316.269531 44.714844 306.988281 48.734375 C 303.644531 50.175781 300.359375 51.769531 297.128906 53.445312 C 296.765625 53.636719 296.457031 53.75 296.820312 54.25 C 297.226562 54.789062 296.917969 55.289062 296.476562 55.675781 C 295.707031 56.328125 295.113281 57.117188 294.574219 57.960938 C 293.171875 60.191406 292.171875 62.613281 291.25 65.074219 C 288.445312 72.457031 286.542969 80.109375 284.175781 87.628906 C 284.042969 88.03125 284.023438 88.300781 284.582031 88.300781 C 285.253906 88.320312 285.503906 88.839844 285.597656 89.398438 C 285.886719 91.28125 286.097656 93.203125 286.234375 95.109375 C 286.445312 98.222656 286.3125 101.296875 285.832031 104.375 C 285.273438 107.988281 284.160156 111.390625 281.8125 114.296875 C 281.277344 114.96875 280.699219 115.621094 279.96875 116.101562 C 279.449219 116.449219 278.914062 116.449219 278.527344 115.910156 C 278.144531 115.390625 278.21875 114.871094 278.699219 114.449219 C 281.140625 112.410156 282.390625 109.699219 283.214844 106.71875 C 284.351562 102.585938 284.3125 98.355469 284.0625 94.144531 C 283.984375 92.761719 283.929688 91.320312 283.449219 89.839844 C 282.929688 91.050781 282.488281 92.128906 281.988281 93.203125 C 280.507812 96.375 278.683594 99.335938 276.183594 101.855469 C 275.664062 102.375 275.050781 102.683594 274.433594 102.011719 C 273.839844 101.375 274.222656 100.835938 274.703125 100.335938 C 276.683594 98.375 278.164062 96.070312 279.429688 93.609375 C 281.910156 88.839844 283.140625 83.628906 284.695312 78.535156 C 287.078125 70.726562 289.058594 62.769531 293.460938 55.730469 C 293.515625 55.65625 293.652344 55.5 293.632812 55.480469 C 293.476562 55.328125 293.382812 55.460938 293.285156 55.558594 C 293.171875 55.597656 293.035156 55.636719 292.941406 55.695312 C 281.660156 62.132812 271.015625 69.402344 262.367188 79.265625 C 261.769531 79.9375 261.117188 80.035156 260.636719 79.535156 C 260.042969 78.917969 260.367188 78.359375 260.808594 77.84375 C 262.539062 75.765625 264.441406 73.882812 266.421875 72.035156 C 273.820312 65.113281 282.140625 59.441406 290.921875 54.425781 C 309.003906 44.0625 328.433594 37.660156 349.050781 34.8125 C 350.167969 34.660156 351.261719 34.449219 352.355469 34.257812 C 343.191406 32.199219 334.003906 30.546875 324.6875 29.679688 C 321.304688 29.371094 317.921875 29.121094 314.519531 29.101562 C 311.195312 29.085938 307.871094 29.429688 304.546875 29.566406 C 296.207031 29.910156 287.90625 30.777344 279.585938 31.679688 C 268.402344 32.890625 257.679688 35.851562 247.207031 39.832031 C 244.898438 40.695312 242.554688 41.464844 240.382812 42.675781 C 240.058594 42.871094 239.84375 42.714844 239.578125 42.621094 C 235.753906 41.214844 231.871094 40.082031 227.894531 39.214844 C 221.398438 37.8125 214.863281 36.5625 208.273438 35.601562 C 204.410156 35.042969 200.527344 34.640625 196.628906 34.46875 C 196.472656 36.023438 196.820312 37.5625 196.914062 39.121094 C 196.992188 40.3125 197.070312 41.542969 197.183594 42.734375 C 197.472656 46.175781 197.589844 49.617188 197.820312 53.058594 C 198.105469 57.15625 198.414062 61.269531 198.78125 65.363281 C 199.125 69.210938 199.492188 73.035156 199.933594 76.863281 C 200.988281 85.820312 202.429688 94.722656 204.757812 103.453125 C 205.96875 107.96875 207.425781 112.390625 209.484375 116.601562 C 211.25 120.21875 213.441406 123.582031 216.054688 126.695312 C 219.976562 131.347656 224.894531 134.695312 230.140625 137.597656 C 236.945312 141.347656 243.726562 145.132812 250.105469 149.574219 C 254.488281 152.613281 258.734375 155.863281 262.769531 159.34375 C 264.382812 160.746094 266.039062 162.113281 267.671875 163.496094 C 268.246094 163.976562 268.59375 164.628906 268.957031 165.285156 C 269.246094 165.785156 269.34375 166.378906 269.84375 166.746094 C 269.898438 166.496094 269.996094 166.265625 270.035156 166.015625 C 270.765625 159.207031 271.339844 152.382812 271.167969 145.539062 C 271.054688 140.925781 270.765625 136.328125 270.109375 131.753906 C 270.074219 131.425781 270.054688 131.082031 270.226562 130.8125 C 271.015625 129.617188 271.898438 128.371094 273.28125 128.023438 C 278.777344 126.640625 284.121094 124.773438 289.460938 122.871094 C 294.382812 121.121094 299.1875 119.0625 303.683594 116.410156 C 312.214844 111.390625 319.726562 105.085938 326.570312 97.972656 C 332.507812 91.800781 338.097656 85.359375 342.671875 78.074219 C 345.171875 74.113281 347.457031 70.035156 349.339844 65.769531 C 351.433594 61.039062 353.050781 56.15625 354.507812 51.214844 C 355.949219 46.332031 357.199219 41.40625 358.066406 36.371094 C 358.238281 35.8125 358.21875 35.621094 357.488281 35.753906 Z M 241.765625 69.941406 C 242.074219 70.613281 241.652344 71.015625 241.09375 71.304688 C 239.097656 72.363281 237.097656 73.457031 235.273438 74.804688 C 235.023438 74.996094 234.773438 75.054688 234.445312 75.054688 C 234.042969 75.09375 233.695312 74.957031 233.503906 74.554688 C 233.292969 74.132812 233.40625 73.746094 233.753906 73.421875 C 234.503906 72.652344 235.445312 72.171875 236.328125 71.613281 C 237.558594 70.804688 238.847656 70.113281 240.171875 69.441406 C 240.863281 69.09375 241.441406 69.246094 241.765625 69.941406 Z M 227.585938 71.957031 C 228.777344 69.863281 230.332031 68.035156 231.929688 66.269531 C 233.542969 64.5 235.292969 62.863281 237.25 61.480469 C 237.828125 61.078125 238.421875 60.710938 239.132812 60.597656 C 239.613281 60.578125 239.980469 60.769531 240.09375 61.230469 C 240.25 61.769531 240.113281 62.25 239.578125 62.539062 C 237.578125 63.59375 235.925781 65.113281 234.386719 66.730469 C 232.523438 68.652344 230.738281 70.652344 229.429688 73.015625 C 229.101562 73.613281 228.699219 74.132812 227.929688 73.804688 C 227.277344 73.515625 227.144531 72.726562 227.585938 71.957031 Z M 240.25 118.292969 C 239.480469 119.542969 238.558594 120.699219 237.367188 121.601562 C 233.753906 124.351562 229.796875 124.121094 226.566406 120.910156 C 224.089844 118.449219 222.683594 115.371094 221.859375 112.027344 C 220.207031 105.355469 220.53125 98.816406 223.359375 92.511719 C 224.28125 90.453125 225.527344 88.589844 227.335938 87.1875 C 230.949219 84.359375 234.964844 84.609375 238.191406 87.878906 C 240.980469 90.683594 242.34375 94.203125 243.1875 97.972656 C 243.667969 100.105469 243.824219 102.277344 243.824219 104.453125 C 243.824219 109.375 242.882812 114.066406 240.25 118.292969 Z M 240.25 118.292969 " fill-opacity="1" fill-rule="nonzero"/><path fill="#f8c592" d="M 149.453125 297.484375 C 146.203125 295.234375 142.589844 293.640625 139.09375 291.871094 C 133.675781 289.121094 128.542969 286.007812 124.257812 281.621094 C 122.011719 279.316406 119.761719 276.988281 117.589844 274.585938 C 115.035156 271.757812 112.59375 268.835938 110.597656 265.605469 C 109.480469 263.800781 108.347656 261.914062 108.5 259.648438 C 108.597656 258.261719 109.039062 256.957031 109.636719 255.726562 C 111.078125 252.746094 112.980469 250.148438 115.746094 248.246094 C 116.878906 247.476562 117.996094 247.476562 119.128906 248.246094 C 120.394531 249.074219 121.511719 250.074219 122.585938 251.128906 C 123.605469 252.148438 124.664062 253.128906 125.816406 253.996094 C 126.660156 254.628906 127.601562 254.957031 128.5625 254.359375 C 129.542969 253.746094 129.5625 252.6875 129.410156 251.6875 C 129.214844 250.535156 128.949219 249.378906 128.640625 248.246094 C 127.21875 243.152344 125.660156 238.074219 124.335938 232.960938 C 123.046875 228 121.894531 223 121.53125 217.847656 C 121.375 215.753906 121.242188 213.636719 121.28125 211.542969 C 121.320312 209.640625 121.183594 207.699219 121.585938 205.8125 C 121.585938 205.429688 121.585938 205.042969 121.585938 204.640625 C 121.453125 204.542969 121.335938 204.429688 121.203125 204.351562 C 117.476562 202.257812 113.804688 200.0625 110.367188 197.507812 C 107.695312 195.527344 105.003906 193.566406 103.871094 190.203125 C 101.21875 194.027344 98.914062 198.046875 96.703125 202.121094 C 93.742188 207.582031 91.570312 213.40625 89.285156 219.175781 C 88.265625 221.75 87.132812 224.308594 86.441406 226.980469 C 85.097656 232.230469 84.367188 237.613281 83.636719 242.996094 C 82.808594 249.015625 82.578125 255.050781 82.617188 261.089844 C 82.636719 265.589844 82.90625 270.105469 83.460938 274.585938 C 84.078125 279.410156 84.921875 284.160156 86.152344 288.871094 C 86.863281 291.582031 87.726562 294.253906 88.707031 296.886719 C 89.054688 297.8125 88.746094 298.582031 87.976562 298.886719 C 87.191406 299.214844 86.460938 298.851562 86.054688 297.945312 C 85.960938 297.714844 85.882812 297.464844 85.789062 297.234375 C 83.058594 289.890625 81.484375 282.296875 80.578125 274.527344 C 79.925781 268.992188 79.675781 263.433594 79.734375 257.859375 C 79.8125 251.398438 80.386719 244.976562 81.347656 238.574219 C 82.308594 232.132812 83.578125 225.75 85.382812 219.503906 C 85.789062 218.117188 86.191406 216.714844 86.613281 215.273438 C 86.152344 215.347656 85.941406 215.597656 85.691406 215.792969 C 83.480469 217.542969 81.519531 219.558594 79.542969 221.578125 C 74.835938 226.425781 70.625 231.613281 67.070312 237.363281 C 64.804688 241.035156 62.59375 244.765625 60.921875 248.765625 C 60.304688 250.226562 59.613281 251.589844 58.5 252.726562 C 59.152344 253.898438 60.191406 254.78125 61 255.839844 C 65.167969 261.28125 68.359375 267.28125 71.164062 273.488281 C 73.085938 277.738281 74.796875 282.066406 76.21875 286.527344 C 77.660156 291.0625 78.621094 295.695312 79.292969 300.40625 C 79.542969 302.195312 79.851562 304.003906 79.886719 305.808594 C 80.503906 305.539062 81.15625 305.445312 81.828125 305.40625 C 85.519531 305.097656 89.246094 305.175781 92.898438 304.503906 C 93.109375 304.464844 93.339844 304.40625 93.53125 304.578125 C 94.550781 305.425781 95.550781 306.25 96.105469 307.5 C 97.683594 311 99.296875 314.480469 101.332031 317.730469 C 103.851562 318.269531 106.328125 318.921875 108.789062 319.75 C 113.441406 321.285156 118.242188 322.363281 123.085938 323.171875 C 127.699219 323.941406 132.308594 324.671875 137.019531 324.460938 C 138.574219 324.382812 140.132812 324.265625 141.609375 323.671875 C 144.242188 322.613281 146.394531 320.84375 148.261719 318.769531 C 151.066406 315.632812 153.238281 312.117188 154.121094 307.945312 C 154.660156 305.425781 154.621094 303.003906 153.0625 300.792969 C 152.121094 299.332031 150.777344 298.425781 149.453125 297.484375 Z M 149.453125 297.484375 " fill-opacity="1" fill-rule="nonzero"/><path fill="#f8c592" d="M 301.453125 246.015625 C 298.859375 240.710938 295.667969 235.769531 292.210938 230.980469 C 291.574219 230.117188 291.039062 229.171875 290.117188 228.402344 C 290.117188 228.710938 290.078125 228.902344 290.117188 229.078125 C 291.210938 234.308594 291.824219 239.59375 292.460938 244.882812 C 293.09375 250.324219 293.421875 255.78125 293.515625 261.242188 C 293.59375 265.761719 293.363281 270.277344 293.132812 274.777344 C 292.960938 277.835938 292.691406 280.910156 292.34375 283.949219 C 291.921875 287.71875 291.402344 291.484375 290.84375 295.234375 C 290.519531 297.464844 290.078125 299.695312 289.652344 301.925781 C 289.460938 302.925781 288.828125 303.386719 287.984375 303.253906 C 287.15625 303.136719 286.753906 302.484375 286.847656 301.445312 C 286.867188 301.253906 286.90625 301.0625 286.945312 300.867188 C 287.175781 299.636719 287.40625 298.425781 287.636719 297.195312 C 288.386719 292.945312 288.960938 288.679688 289.421875 284.390625 C 289.828125 280.679688 290.132812 276.949219 290.367188 273.222656 C 290.519531 270.816406 290.519531 268.414062 290.632812 266.03125 C 290.847656 261.953125 290.578125 257.898438 290.421875 253.839844 C 290.289062 250.609375 289.902344 247.398438 289.558594 244.207031 C 289.289062 241.726562 289.175781 239.230469 288.519531 236.824219 C 287.808594 234.152344 286.925781 231.519531 286.0625 228.867188 C 285.0625 225.789062 283.734375 222.847656 282.640625 219.828125 C 281.429688 216.484375 280.160156 213.175781 278.605469 209.984375 C 276.105469 204.792969 273.148438 199.832031 270.09375 194.96875 C 268.574219 192.566406 267.074219 190.144531 265.363281 187.875 C 264.941406 188.085938 264.789062 188.527344 264.5 188.875 C 263.617188 189.953125 262.75 191.027344 261.886719 192.105469 C 261.945312 192.625 262.019531 193.144531 262.078125 193.660156 C 262.15625 194.296875 262.214844 194.929688 262.289062 195.566406 C 262.539062 197.910156 262.710938 200.257812 262.925781 202.601562 C 263.210938 205.851562 263.347656 209.101562 263.367188 212.351562 C 263.367188 214.214844 263.289062 216.097656 263.117188 217.984375 C 262.75 222.058594 261.945312 226.058594 261.023438 230.019531 C 259.65625 235.824219 257.851562 241.515625 256.257812 247.265625 C 255.796875 248.917969 255.316406 250.589844 255.179688 252.300781 C 255.121094 253.148438 255.351562 253.917969 256.140625 254.359375 C 256.910156 254.78125 257.699219 254.667969 258.410156 254.207031 C 258.832031 253.9375 259.253906 253.628906 259.636719 253.28125 C 261.15625 251.917969 262.65625 250.515625 264.171875 249.148438 C 266.402344 247.167969 267.632812 247.167969 269.878906 248.957031 C 272.128906 250.765625 273.703125 253.070312 274.972656 255.589844 C 276.433594 258.453125 276.585938 261.339844 274.875 264.164062 C 274.089844 265.472656 273.28125 266.78125 272.378906 268.03125 C 268.535156 273.277344 264.058594 277.988281 259.40625 282.507812 C 257.503906 284.351562 255.488281 286.082031 253.238281 287.523438 C 247.703125 291.0625 241.632812 293.582031 235.964844 296.886719 C 234.65625 297.945312 233.175781 298.773438 232.0625 300.082031 C 230.929688 301.386719 230.332031 302.886719 230.179688 304.578125 C 230.121094 306.519531 230.488281 308.40625 231.160156 310.210938 C 232.832031 314.710938 235.617188 318.402344 239.328125 321.460938 C 242.265625 323.882812 245.726562 324.535156 249.261719 324.460938 C 252.644531 324.382812 256.042969 323.980469 259.40625 323.421875 C 265.328125 322.441406 271.167969 321.191406 276.875 319.289062 C 278.085938 318.882812 279.179688 318.210938 280.46875 317.980469 C 281.679688 315.441406 282.738281 312.828125 283.640625 310.175781 C 284.214844 308.5 285.023438 307.039062 286.445312 305.945312 C 286.808594 305.65625 287.175781 305.484375 287.65625 305.484375 C 288.828125 305.445312 290.019531 305.445312 291.191406 305.253906 C 291.863281 305.136719 292.363281 305.234375 292.863281 305.675781 C 293.074219 301.886719 293.726562 298.136719 294.476562 294.425781 C 296.089844 286.527344 299.03125 279.085938 302.394531 271.777344 C 304.046875 268.203125 305.910156 264.742188 307.96875 261.378906 C 308.101562 261.164062 308.160156 260.914062 308.253906 260.664062 C 307.488281 259.742188 306.640625 258.917969 306.238281 257.707031 C 304.835938 253.765625 303.296875 249.824219 301.453125 246.015625 Z M 301.453125 246.015625 " fill-opacity="1" fill-rule="nonzero"/><path fill="#f8c592" d="M 199.972656 230.960938 C 197.839844 228.367188 195.378906 226.25 192.265625 224.867188 C 188.632812 223.25 184.886719 222.886719 181.042969 223.558594 C 176.296875 224.386719 172.472656 226.90625 169.398438 230.578125 C 165.824219 235.363281 164.535156 240.691406 165.765625 246.535156 C 166.746094 251.1875 169.226562 254.9375 172.992188 257.820312 C 175.453125 259.703125 178.238281 260.820312 181.234375 261.453125 C 181.65625 261.550781 182.082031 261.628906 182.101562 260.953125 C 182.136719 259.972656 182.234375 258.972656 182.253906 257.992188 C 182.273438 255.398438 182.214844 252.800781 182.292969 250.207031 C 182.332031 249.074219 182.082031 248.226562 181.214844 247.417969 C 179.949219 246.265625 179.773438 244.113281 180.5625 242.4375 C 181.410156 240.59375 183.347656 239.765625 184.808594 239.84375 C 186.597656 239.941406 188.078125 240.785156 188.824219 242.496094 C 189.554688 244.167969 189.421875 245.804688 188.308594 247.304688 C 188.09375 247.59375 187.863281 247.824219 187.847656 248.207031 C 187.808594 249.574219 187.730469 250.957031 187.671875 252.320312 C 187.597656 255.011719 187.75 257.6875 187.828125 260.378906 C 187.847656 261.222656 188.039062 261.414062 188.882812 261.203125 C 193.476562 260.070312 197.164062 257.570312 200.011719 253.820312 C 202.640625 250.339844 203.871094 246.324219 203.777344 241.996094 C 203.679688 237.960938 202.394531 234.25 199.972656 230.960938 Z M 199.972656 230.960938 " fill-opacity="1" fill-rule="nonzero"/><path fill="#e6ded4" d="M 162.132812 311.15625 C 162.691406 311.886719 163.191406 312.828125 164.382812 312.671875 C 164.941406 311.828125 165.671875 311.15625 166.417969 310.480469 C 166.785156 310.15625 167.09375 310.117188 167.496094 310.347656 C 167.457031 309.710938 167.34375 309.097656 166.976562 308.539062 C 164.691406 305.003906 162.058594 301.714844 159.578125 298.332031 C 154.582031 291.523438 149.394531 284.851562 144.972656 277.625 C 144.148438 276.277344 142.707031 275.835938 141.4375 276.488281 C 140.054688 277.199219 139.476562 278.777344 140.152344 280.238281 C 140.515625 281.007812 140.957031 281.757812 141.4375 282.488281 C 145.628906 288.929688 150.238281 295.082031 154.8125 301.253906 C 157.273438 304.539062 159.675781 307.867188 162.132812 311.15625 Z M 162.132812 311.15625 " fill-opacity="1" fill-rule="nonzero"/><path fill="#e6ded4" d="M 217.824219 332.785156 C 216.632812 332.554688 215.746094 333.246094 215.035156 334.089844 C 214.191406 335.089844 213.578125 336.265625 212.941406 337.398438 C 209.695312 343.300781 207.445312 349.472656 207.640625 356.335938 C 207.65625 356.757812 207.792969 357.242188 207.484375 357.625 C 207.621094 357.914062 207.753906 358.203125 207.90625 358.472656 C 209.292969 360.605469 211.597656 361.46875 213.730469 362.566406 C 213.902344 361.71875 213.613281 360.914062 213.519531 360.105469 C 213.171875 357.375 212.980469 354.625 213.441406 351.914062 C 214.363281 346.664062 216.324219 341.820312 219.4375 337.4375 C 220.78125 335.589844 219.957031 333.1875 217.824219 332.785156 Z M 217.824219 332.785156 " fill-opacity="1" fill-rule="nonzero"/><path fill="#e6ded4" d="M 180.179688 360.644531 C 180.179688 357.007812 179.0625 353.664062 177.507812 350.453125 C 175.46875 346.242188 172.664062 342.492188 170.359375 338.4375 C 169.800781 337.476562 168.359375 336.9375 167.457031 337.207031 C 165.746094 337.726562 164.441406 339.359375 165.863281 341.667969 C 167.707031 344.683594 169.628906 347.683594 171.398438 350.742188 C 173.375 354.183594 174.816406 357.816406 174.605469 361.914062 C 174.566406 362.644531 174.644531 363.375 174.664062 364.125 C 176.679688 363.429688 178.601562 362.488281 180.390625 361.335938 C 180.160156 361.164062 180.179688 360.894531 180.179688 360.644531 Z M 180.179688 360.644531 " fill-opacity="1" fill-rule="nonzero"/><path fill="#e6ded4" d="M 165.382812 365.660156 C 163.230469 363.71875 161 361.875 159.039062 359.71875 C 156.3125 356.722656 154.371094 353.28125 152.910156 349.53125 C 152.371094 348.164062 152.007812 346.742188 151.527344 345.359375 C 151.027344 343.898438 149.183594 342.667969 147.625 343.6875 C 146.492188 344.4375 145.894531 345.761719 146.28125 347.109375 C 148.164062 353.722656 151.085938 359.738281 156.0625 364.625 C 156.523438 365.085938 157.175781 365.410156 157.3125 366.140625 C 160.117188 366.621094 162.941406 366.871094 165.765625 366.296875 C 165.765625 366.007812 165.574219 365.835938 165.382812 365.660156 Z M 165.382812 365.660156 " fill-opacity="1" fill-rule="nonzero"/><path fill="#e6ded4" d="M 230.332031 346.242188 C 228.429688 348.242188 227.375 350.78125 226.316406 353.28125 C 224.683594 357.203125 224.070312 361.46875 222.261719 365.335938 C 224.222656 365.757812 226.222656 365.929688 228.238281 365.871094 C 228.316406 364.738281 228.910156 363.757812 229.199219 362.679688 C 230.449219 358.125 231.679688 353.550781 234.523438 349.625 C 234.964844 349.03125 235.292969 348.300781 235.058594 347.472656 C 234.445312 345.359375 231.871094 344.628906 230.332031 346.242188 Z M 230.332031 346.242188 " fill-opacity="1" fill-rule="nonzero"/><path fill="#e6ded4" d="M 261.828125 192.105469 C 261.445312 192.144531 261.234375 192.449219 260.984375 192.699219 C 258.773438 195.027344 256.199219 196.929688 253.585938 198.757812 C 248.664062 202.179688 243.457031 205.082031 237.980469 207.523438 C 232.484375 209.964844 226.816406 211.925781 221.011719 213.464844 C 213.710938 215.386719 206.3125 216.753906 198.800781 217.542969 C 194.996094 217.925781 191.171875 218.15625 187.367188 218.234375 C 181.175781 218.367188 174.972656 218.292969 168.800781 217.714844 C 165.863281 217.445312 162.921875 217.136719 160 216.675781 C 154.371094 215.792969 148.796875 214.617188 143.320312 213.082031 C 137.191406 211.351562 131.214844 209.214844 125.46875 206.46875 C 124.183594 205.851562 122.933594 205.101562 121.585938 204.601562 C 121.585938 204.988281 121.585938 205.371094 121.585938 205.773438 C 122.492188 206.660156 123.355469 207.601562 124.296875 208.445312 C 127.082031 210.945312 130.003906 213.253906 133.078125 215.347656 C 139.324219 219.617188 145.878906 223.289062 152.929688 226.039062 C 153.660156 226.328125 154.371094 226.886719 155.160156 226.789062 C 156.042969 226.671875 156.714844 226.960938 157.386719 227.421875 C 158.023438 227.867188 158.695312 228.210938 159.445312 228.421875 C 162.730469 229.328125 166.054688 230 169.417969 230.578125 C 172.492188 226.886719 176.316406 224.386719 181.0625 223.558594 C 184.886719 222.886719 188.652344 223.25 192.285156 224.867188 C 195.398438 226.25 197.859375 228.386719 199.992188 230.960938 C 200.125 230.902344 200.257812 230.789062 200.414062 230.769531 C 205.832031 229.652344 211.25 228.5 216.574219 226.90625 C 219.917969 225.90625 223.359375 225.210938 226.433594 223.347656 C 231.429688 220.328125 236.367188 217.195312 241.09375 213.773438 C 244.628906 211.214844 248.070312 208.523438 251.296875 205.5625 C 253.71875 203.332031 256.027344 201.007812 258.179688 198.507812 C 259.523438 196.929688 260.695312 195.238281 262.078125 193.679688 C 261.964844 193.144531 261.886719 192.625 261.828125 192.105469 Z M 261.828125 192.105469 " fill-opacity="1" fill-rule="nonzero"/><path fill="#e6ded4" d="M 246.1875 275.453125 C 245.035156 275.238281 244.09375 275.796875 243.4375 276.664062 C 241.265625 279.605469 239.171875 282.621094 237.019531 285.601562 C 233.523438 290.429688 229.988281 295.234375 226.507812 300.0625 C 225.414062 301.578125 224.183594 303.023438 223.28125 304.675781 C 222.53125 306.058594 222.878906 307.347656 224.144531 308.289062 C 225.203125 309.078125 226.472656 308.867188 227.585938 307.828125 C 228.585938 306.886719 229.140625 305.578125 230.121094 304.617188 C 230.277344 302.925781 230.871094 301.425781 232.003906 300.117188 C 233.140625 298.832031 234.597656 297.984375 235.90625 296.925781 C 235.675781 296.621094 236.019531 296.445312 236.136719 296.292969 C 237.886719 293.851562 239.652344 291.429688 241.402344 289.003906 C 243.574219 286.007812 245.785156 283.046875 247.820312 279.96875 C 248.222656 279.355469 248.628906 278.71875 248.550781 277.949219 C 248.414062 276.757812 247.417969 275.683594 246.1875 275.453125 Z M 246.1875 275.453125 " fill-opacity="1" fill-rule="nonzero"/><g clip-path="url(#id1)"><path fill="#703a44" d="M 279.394531 134.617188 C 282.542969 133.578125 285.675781 132.445312 288.847656 131.40625 C 297.359375 128.636719 305.066406 124.292969 312.386719 119.273438 C 320.246094 113.890625 327.375 107.566406 333.851562 100.566406 C 340.460938 93.433594 346.167969 85.609375 351.414062 77.417969 C 354.085938 73.246094 356.410156 68.84375 358.332031 64.269531 C 360.542969 58.960938 362.195312 53.480469 363.792969 47.984375 C 365.289062 42.8125 366.191406 37.523438 367.097656 32.21875 C 367.402344 30.46875 366.960938 29.660156 365.269531 29.027344 C 362.617188 28.027344 359.832031 27.488281 357.066406 26.890625 C 349.148438 25.160156 341.210938 23.625 333.199219 22.449219 C 326.320312 21.449219 319.382812 20.894531 312.425781 21.046875 C 301.914062 21.277344 291.460938 22.144531 281.007812 23.277344 C 269.4375 24.527344 258.292969 27.371094 247.457031 31.527344 C 245.089844 32.429688 242.6875 33.21875 240.460938 34.429688 C 240.210938 34.5625 240 34.523438 239.75 34.449219 C 234.925781 32.699219 229.988281 31.371094 224.972656 30.351562 C 218.515625 29.046875 212.019531 27.855469 205.488281 26.988281 C 200.816406 26.375 196.109375 26.179688 191.402344 26.125 C 182.121094 26.027344 172.820312 25.835938 163.574219 26.96875 C 155.851562 27.910156 148.203125 29.316406 140.59375 30.910156 C 135.25 32.027344 130.0625 33.601562 124.96875 35.5625 C 123.914062 35.96875 123.355469 35.792969 122.605469 35.042969 C 119.78125 32.121094 116.917969 29.238281 113.382812 27.140625 C 112.730469 26.757812 112.074219 26.335938 111.441406 25.910156 C 105.832031 22.238281 99.96875 19.066406 93.742188 16.566406 C 87.265625 13.953125 80.753906 11.511719 74.125 9.300781 C 67.648438 7.128906 61.152344 5.089844 54.464844 3.722656 C 43.261719 1.378906 31.867188 0.957031 20.488281 0.4375 C 19.085938 0.378906 17.644531 0.53125 16.261719 0.0507812 C 15.4375 0.0507812 14.589844 0.0507812 13.765625 0.0507812 C 13.707031 0.109375 13.648438 0.207031 13.574219 0.226562 C 11.132812 0.898438 10.765625 1.417969 10.515625 4.511719 C 10.210938 8.359375 10.613281 12.203125 10.765625 16.027344 C 11.113281 24.894531 12.015625 33.71875 13.574219 42.464844 C 14.976562 50.445312 17.339844 58.136719 20.242188 65.691406 C 21.757812 69.671875 23.449219 73.574219 25.429688 77.363281 C 32.902344 91.722656 41.839844 105.027344 53.523438 116.390625 C 58.039062 120.792969 62.421875 125.332031 67.53125 129.082031 C 73.21875 133.253906 79.15625 137 85.5 140.117188 C 86.25 140.480469 86.5 140.886719 86.421875 141.710938 C 86.25 143.617188 86.054688 145.558594 86.113281 147.460938 C 86.171875 150.019531 86.304688 152.574219 86.441406 155.132812 C 86.730469 160.054688 87.09375 164.976562 87.921875 169.839844 C 88.785156 174.953125 90.246094 179.875 92.511719 184.546875 C 93.261719 186.105469 94.261719 187.527344 95.300781 188.914062 C 95.742188 189.488281 95.722656 189.914062 95.320312 190.527344 C 91.898438 195.71875 88.804688 201.101562 86.113281 206.699219 C 85.941406 207.042969 85.789062 207.371094 85.480469 207.640625 C 80.503906 211.890625 76.0625 216.695312 71.492188 221.347656 C 67.128906 225.789062 63.113281 230.519531 59.769531 235.789062 C 58.347656 238.035156 56.90625 240.265625 55.695312 242.632812 C 55.308594 243.402344 55.097656 243.59375 54.332031 242.957031 C 49.121094 238.691406 43.414062 235.25 37.035156 233.019531 C 33.421875 231.769531 29.886719 231.578125 26.042969 232.558594 C 17.433594 234.75 12.09375 240.246094 8.863281 248.207031 C 7.882812 250.609375 7.980469 253.226562 7.597656 255.726562 C 7.558594 255.992188 7.710938 256.300781 7.402344 256.511719 C 7.402344 258.4375 7.402344 260.359375 7.402344 262.28125 C 7.75 263.742188 7.75 265.242188 7.960938 266.703125 C 9.269531 275.875 11.574219 284.757812 15.378906 293.234375 C 18.683594 300.582031 23.160156 307.117188 28.90625 312.769531 C 32.980469 316.808594 36.863281 321.035156 41.589844 324.34375 C 44.414062 326.324219 47.296875 328.246094 50.488281 329.632812 C 54.5625 331.398438 58.808594 331.6875 63.167969 331.054688 C 67.167969 330.457031 70.664062 328.765625 74.066406 326.726562 C 74.507812 326.476562 74.890625 326.113281 75.238281 325.746094 C 77.582031 323.421875 79.867188 321.054688 82.25 318.769531 C 83.671875 317.402344 84.691406 315.808594 85.363281 313.980469 C 85.519531 313.558594 85.710938 313.386719 86.171875 313.367188 C 87.460938 313.308594 88.726562 313.210938 89.996094 313.097656 C 90.4375 313.058594 90.609375 313.230469 90.804688 313.578125 C 97.988281 327.09375 107.117188 339.207031 117.476562 350.414062 C 121.550781 354.816406 125.796875 359.105469 130.445312 362.949219 C 136.078125 367.585938 142.496094 370.621094 149.433594 372.699219 C 152.96875 373.753906 156.582031 374.46875 160.25 374.753906 C 160.425781 374.773438 160.65625 374.71875 160.75 374.949219 C 161.578125 374.949219 162.421875 374.949219 163.25 374.949219 C 163.382812 374.753906 163.574219 374.792969 163.769531 374.773438 C 168.070312 374.429688 172.242188 373.488281 176.21875 371.777344 C 178.316406 370.871094 180.429688 369.949219 182.101562 368.371094 C 184.886719 365.738281 187.613281 363.007812 190.246094 360.21875 C 191.917969 358.453125 192.667969 356.144531 192.535156 353.78125 C 192.324219 350.144531 191.207031 346.664062 190.015625 343.261719 C 188.039062 337.589844 185.214844 332.324219 182.15625 327.171875 C 181.410156 325.902344 180.679688 324.632812 179.871094 323.285156 C 184.675781 324.074219 189.285156 324.882812 194.035156 324.496094 C 198.703125 324.113281 203.371094 323.804688 208.101562 322.960938 C 206.871094 325.515625 205.734375 327.921875 204.582031 330.304688 C 202.046875 335.535156 199.992188 340.957031 198.855469 346.664062 C 198.28125 349.53125 197.550781 352.394531 198.320312 355.375 C 198.78125 357.144531 199.566406 358.722656 200.875 360.027344 C 202.875 362.027344 204.929688 363.949219 206.832031 366.027344 C 209.117188 368.527344 211.925781 370.179688 215 371.449219 C 220.515625 373.71875 226.222656 374.773438 232.179688 373.8125 C 235.65625 373.257812 239.058594 372.332031 242.363281 371.0625 C 246.476562 369.488281 250.414062 367.546875 253.816406 364.699219 C 259.003906 360.355469 263.828125 355.585938 268.152344 350.394531 C 276.222656 340.726562 282.851562 330.09375 288.367188 318.75 C 288.558594 318.34375 288.578125 317.828125 288.925781 317.558594 C 291.382812 320 293.84375 322.382812 296.246094 324.824219 C 297.378906 325.976562 298.589844 326.976562 299.992188 327.785156 C 305.605469 330.976562 311.5625 332.363281 317.980469 331.132812 C 321.859375 330.382812 325.183594 328.363281 328.453125 326.304688 C 335.214844 322.035156 340.65625 316.25 346.054688 310.480469 C 352.855469 303.253906 357.355469 294.621094 360.410156 285.21875 C 362.292969 279.429688 363.714844 273.507812 364.539062 267.472656 C 365.136719 263.144531 365.464844 258.800781 364.769531 254.457031 C 364.347656 251.707031 363.523438 249.054688 362.617188 246.417969 C 360.0625 239.015625 354.972656 234.289062 347.398438 232.210938 C 346.074219 231.84375 344.710938 232.289062 343.382812 232.078125 C 341.671875 231.808594 340 232.039062 338.347656 232.441406 C 331.796875 234.039062 326.089844 237.363281 320.667969 241.226562 C 317.519531 243.476562 314.847656 246.226562 312.136719 248.957031 C 311.347656 249.746094 311.347656 249.746094 310.925781 248.765625 C 309.082031 244.632812 306.851562 240.726562 304.449219 236.882812 C 300.933594 231.269531 296.804688 226.15625 292.132812 221.445312 C 291.539062 220.828125 290.921875 220.214844 290.632812 219.367188 C 288.019531 211.640625 284.101562 204.5625 279.890625 197.640625 C 277.605469 193.875 275.144531 190.203125 272.6875 186.527344 C 272.417969 186.125 272.398438 185.855469 272.667969 185.414062 C 273.992188 183.125 274.859375 180.644531 275.703125 178.164062 C 277.335938 173.300781 278.144531 168.28125 278.605469 163.207031 C 279.144531 157.402344 279.566406 151.59375 279.449219 145.769531 C 279.375 142.347656 279.144531 138.925781 278.816406 135.503906 C 278.835938 135.039062 278.855469 134.789062 279.394531 134.617188 Z M 273.339844 128.042969 C 271.957031 128.386719 271.070312 129.636719 270.285156 130.832031 C 270.109375 131.097656 270.128906 131.425781 270.167969 131.773438 C 270.820312 136.347656 271.109375 140.941406 271.226562 145.558594 C 271.398438 152.402344 270.820312 159.226562 270.09375 166.035156 C 270.074219 166.285156 269.976562 166.535156 269.898438 166.785156 C 269.6875 169.761719 269.09375 172.648438 268.265625 175.511719 C 267.265625 179.011719 266.191406 182.492188 264.328125 185.644531 C 264.152344 185.953125 264.230469 186.183594 264.402344 186.433594 C 264.710938 186.914062 265 187.414062 265.289062 187.894531 C 267 190.164062 268.515625 192.585938 270.015625 194.988281 C 273.089844 199.871094 276.03125 204.8125 278.527344 210.003906 C 280.066406 213.195312 281.332031 216.503906 282.5625 219.847656 C 283.660156 222.867188 284.984375 225.828125 285.984375 228.886719 C 286.847656 231.519531 287.734375 234.152344 288.445312 236.84375 C 289.078125 239.246094 289.210938 241.765625 289.480469 244.226562 C 289.828125 247.4375 290.230469 250.648438 290.347656 253.859375 C 290.519531 257.917969 290.769531 261.992188 290.558594 266.050781 C 290.441406 268.453125 290.441406 270.855469 290.289062 273.238281 C 290.039062 276.96875 289.75 280.699219 289.347656 284.410156 C 288.886719 288.699219 288.308594 292.964844 287.558594 297.214844 C 287.347656 298.445312 287.097656 299.65625 286.867188 300.886719 C 286.828125 301.078125 286.792969 301.273438 286.773438 301.464844 C 286.675781 302.503906 287.078125 303.136719 287.90625 303.273438 C 288.75 303.40625 289.386719 302.945312 289.578125 301.945312 C 290 299.714844 290.441406 297.503906 290.769531 295.253906 C 291.324219 291.503906 291.84375 287.738281 292.269531 283.96875 C 292.613281 280.910156 292.882812 277.855469 293.054688 274.796875 C 293.304688 270.296875 293.515625 265.78125 293.441406 261.261719 C 293.34375 255.78125 293.015625 250.339844 292.382812 244.902344 C 291.769531 239.613281 291.152344 234.308594 290.039062 229.097656 C 290 228.921875 290.039062 228.730469 290.039062 228.421875 C 290.960938 229.191406 291.519531 230.132812 292.132812 231 C 295.574219 235.789062 298.78125 240.726562 301.375 246.035156 C 303.242188 249.824219 304.757812 253.78125 306.085938 257.78125 C 306.488281 259.011719 307.351562 259.820312 308.101562 260.742188 C 308.8125 261.453125 309.390625 261.28125 310.042969 260.589844 C 310.886719 259.703125 311.753906 258.839844 312.425781 257.820312 C 314.847656 254.109375 318.113281 251.265625 321.707031 248.746094 C 325.261719 246.246094 329.007812 244.152344 333.007812 242.441406 C 335.734375 241.265625 338.539062 240.34375 341.519531 240.226562 C 344.746094 240.09375 347.589844 241.285156 350.207031 243.113281 C 352.835938 244.957031 354.125 247.765625 355.433594 250.554688 C 356.335938 252.496094 356.699219 254.570312 356.71875 256.707031 C 357.085938 259.1875 356.777344 261.664062 356.644531 264.144531 C 355.96875 271.355469 354.355469 278.355469 352.125 285.21875 C 349.109375 294.484375 344.613281 302.925781 338.058594 310.191406 C 335.542969 312.980469 332.527344 315.210938 329.433594 317.328125 C 326.742188 319.171875 323.976562 320.921875 320.882812 322.015625 C 315.15625 324.015625 309.503906 323.613281 303.933594 321.421875 C 302.296875 320.769531 300.742188 319.960938 299.222656 319.058594 C 296.339844 317.34375 295.363281 314.519531 294.84375 311.460938 C 294.765625 311.019531 294.746094 310.558594 294.785156 310.117188 C 294.957031 308.230469 294.246094 306.769531 292.710938 305.695312 C 292.230469 305.269531 291.730469 305.175781 291.039062 305.269531 C 289.886719 305.464844 288.695312 305.464844 287.503906 305.503906 C 287.023438 305.519531 286.65625 305.675781 286.292969 305.964844 C 284.886719 307.058594 284.0625 308.519531 283.484375 310.191406 C 282.582031 312.847656 281.546875 315.460938 280.316406 318 C 278.96875 321.019531 277.507812 323.960938 275.875 326.824219 C 271.820312 333.859375 267.460938 340.726562 262.480469 347.164062 C 259.542969 350.972656 256.449219 354.625 252.46875 357.414062 C 247.972656 360.566406 243.035156 362.777344 237.769531 364.257812 C 234.617188 365.140625 231.429688 365.777344 228.144531 365.835938 C 226.125 365.890625 224.144531 365.71875 222.167969 365.296875 C 219.207031 364.738281 216.363281 363.835938 213.652344 362.527344 C 211.519531 361.433594 209.214844 360.585938 207.832031 358.433594 C 207.65625 358.164062 207.542969 357.875 207.40625 357.585938 C 206.082031 355.144531 206.042969 352.550781 206.464844 349.875 C 207.390625 343.898438 209.214844 338.1875 211.675781 332.667969 C 214.632812 326.035156 217.917969 319.554688 221.859375 313.441406 C 222.339844 312.691406 222.433594 312.097656 221.6875 311.519531 C 221.609375 311.460938 221.550781 311.386719 221.492188 311.308594 C 220.128906 309.808594 220.089844 309.789062 218.398438 310.769531 C 214.613281 312.980469 210.503906 314.230469 206.214844 314.921875 C 201.796875 315.632812 197.320312 316.113281 192.859375 316.210938 C 185.328125 316.363281 177.96875 315.152344 170.992188 312.117188 C 169.761719 311.578125 168.515625 311.097656 167.417969 310.289062 C 167.015625 310.058594 166.707031 310.097656 166.34375 310.425781 C 165.59375 311.097656 164.863281 311.769531 164.304688 312.617188 C 169.398438 319.421875 173.835938 326.613281 177.738281 334.148438 C 180.503906 339.476562 182.582031 345.050781 183.847656 350.953125 C 184.484375 353.933594 184.195312 356.703125 182.617188 359.335938 C 182.0625 360.277344 181.195312 360.757812 180.3125 361.277344 C 178.527344 362.429688 176.605469 363.375 174.585938 364.066406 C 171.722656 365.179688 168.746094 365.910156 165.6875 366.21875 C 162.863281 366.777344 160.039062 366.546875 157.234375 366.066406 C 154.582031 365.757812 152.007812 365.140625 149.46875 364.390625 C 142.535156 362.335938 136.132812 359.277344 130.464844 354.703125 C 125.566406 350.761719 121.570312 345.972656 117.648438 341.128906 C 113.09375 335.515625 108.808594 329.6875 104.871094 323.613281 C 103.601562 321.652344 102.332031 319.710938 101.3125 317.59375 C 99.257812 314.347656 97.664062 310.867188 96.085938 307.367188 C 95.53125 306.136719 94.53125 305.289062 93.511719 304.445312 C 93.300781 304.273438 93.089844 304.328125 92.878906 304.367188 C 89.226562 305.039062 85.5 304.964844 81.808594 305.269531 C 81.136719 305.328125 80.484375 305.425781 79.867188 305.675781 C 79.851562 305.734375 79.832031 305.808594 79.792969 305.847656 C 77.929688 307.078125 77.890625 308.980469 77.699219 310.960938 C 77.371094 314.597656 75.890625 317.558594 72.433594 319.421875 C 68.28125 321.652344 63.917969 323.015625 59.25 323.09375 C 55.945312 323.152344 52.695312 322.460938 49.679688 320.960938 C 45.144531 318.710938 41.03125 315.863281 37.207031 312.578125 C 32.980469 308.945312 29.847656 304.425781 27.003906 299.695312 C 23.046875 293.121094 20.472656 285.96875 18.570312 278.546875 C 17.359375 273.835938 16.359375 269.066406 15.957031 264.203125 C 15.570312 259.761719 15.246094 255.28125 16.859375 251.015625 C 18.585938 246.417969 21.183594 242.554688 26.140625 240.785156 C 29.617188 239.535156 33 239.882812 36.382812 240.996094 C 43.433594 243.324219 49.621094 247.167969 55.292969 251.917969 C 55.464844 252.050781 55.617188 252.226562 55.789062 252.359375 C 57.117188 253.53125 57.117188 253.53125 58.5 252.589844 C 59.613281 251.457031 60.304688 250.089844 60.921875 248.628906 C 62.59375 244.632812 64.785156 240.921875 67.070312 237.230469 C 70.625 231.480469 74.835938 226.269531 79.542969 221.445312 C 81.503906 219.425781 83.480469 217.40625 85.691406 215.65625 C 85.941406 215.464844 86.152344 215.214844 86.613281 215.136719 C 86.191406 216.578125 85.789062 217.984375 85.382812 219.367188 C 83.578125 225.636719 82.308594 232 81.347656 238.441406 C 80.386719 244.84375 79.8125 251.265625 79.734375 257.722656 C 79.675781 263.300781 79.925781 268.855469 80.578125 274.394531 C 81.484375 282.160156 83.078125 289.753906 85.789062 297.101562 C 85.882812 297.332031 85.941406 297.582031 86.054688 297.8125 C 86.460938 298.714844 87.171875 299.0625 87.976562 298.753906 C 88.765625 298.445312 89.054688 297.675781 88.707031 296.753906 C 87.726562 294.121094 86.863281 291.449219 86.152344 288.738281 C 84.921875 284.046875 84.078125 279.277344 83.460938 274.453125 C 82.90625 269.972656 82.636719 265.472656 82.617188 260.953125 C 82.578125 254.917969 82.828125 248.878906 83.636719 242.863281 C 84.367188 237.480469 85.078125 232.09375 86.441406 226.847656 C 87.132812 224.175781 88.265625 221.617188 89.285156 219.039062 C 91.570312 213.273438 93.742188 207.464844 96.703125 201.988281 C 98.914062 197.910156 101.21875 193.894531 103.871094 190.066406 C 104.121094 189.546875 103.832031 189.183594 103.5625 188.777344 C 103.253906 188.335938 103.003906 187.875 102.71875 187.433594 C 101.066406 185.414062 100.085938 183.066406 99.179688 180.664062 C 96.816406 174.511719 95.78125 168.089844 95.203125 161.554688 C 94.839844 157.246094 94.628906 152.921875 94.492188 148.613281 C 94.378906 145.039062 94.628906 141.460938 95.011719 137.90625 C 95.050781 137.5 95.011719 137.097656 94.78125 136.808594 C 93.820312 135.65625 92.859375 134.539062 91.320312 134.058594 C 86.441406 132.523438 81.984375 130.042969 77.621094 127.40625 C 72.664062 124.410156 67.898438 121.121094 63.417969 117.429688 C 58.441406 113.335938 54.292969 108.46875 50.3125 103.433594 C 45.316406 97.125 41.011719 90.339844 37.015625 83.359375 C 34.019531 78.09375 31.328125 72.691406 29.078125 67.054688 C 24.890625 56.539062 21.949219 45.695312 20.644531 34.429688 C 19.835938 27.46875 19.144531 20.488281 18.933594 13.472656 C 18.914062 12.644531 18.703125 11.820312 18.800781 10.992188 C 18.820312 10.914062 18.855469 10.820312 18.933594 10.625 C 19.933594 11.570312 20.855469 12.472656 21.816406 13.335938 C 28.214844 19.144531 35.269531 24.085938 42.472656 28.796875 C 50.96875 34.351562 59.652344 39.582031 68.070312 45.253906 C 68.414062 45.484375 68.742188 45.714844 68.972656 46.15625 C 71.144531 50.289062 71.933594 54.847656 73.085938 59.269531 C 74.507812 64.769531 75.851562 70.285156 77.773438 75.632812 C 77.851562 75.863281 77.945312 76.074219 77.832031 76.363281 C 77.292969 77.726562 77.21875 79.167969 77.199219 80.609375 C 77.179688 83.878906 77.101562 87.148438 77.371094 90.398438 C 77.929688 96.914062 79.8125 102.855469 84.578125 107.605469 C 84.730469 107.757812 84.882812 107.929688 85.058594 108.066406 C 85.558594 108.46875 86.074219 108.507812 86.519531 108.027344 C 86.960938 107.566406 86.902344 107.027344 86.460938 106.566406 C 85.480469 105.546875 84.558594 104.488281 83.730469 103.355469 C 81.308594 99.992188 80.195312 96.164062 79.65625 92.128906 C 79.15625 88.261719 79.214844 84.398438 79.273438 80.535156 C 79.273438 80.398438 79.292969 80.246094 79.3125 79.839844 C 80.464844 82.4375 81.558594 84.761719 82.90625 86.976562 C 84.421875 89.472656 86.171875 91.800781 88.265625 93.839844 C 88.652344 94.203125 89.035156 94.550781 89.613281 94.339844 C 90.398438 94.050781 90.554688 93.164062 89.84375 92.492188 C 86.304688 89.070312 83.867188 84.917969 81.90625 80.476562 C 79.351562 74.652344 77.5625 68.535156 76.007812 62.382812 C 74.835938 57.710938 73.71875 53.039062 72.316406 48.425781 C 72.277344 48.386719 72.222656 48.308594 72.222656 48.292969 C 72.296875 48.175781 72.355469 48.253906 72.433594 48.308594 C 74.757812 49.734375 76.910156 51.386719 79.101562 53 C 84.367188 56.925781 89.515625 60.980469 94.050781 65.789062 C 96.585938 68.480469 98.875 71.34375 100.449219 74.726562 C 100.796875 75.476562 101.082031 76.246094 101.21875 77.074219 C 101.3125 77.765625 101.660156 78.359375 102.449219 78.246094 C 103.273438 78.128906 103.410156 77.476562 103.292969 76.785156 C 102.929688 74.632812 101.910156 72.746094 100.757812 70.921875 C 97.683594 66.074219 93.628906 62.132812 89.324219 58.421875 C 78.90625 49.503906 67.378906 42.15625 55.847656 34.832031 C 47.644531 29.621094 39.359375 24.507812 31.578125 18.644531 C 27.871094 15.855469 24.277344 12.894531 20.988281 9.609375 C 20.738281 9.359375 20.433594 9.183594 20.316406 8.800781 C 20.738281 8.492188 21.238281 8.550781 21.699219 8.570312 C 32.40625 9.164062 43.128906 9.550781 53.675781 11.644531 C 59.171875 12.742188 64.554688 14.300781 69.894531 16.011719 C 77.984375 18.585938 85.921875 21.507812 93.78125 24.699219 C 99.949219 27.179688 105.753906 30.332031 111.324219 33.949219 C 114.113281 35.753906 116.917969 37.542969 119.378906 39.832031 C 120.144531 40.542969 120.683594 41.40625 121.335938 42.175781 C 123.125 44.273438 123.125 44.351562 125.605469 43.425781 C 135.636719 39.640625 146.128906 37.792969 156.636719 36.082031 C 163.535156 34.96875 170.453125 34.140625 177.449219 34.3125 C 178.082031 34.273438 178.71875 34.238281 179.351562 34.21875 C 185.136719 34.023438 190.902344 34.273438 196.667969 34.390625 C 200.566406 34.5625 204.449219 34.949219 208.3125 35.523438 C 214.902344 36.484375 221.4375 37.714844 227.929688 39.140625 C 231.910156 40.003906 235.789062 41.140625 239.613281 42.542969 C 239.863281 42.636719 240.074219 42.792969 240.421875 42.601562 C 242.574219 41.390625 244.9375 40.640625 247.242188 39.753906 C 257.714844 35.773438 268.4375 32.8125 279.625 31.601562 C 287.925781 30.699219 296.226562 29.832031 304.585938 29.488281 C 307.910156 29.351562 311.234375 29.007812 314.558594 29.027344 C 317.941406 29.046875 321.34375 29.277344 324.722656 29.601562 C 334.042969 30.46875 343.230469 32.121094 352.394531 34.179688 C 351.300781 34.371094 350.207031 34.582031 349.089844 34.738281 C 328.472656 37.582031 309.042969 43.984375 290.960938 54.347656 C 282.179688 59.367188 273.878906 65.039062 266.460938 71.957031 C 264.5 73.804688 262.578125 75.6875 260.847656 77.765625 C 260.40625 78.285156 260.082031 78.84375 260.675781 79.457031 C 261.15625 79.957031 261.828125 79.859375 262.40625 79.1875 C 271.035156 69.304688 281.699219 62.058594 292.980469 55.617188 C 293.09375 55.558594 293.210938 55.519531 293.324219 55.480469 C 293.421875 55.367188 293.535156 55.25 293.671875 55.40625 C 293.691406 55.425781 293.554688 55.558594 293.496094 55.65625 C 289.097656 62.691406 287.117188 70.652344 284.734375 78.457031 C 283.179688 83.550781 281.949219 88.761719 279.46875 93.53125 C 278.203125 95.992188 276.722656 98.300781 274.742188 100.261719 C 274.261719 100.742188 273.878906 101.296875 274.472656 101.933594 C 275.089844 102.585938 275.703125 102.296875 276.222656 101.777344 C 278.699219 99.261719 280.527344 96.320312 282.027344 93.128906 C 282.523438 92.070312 282.96875 90.972656 283.484375 89.761719 C 283.964844 91.242188 284.003906 92.683594 284.101562 94.070312 C 284.351562 98.28125 284.371094 102.507812 283.253906 106.644531 C 282.449219 109.625 281.179688 112.355469 278.738281 114.371094 C 278.257812 114.777344 278.183594 115.3125 278.566406 115.832031 C 278.96875 116.351562 279.488281 116.351562 280.007812 116.027344 C 280.738281 115.546875 281.3125 114.890625 281.851562 114.21875 C 284.195312 111.316406 285.3125 107.929688 285.867188 104.296875 C 286.347656 101.222656 286.484375 98.125 286.273438 95.03125 C 286.136719 93.109375 285.945312 91.203125 285.636719 89.320312 C 285.5625 88.761719 285.292969 88.242188 284.621094 88.222656 C 284.0625 88.222656 284.082031 87.957031 284.214844 87.550781 C 286.578125 80.035156 288.480469 72.382812 291.289062 65 C 292.210938 62.539062 293.210938 60.117188 294.613281 57.886719 C 295.148438 57.039062 295.746094 56.25 296.515625 55.597656 C 296.957031 55.210938 297.265625 54.710938 296.859375 54.175781 C 296.496094 53.65625 296.785156 53.558594 297.167969 53.367188 C 300.394531 51.675781 303.683594 50.097656 307.027344 48.65625 C 316.308594 44.636719 325.839844 41.445312 335.734375 39.3125 C 341 38.179688 346.304688 37.273438 351.644531 36.503906 C 353.605469 36.21875 355.566406 36.023438 357.527344 35.679688 C 358.257812 35.542969 358.257812 35.734375 358.160156 36.332031 C 357.296875 41.351562 356.046875 46.292969 354.605469 51.175781 C 353.144531 56.117188 351.511719 61 349.4375 65.730469 C 347.535156 70.015625 345.246094 74.074219 342.769531 78.035156 C 338.195312 85.320312 332.582031 91.761719 326.664062 97.933594 C 319.824219 105.046875 312.292969 111.355469 303.777344 116.371094 C 299.28125 119.023438 294.476562 121.082031 289.558594 122.832031 C 284.175781 124.792969 278.835938 126.65625 273.339844 128.042969 Z M 273.339844 128.042969 " fill-opacity="1" fill-rule="nonzero"/></g><path fill="#703a44" d="M 151.71875 97.875 C 150.875 94.144531 149.488281 90.648438 146.742188 87.878906 C 143.496094 84.609375 139.496094 84.359375 135.882812 87.1875 C 134.078125 88.609375 132.847656 90.472656 131.90625 92.511719 C 129.503906 97.722656 128.984375 103.222656 129.753906 108.835938 C 130.3125 112.910156 131.597656 116.757812 134.289062 119.988281 C 137.539062 123.890625 142.167969 124.8125 146.164062 121.410156 C 147.222656 120.503906 148.085938 119.449219 148.816406 118.273438 C 151.429688 114.027344 152.371094 109.355469 152.390625 104.433594 C 152.390625 102.242188 152.199219 100.046875 151.71875 97.875 Z M 138.019531 102.816406 C 134.980469 102.835938 132.40625 100.28125 132.367188 97.222656 C 132.328125 94.183594 134.90625 91.609375 137.960938 91.589844 C 141.035156 91.570312 143.570312 94.109375 143.589844 97.183594 C 143.609375 100.261719 141.09375 102.816406 138.019531 102.816406 Z M 138.019531 102.816406 " fill-opacity="1" fill-rule="nonzero"/><path fill="#703a44" d="M 238.210938 87.878906 C 234.964844 84.609375 230.949219 84.359375 227.355469 87.1875 C 225.546875 88.609375 224.300781 90.453125 223.375 92.511719 C 220.550781 98.835938 220.226562 105.375 221.878906 112.027344 C 222.703125 115.371094 224.125 118.429688 226.585938 120.910156 C 229.8125 124.121094 233.773438 124.351562 237.386719 121.601562 C 238.578125 120.699219 239.5 119.542969 240.269531 118.292969 C 242.882812 114.046875 243.824219 109.375 243.84375 104.453125 C 243.84375 102.257812 243.6875 100.105469 243.207031 97.972656 C 242.34375 94.203125 240.980469 90.683594 238.210938 87.878906 Z M 229.371094 102.777344 C 226.296875 102.722656 223.855469 100.222656 223.875 97.164062 C 223.894531 94.070312 226.453125 91.550781 229.527344 91.589844 C 232.621094 91.628906 235.15625 94.222656 235.078125 97.28125 C 234.984375 100.433594 232.484375 102.835938 229.371094 102.777344 Z M 229.371094 102.777344 " fill-opacity="1" fill-rule="nonzero"/><path fill="#703a44" d="M 220.628906 159.804688 C 217.976562 161.957031 215.132812 163.785156 211.960938 165.035156 C 205.179688 167.6875 198.125 169.070312 190.84375 169.265625 C 189.480469 169.300781 189.402344 169.265625 189.421875 167.917969 C 189.460938 165.707031 189.554688 163.496094 189.574219 161.285156 C 189.574219 160.765625 189.765625 160.554688 190.246094 160.457031 C 191.191406 160.265625 192.074219 159.84375 192.878906 159.34375 C 197.839844 156.246094 202.277344 152.574219 205.8125 147.882812 C 206.371094 147.152344 206.832031 146.363281 206.832031 145.441406 C 206.773438 140.617188 205.351562 138.347656 201.507812 137.117188 C 192.476562 134.195312 183.425781 133.773438 174.277344 136.867188 C 170.378906 138.195312 168.070312 140.5 167.589844 144.597656 C 167.589844 144.632812 167.574219 144.652344 167.574219 144.691406 C 167.398438 145.382812 167.535156 146.019531 167.917969 146.613281 C 169.570312 149.171875 171.300781 151.691406 173.625 153.691406 C 176.929688 156.535156 180.140625 159.496094 184.578125 160.535156 C 185.039062 160.648438 185 160.917969 185 161.246094 C 184.984375 163.648438 184.945312 166.054688 184.984375 168.457031 C 184.984375 169.148438 184.714844 169.320312 184.078125 169.300781 C 182.292969 169.246094 180.503906 169.265625 178.71875 169.070312 C 173.355469 168.515625 168.109375 167.457031 163.019531 165.648438 C 159.214844 164.285156 155.792969 162.265625 152.679688 159.6875 C 151.855469 159.015625 150.929688 158.863281 150.007812 159.34375 C 149.164062 159.765625 148.835938 160.535156 148.894531 161.496094 C 148.953125 162.574219 149.71875 163.128906 150.414062 163.707031 C 153.179688 166.035156 156.253906 167.820312 159.578125 169.246094 C 161.421875 170.03125 163.382812 170.511719 165.246094 171.28125 C 165.535156 171.320312 165.824219 171.339844 166.09375 171.417969 C 172.203125 172.992188 178.410156 173.992188 184.753906 173.839844 C 185.367188 173.820312 185.597656 173.972656 185.597656 174.628906 C 185.597656 177.914062 185.675781 181.222656 185.730469 184.511719 C 185.886719 193.125 185.90625 201.738281 185.980469 210.351562 C 185.980469 210.660156 186 211.003906 186.097656 211.292969 C 186.269531 211.851562 186.691406 212.121094 187.269531 212.101562 C 187.847656 212.082031 188.25 211.773438 188.402344 211.234375 C 188.480469 210.925781 188.480469 210.601562 188.480469 210.292969 C 188.421875 206.679688 188.421875 203.0625 188.34375 199.449219 C 188.171875 191.257812 188.171875 183.050781 188.078125 174.859375 C 188.078125 174.070312 188.25 173.800781 189.074219 173.839844 C 191.863281 173.972656 194.628906 173.742188 197.394531 173.378906 C 201.546875 172.839844 205.621094 171.957031 209.65625 170.820312 C 210.039062 170.6875 210.425781 170.53125 210.828125 170.398438 C 215.554688 168.820312 219.898438 166.554688 223.625 163.226562 C 224.78125 162.1875 224.933594 160.804688 224.089844 159.84375 C 223.164062 158.824219 221.859375 158.824219 220.628906 159.804688 Z M 220.628906 159.804688 " fill-opacity="1" fill-rule="nonzero"/><path fill="#da828f" d="M 356.777344 256.726562 C 355.507812 255.511719 354.085938 254.707031 352.261719 254.761719 C 349.898438 254.839844 347.878906 256.320312 347.09375 258.648438 C 346.34375 260.859375 347.128906 263.300781 349.109375 264.894531 C 350.761719 266.222656 353.472656 266.355469 355.335938 265.183594 C 355.816406 264.875 356.257812 264.511719 356.738281 264.183594 C 356.835938 261.703125 357.140625 259.222656 356.777344 256.726562 Z M 356.777344 256.726562 " fill-opacity="1" fill-rule="nonzero"/><path fill="#da828f" d="M 197.359375 173.378906 C 194.589844 173.742188 191.824219 173.972656 189.039062 173.839844 C 188.210938 173.800781 188.039062 174.070312 188.039062 174.859375 C 188.132812 183.050781 188.132812 191.257812 188.308594 199.449219 C 188.382812 203.0625 188.382812 206.679688 188.441406 210.292969 C 188.441406 210.621094 188.460938 210.945312 188.363281 211.234375 C 188.210938 211.773438 187.808594 212.101562 187.230469 212.101562 C 186.65625 212.121094 186.230469 211.832031 186.058594 211.292969 C 185.960938 211.003906 185.945312 210.660156 185.945312 210.351562 C 185.867188 201.738281 185.847656 193.125 185.695312 184.511719 C 185.636719 181.222656 185.558594 177.914062 185.558594 174.628906 C 185.558594 173.972656 185.328125 173.820312 184.714844 173.839844 C 178.371094 173.992188 172.183594 172.992188 166.054688 171.417969 C 165.785156 171.339844 165.476562 171.320312 165.207031 171.28125 C 165.191406 171.667969 165.132812 172.050781 165.132812 172.417969 C 165.152344 175.648438 165.246094 178.878906 165.515625 182.085938 C 165.863281 186.222656 166.4375 190.335938 167.496094 194.355469 C 168.957031 199.816406 171.28125 204.8125 175.625 208.640625 C 177.777344 210.523438 180.234375 211.832031 183.082031 212.332031 C 185.25 212.714844 187.421875 212.40625 189.59375 212.503906 C 192.015625 212.601562 194.246094 211.792969 196.320312 210.601562 C 200.488281 208.214844 203.160156 204.503906 205.121094 200.238281 C 207.640625 194.757812 208.523438 188.894531 209.136719 182.992188 C 209.542969 178.953125 209.617188 174.878906 209.578125 170.820312 C 205.582031 171.957031 201.507812 172.839844 197.359375 173.378906 Z M 197.359375 173.378906 " fill-opacity="1" fill-rule="nonzero"/><path fill="#da828f" d="M 57.328125 292.660156 C 50.949219 292.679688 45.894531 297.5625 45.933594 304.039062 C 45.972656 310.480469 50.910156 315.289062 57.230469 315.328125 C 63.4375 315.363281 68.628906 310.636719 68.648438 303.964844 C 68.628906 297.523438 63.476562 292.734375 57.328125 292.660156 Z M 57.328125 292.660156 " fill-opacity="1" fill-rule="nonzero"/><path fill="#da828f" d="M 39.898438 247.957031 C 36.363281 247.957031 33.289062 250.976562 33.382812 254.53125 C 33.480469 258.148438 35.960938 261.070312 39.898438 261.070312 C 43.855469 261.070312 46.257812 258.128906 46.433594 254.53125 C 46.433594 250.976562 43.433594 247.957031 39.898438 247.957031 Z M 39.898438 247.957031 " fill-opacity="1" fill-rule="nonzero"/><path fill="#da828f" d="M 23.507812 255.226562 C 20.472656 255.207031 18.011719 257.707031 17.992188 260.683594 C 17.972656 263.78125 20.488281 266.355469 23.566406 266.28125 C 26.832031 266.203125 29.15625 263.550781 28.984375 260.761719 C 29.15625 257.878906 26.714844 255.246094 23.507812 255.226562 Z M 23.507812 255.226562 " fill-opacity="1" fill-rule="nonzero"/><path fill="#da828f" d="M 53.867188 271.261719 C 56.578125 271.242188 58.519531 268.992188 58.367188 266.761719 C 58.578125 264.144531 56.269531 262.128906 53.925781 262.109375 C 51.371094 262.089844 49.316406 264.070312 49.296875 266.605469 C 49.296875 269.222656 51.273438 271.277344 53.867188 271.261719 Z M 53.867188 271.261719 " fill-opacity="1" fill-rule="nonzero"/><path fill="#da828f" d="M 318.691406 292.179688 C 312.117188 292.179688 307.351562 297.195312 307.238281 303.539062 C 307.121094 309.808594 312.308594 314.980469 318.59375 315 C 324.9375 315.019531 330.085938 309.960938 330.046875 303.65625 C 330.007812 297.292969 325.167969 292.199219 318.691406 292.179688 Z M 318.691406 292.179688 " fill-opacity="1" fill-rule="nonzero"/><path fill="#da828f" d="M 336.003906 247.515625 C 332.410156 247.535156 329.453125 250.515625 329.453125 254.148438 C 329.453125 257.820312 332.332031 260.742188 335.984375 260.761719 C 339.617188 260.78125 342.578125 257.839844 342.59375 254.207031 C 342.613281 250.515625 339.636719 247.496094 336.003906 247.515625 Z M 336.003906 247.515625 " fill-opacity="1" fill-rule="nonzero"/><path fill="#da828f" d="M 322.054688 270.953125 C 324.648438 270.953125 326.761719 268.855469 326.761719 266.261719 C 326.761719 263.78125 324.609375 261.683594 322.054688 261.703125 C 319.515625 261.703125 317.363281 263.839844 317.402344 266.320312 C 317.441406 268.894531 319.515625 270.953125 322.054688 270.953125 Z M 322.054688 270.953125 " fill-opacity="1" fill-rule="nonzero"/><path fill="#fef9ea" d="M 259.371094 323.460938 C 256.007812 324.015625 252.605469 324.421875 249.222656 324.496094 C 245.667969 324.574219 242.210938 323.921875 239.289062 321.5 C 235.578125 318.421875 232.792969 314.75 231.121094 310.25 C 230.449219 308.445312 230.082031 306.558594 230.140625 304.617188 C 229.179688 305.597656 228.621094 306.886719 227.605469 307.828125 C 226.488281 308.867188 225.222656 309.078125 224.164062 308.289062 C 222.898438 307.347656 222.550781 306.058594 223.300781 304.675781 C 224.203125 303.023438 225.433594 301.578125 226.527344 300.0625 C 230.027344 295.234375 233.542969 290.429688 237.039062 285.601562 C 239.191406 282.640625 241.285156 279.625 243.457031 276.664062 C 244.09375 275.796875 245.054688 275.21875 246.207031 275.453125 C 247.417969 275.683594 248.433594 276.757812 248.570312 277.929688 C 248.664062 278.699219 248.242188 279.355469 247.839844 279.949219 C 245.800781 283.046875 243.59375 286.007812 241.421875 288.988281 C 239.671875 291.410156 237.90625 293.832031 236.15625 296.273438 C 236.039062 296.425781 235.714844 296.601562 235.925781 296.90625 C 241.59375 293.621094 247.667969 291.082031 253.199219 287.542969 C 255.449219 286.101562 257.46875 284.390625 259.371094 282.527344 C 264.019531 277.988281 268.496094 273.296875 272.339844 268.050781 C 273.242188 266.820312 274.050781 265.492188 274.839844 264.183594 C 276.546875 261.359375 276.394531 258.453125 274.933594 255.609375 C 273.648438 253.089844 272.089844 250.785156 269.84375 248.976562 C 267.59375 247.1875 266.363281 247.1875 264.136719 249.167969 C 262.617188 250.535156 261.117188 251.9375 259.601562 253.300781 C 259.214844 253.648438 258.8125 253.957031 258.371094 254.226562 C 257.660156 254.6875 256.851562 254.800781 256.101562 254.378906 C 255.316406 253.9375 255.085938 253.167969 255.140625 252.320312 C 255.277344 250.589844 255.757812 248.9375 256.21875 247.285156 C 257.792969 241.535156 259.617188 235.84375 260.984375 230.039062 C 261.925781 226.078125 262.714844 222.078125 263.078125 218.003906 C 263.25 216.117188 263.347656 214.234375 263.328125 212.371094 C 263.308594 209.121094 263.191406 205.871094 262.886719 202.621094 C 262.675781 200.277344 262.5 197.929688 262.25 195.585938 C 262.195312 194.949219 262.117188 194.316406 262.039062 193.679688 C 260.675781 195.238281 259.503906 196.929688 258.140625 198.507812 C 255.988281 201.007812 253.679688 203.332031 251.261719 205.5625 C 248.03125 208.523438 244.59375 211.214844 241.054688 213.773438 C 236.328125 217.195312 231.390625 220.328125 226.394531 223.347656 C 223.320312 225.210938 219.878906 225.90625 216.535156 226.90625 C 211.230469 228.5 205.8125 229.652344 200.375 230.769531 C 200.222656 230.808594 200.105469 230.902344 199.953125 230.960938 C 202.375 234.25 203.679688 237.960938 203.757812 242.015625 C 203.851562 246.363281 202.625 250.359375 199.992188 253.839844 C 197.164062 257.589844 193.457031 260.070312 188.863281 261.222656 C 188.019531 261.433594 187.828125 261.242188 187.808594 260.398438 C 187.730469 257.707031 187.578125 255.03125 187.652344 252.339844 C 187.691406 250.976562 187.789062 249.589844 187.828125 248.226562 C 187.847656 247.824219 188.078125 247.59375 188.289062 247.324219 C 189.402344 245.824219 189.535156 244.1875 188.808594 242.515625 C 188.058594 240.804688 186.578125 239.960938 184.789062 239.863281 C 183.328125 239.785156 181.390625 240.613281 180.542969 242.457031 C 179.773438 244.152344 179.949219 246.285156 181.195312 247.4375 C 182.0625 248.246094 182.3125 249.09375 182.273438 250.226562 C 182.195312 252.820312 182.273438 255.417969 182.234375 258.011719 C 182.234375 258.992188 182.121094 259.992188 182.082031 260.972656 C 182.0625 261.648438 181.640625 261.550781 181.214844 261.472656 C 178.199219 260.859375 175.414062 259.722656 172.972656 257.839844 C 169.207031 254.9375 166.726562 251.207031 165.746094 246.554688 C 164.515625 240.691406 165.804688 235.382812 169.378906 230.597656 C 166.035156 230.019531 162.691406 229.347656 159.40625 228.441406 C 158.65625 228.230469 157.984375 227.886719 157.347656 227.441406 C 156.675781 226.980469 156.003906 226.710938 155.121094 226.808594 C 154.332031 226.90625 153.621094 226.347656 152.890625 226.058594 C 145.839844 223.308594 139.265625 219.617188 133.039062 215.367188 C 129.964844 213.253906 127.046875 210.964844 124.257812 208.464844 C 123.316406 207.621094 122.453125 206.679688 121.550781 205.792969 C 121.144531 207.679688 121.28125 209.621094 121.242188 211.523438 C 121.203125 213.617188 121.335938 215.734375 121.492188 217.828125 C 121.875 222.980469 123.007812 227.980469 124.296875 232.941406 C 125.625 238.054688 127.179688 243.132812 128.601562 248.226562 C 128.929688 249.359375 129.179688 250.515625 129.371094 251.667969 C 129.542969 252.667969 129.503906 253.726562 128.523438 254.339844 C 127.5625 254.957031 126.621094 254.628906 125.777344 253.976562 C 124.625 253.109375 123.566406 252.128906 122.546875 251.109375 C 121.472656 250.054688 120.359375 249.054688 119.089844 248.226562 C 117.9375 247.476562 116.820312 247.457031 115.707031 248.226562 C 112.941406 250.128906 111.039062 252.726562 109.597656 255.707031 C 109 256.957031 108.558594 258.242188 108.464844 259.628906 C 108.308594 261.898438 109.441406 263.761719 110.558594 265.589844 C 112.554688 268.835938 114.996094 271.742188 117.550781 274.566406 C 119.722656 276.96875 121.953125 279.296875 124.21875 281.605469 C 128.503906 285.988281 133.636719 289.101562 139.054688 291.851562 C 142.554688 293.640625 146.164062 295.214844 149.414062 297.464844 C 150.757812 298.386719 152.085938 299.3125 153.046875 300.675781 C 154.601562 302.90625 154.640625 305.328125 154.101562 307.828125 C 153.21875 312.019531 151.066406 315.519531 148.242188 318.652344 C 146.375 320.730469 144.226562 322.5 141.59375 323.554688 C 140.113281 324.152344 138.554688 324.265625 137 324.34375 C 132.308594 324.554688 127.679688 323.824219 123.066406 323.054688 C 118.226562 322.25 113.421875 321.191406 108.769531 319.632812 C 106.3125 318.824219 103.832031 318.152344 101.3125 317.613281 C 102.332031 319.730469 103.601562 321.671875 104.871094 323.632812 C 108.808594 329.707031 113.09375 335.535156 117.648438 341.148438 C 121.570312 345.992188 125.566406 350.78125 130.464844 354.722656 C 136.152344 359.296875 142.554688 362.355469 149.472656 364.410156 C 152.027344 365.160156 154.601562 365.777344 157.234375 366.085938 C 157.082031 365.355469 156.445312 365.007812 155.984375 364.566406 C 150.988281 359.683594 148.066406 353.664062 146.203125 347.050781 C 145.820312 345.703125 146.414062 344.378906 147.550781 343.628906 C 149.105469 342.609375 150.949219 343.859375 151.449219 345.300781 C 151.929688 346.683594 152.296875 348.109375 152.832031 349.472656 C 154.292969 353.222656 156.253906 356.644531 158.964844 359.664062 C 160.921875 361.816406 163.152344 363.660156 165.304688 365.605469 C 165.496094 365.777344 165.6875 365.949219 165.707031 366.238281 C 168.765625 365.910156 171.742188 365.179688 174.605469 364.085938 C 174.585938 363.355469 174.507812 362.605469 174.546875 361.875 C 174.757812 357.777344 173.316406 354.144531 171.339844 350.703125 C 169.570312 347.628906 167.648438 344.648438 165.804688 341.628906 C 164.402344 339.320312 165.6875 337.667969 167.398438 337.167969 C 168.304688 336.898438 169.742188 337.4375 170.300781 338.398438 C 172.625 342.4375 175.433594 346.203125 177.449219 350.414062 C 179.007812 353.625 180.101562 356.972656 180.121094 360.605469 C 180.121094 360.855469 180.082031 361.125 180.332031 361.296875 C 181.214844 360.777344 182.0625 360.296875 182.636719 359.355469 C 184.214844 356.722656 184.503906 353.953125 183.867188 350.972656 C 182.601562 345.089844 180.542969 339.496094 177.757812 334.167969 C 173.835938 326.652344 169.398438 319.441406 164.324219 312.636719 C 163.132812 312.769531 162.632812 311.847656 162.078125 311.117188 C 159.597656 307.828125 157.195312 304.503906 154.753906 301.195312 C 150.183594 295.023438 145.570312 288.871094 141.378906 282.429688 C 140.917969 281.71875 140.457031 280.96875 140.09375 280.179688 C 139.421875 278.71875 139.976562 277.144531 141.378906 276.433594 C 142.648438 275.777344 144.089844 276.21875 144.917969 277.566406 C 149.335938 284.796875 154.503906 291.46875 159.519531 298.273438 C 162.019531 301.65625 164.632812 304.945312 166.917969 308.480469 C 167.285156 309.039062 167.398438 309.636719 167.4375 310.289062 C 168.535156 311.078125 169.78125 311.578125 171.011719 312.117188 C 177.988281 315.152344 185.328125 316.347656 192.878906 316.210938 C 197.359375 316.132812 201.816406 315.652344 206.234375 314.921875 C 210.519531 314.230469 214.632812 312.980469 218.417969 310.769531 C 220.109375 309.769531 220.148438 309.808594 221.511719 311.308594 C 221.570312 311.386719 221.628906 311.460938 221.707031 311.519531 C 222.453125 312.097656 222.359375 312.691406 221.878906 313.441406 C 217.9375 319.558594 214.652344 326.035156 211.695312 332.667969 C 209.234375 338.1875 207.40625 343.898438 206.484375 349.875 C 206.082031 352.550781 206.101562 355.144531 207.425781 357.585938 C 207.734375 357.183594 207.601562 356.722656 207.582031 356.296875 C 207.390625 349.433594 209.636719 343.261719 212.886719 337.359375 C 213.519531 336.207031 214.132812 335.054688 214.980469 334.054688 C 215.691406 333.207031 216.574219 332.496094 217.765625 332.746094 C 219.878906 333.148438 220.707031 335.554688 219.398438 337.417969 C 216.285156 341.78125 214.324219 346.628906 213.402344 351.894531 C 212.921875 354.605469 213.132812 357.355469 213.480469 360.085938 C 213.578125 360.894531 213.863281 361.699219 213.691406 362.546875 C 216.402344 363.855469 219.246094 364.738281 222.203125 365.316406 C 224.011719 361.449219 224.625 357.183594 226.257812 353.261719 C 227.316406 350.761719 228.355469 348.222656 230.277344 346.222656 C 231.8125 344.609375 234.386719 345.320312 234.984375 347.453125 C 235.214844 348.300781 234.886719 349.011719 234.445312 349.609375 C 231.601562 353.53125 230.371094 358.085938 229.121094 362.664062 C 228.835938 363.738281 228.238281 364.71875 228.160156 365.855469 C 231.449219 365.777344 234.636719 365.160156 237.789062 364.277344 C 243.054688 362.777344 247.992188 360.585938 252.488281 357.433594 C 256.488281 354.644531 259.5625 350.992188 262.5 347.183594 C 267.480469 340.746094 271.839844 333.898438 275.894531 326.84375 C 277.546875 323.996094 279.007812 321.039062 280.335938 318.019531 C 279.066406 318.230469 277.953125 318.921875 276.742188 319.324219 C 271.128906 321.230469 265.289062 322.5 259.371094 323.460938 Z M 259.371094 323.460938 " fill-opacity="1" fill-rule="nonzero"/><path fill="#fef9ea" d="M 102.71875 187.566406 C 103.003906 188.007812 103.253906 188.472656 103.5625 188.914062 C 103.832031 189.316406 104.140625 189.683594 103.871094 190.203125 C 105.003906 193.566406 107.695312 195.507812 110.367188 197.507812 C 113.804688 200.066406 117.457031 202.277344 121.203125 204.351562 C 121.335938 204.429688 121.453125 204.542969 121.585938 204.640625 C 122.953125 205.140625 124.183594 205.890625 125.46875 206.503906 C 131.214844 209.253906 137.191406 211.390625 143.320312 213.121094 C 148.816406 214.65625 154.390625 215.832031 160 216.714844 C 162.921875 217.175781 165.863281 217.484375 168.800781 217.753906 C 174.988281 218.328125 181.179688 218.40625 187.367188 218.273438 C 191.191406 218.195312 194.996094 217.964844 198.800781 217.578125 C 206.3125 216.8125 213.710938 215.425781 221.011719 213.503906 C 226.816406 211.964844 232.484375 210.003906 237.980469 207.5625 C 243.457031 205.121094 248.664062 202.21875 253.585938 198.796875 C 256.199219 196.96875 258.753906 195.066406 260.984375 192.738281 C 261.214844 192.488281 261.425781 192.179688 261.828125 192.144531 C 262.695312 191.066406 263.558594 189.96875 264.441406 188.914062 C 264.730469 188.566406 264.863281 188.125 265.308594 187.914062 C 265.019531 187.433594 264.730469 186.933594 264.402344 186.453125 C 264.230469 186.203125 264.152344 185.972656 264.328125 185.664062 C 266.191406 182.511719 267.265625 179.03125 268.265625 175.53125 C 269.09375 172.667969 269.6875 169.78125 269.898438 166.804688 C 269.398438 166.4375 269.304688 165.839844 269.015625 165.339844 C 268.652344 164.707031 268.304688 164.054688 267.726562 163.554688 C 266.09375 162.167969 264.460938 160.785156 262.828125 159.402344 C 258.773438 155.921875 254.546875 152.691406 250.164062 149.632812 C 243.785156 145.191406 237 141.40625 230.199219 137.65625 C 224.953125 134.753906 220.035156 131.425781 216.113281 126.753906 C 213.5 123.640625 211.308594 120.273438 209.542969 116.660156 C 207.484375 112.46875 206.003906 108.027344 204.8125 103.507812 C 202.488281 94.78125 201.046875 85.878906 199.992188 76.917969 C 199.53125 73.09375 199.183594 69.246094 198.835938 65.421875 C 198.472656 61.328125 198.164062 57.230469 197.875 53.117188 C 197.644531 49.675781 197.53125 46.234375 197.242188 42.792969 C 197.148438 41.582031 197.050781 40.371094 196.972656 39.179688 C 196.878906 37.621094 196.53125 36.082031 196.683594 34.523438 C 190.921875 34.410156 185.136719 34.160156 179.371094 34.351562 C 178.738281 34.371094 178.101562 34.410156 177.46875 34.449219 C 177.46875 34.640625 177.507812 34.832031 177.46875 35.023438 C 177.046875 38.3125 176.910156 41.640625 176.699219 44.945312 C 176.566406 46.945312 176.449219 48.964844 176.296875 50.964844 C 176.046875 54.710938 175.683594 58.460938 175.375 62.210938 C 175.164062 64.824219 175.046875 67.441406 174.757812 70.035156 C 174.277344 74.207031 173.855469 78.398438 173.28125 82.550781 C 172.453125 88.550781 171.398438 94.511719 169.957031 100.394531 C 168.246094 107.375 166.09375 114.179688 162.421875 120.410156 C 159.175781 125.910156 154.964844 130.503906 149.664062 134.097656 C 145.128906 137.15625 140.207031 139.578125 135.480469 142.328125 C 130.503906 145.230469 125.640625 148.289062 120.992188 151.671875 C 116.9375 154.632812 112.996094 157.726562 109.210938 161.015625 C 107.253906 162.726562 105.253906 164.339844 104.160156 166.898438 C 101.8125 172.417969 100.738281 178.011719 101.910156 183.972656 C 102.160156 185.144531 102.71875 186.296875 102.71875 187.566406 Z M 149.988281 159.34375 C 150.929688 158.863281 151.851562 159.015625 152.660156 159.6875 C 155.773438 162.265625 159.195312 164.285156 163 165.648438 C 168.089844 167.457031 173.335938 168.515625 178.699219 169.070312 C 180.484375 169.265625 182.273438 169.226562 184.058594 169.300781 C 184.695312 169.320312 184.964844 169.167969 184.964844 168.457031 C 184.945312 166.054688 184.984375 163.648438 184.984375 161.246094 C 184.984375 160.917969 185.019531 160.632812 184.558594 160.535156 C 180.140625 159.496094 176.910156 156.515625 173.605469 153.691406 C 171.28125 151.691406 169.550781 149.171875 167.898438 146.613281 C 167.515625 146.019531 167.378906 145.382812 167.554688 144.691406 C 167.554688 144.652344 167.574219 144.632812 167.574219 144.597656 C 168.054688 140.5 170.359375 138.195312 174.261719 136.867188 C 183.40625 133.773438 192.457031 134.195312 201.488281 137.117188 C 205.3125 138.347656 206.753906 140.636719 206.8125 145.441406 C 206.832031 146.363281 206.351562 147.152344 205.792969 147.882812 C 202.238281 152.574219 197.800781 156.246094 192.859375 159.34375 C 192.054688 159.84375 191.171875 160.265625 190.230469 160.457031 C 189.75 160.554688 189.554688 160.746094 189.554688 161.285156 C 189.535156 163.496094 189.441406 165.707031 189.402344 167.917969 C 189.382812 169.265625 189.460938 169.300781 190.824219 169.265625 C 198.105469 169.070312 205.160156 167.6875 211.941406 165.035156 C 215.132812 163.785156 217.957031 161.9375 220.609375 159.804688 C 221.839844 158.804688 223.144531 158.824219 224.03125 159.824219 C 224.875 160.785156 224.722656 162.167969 223.570312 163.207031 C 219.839844 166.554688 215.5 168.820312 210.769531 170.378906 C 210.386719 170.511719 209.984375 170.667969 209.597656 170.800781 C 209.636719 174.859375 209.558594 178.933594 209.15625 182.972656 C 208.5625 188.894531 207.65625 194.757812 205.140625 200.21875 C 203.179688 204.488281 200.507812 208.179688 196.339844 210.582031 C 194.265625 211.773438 192.035156 212.582031 189.613281 212.484375 C 187.441406 212.386719 185.269531 212.695312 183.097656 212.3125 C 180.234375 211.8125 177.796875 210.523438 175.644531 208.621094 C 171.300781 204.792969 168.957031 199.816406 167.515625 194.335938 C 166.457031 190.316406 165.882812 186.222656 165.535156 182.070312 C 165.265625 178.839844 165.171875 175.628906 165.152344 172.398438 C 165.152344 172.011719 165.207031 171.628906 165.226562 171.261719 C 163.363281 170.496094 161.402344 170.011719 159.558594 169.226562 C 156.234375 167.800781 153.160156 166.015625 150.394531 163.6875 C 149.703125 163.09375 148.933594 162.535156 148.875 161.476562 C 148.835938 160.535156 149.144531 159.765625 149.988281 159.34375 Z M 149.988281 159.34375 " fill-opacity="1" fill-rule="nonzero"/><path fill="#fef9ea" d="M 76.238281 286.488281 C 74.816406 282.046875 73.105469 277.699219 71.183594 273.453125 C 68.378906 267.242188 65.1875 261.242188 61.019531 255.800781 C 60.210938 254.746094 59.171875 253.859375 58.519531 252.6875 C 57.15625 253.628906 57.15625 253.628906 55.808594 252.457031 C 55.636719 252.300781 55.484375 252.148438 55.308594 252.015625 C 49.660156 247.265625 43.453125 243.421875 36.402344 241.09375 C 33.019531 239.976562 29.636719 239.632812 26.160156 240.882812 C 21.203125 242.652344 18.605469 246.515625 16.878906 251.109375 C 15.261719 255.378906 15.589844 259.878906 15.972656 264.300781 C 16.398438 269.164062 17.378906 273.914062 18.585938 278.644531 C 20.488281 286.042969 23.066406 293.195312 27.023438 299.792969 C 29.867188 304.523438 33 309.019531 37.226562 312.671875 C 41.050781 315.960938 45.164062 318.808594 49.699219 321.054688 C 52.714844 322.554688 55.945312 323.246094 59.269531 323.191406 C 63.9375 323.113281 68.300781 321.75 72.453125 319.519531 C 75.910156 317.652344 77.390625 314.691406 77.714844 311.058594 C 77.910156 309.078125 77.945312 307.175781 79.8125 305.945312 C 79.851562 305.90625 79.867188 305.828125 79.886719 305.769531 C 79.832031 303.945312 79.542969 302.15625 79.292969 300.367188 C 78.640625 295.65625 77.679688 291.003906 76.238281 286.488281 Z M 23.566406 266.300781 C 20.488281 266.355469 17.972656 263.800781 17.992188 260.703125 C 18.011719 257.722656 20.472656 255.226562 23.507812 255.246094 C 26.714844 255.261719 29.175781 257.878906 28.964844 260.800781 C 29.15625 263.550781 26.832031 266.222656 23.566406 266.300781 Z M 53.925781 262.128906 C 56.269531 262.148438 58.578125 264.164062 58.367188 266.78125 C 58.519531 269.011719 56.558594 271.242188 53.867188 271.277344 C 51.273438 271.296875 49.296875 269.222656 49.316406 266.625 C 49.316406 264.089844 51.371094 262.109375 53.925781 262.128906 Z M 39.898438 261.070312 C 35.960938 261.070312 33.480469 258.148438 33.382812 254.53125 C 33.289062 250.976562 36.363281 247.957031 39.898438 247.957031 C 43.433594 247.957031 46.433594 250.976562 46.433594 254.53125 C 46.257812 258.128906 43.855469 261.070312 39.898438 261.070312 Z M 57.210938 315.328125 C 50.890625 315.289062 45.972656 310.5 45.914062 304.039062 C 45.875 297.5625 50.949219 292.699219 57.308594 292.660156 C 63.457031 292.714844 68.609375 297.523438 68.609375 303.945312 C 68.628906 310.636719 63.417969 315.363281 57.210938 315.328125 Z M 57.210938 315.328125 " fill-opacity="1" fill-rule="nonzero"/><path fill="#fef9ea" d="M 349.089844 264.894531 C 347.109375 263.320312 346.324219 260.878906 347.074219 258.648438 C 347.859375 256.320312 349.898438 254.839844 352.242188 254.761719 C 354.085938 254.707031 355.488281 255.511719 356.757812 256.726562 C 356.738281 254.589844 356.375 252.515625 355.46875 250.570312 C 354.183594 247.785156 352.875 244.976562 350.242188 243.132812 C 347.648438 241.304688 344.785156 240.113281 341.558594 240.246094 C 338.578125 240.363281 335.773438 241.285156 333.046875 242.457031 C 329.066406 244.167969 325.300781 246.265625 321.746094 248.765625 C 318.152344 251.285156 314.886719 254.128906 312.464844 257.839844 C 311.792969 258.859375 310.925781 259.722656 310.082031 260.609375 C 309.429688 261.300781 308.851562 261.472656 308.140625 260.761719 C 308.042969 260.992188 307.988281 261.242188 307.851562 261.472656 C 305.777344 264.820312 303.933594 268.28125 302.28125 271.875 C 298.917969 279.160156 295.957031 286.601562 294.363281 294.523438 C 293.613281 298.234375 292.960938 301.964844 292.75 305.769531 C 294.285156 306.847656 294.996094 308.308594 294.824219 310.191406 C 294.785156 310.636719 294.804688 311.097656 294.882812 311.539062 C 295.398438 314.617188 296.378906 317.421875 299.261719 319.132812 C 300.78125 320.039062 302.335938 320.84375 303.96875 321.5 C 309.542969 323.691406 315.210938 324.113281 320.917969 322.09375 C 324.011719 321 326.78125 319.25 329.46875 317.402344 C 332.546875 315.289062 335.582031 313.058594 338.097656 310.269531 C 344.652344 303.003906 349.148438 294.5625 352.164062 285.296875 C 354.394531 278.429688 356.007812 271.414062 356.679688 264.222656 C 356.21875 264.550781 355.777344 264.914062 355.277344 265.222656 C 353.453125 266.355469 350.742188 266.222656 349.089844 264.894531 Z M 322.054688 261.703125 C 324.609375 261.703125 326.761719 263.78125 326.761719 266.261719 C 326.761719 268.855469 324.648438 270.953125 322.054688 270.953125 C 319.515625 270.953125 317.460938 268.894531 317.402344 266.320312 C 317.363281 263.839844 319.515625 261.703125 322.054688 261.703125 Z M 318.59375 315 C 312.308594 314.980469 307.121094 309.828125 307.238281 303.539062 C 307.351562 297.195312 312.117188 292.179688 318.691406 292.179688 C 325.148438 292.179688 330.007812 297.292969 330.046875 303.636719 C 330.085938 309.960938 324.9375 315.019531 318.59375 315 Z M 335.984375 260.761719 C 332.332031 260.742188 329.453125 257.820312 329.453125 254.148438 C 329.453125 250.515625 332.390625 247.535156 336.003906 247.515625 C 339.636719 247.496094 342.613281 250.515625 342.59375 254.207031 C 342.578125 257.839844 339.636719 260.78125 335.984375 260.761719 Z M 335.984375 260.761719 " fill-opacity="1" fill-rule="nonzero"/><path fill="#fef9ea" d="M 142.648438 64.960938 C 143.800781 66.613281 144.800781 68.363281 145.398438 70.324219 C 145.589844 70.941406 146.011719 71.363281 146.683594 71.171875 C 147.300781 70.976562 147.585938 70.476562 147.375 69.804688 C 147.203125 69.246094 147.070312 68.691406 146.839844 68.171875 C 145.953125 66.039062 144.667969 64.113281 143.265625 62.289062 C 142.109375 60.75 140.957031 59.230469 139.613281 57.847656 C 139.324219 57.539062 138.960938 57.25 138.515625 57.480469 C 138.132812 57.671875 137.84375 57.980469 137.882812 58.480469 C 137.84375 58.847656 138.035156 59.117188 138.265625 59.402344 C 139.804688 61.191406 141.304688 63.019531 142.648438 64.960938 Z M 142.648438 64.960938 " fill-opacity="1" fill-rule="nonzero"/><path fill="#fef9ea" d="M 133.558594 64.75 C 134.960938 65.691406 136.289062 66.75 137.480469 67.960938 C 138.785156 69.285156 140.113281 70.574219 141.113281 72.152344 C 141.378906 72.574219 141.726562 73.054688 142.339844 72.84375 C 142.820312 72.671875 143.128906 72.304688 143.070312 71.726562 C 143.089844 71.460938 142.976562 71.226562 142.820312 71.015625 C 140.613281 67.824219 137.882812 65.152344 134.691406 62.980469 C 134.117188 62.59375 133.40625 62.402344 132.90625 63.113281 C 132.367188 63.902344 133.003906 64.382812 133.558594 64.75 Z M 133.558594 64.75 " fill-opacity="1" fill-rule="nonzero"/><path fill="#fef9ea" d="M 227.910156 73.785156 C 228.699219 74.113281 229.085938 73.59375 229.410156 72.996094 C 230.71875 70.632812 232.503906 68.632812 234.367188 66.710938 C 235.925781 65.113281 237.558594 63.578125 239.558594 62.519531 C 240.09375 62.230469 240.230469 61.769531 240.074219 61.210938 C 239.941406 60.75 239.59375 60.558594 239.113281 60.578125 C 238.402344 60.691406 237.808594 61.058594 237.230469 61.460938 C 235.273438 62.84375 233.503906 64.480469 231.910156 66.25 C 230.3125 68.015625 228.757812 69.84375 227.566406 71.941406 C 227.144531 72.726562 227.277344 73.515625 227.910156 73.785156 Z M 227.910156 73.785156 " fill-opacity="1" fill-rule="nonzero"/><path fill="#fef9ea" d="M 233.734375 73.421875 C 233.40625 73.746094 233.292969 74.132812 233.484375 74.554688 C 233.675781 74.9375 234.023438 75.09375 234.425781 75.054688 C 234.734375 75.074219 235.003906 74.996094 235.253906 74.804688 C 237.078125 73.457031 239.078125 72.363281 241.074219 71.304688 C 241.632812 70.996094 242.074219 70.613281 241.746094 69.941406 C 241.421875 69.246094 240.84375 69.09375 240.132812 69.460938 C 238.808594 70.113281 237.519531 70.824219 236.289062 71.632812 C 235.445312 72.191406 234.484375 72.671875 233.734375 73.421875 Z M 233.734375 73.421875 " fill-opacity="1" fill-rule="nonzero"/><path fill="#fef9ea" d="M 138.019531 102.816406 C 141.09375 102.796875 143.609375 100.261719 143.609375 97.164062 C 143.609375 94.089844 141.054688 91.570312 137.980469 91.570312 C 134.90625 91.589844 132.347656 94.164062 132.386719 97.203125 C 132.40625 100.296875 134.980469 102.835938 138.019531 102.816406 Z M 138.019531 102.816406 " fill-opacity="1" fill-rule="nonzero"/><path fill="#fef9ea" d="M 229.371094 102.777344 C 232.503906 102.835938 235.003906 100.414062 235.078125 97.261719 C 235.15625 94.203125 232.640625 91.609375 229.527344 91.570312 C 226.433594 91.53125 223.875 94.050781 223.875 97.144531 C 223.855469 100.242188 226.296875 102.742188 229.371094 102.777344 Z M 229.371094 102.777344 " fill-opacity="1" fill-rule="nonzero"/></svg>