<svg xmlns="http://www.w3.org/2000/svg" xmlns:xlink="http://www.w3.org/1999/xlink" width="500" zoomAndPan="magnify" viewBox="0 0 375 374.999991" height="500" preserveAspectRatio="xMidYMid meet" version="1.0"><path fill="#ffffff" d="M 49.632812 131.160156 C 49.632812 131.160156 61.765625 139.980469 71.691406 137.777344 C 71.691406 137.777344 85.476562 127.855469 92.648438 127.300781 C 92.648438 127.300781 109.742188 137.226562 125.734375 128.40625 C 125.734375 128.40625 132.351562 136.675781 132.351562 147.148438 C 131.800781 157.070312 118.566406 164.789062 118.566406 180.222656 C 119.117188 196.207031 126.285156 216.054688 131.25 229.835938 C 135.660156 244.167969 145.589844 300.394531 79.410156 285.511719 C 116.910156 304.253906 153.859375 281.652344 156.617188 238.105469 C 157.167969 222.117188 167.09375 228.179688 167.648438 240.859375 C 171.507812 347.800781 -1.101562 337.328125 55.699219 209.4375 C 64.523438 189.59375 61.765625 168.644531 55.148438 160.378906 C 48.53125 152.109375 47.425781 132.816406 49.632812 131.160156 Z M 99.816406 136.121094 C 101.46875 136.675781 102.574219 138.328125 102.574219 139.980469 C 102.574219 142.1875 100.367188 143.839844 98.160156 143.839844 C 95.957031 143.839844 94.300781 142.1875 94.300781 139.980469 C 94.300781 138.878906 94.851562 137.777344 95.957031 136.675781 C 95.957031 137.777344 97.058594 138.328125 97.609375 138.328125 C 99.265625 138.328125 99.816406 137.777344 99.816406 136.675781 C 99.816406 136.121094 99.816406 136.121094 99.816406 136.121094 Z M 99.816406 136.121094 " fill-opacity="1" fill-rule="evenodd"/><path fill="#000000" d="M 264.15625 288.820312 C 217.28125 292.675781 188.050781 257.949219 183.640625 209.4375 C 181.433594 187.390625 165.992188 200.066406 167.09375 212.746094 C 170.957031 280.550781 220.035156 315.277344 274.632812 313.625 C 372.242188 310.867188 329.78125 144.390625 283.457031 98.085938 C 283.457031 98.085938 272.425781 117.929688 256.433594 120.6875 C 239.890625 122.894531 222.792969 107.457031 221.140625 72.730469 C 225.550781 101.394531 253.125 133.367188 273.53125 99.1875 C 281.25 85.957031 281.800781 70.523438 274.082031 63.910156 C 266.910156 57.292969 231.617188 35.796875 212.867188 40.207031 C 194.117188 44.617188 176.46875 59.5 174.265625 68.871094 C 172.058594 79.34375 174.265625 83.753906 170.957031 91.472656 C 167.648438 99.1875 158.824219 109.664062 150.550781 117.378906 C 161.582031 142.738281 172.058594 143.839844 196.875 138.328125 C 207.351562 136.121094 228.859375 147.699219 223.898438 181.324219 C 222.242188 191.246094 217.832031 200.066406 213.96875 208.886719 C 195.773438 250.230469 222.242188 281.652344 264.15625 288.820312 Z M 188.050781 77.691406 C 189.707031 78.792969 191.359375 80.445312 191.359375 82.652344 C 191.359375 85.960938 188.601562 88.164062 185.84375 88.164062 C 182.535156 88.164062 180.332031 85.960938 180.332031 82.652344 C 180.332031 80.996094 181.433594 79.34375 182.535156 78.792969 C 182.535156 79.894531 183.640625 80.996094 185.292969 80.996094 C 186.949219 80.996094 188.050781 79.34375 188.050781 78.242188 C 188.050781 77.691406 188.050781 77.691406 188.050781 77.691406 Z M 188.050781 77.691406 " fill-opacity="1" fill-rule="evenodd"/></svg>