<svg xmlns="http://www.w3.org/2000/svg" xmlns:xlink="http://www.w3.org/1999/xlink" width="500" zoomAndPan="magnify" viewBox="0 0 375 374.999991" height="500" preserveAspectRatio="xMidYMid meet" version="1.0"><defs><clipPath id="id1"><path d="M 35 40.753906 L 370.5 40.753906 L 370.5 334 L 35 334 Z M 35 40.753906 " clip-rule="nonzero"/></clipPath></defs><path fill="#ffffff" d="M 367.214844 311.109375 L 366.03125 333.96875 L 282.675781 333.96875 L 284.152344 311.109375 Z M 348.074219 210.917969 C 348.074219 210.917969 350.195312 173.589844 318.75 134.917969 C 325.957031 99.1875 316.292969 51.3125 307.121094 44.265625 C 289.792969 45.277344 253.609375 57.9375 233.507812 89.785156 C 213.160156 82.550781 184.441406 80.640625 155.472656 87.855469 C 155.472656 87.855469 121.183594 51.902344 80.984375 44.265625 C 61.476562 58.472656 67.589844 127.695312 67.386719 136.394531 C 53.789062 160.589844 2.355469 234.542969 86.894531 286.402344 C 75.664062 315.242188 71.195312 333.570312 71.195312 333.570312 L 279.621094 333.972656 C 279.621094 333.972656 283.472656 293.417969 287.613281 273.351562 C 291.75 253.28125 295.601562 219.625 304.449219 215.683594 C 313.296875 211.742188 320.214844 221.09375 320.214844 221.09375 C 320.214844 221.09375 330.21875 196.597656 338.023438 218.4375 C 335.78125 210.171875 348.074219 210.917969 348.074219 210.917969 Z M 348.074219 210.917969 " fill-opacity="1" fill-rule="nonzero"/><path fill="#efb07d" d="M 293.019531 242.046875 C 299.523438 209.289062 312.824219 212.535156 320.214844 221.09375 C 321.398438 211.058594 332.039062 207.8125 338.246094 215.78125 C 362.1875 192.171875 366.03125 262.222656 366.03125 262.222656 L 366.03125 307.570312 C 366.03125 307.570312 360.667969 324.984375 323.914062 324.984375 C 291.84375 324.984375 282.675781 310.816406 282.675781 310.816406 C 282.675781 310.816406 286.515625 274.808594 293.019531 242.046875 Z M 156.507812 88.28125 C 149.414062 77.683594 103.746094 40.753906 81.574219 44.304688 C 56.449219 73.230469 68.570312 136.394531 68.570312 136.394531 C 68.570312 136.394531 47.820312 164.101562 45.351562 190.875 C 46.148438 210.617188 99.914062 245.203125 161.382812 193.828125 C 219.800781 145.007812 172.765625 85.328125 172.765625 85.328125 C 172.765625 85.328125 164.785156 85.894531 156.507812 88.28125 Z M 302.101562 61.421875 L 282.675781 100.777344 C 282.675781 100.777344 300.035156 115.140625 304.609375 127.535156 C 309.179688 115.730469 310.394531 85.625 302.101562 61.421875 Z M 302.101562 61.421875 " fill-opacity="1" fill-rule="nonzero"/><path fill="#ef5454" d="M 366.03125 333.96875 C 366.03125 333.96875 366.03125 333.96875 330.117188 333.96875 C 358.050781 331.441406 361.457031 256.222656 361.457031 256.222656 Z M 102.464844 100.777344 C 102.464844 100.777344 87.089844 68.902344 84.53125 61.421875 C 78.027344 77.164062 76.957031 116.515625 82.023438 127.535156 C 91.996094 115.402344 102.464844 100.777344 102.464844 100.777344 Z M 279.78125 333.96875 C 283.070312 313.402344 287.582031 285.09375 291.21875 262.28125 C 291.199219 262.285156 291.183594 262.292969 291.167969 262.300781 L 294.882812 221.335938 C 294.648438 221.625 294.347656 222.019531 293.980469 222.550781 C 291.164062 226.613281 284.789062 238.324219 279.636719 266.152344 C 258.53125 272.425781 230.730469 276.742188 194.136719 276.992188 C 52.246094 276.019531 42.582031 213.890625 42.582031 213.890625 C 42.582031 213.890625 40.019531 222.269531 45.464844 235.957031 C 43.878906 234.613281 42.671875 233.554688 42.007812 232.898438 C 46.1875 264.28125 87.09375 288.484375 87.09375 288.484375 L 71.195312 333.972656 C 71.195312 333.972656 87.878906 333.972656 106.011719 333.972656 C 117.046875 298.003906 130.382812 298.945312 130.382812 298.945312 C 158.15625 305.015625 184.832031 306.652344 194.136719 306.652344 C 203.445312 306.652344 230.117188 305.015625 257.894531 298.945312 C 257.894531 298.945312 264.714844 298.46875 272.632812 311.34375 C 269.757812 329.671875 268.832031 333.953125 268.832031 333.953125 Z M 232.753906 89.785156 L 249.109375 94.480469 C 249.109375 94.480469 255.21875 72.527344 281.917969 53.988281 C 263.296875 59.0625 243.195312 72.496094 232.753906 89.785156 Z M 105.058594 53.988281 C 131.757812 72.527344 137.867188 94.480469 137.867188 94.480469 L 154.222656 89.785156 C 143.78125 72.496094 123.679688 59.0625 105.058594 53.988281 Z M 204.933594 226.910156 C 204.933594 226.910156 191.535156 229.980469 180.105469 226.570312 C 181.679688 239.6875 200.992188 240.867188 204.933594 226.910156 Z M 204.933594 226.910156 " fill-opacity="0.298" fill-rule="nonzero"/><path fill="#ffffff" d="M 70.621094 82.5 C 70.621094 82.5 67.625 123.617188 81.691406 143.285156 C 66.796875 154.097656 41.257812 189.234375 41.980469 217.847656 C 36.355469 199.257812 44.421875 167.472656 66.691406 139.046875 C 64.429688 122.222656 66.691406 99.078125 70.621094 82.5 Z M 288.191406 295.09375 C 296.167969 235.988281 309.800781 217.898438 309.800781 217.898438 C 287.371094 211.851562 286.125 268.808594 288.191406 295.09375 Z M 57.972656 256.222656 C 57.972656 256.222656 85.417969 281.300781 102.265625 283.957031 C 95.46875 292.515625 81.691406 333.972656 81.691406 333.972656 L 69.457031 333.972656 L 85.417969 287.5 C 85.417969 287.5 58.605469 274.242188 57.972656 256.222656 Z M 57.972656 256.222656 " fill-opacity="1" fill-rule="nonzero"/><g clip-path="url(#id1)"><path fill="#2b0806" d="M 370.464844 333.96875 C 366.695312 333.96875 361.746094 333.96875 361.746094 333.96875 C 361.671875 319.597656 364.203125 245.304688 356.65625 220.273438 C 352.660156 207.019531 340.203125 213.355469 338.507812 224.382812 C 337.378906 218.847656 336.101562 212.894531 330.433594 213.484375 C 323.433594 214.210938 320.566406 226.5625 320.566406 226.5625 C 320.566406 226.5625 314.945312 217.5625 309.800781 217.898438 C 301.683594 218.429688 296.332031 230.34375 292.4375 255.710938 C 290.25 269.96875 284.617188 333.96875 284.617188 333.96875 L 277.363281 333.96875 C 277.363281 333.96875 281.351562 289.855469 282.632812 280.296875 L 282.667969 280.023438 L 283.699219 272.574219 C 286.035156 256.199219 288.632812 241.347656 291.140625 231.949219 C 297.664062 207.492188 312.46875 204.917969 319.144531 216.664062 C 322.570312 204.070312 337.429688 201.972656 339 213.050781 C 339.488281 210.734375 341.796875 207.949219 345.054688 206.792969 C 343.761719 187.902344 335.480469 165.125 315.527344 137.867188 C 319.886719 128.714844 324.542969 85.664062 306.226562 47.847656 C 296.964844 47.847656 265.929688 55.417969 235.976562 87.933594 C 241.0625 89.695312 245.847656 91.847656 249.867188 94.480469 C 248.617188 94.527344 221.257812 86.773438 193.902344 86.773438 C 166.542969 86.773438 139.183594 94.527344 137.933594 94.480469 C 141.953125 91.847656 146.738281 89.695312 151.824219 87.933594 C 121.871094 55.417969 90.835938 47.847656 81.574219 47.847656 C 63.257812 85.664062 67.914062 128.714844 72.273438 137.867188 C -0.0078125 236.605469 80.847656 276.613281 92.363281 285.582031 C 85.859375 298.863281 73.890625 333.96875 73.890625 333.96875 L 65.859375 333.96875 C 65.859375 333.96875 73.625 309.503906 83.085938 287.664062 C 10.929688 245.304688 34.28125 175.9375 63.839844 139.046875 C 54.972656 86.808594 73.296875 41.945312 80.394531 40.753906 C 127.402344 49.730469 151.417969 77.695312 157.707031 86.101562 C 166.148438 83.734375 180.023438 80.285156 193.902344 80.285156 C 207.761719 80.285156 221.628906 83.730469 230.09375 86.101562 C 236.382812 77.695312 260.398438 49.730469 307.40625 40.753906 C 314.503906 41.945312 332.828125 86.808594 323.960938 139.046875 C 337.988281 156.554688 350.605469 181.371094 352.292969 207.148438 C 354.722656 208.21875 357.289062 210.324219 359.804688 213.917969 C 364.507812 220.625 365.222656 229.277344 367.4375 246.703125 C 369.480469 262.789062 370.464844 324.464844 370.464844 333.96875 Z M 302.101562 61.421875 C 302.101562 61.421875 288.625 80.476562 278.71875 100.757812 C 285.363281 105.105469 299.023438 119.269531 304.609375 127.535156 C 307.234375 122.8125 293.585938 102.792969 286.632812 98.90625 C 293.871094 91.234375 302.101562 61.421875 302.101562 61.421875 Z M 84.53125 61.421875 C 84.53125 61.421875 98.007812 80.476562 107.914062 100.757812 C 101.269531 105.105469 87.609375 119.269531 82.023438 127.535156 C 79.398438 122.8125 93.046875 102.792969 100 98.90625 C 92.761719 91.234375 84.53125 61.421875 84.53125 61.421875 Z M 122.136719 156.804688 C 107.089844 160.351562 96.890625 175.347656 93.785156 187.777344 C 93.3125 189.671875 94.328125 191.175781 96.441406 191.703125 C 99.855469 192.558594 106.070312 190.820312 106.984375 187.160156 C 108.175781 182.382812 110.207031 178.050781 113.019531 174.277344 C 115.140625 171.433594 119.277344 166.519531 123.175781 165.546875 C 126.3125 164.761719 129.3125 169.882812 130.921875 172.636719 L 131.300781 173.28125 C 134.0625 177.933594 136.292969 183.324219 137.933594 189.304688 C 138.507812 191.402344 140.566406 192.226562 142.851562 192.226562 C 143.804688 192.226562 144.796875 192.085938 145.738281 191.828125 C 149.5625 190.78125 151.753906 188.296875 151.0625 185.777344 C 145.039062 163.785156 135.039062 153.769531 122.136719 156.804688 Z M 292.832031 185.777344 C 286.808594 163.785156 276.804688 153.769531 263.90625 156.804688 C 248.859375 160.351562 238.660156 175.347656 235.554688 187.777344 C 235.265625 188.929688 235.535156 189.976562 236.3125 190.722656 C 237.9375 192.289062 241.179688 192.082031 243.46875 191.425781 C 246.3125 190.613281 248.289062 189.019531 248.753906 187.160156 C 249.945312 182.382812 251.976562 178.046875 254.789062 174.277344 C 256.910156 171.433594 261.046875 166.519531 264.945312 165.546875 C 268.082031 164.765625 271.082031 169.886719 272.691406 172.636719 L 273.070312 173.28125 C 275.832031 177.929688 278.0625 183.320312 279.703125 189.304688 C 280.066406 190.636719 281.128906 191.59375 282.691406 192.003906 C 283.289062 192.160156 283.941406 192.234375 284.621094 192.234375 C 287.160156 192.234375 290.054688 191.203125 291.660156 189.582031 C 292.777344 188.453125 293.195312 187.101562 292.832031 185.777344 Z M 215.132812 192.398438 C 213.53125 193.25 212.773438 195.980469 214.335938 198.910156 C 215.246094 200.609375 214.273438 202.367188 213.617188 203.265625 C 211.894531 205.605469 208.800781 207.035156 206.425781 206.589844 C 202.332031 205.824219 199.863281 201.015625 198.171875 196.914062 C 197.382812 195 195.726562 193.8125 193.847656 193.8125 C 191.96875 193.8125 190.308594 195 189.519531 196.914062 C 188.132812 200.28125 185.550781 206.546875 181.269531 207.34375 C 179.453125 207.6875 177.1875 206.804688 175.378906 205.070312 C 172.703125 202.378906 173.503906 198.871094 173.792969 197.917969 C 173.820312 197.84375 173.84375 197.769531 173.871094 197.671875 L 174.496094 196.011719 L 174.183594 196.011719 C 174.269531 194.277344 173.574219 192.796875 172.332031 192.292969 C 171.261719 191.863281 169.695312 192.191406 168.507812 194.417969 C 166.300781 198.558594 166.175781 203.484375 168.179688 207.59375 C 170.039062 211.410156 173.542969 214.03125 177.789062 214.78125 C 183.882812 215.867188 189.410156 213.296875 193.847656 207.347656 C 197.625 212.410156 202.1875 215.023438 207.222656 215.023438 C 208.101562 215.023438 208.996094 214.945312 209.902344 214.78125 C 214.148438 214.03125 217.652344 211.410156 219.511719 207.59375 C 221.515625 203.484375 221.394531 198.558594 219.1875 194.417969 C 217.902344 192.015625 216.199219 191.832031 215.132812 192.398438 Z M 215.132812 192.398438 " fill-opacity="1" fill-rule="nonzero"/></g><path fill="#ef5454" d="M 328.984375 251.886719 C 326.773438 249.40625 317.933594 242.675781 312.25 253.65625 C 306.566406 264.632812 322.074219 275.613281 328.984375 275.613281 C 335.890625 275.613281 351.398438 264.632812 345.714844 253.65625 C 340.035156 242.675781 331.195312 249.40625 328.984375 251.886719 Z M 334.40625 233.390625 C 334.40625 230.039062 332.484375 227.324219 330.117188 227.324219 C 327.746094 227.324219 325.828125 230.039062 325.828125 233.390625 C 325.828125 236.742188 327.746094 239.457031 330.117188 239.457031 C 332.484375 239.457031 334.40625 236.742188 334.40625 233.390625 Z M 347.703125 230.972656 C 345.300781 230.605469 342.894531 232.839844 342.332031 235.960938 C 341.769531 239.082031 343.261719 241.90625 345.664062 242.273438 C 348.066406 242.636719 350.46875 240.402344 351.035156 237.28125 C 351.597656 234.160156 350.105469 231.335938 347.703125 230.972656 Z M 313.039062 242.574219 C 315.46875 241.871094 316.546875 238.777344 315.449219 235.660156 C 314.351562 232.542969 311.492188 230.585938 309.0625 231.289062 C 306.632812 231.992188 305.554688 235.089844 306.652344 238.203125 C 307.753906 241.320312 310.613281 243.277344 313.039062 242.574219 Z M 313.039062 242.574219 " fill-opacity="1" fill-rule="nonzero"/></svg>