<svg xmlns="http://www.w3.org/2000/svg" xmlns:xlink="http://www.w3.org/1999/xlink" width="500" zoomAndPan="magnify" viewBox="0 0 375 374.999991" height="500" preserveAspectRatio="xMidYMid meet" version="1.0"><defs><clipPath id="id1"><path d="M 137 181 L 307 181 L 307 369.75 L 137 369.75 Z M 137 181 " clip-rule="nonzero"/></clipPath><clipPath id="id2"><path d="M 301 208 L 352.5 208 L 352.5 325 L 301 325 Z M 301 208 " clip-rule="nonzero"/></clipPath></defs><path fill="#fff8ee" d="M 301.078125 324.539062 C 297.40625 332.414062 293.734375 340.289062 288.660156 347.289062 C 283.589844 354.289062 276.765625 360.414062 268.546875 363.214844 C 261.550781 365.664062 254.03125 365.492188 246.683594 365.316406 C 239.164062 365.140625 231.640625 365.140625 224.121094 364.964844 C 203.484375 364.617188 182.84375 364.265625 162.207031 363.914062 C 156.785156 363.742188 151.1875 363.742188 146.289062 361.117188 C 141.390625 358.664062 137.894531 352.890625 139.46875 347.640625 C 140.867188 343.4375 145.066406 340.988281 149.261719 339.414062 C 153.460938 337.839844 157.832031 337.136719 161.507812 334.6875 C 165.179688 332.238281 167.628906 327.164062 165.527344 323.3125 C 158.882812 318.9375 152.761719 314.910156 146.8125 310.886719 C 139.816406 326.460938 129.324219 340.464844 116.207031 351.316406 C 112.183594 354.640625 107.636719 357.789062 102.5625 359.191406 C 97.492188 360.589844 91.546875 359.890625 87.523438 356.390625 C 83.675781 352.890625 82.449219 347.640625 81.925781 342.390625 C 81.574219 338.363281 81.925781 333.636719 85.074219 331.011719 C 87.171875 329.085938 90.320312 328.738281 92.769531 327.164062 C 95.917969 325.0625 97.667969 321.386719 99.242188 317.886719 C 104.488281 304.9375 108.160156 291.460938 110.085938 277.632812 C 109.210938 277.808594 108.683594 276.933594 108.683594 276.933594 C 91.195312 255.230469 81.050781 227.578125 80.527344 199.578125 C 66.535156 186.800781 56.5625 170.347656 50.269531 152.496094 C 43.972656 134.644531 41.171875 115.917969 40.824219 97.015625 C 40.824219 92.117188 40.824219 87.042969 42.222656 82.140625 C 43.621094 77.414062 46.421875 72.863281 50.792969 70.414062 C 55.691406 67.613281 62.160156 67.789062 67.058594 70.589844 C 71.957031 73.390625 75.277344 78.816406 74.929688 84.417969 C 80.699219 76.015625 88.046875 68.488281 96.441406 62.714844 C 90.671875 62.539062 84.898438 64.113281 80.175781 67.265625 C 82.976562 60.4375 89.445312 55.890625 96.441406 53.4375 C 103.261719 50.988281 110.785156 50.464844 117.957031 49.761719 C 125.300781 49.0625 132.648438 48.011719 138.242188 43.988281 C 145.414062 28.0625 155.210938 12.136719 170.601562 3.734375 C 172.699219 2.507812 174.972656 1.632812 177.421875 1.457031 C 179.871094 1.285156 182.320312 1.984375 183.894531 3.910156 C 185.644531 6.007812 185.644531 8.984375 185.644531 11.609375 C 185.46875 19.136719 185.46875 26.484375 185.46875 36.113281 C 206.980469 37.863281 227.445312 49.589844 239.164062 66.566406 C 248.957031 64.640625 258.925781 62.890625 268.722656 60.964844 C 269.769531 60.789062 270.996094 60.613281 272.042969 60.964844 C 274.144531 61.839844 274.492188 64.464844 274.320312 66.738281 C 273.792969 83.714844 266.449219 100.34375 253.15625 112.59375 C 251.582031 115.742188 251.757812 119.417969 252.804688 122.746094 C 253.679688 126.070312 255.429688 129.21875 256.476562 132.546875 C 259.453125 141.820312 257.703125 152.671875 251.929688 160.546875 C 251.40625 156.699219 250.183594 152.847656 248.082031 149.523438 C 247.558594 158.273438 244.933594 166.847656 240.386719 174.375 C 239.6875 172.800781 238.8125 171.398438 238.113281 169.824219 C 237.0625 174.550781 234.441406 178.75 231.640625 181.898438 C 241.785156 193.277344 251.929688 204.476562 262.074219 215.851562 C 272.21875 227.230469 282.539062 238.605469 290.410156 251.554688 C 298.453125 264.507812 304.050781 279.382812 305.625 295.484375 C 322.941406 271.859375 332.386719 242.453125 331.511719 213.050781 C 343.230469 225.304688 347.777344 243.855469 343.40625 260.304688 C 345.855469 257.332031 348.300781 254.355469 350.75 251.207031 C 351.449219 262.582031 347.601562 274.132812 340.433594 282.535156 C 343.578125 281.308594 346.554688 279.910156 349.703125 278.683594 C 342.179688 300.558594 323.292969 317.886719 301.078125 324.539062 Z M 301.078125 324.539062 " fill-opacity="1" fill-rule="nonzero"/><path fill="#531139" d="M 165.355469 99.117188 C 163.605469 98.066406 161.679688 97.015625 159.757812 96.667969 C 157.660156 96.316406 155.382812 96.667969 153.984375 98.066406 C 151.886719 99.992188 151.886719 103.316406 152.761719 106.117188 C 154.160156 110.84375 157.832031 115.042969 162.378906 117.144531 C 166.929688 119.246094 172.351562 119.417969 176.898438 117.492188 C 178.996094 116.617188 180.921875 115.21875 181.269531 112.945312 C 181.445312 110.84375 180.046875 109.09375 178.648438 107.691406 C 174.625 104.367188 170.078125 101.917969 165.355469 99.117188 Z M 165.355469 99.117188 " fill-opacity="1" fill-rule="nonzero"/><path fill="#e95187" d="M 90.84375 152.847656 C 87.171875 158.449219 88.398438 166.148438 91.894531 171.75 C 95.566406 177.347656 101.164062 181.199219 106.9375 184.523438 C 130.898438 198.703125 158.707031 206.578125 186.691406 205.875 C 193.164062 205.703125 199.984375 205 205.929688 202.550781 C 211.878906 200.101562 217.300781 195.375 219.574219 188.726562 C 206.28125 194.324219 191.414062 195.550781 177.074219 194.324219 C 162.730469 193.101562 150.488281 188.199219 136.84375 183.648438 C 128.273438 180.675781 119.53125 176.472656 111.832031 171.75 C 104.136719 167.023438 96.265625 161.949219 90.84375 152.847656 Z M 90.84375 152.847656 " fill-opacity="1" fill-rule="nonzero"/><path fill="#f6ad1b" d="M 110.609375 185.226562 C 106.761719 184.875 102.5625 185.398438 99.066406 187.324219 C 95.566406 189.074219 92.769531 192.226562 91.546875 196.074219 C 89.972656 201.5 92.417969 207.976562 97.316406 210.953125 C 102.214844 213.925781 109.035156 213.226562 113.234375 209.203125 C 116.03125 206.578125 117.429688 202.726562 117.957031 198.875 C 118.304688 196.25 117.957031 193.449219 116.730469 191.175781 C 115.332031 188.726562 112.882812 186.800781 110.609375 185.226562 Z M 110.609375 185.226562 " fill-opacity="1" fill-rule="nonzero"/><path fill="#f6a1a7" d="M 245.808594 75.839844 C 249.65625 74.441406 253.503906 73.039062 257.351562 71.640625 C 258.402344 71.289062 259.453125 70.941406 260.5 71.113281 C 261.726562 71.464844 262.601562 72.691406 262.773438 74.089844 C 262.949219 75.316406 262.601562 76.714844 262.25 77.941406 C 260.152344 85.292969 256.476562 92.292969 251.757812 98.242188 C 251.230469 91.59375 250.007812 84.941406 245.808594 75.839844 Z M 245.808594 75.839844 " fill-opacity="1" fill-rule="nonzero"/><path fill="#f6a1a7" d="M 176.023438 35.238281 C 174.972656 32.960938 175.148438 30.511719 175.324219 28.0625 C 175.5 25.609375 175.847656 23.160156 175.148438 20.886719 C 174.449219 18.609375 172.699219 16.335938 170.25 16.160156 C 168.503906 15.984375 166.929688 17.035156 165.527344 17.910156 C 157.832031 23.160156 152.0625 30.6875 148.738281 39.4375 C 155.734375 36.285156 163.78125 35.0625 176.023438 35.238281 Z M 176.023438 35.238281 " fill-opacity="1" fill-rule="nonzero"/><path fill="#708ba4" d="M 239.164062 172.800781 C 239.511719 164.921875 232.167969 159.324219 225.695312 154.773438 C 219.398438 150.222656 212.578125 142.871094 215.203125 135.519531 C 217.476562 129.394531 224.644531 127.121094 230.242188 123.621094 C 242.3125 115.742188 246.332031 97.71875 238.636719 85.640625 C 230.941406 73.390625 212.925781 69.363281 200.683594 77.066406 C 195.4375 80.390625 189.664062 85.640625 184.070312 82.839844 C 180.394531 80.914062 179.171875 76.191406 179.347656 71.988281 C 179.519531 67.789062 180.570312 63.589844 179.519531 59.5625 C 177.945312 52.914062 170.949219 48.539062 164.128906 47.664062 C 157.308594 46.789062 150.488281 48.886719 143.839844 50.8125 C 139.117188 52.214844 134.394531 53.613281 130.546875 56.589844 C 126.699219 59.5625 123.726562 64.289062 124.425781 69.015625 C 125.125 73.390625 128.449219 77.242188 128.449219 81.617188 C 128.449219 87.742188 121.628906 92.117188 115.332031 92.117188 C 109.210938 92.117188 103.261719 89.316406 97.316406 87.566406 C 91.371094 85.816406 84.375 85.292969 78.253906 88.265625 C 76.503906 89.140625 74.753906 90.191406 73.003906 91.066406 C 77.554688 79.867188 85.25 69.890625 95.042969 62.714844 C 89.796875 61.488281 83.847656 62.539062 80.527344 65.339844 C 84.898438 58.515625 92.417969 53.613281 100.640625 52.386719 C 106.238281 51.511719 112.359375 52.386719 119.703125 51.164062 C 135.269531 44.863281 151.535156 40.136719 167.976562 37.160156 C 179.171875 35.0625 191.9375 34.011719 205.058594 43.113281 C 219.574219 46.4375 232.515625 55.890625 240.210938 68.664062 C 249.132812 83.542969 250.707031 101.566406 251.757812 119.59375 C 253.503906 127.121094 256.652344 134.296875 257.878906 141.820312 C 259.101562 149.347656 257.878906 158.097656 252.105469 163.171875 C 250.355469 158.796875 248.433594 154.246094 246.683594 149.871094 C 247.035156 158.273438 244.585938 166.5 239.164062 172.800781 Z M 239.164062 172.800781 " fill-opacity="1" fill-rule="nonzero"/><path fill="#708ba4" d="M 211.003906 363.390625 C 200.683594 361.464844 197.886719 346.414062 197.359375 336.089844 C 196.835938 325.585938 200.859375 315.085938 208.207031 307.5625 C 215.203125 300.386719 225.519531 294.960938 227.269531 285.160156 C 228.492188 277.984375 224.472656 270.808594 219.050781 265.730469 C 213.628906 260.832031 206.980469 257.507812 201.035156 253.304688 C 195.085938 249.105469 189.316406 243.679688 187.566406 236.679688 C 185.992188 230.378906 187.742188 223.726562 190.890625 218.128906 C 194.039062 212.527344 198.585938 207.800781 204.53125 203.078125 C 212.226562 202.027344 219.050781 196.074219 219.222656 187.148438 C 224.121094 187.324219 229.019531 184.699219 232.515625 180.5 C 245.632812 202.027344 264.875 218.652344 280.789062 238.253906 C 296.707031 257.679688 309.648438 282.183594 305.625 309.136719 C 304.226562 329.261719 292.683594 348.515625 275.367188 359.191406 C 258.226562 369.691406 226.746094 366.367188 211.003906 363.390625 Z M 211.003906 363.390625 " fill-opacity="1" fill-rule="nonzero"/><path fill="#708ba4" d="M 326.964844 299.335938 C 326.613281 298.285156 325.390625 297.761719 324.339844 298.109375 C 323.292969 298.460938 322.765625 299.335938 321.890625 300.035156 C 319.96875 301.785156 317.167969 304.234375 316.46875 304.585938 C 314.894531 305.984375 312.097656 307.035156 311.222656 308.960938 C 310.523438 311.0625 312.972656 312.8125 314.894531 311.761719 C 318.742188 309.136719 322.242188 306.160156 325.566406 302.835938 C 326.4375 301.960938 327.664062 300.734375 326.964844 299.335938 Z M 326.964844 299.335938 " fill-opacity="1" fill-rule="nonzero"/><path fill="#708ba4" d="M 328.011719 293.734375 C 326.789062 296.886719 331.6875 298.460938 332.5625 295.308594 C 333.960938 292.160156 329.0625 290.585938 328.011719 293.734375 Z M 328.011719 293.734375 " fill-opacity="1" fill-rule="nonzero"/><path fill="#fff8ee" d="M 228.84375 350.441406 C 225.34375 350.265625 221.671875 350.089844 218.175781 350.089844 C 215.550781 350.089844 215.375 354.289062 218.175781 354.289062 C 222.199219 354.289062 226.046875 354.464844 230.066406 354.464844 C 230.769531 354.464844 231.46875 353.941406 231.816406 353.238281 C 232.515625 350.964844 230.417969 350.265625 228.84375 350.441406 Z M 228.84375 350.441406 " fill-opacity="1" fill-rule="nonzero"/><path fill="#fff8ee" d="M 249.132812 347.640625 C 248.082031 347.113281 246.859375 347.289062 245.632812 347.113281 C 244.585938 347.113281 243.1875 346.765625 242.484375 347.8125 C 240.910156 349.214844 242.136719 352.015625 244.234375 352.015625 C 245.808594 352.015625 247.382812 352.363281 248.957031 351.839844 C 250.53125 351.140625 250.707031 348.515625 249.132812 347.640625 Z M 249.132812 347.640625 " fill-opacity="1" fill-rule="nonzero"/><path fill="#fff8ee" d="M 239.511719 336.089844 C 238.988281 334.164062 236.890625 334.339844 235.316406 334.339844 C 233.742188 334.511719 231.992188 333.988281 230.417969 334.511719 C 227.96875 335.386719 228.84375 339.238281 231.292969 339.238281 C 233.914062 338.714844 240.039062 340.464844 239.511719 336.089844 Z M 239.511719 336.089844 " fill-opacity="1" fill-rule="nonzero"/><path fill="#f6a1a7" d="M 191.589844 145.496094 C 183.367188 160.371094 215.203125 171.75 219.222656 156.871094 C 223.246094 141.996094 199.109375 132.019531 191.589844 145.496094 Z M 191.589844 145.496094 " fill-opacity="1" fill-rule="nonzero"/><path fill="#f6a1a7" d="M 89.621094 99.46875 C 81.050781 114.167969 112.707031 126.070312 117.082031 111.542969 C 121.453125 97.015625 97.492188 86.167969 89.621094 99.46875 Z M 89.621094 99.46875 " fill-opacity="1" fill-rule="nonzero"/><path fill="#fff8ee" d="M 159.230469 99.117188 C 156.257812 96.492188 152.585938 100.34375 155.734375 102.792969 C 158.707031 105.417969 162.378906 101.566406 159.230469 99.117188 Z M 159.230469 99.117188 " fill-opacity="1" fill-rule="nonzero"/><path fill="#fff8ee" d="M 99.066406 97.015625 C 95.566406 95.792969 93.46875 100.34375 96.96875 101.566406 C 100.464844 102.96875 102.5625 98.417969 99.066406 97.015625 Z M 99.066406 97.015625 " fill-opacity="1" fill-rule="nonzero"/><path fill="#fff8ee" d="M 204.53125 144.621094 C 203.65625 143.570312 201.558594 141.996094 200.160156 142.519531 C 198.0625 143.046875 197.710938 146.023438 199.636719 147.070312 C 200.683594 147.773438 201.734375 148.648438 203.132812 148.296875 C 204.707031 147.773438 205.40625 146.023438 204.53125 144.621094 Z M 204.53125 144.621094 " fill-opacity="1" fill-rule="nonzero"/><path fill="#fff8ee" d="M 103.261719 193.625 C 103.261719 192.226562 101.515625 191.527344 100.464844 192.402344 C 98.542969 194.5 97.316406 197.476562 97.492188 200.453125 C 97.492188 202.375 99.242188 203.777344 100.640625 202.027344 C 101.164062 200.976562 100.640625 200.453125 100.640625 200.277344 C 100.640625 198.351562 100.988281 198 101.6875 196.25 C 102.214844 195.027344 103.089844 195.199219 103.261719 193.625 Z M 103.261719 193.625 " fill-opacity="1" fill-rule="nonzero"/><path fill="#fff8ee" d="M 101.863281 204.300781 C 99.066406 203.425781 97.667969 207.800781 100.640625 208.675781 C 103.4375 209.550781 104.664062 205.175781 101.863281 204.300781 Z M 101.863281 204.300781 " fill-opacity="1" fill-rule="nonzero"/><path fill="#531139" d="M 189.839844 196.425781 C 174.796875 196.425781 155.910156 193.101562 132.296875 183.824219 C 117.253906 177.875 96.96875 166.324219 84.550781 145.496094 C 74.230469 128.171875 72.128906 107.691406 78.425781 90.542969 L 75.105469 92.640625 C 74.40625 92.992188 73.703125 92.992188 73.179688 92.640625 C 72.65625 92.117188 72.304688 91.417969 72.65625 90.714844 C 75.804688 80.390625 82.449219 71.289062 91.195312 64.988281 C 87.871094 65.164062 85.25 65.863281 81.574219 67.964844 C 80.875 68.316406 80.175781 68.316406 79.652344 67.789062 C 79.125 67.265625 78.953125 66.566406 79.125 65.863281 C 81.75 58.6875 90.671875 51.863281 99.242188 50.8125 C 102.738281 50.464844 106.9375 49.761719 110.785156 49.0625 C 115.15625 48.363281 119.878906 47.488281 123.726562 47.136719 C 130.199219 46.4375 135.621094 43.988281 141.21875 41.539062 C 144.539062 40.136719 147.863281 38.5625 151.535156 37.335938 C 172.351562 30.335938 195.960938 33.488281 218 45.914062 C 238.988281 57.8125 252.980469 80.390625 253.679688 103.144531 C 253.679688 105.242188 253.679688 107.167969 253.679688 109.269531 C 253.503906 113.992188 253.503906 118.371094 254.554688 122.746094 C 255.078125 124.84375 255.953125 126.945312 256.828125 129.21875 C 257.527344 131.144531 258.402344 133.246094 258.925781 135.34375 C 261.550781 144.445312 259.625 154.421875 254.203125 162.121094 C 253.855469 162.648438 253.15625 163 252.628906 162.824219 C 251.929688 162.824219 251.40625 162.296875 251.230469 161.773438 L 248.433594 154.246094 C 247.734375 162.472656 245.808594 169.824219 242.835938 176.300781 C 242.484375 176.824219 241.960938 177.347656 241.261719 177.347656 C 240.5625 177.347656 240.039062 177 239.6875 176.472656 L 237.9375 173.324219 C 235.664062 181.375 228.492188 187.675781 221.671875 190.824219 C 213.800781 193.800781 203.484375 196.425781 189.839844 196.425781 Z M 82.101562 84.242188 C 82.449219 84.242188 82.976562 84.417969 83.324219 84.765625 C 83.847656 85.292969 84.023438 86.167969 83.675781 86.867188 C 75.277344 103.84375 76.679688 125.71875 87.523438 143.746094 C 99.414062 163.699219 119.003906 174.898438 133.523438 180.5 C 177.421875 198 204.882812 193.800781 219.921875 187.148438 C 227.269531 183.824219 234.964844 176.472656 234.964844 167.375 C 234.964844 166.5 235.488281 165.796875 236.363281 165.625 C 237.0625 165.449219 237.9375 165.796875 238.289062 166.5 L 240.738281 171.046875 C 243.535156 163.523438 244.933594 154.773438 245.109375 145.148438 C 245.109375 144.269531 245.632812 143.570312 246.507812 143.394531 C 247.382812 143.222656 248.082031 143.746094 248.433594 144.445312 L 252.980469 156.699219 C 256.304688 150.398438 257.351562 142.695312 255.429688 135.871094 C 254.902344 133.945312 254.203125 132.019531 253.332031 130.09375 C 252.457031 127.820312 251.582031 125.542969 250.882812 123.269531 C 249.65625 118.542969 249.832031 113.644531 249.832031 108.917969 C 249.832031 106.992188 249.832031 104.894531 249.832031 102.96875 C 249.308594 81.265625 235.839844 59.914062 215.902344 48.539062 C 194.738281 36.460938 172.175781 33.488281 152.234375 40.136719 C 148.738281 41.363281 145.414062 42.761719 142.265625 44.164062 C 136.320312 46.789062 130.722656 49.238281 123.726562 50.113281 C 119.878906 50.464844 115.332031 51.339844 110.960938 52.039062 C 106.9375 52.738281 102.738281 53.4375 99.242188 53.789062 C 93.992188 54.488281 88.222656 57.8125 84.722656 61.839844 C 88.222656 60.613281 91.546875 60.789062 95.742188 60.789062 L 97.140625 60.789062 C 98.015625 60.789062 98.714844 61.3125 98.890625 62.1875 C 99.066406 62.890625 98.714844 63.765625 98.015625 64.113281 C 88.921875 69.015625 81.75 76.890625 77.554688 86.339844 L 81.226562 84.066406 C 81.402344 84.417969 81.75 84.242188 82.101562 84.242188 Z M 82.101562 84.242188 " fill-opacity="1" fill-rule="nonzero"/><path fill="#531139" d="M 138.769531 45.386719 C 138.59375 45.386719 138.417969 45.386719 138.417969 45.386719 C 137.542969 45.210938 136.84375 44.164062 137.195312 43.289062 C 141.917969 24.734375 155.734375 8.632812 173.398438 1.457031 C 175.324219 0.757812 177.246094 0.0585938 179.519531 0.0585938 C 182.144531 0.0585938 184.59375 1.457031 185.644531 3.558594 C 186.34375 5.132812 186.515625 6.710938 186.515625 7.933594 L 186.691406 35.761719 C 186.691406 36.8125 185.992188 37.511719 184.941406 37.511719 C 184.070312 37.511719 183.195312 36.8125 183.195312 35.761719 L 183.019531 7.933594 C 183.019531 6.882812 183.019531 5.835938 182.667969 5.132812 C 182.144531 4.085938 180.746094 3.558594 179.519531 3.558594 C 178.121094 3.558594 176.722656 3.910156 174.972656 4.785156 C 158.359375 11.609375 145.238281 26.835938 140.867188 44.335938 C 140.34375 44.6875 139.644531 45.386719 138.769531 45.386719 Z M 138.769531 45.386719 " fill-opacity="1" fill-rule="nonzero"/><path fill="#531139" d="M 252.980469 115.042969 C 252.457031 115.042969 251.929688 114.867188 251.582031 114.34375 C 250.882812 113.644531 251.054688 112.417969 251.757812 111.894531 C 265.398438 100.691406 273.269531 82.839844 272.21875 65.164062 C 272.21875 63.9375 272.042969 62.539062 271.34375 62.015625 C 270.46875 61.3125 268.722656 61.488281 267.148438 61.839844 L 240.039062 67.789062 C 239.164062 67.964844 238.113281 67.441406 237.9375 66.390625 C 237.765625 65.339844 238.289062 64.464844 239.335938 64.289062 L 266.449219 58.339844 C 268.023438 57.988281 271.519531 57.289062 273.792969 59.214844 C 275.542969 60.613281 275.890625 62.890625 275.890625 64.816406 C 276.941406 83.542969 268.722656 102.441406 254.203125 114.34375 C 253.679688 114.867188 253.328125 115.042969 252.980469 115.042969 Z M 252.980469 115.042969 " fill-opacity="1" fill-rule="nonzero"/><path fill="#531139" d="M 160.980469 81.441406 C 160.28125 81.441406 159.582031 80.914062 159.230469 80.214844 C 158.707031 78.289062 157.132812 76.539062 155.035156 75.664062 C 152.9375 74.617188 150.664062 74.617188 148.738281 75.492188 C 147.863281 75.839844 146.8125 75.492188 146.464844 74.617188 C 146.113281 73.742188 146.464844 72.691406 147.339844 72.339844 C 150.136719 71.113281 153.460938 71.289062 156.433594 72.691406 C 159.40625 74.089844 161.679688 76.539062 162.554688 79.515625 C 162.90625 80.390625 162.378906 81.441406 161.332031 81.617188 C 161.332031 81.441406 161.15625 81.441406 160.980469 81.441406 Z M 160.980469 81.441406 " fill-opacity="1" fill-rule="nonzero"/><path fill="#531139" d="M 210.480469 111.367188 C 209.605469 111.367188 208.90625 110.84375 208.730469 109.96875 C 208.378906 108.042969 207.15625 106.117188 205.582031 104.894531 C 203.832031 103.667969 201.734375 103.144531 199.808594 103.492188 C 198.933594 103.667969 197.886719 102.96875 197.886719 102.09375 C 197.710938 101.21875 198.410156 100.167969 199.285156 100.167969 C 202.257812 99.640625 205.230469 100.34375 207.679688 102.09375 C 210.128906 103.84375 211.703125 106.46875 212.226562 109.269531 C 212.402344 110.144531 211.703125 111.195312 210.828125 111.367188 C 210.652344 111.367188 210.652344 111.367188 210.480469 111.367188 Z M 210.480469 111.367188 " fill-opacity="1" fill-rule="nonzero"/><path fill="#531139" d="M 169.375 121.167969 C 166.226562 121.167969 163.082031 120.46875 159.933594 118.894531 C 154.511719 115.917969 149.613281 107.691406 150.136719 101.742188 C 150.3125 98.941406 151.710938 96.84375 153.984375 96.140625 C 159.058594 94.21875 169.902344 100.167969 176.199219 104.894531 C 180.746094 108.394531 182.84375 111.367188 182.667969 113.644531 C 182.496094 115.917969 180.746094 117.84375 178.121094 119.417969 C 175.671875 120.292969 172.523438 121.167969 169.375 121.167969 Z M 156.085938 98.941406 C 155.558594 98.941406 155.210938 98.941406 154.859375 99.117188 C 154.511719 99.292969 153.460938 99.640625 153.285156 101.742188 C 152.9375 105.941406 156.609375 113.117188 161.332031 115.570312 C 166.753906 118.371094 172.523438 117.84375 176.023438 115.917969 C 177.597656 115.042969 178.648438 113.992188 178.820312 112.945312 C 178.820312 112.242188 177.246094 109.792969 172.175781 106.117188 C 166.226562 102.09375 159.40625 98.941406 156.085938 98.941406 Z M 156.085938 98.941406 " fill-opacity="1" fill-rule="nonzero"/><path fill="#531139" d="M 176.898438 139.722656 C 171.652344 139.722656 166.402344 137.269531 163.253906 133.246094 C 162.207031 131.84375 161.332031 130.269531 160.457031 128.695312 C 159.058594 126.246094 157.832031 123.792969 155.734375 122.570312 C 153.460938 121.167969 150.664062 121.167969 147.6875 121.167969 C 144.714844 121.167969 141.742188 121.167969 138.945312 119.945312 C 134.222656 117.84375 131.421875 112.417969 132.472656 107.34375 C 132.648438 106.46875 133.523438 105.769531 134.570312 105.941406 C 135.445312 106.117188 136.144531 106.992188 135.96875 108.042969 C 135.269531 111.542969 137.195312 115.394531 140.519531 116.792969 C 142.617188 117.667969 145.238281 117.667969 147.863281 117.667969 C 151.1875 117.667969 154.683594 117.667969 157.660156 119.417969 C 160.632812 121.167969 162.207031 124.144531 163.78125 126.945312 C 164.65625 128.34375 165.355469 129.746094 166.226562 130.96875 C 169.726562 135.519531 176.371094 137.269531 181.792969 135.34375 C 182.667969 134.996094 183.71875 135.519531 184.070312 136.394531 C 184.417969 137.269531 183.894531 138.320312 183.019531 138.671875 C 180.921875 139.371094 178.996094 139.722656 176.898438 139.722656 Z M 176.898438 139.722656 " fill-opacity="1" fill-rule="nonzero"/><path fill="#531139" d="M 99.589844 360.414062 C 99.414062 360.414062 99.414062 360.414062 99.589844 360.414062 C 91.546875 360.414062 84.023438 356.039062 80.699219 349.566406 C 77.027344 342.214844 79.476562 332.761719 86.121094 328.914062 C 87.347656 328.210938 88.570312 327.6875 89.621094 327.335938 C 91.019531 326.8125 92.417969 326.289062 93.46875 325.414062 C 95.917969 323.488281 97.140625 320.160156 98.367188 316.660156 C 106.410156 291.109375 111.832031 264.507812 114.632812 237.730469 C 114.808594 236.855469 115.507812 235.980469 116.554688 236.15625 C 117.429688 236.328125 118.304688 237.03125 118.128906 238.078125 C 115.507812 265.03125 109.910156 291.808594 101.6875 317.710938 C 100.464844 321.5625 98.890625 325.761719 95.566406 328.210938 C 94.167969 329.261719 92.417969 329.960938 90.84375 330.664062 C 89.796875 331.1875 88.746094 331.539062 87.695312 332.0625 C 82.625 335.039062 80.699219 342.390625 83.675781 348.164062 C 86.296875 353.414062 92.59375 357.089844 99.242188 357.089844 C 105.1875 357.089844 111.484375 354.640625 117.082031 349.914062 C 122.328125 345.539062 126.527344 339.9375 130.199219 334.339844 C 139.117188 321.035156 146.640625 306.511719 152.585938 291.632812 C 152.9375 290.757812 153.984375 290.234375 154.859375 290.585938 C 155.734375 290.933594 156.257812 291.984375 155.910156 292.859375 C 149.789062 308.085938 142.265625 322.613281 133.171875 336.261719 C 129.324219 342.039062 125.125 347.8125 119.53125 352.539062 C 113.234375 357.613281 106.238281 360.414062 99.589844 360.414062 Z M 99.589844 360.414062 " fill-opacity="1" fill-rule="nonzero"/><g clip-path="url(#id1)"><path fill="#531139" d="M 248.257812 369.167969 C 241.960938 369.167969 235.664062 368.464844 229.367188 367.765625 C 226.746094 367.417969 224.121094 367.242188 221.496094 366.890625 C 205.929688 365.492188 190.191406 366.015625 174.796875 366.539062 C 172.351562 366.539062 169.902344 366.714844 167.453125 366.714844 C 159.058594 366.890625 151.1875 366.890625 144.714844 362.515625 C 140.691406 359.714844 137.894531 354.816406 137.71875 349.914062 C 137.542969 346.0625 138.769531 342.738281 141.390625 340.464844 C 144.539062 337.664062 148.5625 337.136719 152.585938 336.789062 C 156.257812 336.261719 159.757812 335.914062 162.207031 333.636719 C 164.304688 331.539062 165.179688 327.863281 164.480469 323.664062 C 164.128906 321.210938 163.253906 318.9375 162.207031 316.488281 C 161.679688 315.085938 161.15625 313.6875 160.804688 312.285156 C 157.660156 301.960938 158.707031 290.410156 163.605469 280.957031 C 168.675781 271.332031 177.421875 263.980469 187.566406 260.480469 C 188.441406 260.132812 189.492188 260.65625 189.839844 261.53125 C 190.191406 262.40625 189.664062 263.457031 188.789062 263.808594 C 179.347656 266.957031 171.300781 273.78125 166.753906 282.535156 C 162.207031 291.285156 161.15625 301.785156 164.128906 311.234375 C 164.480469 312.636719 165.003906 314.035156 165.527344 315.261719 C 166.402344 317.710938 167.453125 320.335938 167.800781 323.136719 C 168.675781 328.386719 167.453125 333.289062 164.480469 336.261719 C 161.332031 339.414062 157.132812 339.9375 152.9375 340.464844 C 149.261719 340.988281 145.941406 341.339844 143.492188 343.4375 C 141.21875 345.363281 140.867188 348.164062 141.042969 350.089844 C 141.21875 353.941406 143.492188 357.789062 146.640625 359.890625 C 152.234375 363.742188 159.582031 363.742188 167.453125 363.566406 C 169.902344 363.566406 172.351562 363.390625 174.796875 363.390625 C 190.191406 362.867188 206.28125 362.339844 222.023438 363.742188 C 224.644531 363.914062 227.269531 364.265625 229.894531 364.617188 C 241.960938 366.015625 254.378906 367.242188 265.574219 363.390625 C 277.464844 359.367188 287.785156 349.566406 294.605469 335.914062 C 303.878906 317.710938 305.449219 296.183594 299.15625 276.757812 C 292.507812 256.632812 277.816406 239.480469 264.699219 224.429688 L 229.542969 184 C 228.84375 183.300781 229.019531 182.25 229.71875 181.550781 C 230.417969 180.851562 231.46875 181.023438 232.167969 181.726562 L 267.324219 222.152344 C 280.613281 237.378906 295.65625 254.882812 302.476562 275.707031 C 309.125 296.011719 307.375 318.585938 297.753906 337.488281 C 290.410156 352.015625 279.390625 362.339844 266.621094 366.714844 C 260.675781 368.464844 254.554688 369.167969 248.257812 369.167969 Z M 248.257812 369.167969 " fill-opacity="1" fill-rule="nonzero"/></g><path fill="#531139" d="M 164.65625 324.886719 C 164.480469 324.886719 164.304688 324.886719 163.953125 324.710938 C 157.132812 322.085938 150.835938 317.886719 145.941406 312.460938 C 145.238281 311.761719 145.238281 310.710938 145.941406 310.011719 C 146.640625 309.3125 147.6875 309.3125 148.386719 310.011719 C 153.109375 314.910156 158.882812 318.9375 165.179688 321.386719 C 166.054688 321.738281 166.578125 322.789062 166.226562 323.664062 C 166.054688 324.539062 165.355469 324.886719 164.65625 324.886719 Z M 164.65625 324.886719 " fill-opacity="1" fill-rule="nonzero"/><path fill="#531139" d="M 184.769531 207.277344 C 156.085938 207.277344 128.101562 199.578125 103.613281 184.699219 C 98.015625 181.375 92.417969 177.347656 88.921875 171.398438 C 85.597656 165.625 85.074219 156.871094 90.144531 151.621094 C 90.84375 150.921875 91.894531 150.921875 92.59375 151.621094 C 93.292969 152.320312 93.292969 153.371094 92.59375 154.074219 C 88.570312 158.273438 89.269531 165.097656 91.894531 169.824219 C 94.867188 175.074219 100.113281 178.75 105.363281 181.726562 C 129.5 196.25 158.359375 204.125 186.515625 203.777344 C 192.289062 203.777344 199.109375 203.25 205.230469 200.976562 C 211.527344 198.527344 216.25 194.152344 218.347656 189.074219 C 218.699219 188.199219 219.75 187.675781 220.625 188.023438 C 221.496094 188.375 222.023438 189.425781 221.671875 190.300781 C 219.222656 196.425781 213.800781 201.5 206.632812 204.300781 C 199.984375 206.925781 192.8125 207.277344 186.691406 207.453125 C 185.992188 207.277344 185.292969 207.277344 184.769531 207.277344 Z M 184.769531 207.277344 " fill-opacity="1" fill-rule="nonzero"/><path fill="#531139" d="M 104.488281 214.976562 C 99.242188 214.976562 94.167969 212.175781 91.546875 207.800781 C 89.445312 204.300781 89.097656 199.925781 90.320312 195.726562 C 92.417969 188.550781 100.113281 183.300781 107.636719 184 C 114.980469 184.699219 119.53125 192.226562 119.53125 199.050781 C 119.703125 205.875 115.15625 212.175781 108.859375 214.277344 C 107.460938 214.800781 105.886719 214.976562 104.488281 214.976562 Z M 106.0625 187.5 C 100.640625 187.5 95.042969 191.527344 93.46875 196.777344 C 92.59375 199.925781 92.945312 203.425781 94.519531 206.050781 C 96.96875 210.425781 102.914062 212.527344 107.8125 210.953125 C 112.535156 209.378906 116.207031 204.300781 116.03125 199.226562 C 115.855469 193.976562 112.535156 188.199219 107.285156 187.675781 C 106.761719 187.5 106.410156 187.5 106.0625 187.5 Z M 106.0625 187.5 " fill-opacity="1" fill-rule="nonzero"/><path fill="#531139" d="M 109.386719 280.609375 C 108.859375 280.609375 108.511719 280.433594 108.160156 280.082031 C 80.699219 249.804688 71.957031 203.953125 86.296875 165.625 C 86.648438 164.75 87.695312 164.222656 88.570312 164.574219 C 89.445312 164.921875 89.972656 165.972656 89.621094 166.847656 C 75.628906 203.777344 84.199219 248.40625 110.785156 277.632812 C 111.484375 278.332031 111.308594 279.382812 110.609375 280.082031 C 110.257812 280.433594 109.734375 280.609375 109.386719 280.609375 Z M 109.386719 280.609375 " fill-opacity="1" fill-rule="nonzero"/><path fill="#531139" d="M 79.828125 202.726562 C 79.300781 202.726562 78.953125 202.550781 78.601562 202.203125 C 52.015625 175.773438 37.5 136.394531 38.550781 94.390625 C 38.722656 86.515625 39.949219 75.492188 47.644531 69.539062 C 53.066406 65.339844 60.9375 64.816406 66.882812 68.140625 C 70.90625 70.414062 73.179688 75.316406 75.105469 79.164062 C 75.804688 80.742188 76.679688 82.316406 77.203125 83.015625 C 77.902344 83.714844 77.726562 84.941406 77.027344 85.464844 C 76.328125 86.339844 75.277344 86.167969 74.578125 85.464844 C 73.703125 84.417969 72.832031 82.667969 71.957031 80.742188 C 70.382812 77.242188 68.28125 73.039062 65.308594 71.289062 C 60.585938 68.664062 54.289062 69.015625 49.917969 72.339844 C 43.273438 77.414062 42.398438 87.390625 42.222656 94.390625 C 41.171875 135.519531 55.339844 173.847656 81.226562 199.578125 C 81.925781 200.277344 81.925781 201.328125 81.226562 202.027344 C 80.699219 202.550781 80.351562 202.726562 79.828125 202.726562 Z M 79.828125 202.726562 " fill-opacity="1" fill-rule="nonzero"/><g clip-path="url(#id2)"><path fill="#531139" d="M 303.527344 324.539062 C 302.828125 324.539062 301.953125 324.011719 301.777344 323.136719 C 301.601562 322.261719 302.128906 321.210938 303.003906 321.035156 C 322.941406 316.136719 339.90625 300.910156 347.078125 281.484375 L 337.457031 286.035156 C 336.757812 286.382812 335.710938 286.207031 335.183594 285.332031 C 334.660156 284.632812 334.835938 283.582031 335.535156 283.058594 C 343.230469 276.40625 347.777344 265.90625 347.777344 255.757812 L 342.355469 262.933594 C 341.832031 263.632812 340.957031 263.808594 340.257812 263.457031 C 339.558594 263.105469 339.207031 262.230469 339.382812 261.355469 C 343.929688 246.480469 341.132812 229.503906 332.734375 216.378906 C 333.785156 244.90625 324.515625 273.78125 307.023438 296.183594 C 306.5 296.886719 305.277344 297.058594 304.578125 296.535156 C 303.878906 296.007812 303.703125 294.785156 304.226562 294.085938 C 322.417969 270.632812 331.335938 240.355469 328.886719 210.777344 C 328.886719 210.078125 329.238281 209.378906 329.9375 209.027344 C 330.636719 208.675781 331.511719 208.851562 331.863281 209.550781 C 342.003906 221.804688 346.726562 238.78125 344.453125 254.53125 L 347.953125 249.980469 C 348.300781 249.457031 349.175781 249.105469 349.875 249.28125 C 350.574219 249.457031 351.101562 249.980469 351.101562 250.679688 C 352.5 260.65625 349.875 270.808594 344.105469 278.859375 L 349.527344 276.234375 C 350.226562 275.882812 350.925781 276.058594 351.449219 276.40625 C 351.976562 276.933594 352.148438 277.632812 351.976562 278.160156 C 345.328125 300.386719 326.613281 318.410156 304.050781 323.835938 C 303.878906 324.539062 303.703125 324.539062 303.527344 324.539062 Z M 303.527344 324.539062 " fill-opacity="1" fill-rule="nonzero"/></g></svg>