<svg xmlns="http://www.w3.org/2000/svg" xmlns:xlink="http://www.w3.org/1999/xlink" width="500" zoomAndPan="magnify" viewBox="0 0 375 374.999991" height="500" preserveAspectRatio="xMidYMid meet" version="1.0"><defs><clipPath id="id1"><path d="M 34 43.957031 L 340.730469 43.957031 L 340.730469 331.207031 L 34 331.207031 Z M 34 43.957031 " clip-rule="nonzero"/></clipPath></defs><g clip-path="url(#id1)"><path fill="#896859" d="M 86.320312 43.957031 C 72.347656 43.957031 60.613281 55.15625 51.078125 67.128906 C 46.3125 73.113281 42.21875 79.515625 39.226562 85.578125 C 36.234375 91.640625 34.171875 97.140625 34.171875 102.714844 C 34.171875 112.675781 40.234375 120.867188 47.691406 126.417969 C 53.246094 130.554688 59.746094 133.476562 66.40625 134.707031 C 58.683594 144.960938 53.726562 157.441406 53.726562 171.261719 C 53.726562 205.4375 81.53125 233.28125 115.652344 233.28125 L 153.910156 233.28125 C 153.257812 234.839844 152.609375 236.398438 151.960938 238.292969 C 148.507812 248.425781 145.144531 263.835938 144.984375 285.457031 C 144.976562 286.652344 145.273438 287.769531 145.875 288.800781 C 145.875 288.800781 152.535156 299.996094 167.800781 310.476562 C 183.066406 320.957031 207.316406 331.207031 242.761719 331.207031 C 278.207031 331.207031 302.457031 320.957031 317.722656 310.476562 C 332.988281 299.996094 339.648438 288.800781 339.648438 288.800781 C 340.25 287.769531 340.546875 286.652344 340.539062 285.457031 C 340.378906 263.835938 337.015625 248.425781 333.5625 238.292969 C 331.117188 231.125 329.6875 229.519531 328.328125 227.339844 C 329.078125 226.28125 329.289062 226.351562 330.074219 224.777344 C 332.089844 220.734375 334.019531 214.785156 334.019531 207.167969 C 334.019531 181.832031 319.558594 163.917969 319.558594 163.917969 C 318.933594 163.140625 318.175781 162.535156 317.277344 162.109375 C 316.378906 161.679688 315.433594 161.464844 314.4375 161.46875 C 312.921875 161.476562 311.574219 161.949219 310.390625 162.898438 L 280.472656 186.871094 C 275.886719 185.148438 263.820312 181.054688 242.761719 181.054688 C 234.804688 181.054688 227.96875 181.738281 222.113281 182.648438 C 222.800781 178.949219 223.207031 175.15625 223.207031 171.261719 C 223.207031 157.441406 218.25 144.960938 210.527344 134.707031 C 217.1875 133.476562 223.6875 130.554688 229.242188 126.417969 C 236.699219 120.867188 242.761719 112.675781 242.761719 102.714844 C 242.761719 97.140625 240.699219 91.640625 237.707031 85.578125 C 234.714844 79.515625 230.621094 73.113281 225.855469 67.128906 C 216.320312 55.15625 204.585938 43.957031 190.613281 43.957031 C 183.175781 43.957031 176.441406 47.136719 171.683594 52.183594 C 161.742188 46.949219 150.449219 43.957031 138.464844 43.957031 C 126.484375 43.957031 115.191406 46.949219 105.25 52.183594 C 100.488281 47.136719 93.757812 43.957031 86.320312 43.957031 Z M 86.320312 57.015625 C 89.21875 57.015625 91.800781 58.019531 93.945312 59.589844 C 77.414062 72.761719 66.765625 93.03125 66.765625 115.769531 C 66.765625 117.671875 66.917969 119.523438 67.121094 121.355469 C 63.089844 120.320312 58.886719 118.480469 55.472656 115.9375 C 50.234375 112.039062 47.207031 107.175781 47.207031 102.714844 C 47.207031 101.078125 48.40625 96.449219 50.914062 91.367188 C 53.421875 86.285156 57.070312 80.53125 61.265625 75.261719 C 69.65625 64.726562 80.734375 57.015625 86.320312 57.015625 Z M 138.464844 57.015625 C 170.945312 57.015625 197.132812 83.242188 197.132812 115.769531 C 197.132812 121.089844 196.359375 126.246094 195.007812 131.238281 C 194.859375 131.78125 194.785156 132.332031 194.777344 132.894531 C 194.773438 133.457031 194.839844 134.011719 194.980469 134.558594 C 195.117188 135.101562 195.324219 135.621094 195.59375 136.113281 C 195.867188 136.605469 196.195312 137.054688 196.585938 137.460938 C 204.992188 146.269531 210.167969 158.105469 210.167969 171.261719 C 210.167969 198.378906 188.355469 220.226562 161.28125 220.226562 L 144.984375 220.226562 L 144.984375 192.9375 C 150.285156 191.019531 154.367188 187.019531 157.398438 183.210938 C 159.484375 180.585938 161.121094 177.914062 162.324219 175.46875 C 163.53125 173.027344 164.539062 171.546875 164.539062 168 C 164.539062 164.449219 162.414062 161.832031 160.515625 160.335938 C 158.621094 158.839844 156.597656 157.933594 154.355469 157.1875 C 149.875 155.6875 144.453125 154.941406 138.464844 154.941406 C 132.480469 154.941406 127.058594 155.6875 122.578125 157.1875 C 120.335938 157.933594 118.3125 158.839844 116.417969 160.335938 C 114.519531 161.832031 112.394531 164.449219 112.394531 168 C 112.394531 171.546875 113.402344 173.027344 114.609375 175.46875 C 115.8125 177.914062 117.445312 180.585938 119.535156 183.210938 C 122.566406 187.019531 126.648438 191.019531 131.949219 192.9375 L 131.949219 220.226562 L 115.652344 220.226562 C 88.578125 220.226562 66.765625 198.378906 66.765625 171.261719 C 66.765625 158.105469 71.9375 146.269531 80.347656 137.460938 C 80.734375 137.054688 81.066406 136.605469 81.339844 136.113281 C 81.609375 135.621094 81.816406 135.101562 81.953125 134.558594 C 82.09375 134.011719 82.160156 133.457031 82.15625 132.894531 C 82.148438 132.332031 82.074219 131.78125 81.925781 131.238281 C 80.574219 126.246094 79.800781 121.089844 79.800781 115.769531 C 79.800781 83.242188 105.988281 57.015625 138.464844 57.015625 Z M 190.613281 57.015625 C 196.199219 57.015625 207.277344 64.726562 215.667969 75.261719 C 219.863281 80.53125 223.511719 86.285156 226.019531 91.367188 C 228.527344 96.449219 229.726562 101.078125 229.726562 102.714844 C 229.726562 107.175781 226.699219 112.039062 221.460938 115.9375 C 218.046875 118.480469 213.84375 120.320312 209.8125 121.355469 C 210.015625 119.523438 210.167969 117.671875 210.167969 115.769531 C 210.167969 93.03125 199.519531 72.761719 182.988281 59.589844 C 185.132812 58.019531 187.714844 57.015625 190.613281 57.015625 Z M 115.652344 122.300781 C 115.011719 122.300781 114.375 122.363281 113.746094 122.488281 C 113.113281 122.613281 112.503906 122.800781 111.910156 123.046875 C 111.316406 123.292969 110.753906 123.59375 110.21875 123.949219 C 109.6875 124.308594 109.191406 124.714844 108.738281 125.167969 C 108.285156 125.621094 107.878906 126.117188 107.523438 126.652344 C 107.164062 127.1875 106.863281 127.75 106.617188 128.34375 C 106.375 128.9375 106.1875 129.550781 106.0625 130.183594 C 105.9375 130.8125 105.875 131.449219 105.875 132.09375 C 105.875 132.734375 105.9375 133.371094 106.0625 134.003906 C 106.1875 134.632812 106.375 135.246094 106.617188 135.839844 C 106.863281 136.433594 107.164062 137 107.523438 137.53125 C 107.878906 138.066406 108.285156 138.5625 108.738281 139.015625 C 109.191406 139.472656 109.6875 139.878906 110.21875 140.234375 C 110.753906 140.59375 111.316406 140.894531 111.910156 141.140625 C 112.503906 141.386719 113.113281 141.570312 113.746094 141.695312 C 114.375 141.820312 115.011719 141.886719 115.652344 141.886719 C 116.292969 141.886719 116.929688 141.820312 117.558594 141.695312 C 118.1875 141.570312 118.800781 141.386719 119.394531 141.140625 C 119.988281 140.894531 120.550781 140.59375 121.085938 140.234375 C 121.617188 139.878906 122.113281 139.472656 122.566406 139.015625 C 123.019531 138.5625 123.425781 138.066406 123.78125 137.53125 C 124.140625 137 124.441406 136.433594 124.6875 135.839844 C 124.929688 135.246094 125.117188 134.632812 125.242188 134.003906 C 125.367188 133.371094 125.429688 132.734375 125.429688 132.09375 C 125.429688 131.449219 125.367188 130.8125 125.242188 130.183594 C 125.117188 129.550781 124.929688 128.9375 124.6875 128.34375 C 124.441406 127.75 124.140625 127.1875 123.78125 126.652344 C 123.425781 126.117188 123.019531 125.621094 122.566406 125.167969 C 122.113281 124.714844 121.617188 124.308594 121.085938 123.949219 C 120.550781 123.59375 119.988281 123.292969 119.394531 123.046875 C 118.800781 122.800781 118.1875 122.613281 117.558594 122.488281 C 116.929688 122.363281 116.292969 122.300781 115.652344 122.300781 Z M 161.28125 122.300781 C 160.640625 122.300781 160.003906 122.363281 159.375 122.488281 C 158.742188 122.613281 158.132812 122.800781 157.539062 123.046875 C 156.945312 123.292969 156.382812 123.59375 155.847656 123.949219 C 155.316406 124.308594 154.820312 124.714844 154.367188 125.167969 C 153.914062 125.621094 153.507812 126.117188 153.152344 126.652344 C 152.792969 127.1875 152.492188 127.75 152.246094 128.34375 C 152.003906 128.9375 151.816406 129.550781 151.691406 130.183594 C 151.566406 130.8125 151.503906 131.449219 151.503906 132.09375 C 151.503906 132.734375 151.566406 133.371094 151.691406 134.003906 C 151.816406 134.632812 152.003906 135.246094 152.246094 135.839844 C 152.492188 136.433594 152.792969 137 153.152344 137.53125 C 153.507812 138.066406 153.914062 138.5625 154.367188 139.015625 C 154.820312 139.472656 155.316406 139.878906 155.847656 140.234375 C 156.382812 140.59375 156.945312 140.894531 157.539062 141.140625 C 158.132812 141.386719 158.742188 141.570312 159.375 141.695312 C 160.003906 141.820312 160.640625 141.886719 161.28125 141.886719 C 161.921875 141.886719 162.558594 141.820312 163.1875 141.695312 C 163.820312 141.570312 164.429688 141.386719 165.023438 141.140625 C 165.617188 140.894531 166.179688 140.59375 166.714844 140.234375 C 167.246094 139.878906 167.742188 139.472656 168.195312 139.015625 C 168.648438 138.5625 169.054688 138.066406 169.410156 137.53125 C 169.769531 137 170.070312 136.433594 170.316406 135.839844 C 170.558594 135.246094 170.746094 134.632812 170.871094 134.003906 C 170.996094 133.371094 171.058594 132.734375 171.058594 132.09375 C 171.058594 131.449219 170.996094 130.8125 170.871094 130.183594 C 170.746094 129.550781 170.558594 128.9375 170.316406 128.34375 C 170.070312 127.75 169.769531 127.1875 169.410156 126.652344 C 169.054688 126.117188 168.648438 125.621094 168.195312 125.167969 C 167.742188 124.714844 167.246094 124.308594 166.714844 123.949219 C 166.179688 123.59375 165.617188 123.292969 165.023438 123.046875 C 164.429688 122.800781 163.820312 122.613281 163.1875 122.488281 C 162.558594 122.363281 161.921875 122.300781 161.28125 122.300781 Z M 138.464844 168 C 143.28125 168 147.636719 168.714844 150.230469 169.578125 C 150.445312 169.652344 150.410156 169.671875 150.601562 169.746094 C 149.824219 171.304688 148.632812 173.273438 147.199219 175.074219 C 144.300781 178.71875 140.65625 181.054688 138.464844 181.054688 C 136.277344 181.054688 132.632812 178.71875 129.734375 175.074219 C 128.300781 173.273438 127.109375 171.304688 126.332031 169.746094 C 126.523438 169.671875 126.488281 169.652344 126.703125 169.578125 C 129.296875 168.714844 133.652344 168 138.464844 168 Z M 312.707031 177.765625 C 316.09375 183.261719 320.984375 192.652344 320.984375 207.167969 C 320.984375 212.609375 319.652344 216.453125 318.410156 218.9375 C 317.171875 221.421875 316.375 222.136719 316.375 222.136719 C 316.097656 222.414062 315.847656 222.714844 315.628906 223.035156 C 315.40625 223.355469 315.214844 223.695312 315.050781 224.050781 C 314.890625 224.40625 314.761719 224.773438 314.664062 225.152344 C 314.570312 225.53125 314.507812 225.917969 314.480469 226.304688 C 314.457031 226.695312 314.464844 227.085938 314.507812 227.472656 C 314.550781 227.863281 314.628906 228.246094 314.738281 228.617188 C 314.851562 228.992188 314.996094 229.355469 315.171875 229.703125 C 315.347656 230.050781 315.554688 230.382812 315.789062 230.695312 C 315.789062 230.695312 318.222656 233.75 321.210938 242.515625 C 324.085938 250.945312 326.992188 264.519531 327.347656 283.597656 C 326.222656 285.371094 321.902344 291.785156 310.351562 299.714844 C 297.089844 308.820312 275.722656 318.152344 242.761719 318.152344 C 209.800781 318.152344 188.433594 308.820312 175.171875 299.714844 C 163.621094 291.785156 159.300781 285.371094 158.175781 283.597656 C 158.53125 264.519531 161.4375 250.945312 164.3125 242.515625 C 166.082031 237.324219 167.445312 234.574219 168.4375 232.835938 C 190.398438 230.285156 208.875 216.164062 217.667969 196.738281 C 223.839844 195.375 232.242188 194.113281 242.761719 194.113281 C 266.148438 194.113281 279.210938 200.066406 279.210938 200.066406 C 279.757812 200.3125 280.328125 200.480469 280.917969 200.566406 C 281.511719 200.65625 282.105469 200.664062 282.699219 200.585938 C 283.292969 200.511719 283.867188 200.355469 284.417969 200.125 C 284.96875 199.890625 285.476562 199.585938 285.945312 199.210938 Z M 219.945312 239.8125 C 219.304688 239.8125 218.667969 239.875 218.039062 240 C 217.410156 240.125 216.796875 240.308594 216.207031 240.554688 C 215.613281 240.800781 215.046875 241.105469 214.515625 241.460938 C 213.980469 241.820312 213.488281 242.222656 213.035156 242.679688 C 212.578125 243.132812 212.175781 243.628906 211.816406 244.164062 C 211.460938 244.699219 211.160156 245.261719 210.914062 245.855469 C 210.667969 246.449219 210.484375 247.0625 210.355469 247.691406 C 210.230469 248.324219 210.167969 248.960938 210.167969 249.605469 C 210.167969 250.246094 210.230469 250.882812 210.355469 251.515625 C 210.484375 252.144531 210.667969 252.757812 210.914062 253.351562 C 211.160156 253.945312 211.460938 254.507812 211.816406 255.042969 C 212.175781 255.578125 212.578125 256.074219 213.035156 256.527344 C 213.488281 256.984375 213.980469 257.390625 214.515625 257.746094 C 215.046875 258.101562 215.613281 258.40625 216.207031 258.652344 C 216.796875 258.898438 217.410156 259.082031 218.039062 259.207031 C 218.667969 259.332031 219.304688 259.394531 219.945312 259.394531 C 220.589844 259.394531 221.226562 259.332031 221.855469 259.207031 C 222.484375 259.082031 223.097656 258.898438 223.6875 258.652344 C 224.28125 258.40625 224.84375 258.101562 225.378906 257.746094 C 225.914062 257.390625 226.40625 256.984375 226.859375 256.527344 C 227.316406 256.074219 227.71875 255.578125 228.078125 255.042969 C 228.433594 254.507812 228.734375 253.945312 228.980469 253.351562 C 229.226562 252.757812 229.410156 252.144531 229.535156 251.515625 C 229.664062 250.882812 229.726562 250.246094 229.726562 249.605469 C 229.726562 248.960938 229.664062 248.324219 229.535156 247.691406 C 229.410156 247.0625 229.226562 246.449219 228.980469 245.855469 C 228.734375 245.261719 228.433594 244.699219 228.078125 244.164062 C 227.71875 243.628906 227.316406 243.132812 226.859375 242.679688 C 226.40625 242.222656 225.914062 241.820312 225.378906 241.460938 C 224.84375 241.105469 224.28125 240.800781 223.6875 240.554688 C 223.097656 240.308594 222.484375 240.125 221.855469 240 C 221.226562 239.875 220.589844 239.8125 219.945312 239.8125 Z M 265.578125 239.8125 C 264.933594 239.8125 264.296875 239.875 263.667969 240 C 263.039062 240.125 262.425781 240.308594 261.835938 240.554688 C 261.242188 240.800781 260.679688 241.105469 260.144531 241.460938 C 259.609375 241.820312 259.117188 242.222656 258.664062 242.679688 C 258.207031 243.132812 257.804688 243.628906 257.445312 244.164062 C 257.089844 244.699219 256.789062 245.261719 256.542969 245.855469 C 256.296875 246.449219 256.113281 247.0625 255.988281 247.691406 C 255.859375 248.324219 255.796875 248.960938 255.796875 249.605469 C 255.796875 250.246094 255.859375 250.882812 255.988281 251.515625 C 256.113281 252.144531 256.296875 252.757812 256.542969 253.351562 C 256.789062 253.945312 257.089844 254.507812 257.445312 255.042969 C 257.804688 255.578125 258.207031 256.074219 258.664062 256.527344 C 259.117188 256.984375 259.609375 257.390625 260.144531 257.746094 C 260.679688 258.101562 261.242188 258.40625 261.835938 258.652344 C 262.425781 258.898438 263.039062 259.082031 263.667969 259.207031 C 264.296875 259.332031 264.933594 259.394531 265.578125 259.394531 C 266.21875 259.394531 266.855469 259.332031 267.484375 259.207031 C 268.113281 259.082031 268.726562 258.898438 269.316406 258.652344 C 269.910156 258.40625 270.472656 258.101562 271.007812 257.746094 C 271.542969 257.390625 272.035156 256.984375 272.488281 256.527344 C 272.945312 256.074219 273.347656 255.578125 273.707031 255.042969 C 274.0625 254.507812 274.363281 253.945312 274.609375 253.351562 C 274.855469 252.757812 275.039062 252.144531 275.167969 251.515625 C 275.292969 250.882812 275.355469 250.246094 275.355469 249.605469 C 275.355469 248.960938 275.292969 248.324219 275.167969 247.691406 C 275.039062 247.0625 274.855469 246.449219 274.609375 245.855469 C 274.363281 245.261719 274.0625 244.699219 273.707031 244.164062 C 273.347656 243.628906 272.945312 243.132812 272.488281 242.679688 C 272.035156 242.222656 271.542969 241.820312 271.007812 241.460938 C 270.472656 241.105469 269.910156 240.800781 269.316406 240.554688 C 268.726562 240.308594 268.113281 240.125 267.484375 240 C 266.855469 239.875 266.21875 239.8125 265.578125 239.8125 Z M 242.761719 265.925781 C 231.960938 265.925781 223.207031 268.847656 223.207031 272.453125 C 223.207031 274.710938 228.3125 281.824219 233.734375 286.824219 C 231.390625 289.347656 227.878906 292.039062 223.207031 292.039062 L 223.207031 305.09375 C 232.378906 305.09375 238.609375 300.679688 242.761719 296.296875 C 246.914062 300.679688 253.144531 305.09375 262.316406 305.09375 L 262.316406 292.039062 C 257.644531 292.039062 254.132812 289.347656 251.789062 286.824219 C 257.210938 281.824219 262.316406 274.710938 262.316406 272.453125 C 262.316406 268.847656 253.5625 265.925781 242.761719 265.925781 Z M 242.761719 265.925781 " fill-opacity="1" fill-rule="nonzero"/></g></svg>