<svg xmlns="http://www.w3.org/2000/svg" xmlns:xlink="http://www.w3.org/1999/xlink" width="500" zoomAndPan="magnify" viewBox="0 0 375 374.999991" height="500" preserveAspectRatio="xMidYMid meet" version="1.0"><path fill="#000000" d="M 370 232.632812 C 369.761719 233.402344 369.289062 234.171875 368.734375 234.765625 C 357.734375 246.78125 344.957031 256.34375 330.246094 263.378906 C 309.847656 273.140625 288.679688 280.53125 266.582031 285.355469 C 256.3125 287.585938 245.964844 289.128906 235.558594 290.433594 C 216.363281 292.84375 197.089844 293.851562 177.757812 293.417969 C 170.214844 293.238281 162.671875 292.546875 155.125 292.152344 C 146.457031 291.695312 137.847656 290.628906 129.277344 289.304688 C 104.769531 285.53125 80.660156 280.097656 57.496094 271.046875 C 44.542969 265.988281 32.121094 259.921875 21.160156 251.207031 C 18.316406 248.953125 15.691406 246.40625 13.121094 243.855469 C 11.957031 242.691406 11.050781 241.226562 10.179688 239.785156 C 9.035156 237.886719 8.148438 235.914062 6.664062 234.132812 C 3.703125 230.578125 5.242188 224.589844 9.449219 222.160156 C 10.890625 221.328125 12.453125 220.714844 14.070312 219.945312 C 16.519531 211.390625 19.007812 203.207031 21.199219 194.96875 C 24.953125 180.996094 30.382812 167.660156 36.347656 154.519531 C 38.953125 148.789062 41.933594 143.234375 44.738281 137.601562 C 47.324219 132.40625 51.273438 128.632812 56.410156 125.945312 C 61.148438 123.453125 66.242188 121.992188 71.320312 120.429688 C 72.386719 120.09375 73.472656 119.859375 74.695312 119.523438 C 75.367188 118.59375 76 117.484375 76.867188 116.597656 C 78.230469 115.195312 79.574219 113.710938 81.191406 112.683594 C 84.984375 110.273438 89.03125 109.917969 93.160156 112.03125 C 94.265625 112.585938 95.351562 113.160156 96.457031 113.710938 C 103.46875 103.851562 112.453125 99.425781 124.539062 102.902344 C 124.914062 102.449219 125.308594 102.074219 125.605469 101.617188 C 127.855469 98.003906 131.171875 95.769531 135.121094 94.425781 C 141.066406 92.390625 147.128906 91.875 153.488281 93.496094 C 155.855469 91.105469 158.1875 88.476562 161.289062 86.777344 C 164.507812 85 167.921875 83.914062 171.535156 83.222656 C 175.03125 82.550781 178.449219 82.46875 181.945312 83.121094 C 185.417969 83.773438 188.558594 85.238281 191.660156 86.898438 C 197.503906 83.300781 203.644531 81.265625 210.5 82.253906 C 217.132812 83.222656 222.820312 85.808594 226.730469 91.894531 C 228.429688 91.558594 230.167969 91.164062 231.90625 90.847656 C 240.257812 89.289062 247.820312 92.648438 252.363281 99.878906 C 252.582031 100.234375 252.816406 100.570312 253.152344 101.066406 C 255.167969 101.441406 257.222656 100.964844 259.273438 100.730469 C 263.519531 100.234375 267.6875 100.730469 271.695312 102.011719 C 276.710938 103.613281 280.464844 106.777344 282.933594 111.519531 C 284 113.574219 284.335938 115.726562 284.472656 118.21875 C 285.242188 118.257812 285.894531 118.375 286.527344 118.277344 C 289.921875 117.820312 293.21875 118.355469 296.5 119.144531 C 297.445312 119.382812 298.414062 119.777344 299.363281 119.738281 C 304.300781 119.523438 308.605469 121.753906 313.105469 123.15625 C 316.71875 124.265625 320.058594 126.082031 323.195312 128.234375 C 326.75 130.667969 329.238281 134.027344 331.195312 137.800781 C 336.113281 147.226562 340.632812 156.851562 344.78125 166.671875 C 350.351562 179.871094 354.261719 193.585938 358.128906 207.320312 C 359.117188 210.816406 360.066406 214.332031 360.953125 217.851562 C 361.328125 219.332031 362.058594 220.378906 363.582031 220.816406 C 364.253906 221.011719 364.863281 221.347656 365.515625 221.625 C 370.273438 223.820312 371.28125 228.582031 370 232.632812 Z M 370 232.632812 " fill-opacity="1" fill-rule="nonzero"/><path fill="#38beb9" d="M 58.363281 131.59375 C 58.71875 131.398438 59.074219 131.21875 59.429688 131.042969 C 63.320312 129.183594 67.191406 127.289062 71.496094 125.824219 C 71.988281 128.136719 70.132812 128.886719 69.601562 130.390625 C 70.449219 133.335938 72.484375 135.429688 74.894531 137.148438 C 76.828125 138.511719 78.941406 139.636719 81.054688 140.746094 C 90.632812 145.804688 100.78125 149.320312 111.128906 152.34375 C 122.820312 155.761719 134.726562 158.113281 146.753906 160.070312 C 161.839844 162.519531 177.046875 163.589844 192.3125 163.925781 C 201.554688 164.140625 210.773438 163.429688 219.976562 162.640625 C 227.5 161.988281 235.003906 161.175781 242.46875 159.914062 C 256.964844 157.480469 271.320312 154.5 285.28125 149.875 C 293.242188 147.226562 301.121094 144.28125 308.386719 139.992188 C 309.945312 139.085938 311.40625 137.976562 312.808594 136.832031 C 313.9375 135.902344 313.875 134.933594 312.59375 134.144531 C 311.84375 133.691406 311.210938 133.273438 310.875 132.445312 C 310.300781 131.082031 309.511719 129.796875 309.039062 127.941406 C 311.488281 128.511719 313.265625 129.597656 315.140625 130.390625 C 318.496094 131.832031 321.203125 133.90625 323.394531 136.574219 C 322.507812 137.640625 321.480469 138.628906 320.375 139.539062 C 320.078125 139.382812 319.878906 139.300781 319.761719 139.363281 C 318.496094 139.953125 317.273438 140.605469 316.070312 141.316406 C 311.605469 143.925781 307.101562 146.457031 302.34375 148.53125 C 289.230469 154.222656 275.664062 158.53125 261.722656 161.652344 C 250.941406 164.0625 240.039062 165.761719 229.042969 166.886719 C 222.089844 167.621094 215.121094 168.351562 208.128906 168.390625 C 199.460938 168.449219 190.769531 168.546875 182.101562 168.371094 C 175.664062 168.230469 169.226562 167.976562 162.828125 167.261719 C 153.527344 166.234375 144.246094 164.851562 135.003906 163.410156 C 119.898438 161.039062 105.34375 156.613281 91.085938 151.140625 C 82.832031 147.976562 75.089844 143.789062 67.605469 139.085938 C 66.324219 138.273438 64.921875 137.601562 63.519531 137.011719 C 63.222656 136.890625 62.945312 136.890625 62.707031 136.988281 C 61.011719 135.390625 59.292969 133.652344 58.363281 131.59375 Z M 58.363281 131.59375 " fill-opacity="1" fill-rule="nonzero"/><path fill="#00b6b9" d="M 364.074219 225.992188 C 363.523438 225.578125 362.910156 225.203125 362.257812 224.945312 C 359.433594 223.820312 357.835938 221.664062 356.90625 218.859375 C 354.890625 212.753906 352.621094 206.707031 350.804688 200.539062 C 344.722656 179.910156 336.449219 160.230469 326.4375 141.21875 C 325.546875 139.539062 324.539062 137.996094 323.394531 136.632812 C 322.507812 137.703125 321.480469 138.691406 320.375 139.597656 C 320.628906 139.738281 320.964844 139.914062 321.398438 140.113281 C 319.957031 141.140625 319.070312 141.792969 318.160156 142.40625 C 308.425781 148.867188 297.902344 153.6875 286.863281 157.421875 C 274.519531 161.59375 261.921875 164.695312 249.085938 166.847656 C 239.152344 168.527344 229.179688 170.03125 219.128906 170.621094 C 206.570312 171.355469 193.96875 172.105469 181.371094 171.253906 C 175.367188 170.839844 169.34375 170.664062 163.363281 170.167969 C 157.378906 169.675781 151.394531 169.023438 145.429688 168.191406 C 136.425781 166.949219 127.460938 165.503906 118.632812 163.273438 C 106.429688 160.167969 94.324219 156.730469 82.851562 151.476562 C 78.40625 149.4375 74.082031 147.109375 69.816406 144.734375 C 66.777344 143.035156 64.03125 140.882812 61.898438 138.195312 C 62.058594 137.601562 62.351562 137.226562 62.6875 137.070312 C 61.011719 135.429688 59.292969 133.691406 58.382812 131.636719 C 54.59375 133.691406 51.710938 136.675781 49.773438 140.625 C 46.4375 147.402344 42.902344 154.101562 39.761719 160.960938 C 33.324219 174.929688 28.191406 189.433594 23.824219 204.234375 C 22.363281 209.195312 20.449219 214.015625 18.828125 218.9375 C 17.960938 221.605469 16.5 223.679688 13.832031 224.785156 C 13.4375 224.945312 13.082031 225.164062 12.726562 225.378906 C 10.359375 226.824219 9.667969 228.363281 10.476562 231.03125 C 10.832031 232.199219 11.386719 233.441406 12.195312 234.332031 C 16.203125 238.835938 20.25 243.261719 25.070312 246.957031 C 34.589844 254.269531 45.113281 259.722656 56.152344 264.269531 C 79.828125 273.992188 104.574219 279.722656 129.769531 283.613281 C 137.789062 284.859375 145.824219 285.945312 153.941406 286.402344 C 161.898438 286.855469 169.859375 287.546875 177.835938 287.765625 C 188.046875 288.019531 198.273438 287.902344 208.484375 287.25 C 218.121094 286.636719 227.738281 285.90625 237.316406 284.660156 C 246.183594 283.515625 255.027344 282.230469 263.816406 280.433594 C 286.113281 275.867188 307.476562 268.578125 328.113281 259.03125 C 340.417969 253.339844 351.296875 245.515625 361.566406 236.78125 C 363.699219 234.964844 364.984375 232.730469 365.59375 230.082031 C 365.96875 228.402344 365.4375 227 364.074219 225.992188 Z M 352.957031 230.953125 C 352.265625 231.644531 351.574219 232.335938 350.785156 232.910156 C 341.070312 240.121094 330.5625 245.929688 319.386719 250.535156 C 299.699219 258.636719 279.476562 265.15625 258.664062 269.683594 C 249.636719 271.640625 240.554688 273.160156 231.390625 274.425781 C 215.949219 276.539062 200.445312 277.230469 184.886719 276.738281 C 177.757812 276.519531 170.628906 275.929688 163.519531 275.316406 C 156.824219 274.742188 150.128906 274.089844 143.496094 273.179688 C 134.351562 271.917969 125.25 270.375 116.222656 268.4375 C 103.507812 265.691406 90.886719 262.550781 78.585938 258.320312 C 71.0625 255.730469 63.578125 252.925781 56.191406 249.980469 C 47.304688 246.445312 39.269531 241.308594 31.25 236.1875 C 29.75 235.21875 28.488281 233.855469 27.203125 232.574219 C 26.925781 232.316406 27.066406 231.644531 26.964844 230.734375 C 28.011719 231.109375 28.683594 231.25 29.257812 231.566406 C 31.230469 232.632812 33.1875 233.71875 35.121094 234.84375 C 48.667969 242.828125 62.945312 249.171875 77.875 254.113281 C 92.765625 259.03125 107.871094 262.984375 123.253906 266.046875 C 133.265625 268.042969 143.355469 269.585938 153.507812 270.75 C 161.5625 271.679688 169.660156 272.210938 177.757812 272.746094 C 183.347656 273.121094 188.933594 273.320312 194.542969 273.398438 C 203.507812 273.515625 212.433594 272.804688 221.359375 272.035156 C 231.964844 271.105469 242.46875 269.503906 252.894531 267.449219 C 270.746094 263.933594 288.246094 259.050781 305.40625 252.964844 C 309.355469 251.5625 313.265625 250.0625 317.214844 248.617188 C 327.265625 244.960938 336.722656 240.199219 345.453125 234.015625 C 347.050781 232.890625 348.671875 231.78125 350.332031 230.734375 C 350.902344 230.359375 351.574219 230.101562 352.207031 229.886719 C 352.382812 229.824219 352.757812 230.003906 352.898438 230.203125 C 353.054688 230.398438 353.09375 230.832031 352.957031 230.953125 Z M 352.957031 230.953125 " fill-opacity="1" fill-rule="nonzero"/><path fill="#cb915a" d="M 159.433594 141.257812 C 159.351562 142.660156 159.097656 144.085938 158.679688 145.546875 C 158.386719 146.574219 157.753906 147.523438 157.140625 148.429688 C 157.378906 151.019531 157.339844 153.589844 156.785156 156.078125 C 159.964844 156.492188 163.144531 156.851562 166.363281 157.1875 C 165.277344 153.074219 166.558594 148.371094 167.507812 144.144531 C 167.410156 144.125 167.3125 144.0625 167.210938 144.003906 C 166.71875 143.667969 166.265625 142.898438 166.265625 142.324219 C 166.265625 141.988281 166.304688 141.632812 166.363281 141.296875 C 164.191406 142.027344 161.484375 142.226562 159.433594 141.257812 Z M 164.824219 151.75 C 164.722656 152.582031 164.011719 153.195312 162.789062 153.214844 C 162.53125 152.917969 161.917969 152.523438 161.742188 151.988281 C 161.464844 151.078125 162.433594 150.070312 163.363281 150.109375 C 164.191406 150.132812 164.921875 150.980469 164.824219 151.75 Z M 156.902344 148.828125 C 156.628906 149.261719 156.09375 149.578125 155.621094 149.835938 C 154.910156 150.25 153.726562 149.617188 153.703125 148.808594 C 153.683594 148.117188 153.804688 147.421875 153.882812 146.75 C 154.238281 143.394531 154.277344 140.054688 153.230469 136.773438 C 152.125 133.253906 149.203125 131.042969 145.707031 131.238281 C 143.910156 131.339844 142.054688 131.496094 140.355469 132.03125 C 131.449219 134.796875 125.941406 141 122.683594 149.558594 C 133.464844 152.324219 144.976562 154.539062 156.804688 156.078125 C 157.359375 153.589844 157.398438 151.019531 157.160156 148.429688 C 157.082031 148.550781 156.984375 148.6875 156.902344 148.828125 Z M 135.457031 145.644531 C 135.0625 145.625 134.511719 145.210938 134.351562 144.835938 C 134.117188 144.242188 134.886719 143.492188 135.539062 143.648438 C 135.953125 143.75 136.269531 144.222656 136.859375 144.734375 C 136.226562 145.171875 135.832031 145.664062 135.457031 145.644531 Z M 145.824219 143.175781 C 145.273438 142.957031 144.878906 142.40625 144.542969 142.128906 C 144.621094 141.160156 145.390625 140.585938 146.101562 140.726562 C 146.871094 140.882812 147.308594 141.355469 147.285156 142.167969 C 147.265625 142.859375 146.515625 143.472656 145.824219 143.175781 Z M 236.210938 149.042969 C 236.109375 146.671875 236.050781 144.28125 235.65625 141.949219 C 234.90625 137.621094 232.398438 134.558594 228.292969 133 C 225.132812 131.792969 221.832031 131.21875 218.417969 131.714844 C 213.933594 132.347656 209.769531 133.828125 205.699219 135.921875 C 205.582031 138.292969 205.5625 140.25 205.363281 142.207031 C 205.085938 145.03125 204.082031 147.660156 202.640625 150.070312 C 201.691406 151.671875 200.425781 153.015625 198.453125 153.292969 C 198.453125 153.292969 198.433594 153.292969 198.414062 153.292969 C 197.601562 155.289062 196.140625 157.125 194.425781 158.667969 C 196.753906 158.6875 199.085938 158.667969 201.414062 158.628906 C 218.160156 158.292969 231.609375 157.085938 236.230469 155.585938 C 236.230469 153.429688 236.308594 151.238281 236.210938 149.042969 Z M 214.722656 142.878906 C 214.09375 142.839844 213.460938 142.027344 213.738281 141.417969 C 213.972656 140.902344 214.507812 140.527344 215.199219 139.796875 C 215.632812 140.683594 216.125 141.21875 216.125 141.753906 C 216.105469 142.484375 215.535156 142.9375 214.722656 142.878906 Z M 221.914062 154.417969 C 221.519531 154.398438 220.964844 153.925781 220.808594 153.53125 C 220.589844 152.957031 221.023438 152.441406 221.636719 152.484375 C 222.070312 152.523438 222.484375 152.878906 223.253906 153.273438 C 222.605469 153.847656 222.25 154.4375 221.914062 154.417969 Z M 230.484375 142.226562 C 229.632812 142.167969 228.960938 141.476562 228.980469 140.644531 C 229 139.675781 229.832031 138.945312 230.859375 138.964844 C 231.6875 138.984375 232.339844 139.699219 232.320312 140.546875 C 232.300781 141.574219 231.511719 142.285156 230.484375 142.226562 Z M 155.441406 126.300781 C 155.34375 126.320312 155.246094 126.320312 155.148438 126.320312 C 153.921875 126.242188 153.605469 125.253906 153.371094 124.304688 C 152.933594 122.683594 152.617188 121.023438 152.125 119.421875 C 151.058594 116.0625 148.847656 114.027344 145.273438 113.457031 C 142.84375 113.058594 140.535156 113.316406 138.300781 114.226562 C 133.324219 116.28125 129.832031 119.9375 126.988281 124.421875 C 127.699219 125.707031 128.367188 126.773438 128.882812 127.898438 C 129.375 128.988281 129.730469 130.132812 130.1875 131.378906 C 131.46875 130.628906 132.535156 129.996094 133.621094 129.363281 C 136.820312 127.542969 140.238281 126.320312 143.890625 125.90625 C 148.234375 125.410156 152.183594 126.496094 155.1875 129.699219 C 155.34375 128.570312 155.441406 127.425781 155.441406 126.300781 Z M 134.292969 124.519531 C 133.859375 124.460938 133.265625 124.007812 133.128906 123.59375 C 132.773438 122.566406 133.640625 121.4375 134.589844 121.65625 C 135.023438 121.753906 135.378906 122.269531 135.597656 122.464844 C 135.714844 123.691406 135.101562 124.621094 134.292969 124.519531 Z M 275.269531 145.132812 C 274.914062 145.011719 274.441406 144.558594 274.28125 144.203125 C 273.710938 142.9375 273.277344 141.59375 272.859375 140.269531 C 271.953125 137.304688 270.746094 134.480469 269.070312 131.890625 C 266.660156 128.214844 263.421875 125.726562 258.9375 125.132812 C 251.671875 124.183594 245.433594 126.320312 240.238281 131.476562 C 239.371094 132.328125 238.777344 133.453125 238.144531 134.324219 C 241.402344 141.277344 243.042969 148.035156 239.289062 155.40625 C 251.277344 153.804688 263.640625 151.277344 274.835938 148.273438 C 275.113281 147.265625 275.269531 146.199219 275.269531 145.132812 Z M 250.960938 136.792969 C 250.546875 136.613281 250.132812 136.082031 250.011719 135.644531 C 249.855469 134.972656 250.664062 134.300781 251.355469 134.539062 C 251.789062 134.699219 252.125 135.152344 252.34375 135.351562 C 252.304688 136.4375 251.613281 137.070312 250.960938 136.792969 Z M 253.566406 148.886719 C 253.015625 149.023438 252.460938 148.628906 252.582031 148.035156 C 252.660156 147.660156 253.191406 147.285156 253.628906 147.128906 C 253.804688 147.046875 254.199219 147.523438 254.734375 147.898438 C 254.277344 148.3125 253.960938 148.789062 253.566406 148.886719 Z M 259.964844 133.335938 C 259.375 133.628906 258.601562 132.957031 258.503906 132.246094 C 258.40625 131.59375 259.019531 130.6875 259.648438 130.785156 C 260.222656 130.863281 260.753906 131.339844 261.625 131.832031 C 260.894531 132.503906 260.5 133.078125 259.964844 133.335938 Z M 92.390625 138.789062 C 91.363281 135.054688 91.578125 134.597656 98.472656 125.054688 C 97.503906 123.53125 96.535156 121.992188 95.570312 120.449219 C 94.324219 118.492188 92.605469 117.128906 90.511719 116.183594 C 88.617188 115.3125 86.800781 115.253906 84.824219 116.003906 C 82.355469 116.933594 80.519531 118.59375 79.039062 120.6875 C 77.046875 123.511719 75.40625 126.554688 73.628906 129.679688 C 79.574219 133.789062 85.8125 137.089844 92.269531 139.835938 C 92.351562 139.460938 92.429688 139.105469 92.527344 138.730469 C 92.488281 138.730469 92.449219 138.75 92.390625 138.789062 Z M 85.933594 126.121094 C 85.359375 126.28125 84.746094 125.882812 84.785156 125.273438 C 84.824219 124.855469 85.300781 124.285156 85.675781 124.183594 C 86.03125 124.085938 86.503906 124.539062 87.292969 124.9375 C 86.664062 125.527344 86.347656 126.003906 85.933594 126.121094 Z M 244.324219 110.035156 C 245.609375 108.140625 247.230469 107.605469 248.789062 107.050781 C 254.714844 105.015625 260.855469 104.582031 267.015625 105.433594 C 272.464844 106.183594 276.671875 108.988281 278.804688 114.34375 C 279.359375 115.746094 280.128906 117.070312 280.324219 118.730469 C 278.292969 119.601562 276.277344 120.195312 274.558594 121.28125 C 272.941406 122.308594 271.636719 123.828125 270.039062 125.273438 C 268.320312 124.304688 266.503906 122.980469 264.488281 122.1875 C 262.433594 121.378906 260.222656 120.867188 258.03125 120.589844 C 255.839844 120.332031 253.605469 120.53125 251.199219 120.53125 C 249.933594 116.398438 247.445312 113.078125 244.324219 110.035156 Z M 256.867188 111.734375 C 256.90625 110.746094 256.234375 110.15625 255.523438 110.234375 C 254.734375 110.3125 254.277344 110.769531 254.21875 111.539062 C 254.160156 112.191406 254.949219 112.921875 255.5625 112.703125 C 256.113281 112.507812 256.550781 111.972656 256.867188 111.734375 Z M 268.734375 111.855469 C 269.859375 111.875 270.292969 111.378906 270.453125 110.667969 C 270.609375 110.035156 269.996094 109.382812 269.285156 109.324219 C 268.59375 109.265625 267.746094 109.859375 267.882812 110.453125 C 268.042969 111.003906 268.496094 111.480469 268.734375 111.855469 Z M 219.1875 105.964844 C 218.910156 106.480469 218.4375 106.894531 217.921875 107.03125 C 217.015625 107.25 216.226562 106.972656 215.671875 106.261719 C 215 105.371094 214.449219 104.40625 213.835938 103.457031 C 212.238281 100.945312 209.984375 99.542969 207.0625 98.96875 C 205.027344 98.574219 203.132812 98.992188 201.257812 99.445312 C 194.601562 101.027344 189.644531 104.722656 187.15625 111.480469 C 187.769531 112.210938 188.382812 112.941406 189.132812 113.832031 C 193.003906 109.839844 197.109375 106.558594 202.796875 106.183594 C 208.601562 105.808594 213.324219 108.238281 217.507812 111.953125 C 217.984375 111.539062 218.339844 111.300781 218.59375 110.984375 C 218.96875 110.550781 219.363281 110.136719 219.78125 109.738281 C 219.78125 108.496094 219.523438 107.230469 219.1875 105.964844 Z M 204.753906 104.285156 C 204.375 104.265625 204.042969 103.652344 203.6875 103.296875 C 204.042969 102.941406 204.375 102.328125 204.753906 102.308594 C 205.128906 102.289062 205.5625 102.824219 206.214844 103.316406 C 205.5625 103.792969 205.148438 104.304688 204.753906 104.285156 Z M 194.40625 96.976562 C 192.113281 98.851562 190.078125 100.53125 188.066406 102.191406 C 181.945312 93.753906 172.582031 90.75 159.609375 97.726562 C 158.859375 96.855469 158.070312 95.925781 157.21875 94.960938 C 159.808594 92.191406 162.925781 90.632812 166.265625 89.5625 C 171.222656 87.964844 176.257812 86.9375 181.488281 88.378906 C 184.648438 89.25 187.550781 90.492188 189.941406 92.746094 C 191.421875 94.167969 193.121094 95.394531 194.40625 96.976562 Z M 184.570312 96.007812 C 185.855469 96.046875 186.644531 95.296875 186.464844 94.464844 C 186.308594 93.65625 185.695312 93.320312 184.945312 93.359375 C 184.15625 93.398438 183.542969 93.910156 183.640625 94.664062 C 183.722656 95.214844 184.3125 95.671875 184.570312 96.007812 Z M 184.570312 96.007812 " fill-opacity="1" fill-rule="nonzero"/><path fill="#c7743e" d="M 198.414062 153.273438 C 197.800781 153.351562 196.933594 153.175781 196.558594 152.777344 C 196.203125 152.382812 196.101562 151.433594 196.300781 150.902344 C 196.753906 149.734375 197.484375 148.6875 198.117188 147.601562 C 199.222656 145.644531 200.070312 143.609375 200.425781 141.335938 C 201.453125 134.679688 197.484375 129.460938 190.75 128.730469 C 186.742188 128.296875 182.992188 129.046875 179.496094 131.140625 C 175.800781 133.355469 172.917969 136.316406 170.824219 140.054688 C 170.214844 141.160156 169.660156 142.285156 168.988281 143.351562 C 168.652344 143.867188 168.101562 144.300781 167.527344 144.125 C 166.558594 148.351562 165.296875 153.054688 166.382812 157.164062 C 175.664062 158.09375 185.082031 158.589844 194.425781 158.628906 C 196.140625 157.105469 197.601562 155.269531 198.414062 153.273438 Z M 184.550781 152.34375 C 183.878906 152.441406 183.324219 151.632812 183.40625 150.941406 C 183.484375 150.25 184.234375 149.578125 184.847656 149.835938 C 185.378906 150.050781 185.753906 150.625 186.503906 151.296875 C 185.636719 151.789062 185.125 152.265625 184.550781 152.34375 Z M 185.023438 140.960938 C 184.175781 140.960938 183.464844 140.25 183.464844 139.402344 C 183.464844 138.375 184.292969 137.523438 185.617188 137.582031 C 185.933594 137.976562 186.585938 138.511719 186.78125 139.164062 C 187.039062 140.09375 186.050781 140.960938 185.023438 140.960938 Z M 194.820312 140.980469 C 194.621094 140.410156 195.054688 139.933594 195.6875 139.875 C 196.28125 139.816406 196.773438 139.992188 196.933594 140.980469 C 196.695312 141.199219 196.339844 141.792969 195.964844 141.8125 C 195.589844 141.8125 194.957031 141.355469 194.820312 140.980469 Z M 183.03125 114.265625 C 180.878906 112.050781 178.269531 110.945312 175.152344 110.964844 C 168.652344 111.003906 163.339844 113.96875 158.324219 117.664062 C 157.59375 118.199219 157.320312 118.949219 157.320312 119.859375 C 157.320312 121.261719 157.378906 122.664062 157.21875 124.046875 C 157.082031 125.273438 156.292969 126.160156 155.441406 126.28125 C 155.441406 127.425781 155.324219 128.570312 155.148438 129.699219 C 155.207031 129.757812 155.246094 129.796875 155.304688 129.855469 C 158.367188 133.214844 159.6875 137.070312 159.453125 141.238281 C 161.503906 142.226562 164.210938 142.027344 166.402344 141.257812 C 166.5 140.625 166.699219 140.011719 166.957031 139.460938 C 170.847656 130.605469 177.324219 125.054688 187.117188 123.789062 C 187.75 123.710938 188.382812 123.59375 189.347656 123.453125 C 187.453125 119.976562 185.597656 116.894531 183.03125 114.265625 Z M 164.328125 128.59375 C 163.578125 128.453125 162.847656 127.5625 162.847656 126.832031 C 162.867188 125.925781 163.855469 125.09375 165.21875 125.210938 C 165.535156 125.570312 166.285156 126.082031 166.441406 126.734375 C 166.71875 127.761719 165.394531 128.808594 164.328125 128.59375 Z M 176.867188 120.53125 C 176.097656 120.449219 175.625 119.957031 175.488281 119.246094 C 175.328125 118.472656 176.117188 117.664062 176.96875 117.625 C 177.816406 117.566406 178.507812 118.257812 178.507812 119.144531 C 178.488281 119.996094 177.757812 120.628906 176.867188 120.53125 Z M 304.121094 130.3125 C 300.507812 125.546875 295.609375 123.21875 289.667969 122.980469 C 286.585938 122.859375 283.542969 123.257812 280.484375 123.671875 C 277.046875 124.125 274.5 125.6875 272.722656 128.730469 C 273.433594 129.996094 274.125 131.199219 274.816406 132.40625 C 276.238281 134.875 276.96875 137.582031 277.382812 140.347656 C 277.5625 141.535156 277.363281 142.859375 277.046875 144.023438 C 276.910156 144.519531 276.101562 145.03125 275.507812 145.171875 C 275.449219 145.191406 275.367188 145.171875 275.269531 145.132812 C 275.269531 146.199219 275.113281 147.265625 274.835938 148.273438 C 288.5 144.597656 300.449219 140.171875 307.894531 135.804688 C 306.886719 133.808594 305.464844 132.070312 304.121094 130.3125 Z M 278.527344 132.367188 C 278.273438 132.050781 277.71875 131.636719 277.5625 131.101562 C 277.382812 130.507812 278.273438 129.699219 278.84375 129.914062 C 279.277344 130.074219 279.734375 130.507812 279.929688 130.941406 C 280.207031 131.535156 279.554688 132.285156 278.527344 132.367188 Z M 287.394531 137.878906 C 286.644531 137.78125 286.03125 137.304688 286.171875 136.535156 C 286.269531 135.980469 286.824219 135.507812 287.335938 134.738281 C 287.988281 135.410156 288.578125 135.785156 288.816406 136.339844 C 289.152344 137.03125 288.222656 137.996094 287.394531 137.878906 Z M 289.980469 130.46875 C 289.269531 130.667969 288.71875 130.191406 288.578125 129.421875 C 288.460938 128.789062 289.074219 128 289.726562 128.117188 C 290.277344 128.214844 290.773438 128.652344 291.640625 129.144531 C 290.890625 129.777344 290.496094 130.332031 289.980469 130.46875 Z M 299.105469 137.109375 C 298.433594 137.324219 297.683594 136.535156 297.941406 135.882812 C 298.117188 135.488281 298.671875 134.996094 299.066406 134.996094 C 299.460938 134.996094 299.875 135.546875 300.488281 136.023438 C 299.894531 136.496094 299.539062 136.96875 299.105469 137.109375 Z M 122.683594 127.941406 C 120.273438 124.816406 117.09375 123.492188 113.164062 123.632812 C 110.28125 123.730469 107.671875 124.601562 105.207031 125.984375 C 101.589844 128.019531 98.808594 130.941406 96.457031 134.300781 C 95.648438 135.449219 94.957031 136.675781 94.085938 137.761719 C 93.75 138.195312 93.121094 138.394531 92.546875 138.710938 C 92.46875 139.085938 92.371094 139.441406 92.289062 139.816406 C 101.234375 143.648438 110.617188 146.457031 120.214844 149.042969 C 119.601562 145.960938 120.570312 143.550781 121.910156 141.296875 C 122.976562 139.5 124.242188 137.820312 125.445312 136.101562 C 125.980469 135.332031 126.570312 134.597656 127.085938 133.925781 C 125.503906 131.753906 124.125 129.816406 122.683594 127.941406 Z M 102.480469 137.820312 C 101.769531 137.683594 101.234375 137.226562 101.214844 136.417969 C 101.195312 135.585938 102.085938 134.757812 102.835938 135.035156 C 103.386719 135.230469 103.824219 135.785156 104.160156 136.042969 C 104.160156 137.128906 103.25 137.976562 102.480469 137.820312 Z M 115.039062 132.148438 C 114.902344 132.683594 114.367188 133.117188 113.796875 133.90625 C 113.222656 133.15625 112.710938 132.722656 112.53125 132.1875 C 112.355469 131.574219 113.105469 130.902344 113.753906 130.902344 C 114.425781 130.882812 115.199219 131.535156 115.039062 132.148438 Z M 229.59375 96.164062 C 225.703125 97.269531 221.914062 98.65625 218.8125 101.363281 C 219.050781 102.625 219.34375 103.691406 219.445312 104.78125 C 219.484375 105.195312 219.386719 105.609375 219.1875 105.964844 C 219.503906 107.230469 219.78125 108.496094 219.78125 109.761719 C 225.03125 104.761719 232.910156 103.910156 239.269531 106.972656 C 239.980469 107.328125 240.769531 107.566406 241.046875 107.664062 C 243.675781 105.789062 245.90625 104.1875 248.214844 102.527344 C 243.238281 96.597656 237.21875 93.992188 229.59375 96.164062 Z M 235.5 100.75 C 235.441406 101.046875 235.042969 101.300781 234.414062 102.011719 C 234.195312 101.5 233.976562 101.183594 233.878906 100.808594 C 233.742188 100.214844 234.019531 99.761719 234.648438 99.722656 C 235.28125 99.683594 235.597656 100.15625 235.5 100.75 Z M 235.5 131.277344 C 229.632812 128.019531 229.101562 127.820312 223.550781 126.851562 C 223.195312 124.917969 223.019531 122.839844 222.386719 120.90625 C 221.753906 118.929688 220.707031 117.070312 219.839844 115.15625 C 223.53125 109.9375 229.792969 107.921875 235.675781 110.035156 C 239.507812 111.417969 242.449219 113.929688 244.5625 117.367188 C 245.433594 118.789062 246.164062 120.273438 247.011719 121.851562 C 244.839844 123.238281 242.609375 124.402344 240.671875 125.964844 C 238.875 127.445312 237.375 129.34375 235.5 131.277344 Z M 238.304688 122.070312 C 237.414062 121.773438 236.960938 121.496094 236.546875 121.539062 C 236.289062 121.558594 235.796875 122.25 235.875 122.347656 C 236.128906 122.742188 236.546875 123.277344 236.941406 123.296875 C 237.238281 123.316406 237.613281 122.722656 238.304688 122.070312 Z M 230.679688 119.207031 C 230.128906 118.808594 229.710938 118.355469 229.574219 118.433594 C 229.199219 118.632812 228.941406 119.046875 228.648438 119.382812 C 228.921875 119.640625 229.238281 120.113281 229.457031 120.074219 C 229.832031 119.976562 230.148438 119.601562 230.679688 119.207031 Z M 219.917969 126.851562 C 214.410156 127.386719 209.394531 129.304688 204.515625 132.1875 C 203.269531 130.824219 202.203125 129.382812 200.882812 128.234375 C 199.636719 127.148438 198.195312 126.21875 196.714844 125.488281 C 195.117188 124.699219 193.378906 124.183594 191.917969 123.632812 C 191.777344 121.515625 191.660156 119.601562 191.5 117.128906 C 194.820312 113.316406 199.046875 110.492188 204.929688 110.984375 C 208.445312 111.28125 211.347656 112.761719 213.738281 115.3125 C 215.59375 117.308594 218.792969 123.277344 219.917969 126.851562 Z M 196.121094 123.355469 C 197.128906 123.257812 197.859375 122.386719 197.722656 121.417969 C 197.582031 120.46875 196.597656 119.71875 195.707031 119.898438 C 194.976562 120.054688 194.265625 120.90625 194.265625 121.65625 C 194.246094 122.585938 195.195312 123.453125 196.121094 123.355469 Z M 206.292969 119.601562 C 207.554688 119.601562 208.265625 118.851562 208.109375 118.019531 C 207.972656 117.25 207.476562 116.8125 206.707031 116.773438 C 205.859375 116.734375 205.027344 117.566406 205.285156 118.355469 C 205.464844 118.910156 206.035156 119.304688 206.292969 119.601562 Z M 209.667969 127.484375 C 209.453125 127.269531 209.136719 126.753906 208.722656 126.65625 C 207.929688 126.476562 207.4375 127.089844 207.300781 127.78125 C 207.199219 128.375 207.617188 128.789062 208.246094 128.867188 C 208.957031 128.96875 209.589844 128.472656 209.667969 127.484375 Z M 130.816406 113.671875 C 128.449219 116.753906 126.414062 119.382812 124.300781 122.109375 C 120.863281 119.976562 117.289062 118.632812 113.222656 118.808594 C 109.234375 118.988281 105.757812 120.726562 102.027344 122.464844 C 101.078125 120.390625 100.230469 118.535156 99.320312 116.578125 C 100.011719 114.207031 101.730469 112.566406 103.605469 111.105469 C 106.054688 109.226562 108.78125 107.824219 111.742188 106.894531 C 116.914062 105.253906 121.675781 106.105469 125.941406 109.445312 C 127.578125 110.746094 129.101562 112.171875 130.816406 113.671875 Z M 111.148438 113.671875 C 112.078125 113.652344 112.769531 113.039062 112.847656 112.191406 C 112.945312 111.164062 112.058594 110.351562 110.992188 110.472656 C 110.101562 110.570312 109.492188 111.28125 109.511719 112.171875 C 109.550781 113.078125 110.203125 113.691406 111.148438 113.671875 Z M 155.9375 100.550781 C 153.824219 103.59375 151 106.125 151.175781 110.410156 C 148.097656 109.71875 145.351562 108.277344 142.410156 108.890625 C 139.703125 109.445312 137.058594 110.332031 134.074219 111.144531 C 132.238281 109.1875 130.164062 106.953125 127.953125 104.582031 C 128.527344 102.863281 130.066406 101.894531 131.546875 100.886719 C 133.78125 99.367188 136.347656 98.59375 138.953125 98.082031 C 144.265625 97.035156 149.519531 96.953125 154.515625 99.523438 C 154.988281 99.761719 155.382812 100.15625 155.9375 100.550781 Z M 155.582031 114.957031 C 154.394531 113.632812 153.46875 112.605469 152.558594 111.597656 C 153.09375 110.808594 153.605469 110.15625 154 109.425781 C 157.714844 102.726562 163.796875 99.683594 171.023438 98.714844 C 174.816406 98.199219 178.25 99.5625 180.976562 102.210938 C 182.359375 103.574219 183.347656 105.351562 184.511719 106.933594 C 184.828125 106.738281 185.125 106.558594 185.4375 106.359375 C 185.222656 107.113281 184.984375 107.863281 184.789062 108.535156 C 184.332031 108.59375 183.996094 108.753906 183.820312 108.652344 C 177.164062 104.957031 170.609375 105.945312 164.230469 109.285156 C 161.78125 110.570312 159.53125 112.269531 157.199219 113.792969 C 156.726562 114.105469 156.292969 114.441406 155.582031 114.957031 Z M 164.785156 105.394531 C 165.710938 105.453125 166.539062 104.898438 166.679688 104.109375 C 166.855469 103.140625 165.96875 102.152344 164.960938 102.171875 C 164.113281 102.191406 163.402344 102.863281 163.300781 103.734375 C 163.203125 104.601562 163.855469 105.332031 164.785156 105.394531 Z M 198.925781 95.273438 C 197.625 93.398438 196.457031 91.699219 195.117188 89.761719 C 200.210938 87.390625 205.324219 86.738281 210.636719 87.546875 C 215.199219 88.261719 219.070312 90.316406 222.207031 94.070312 C 220.332031 95.550781 218.515625 97.015625 216.71875 98.4375 C 210.261719 93.910156 207.242188 93.359375 198.925781 95.273438 Z M 208.246094 89.742188 C 207.574219 89.25 207.140625 88.695312 206.785156 88.734375 C 206.371094 88.773438 206.035156 89.367188 205.660156 89.722656 C 206.035156 90.078125 206.371094 90.671875 206.785156 90.730469 C 207.140625 90.789062 207.574219 90.234375 208.246094 89.742188 Z M 208.246094 89.742188 " fill-opacity="1" fill-rule="nonzero"/></svg>