<svg xmlns="http://www.w3.org/2000/svg" xmlns:xlink="http://www.w3.org/1999/xlink" width="500" zoomAndPan="magnify" viewBox="0 0 375 374.999991" height="500" preserveAspectRatio="xMidYMid meet" version="1.0"><path fill="#000000" d="M 303.511719 9.730469 L 299.726562 41.863281 L 299.722656 41.902344 L 297.460938 62.496094 L 297.460938 62.5 L 62.414062 60.046875 L 62.414062 60.050781 L 65.449219 38.054688 L 69.726562 9.730469 Z M 124.667969 89.4375 C 112.953125 89.4375 103.042969 98.472656 102.148438 110.34375 C 101.207031 122.796875 110.539062 133.652344 122.988281 134.589844 C 123.566406 134.636719 124.144531 134.65625 124.714844 134.65625 C 136.429688 134.65625 146.339844 125.621094 147.234375 113.75 C 148.175781 101.300781 138.84375 90.445312 126.394531 89.503906 C 125.816406 89.460938 125.238281 89.4375 124.667969 89.4375 Z M 182.667969 92.191406 C 170.953125 92.191406 161.042969 101.226562 160.148438 113.097656 C 159.207031 125.546875 168.539062 136.402344 180.988281 137.34375 C 181.566406 137.386719 182.144531 137.410156 182.714844 137.410156 C 194.425781 137.410156 204.335938 128.375 205.234375 116.503906 C 206.175781 104.054688 196.84375 93.199219 184.394531 92.257812 C 183.816406 92.214844 183.238281 92.191406 182.667969 92.191406 Z M 81.921875 131.402344 C 71.628906 131.402344 62.917969 139.34375 62.128906 149.78125 C 61.300781 160.722656 69.503906 170.265625 80.445312 171.09375 C 80.957031 171.128906 81.460938 171.148438 81.964844 171.148438 C 92.261719 171.148438 100.972656 163.207031 101.757812 152.773438 C 102.585938 141.832031 94.382812 132.289062 83.441406 131.460938 C 82.929688 131.421875 82.425781 131.402344 81.921875 131.402344 Z M 226.78125 137.460938 C 216.484375 137.460938 207.773438 145.402344 206.984375 155.835938 C 206.15625 166.78125 214.359375 176.324219 225.304688 177.148438 C 225.8125 177.1875 226.320312 177.207031 226.820312 177.207031 C 237.117188 177.207031 245.828125 169.265625 246.617188 158.832031 C 247.441406 147.886719 239.242188 138.34375 228.296875 137.519531 C 227.789062 137.480469 227.28125 137.460938 226.78125 137.460938 Z M 149.8125 145.925781 C 149.75 145.925781 149.6875 145.925781 149.625 145.929688 L 143.882812 146.207031 C 143.777344 146.214844 143.671875 146.222656 143.570312 146.234375 L 137.871094 146.988281 C 137.769531 147.003906 137.664062 147.019531 137.5625 147.042969 L 131.945312 148.261719 C 131.84375 148.285156 131.742188 148.3125 131.640625 148.34375 L 126.144531 150.023438 C 126.042969 150.054688 125.945312 150.089844 125.847656 150.128906 L 120.507812 152.253906 C 120.410156 152.292969 120.316406 152.335938 120.21875 152.382812 L 115.078125 154.945312 C 114.980469 154.992188 114.890625 155.042969 114.800781 155.097656 L 109.886719 158.074219 C 109.792969 158.128906 109.707031 158.1875 109.621094 158.25 L 104.96875 161.621094 C 104.882812 161.683594 104.800781 161.75 104.722656 161.816406 L 100.363281 165.5625 C 100.285156 165.632812 100.207031 165.703125 100.132812 165.78125 L 96.097656 169.871094 C 96.023438 169.945312 95.953125 170.023438 95.886719 170.105469 L 92.203125 174.515625 C 92.136719 174.597656 92.074219 174.683594 92.011719 174.769531 L 88.707031 179.46875 C 88.648438 179.554688 88.589844 179.644531 88.535156 179.734375 L 85.632812 184.691406 C 85.578125 184.78125 85.527344 184.875 85.484375 184.972656 L 82.996094 190.152344 C 82.953125 190.246094 82.910156 190.34375 82.871094 190.441406 L 80.824219 195.808594 C 80.785156 195.90625 80.75 196.007812 80.722656 196.109375 L 79.121094 201.628906 C 79.09375 201.730469 79.066406 201.832031 79.046875 201.9375 L 77.910156 207.566406 C 77.886719 207.671875 77.871094 207.777344 77.859375 207.878906 L 77.191406 213.585938 C 77.179688 213.671875 77.171875 213.753906 77.167969 213.839844 L 77.019531 215.53125 C 77.011719 215.613281 77.007812 215.699219 77.007812 215.78125 L 76.96875 217.617188 C 76.964844 217.699219 76.964844 217.78125 76.96875 217.863281 L 77.050781 219.699219 C 77.054688 219.78125 77.058594 219.863281 77.066406 219.945312 L 77.265625 221.769531 C 77.273438 221.851562 77.285156 221.933594 77.300781 222.015625 L 77.617188 223.824219 C 77.628906 223.90625 77.648438 223.988281 77.667969 224.066406 L 78.097656 225.851562 C 78.117188 225.933594 78.140625 226.011719 78.164062 226.089844 L 78.710938 227.84375 C 78.734375 227.921875 78.761719 228 78.792969 228.078125 L 79.449219 229.792969 C 79.480469 229.871094 79.511719 229.945312 79.546875 230.019531 L 80.316406 231.6875 C 80.351562 231.765625 80.386719 231.835938 80.425781 231.910156 L 81.300781 233.523438 C 81.339844 233.597656 81.382812 233.667969 81.425781 233.738281 L 82.402344 235.292969 C 82.445312 235.363281 82.492188 235.433594 82.539062 235.5 L 83.617188 236.988281 C 83.664062 237.054688 83.714844 237.121094 83.765625 237.183594 L 84.9375 238.597656 C 84.996094 238.671875 85.058594 238.742188 85.121094 238.808594 L 86.710938 240.46875 C 86.785156 240.542969 86.859375 240.617188 86.9375 240.683594 L 88.65625 242.214844 C 88.734375 242.28125 88.8125 242.347656 88.894531 242.410156 L 90.734375 243.792969 C 90.816406 243.855469 90.902344 243.914062 90.988281 243.96875 L 92.933594 245.199219 C 93.019531 245.253906 93.109375 245.308594 93.199219 245.355469 L 95.238281 246.425781 C 95.328125 246.472656 95.421875 246.515625 95.519531 246.558594 L 97.636719 247.457031 C 97.730469 247.5 97.828125 247.535156 97.925781 247.566406 L 100.109375 248.292969 C 100.207031 248.328125 100.304688 248.355469 100.40625 248.378906 L 102.640625 248.925781 C 102.742188 248.953125 102.84375 248.972656 102.945312 248.988281 L 105.214844 249.351562 C 105.320312 249.367188 105.421875 249.378906 105.523438 249.390625 L 107.816406 249.566406 C 107.820312 249.570312 107.824219 249.570312 107.828125 249.570312 C 107.921875 249.574219 108.015625 249.578125 108.113281 249.578125 C 108.117188 249.578125 108.121094 249.578125 108.128906 249.578125 L 110.429688 249.574219 C 110.53125 249.570312 110.636719 249.566406 110.738281 249.558594 L 113.03125 249.363281 C 113.132812 249.355469 113.238281 249.34375 113.339844 249.328125 L 115.609375 248.949219 C 115.710938 248.929688 115.8125 248.910156 115.910156 248.886719 L 118.140625 248.324219 C 118.242188 248.296875 118.34375 248.269531 118.441406 248.234375 L 120.617188 247.496094 C 120.714844 247.460938 120.8125 247.425781 120.90625 247.382812 L 123.019531 246.472656 C 123.113281 246.429688 123.207031 246.382812 123.296875 246.335938 L 125.328125 245.253906 C 125.417969 245.207031 125.507812 245.152344 125.597656 245.097656 L 127.425781 243.921875 L 127.421875 243.925781 C 127.550781 243.847656 127.671875 243.765625 127.789062 243.671875 C 135.359375 237.882812 141.359375 233.53125 147.042969 233.53125 C 147.320312 233.53125 147.59375 233.542969 147.867188 233.5625 C 154.003906 234.027344 160.828125 239.746094 169.15625 247.007812 C 169.226562 247.070312 169.296875 247.125 169.371094 247.179688 L 169.367188 247.179688 L 170.976562 248.480469 C 171.050781 248.539062 171.128906 248.597656 171.207031 248.652344 L 173.007812 249.894531 C 173.089844 249.949219 173.171875 250 173.253906 250.046875 L 175.144531 251.152344 C 175.226562 251.199219 175.3125 251.246094 175.398438 251.289062 L 177.371094 252.242188 C 177.457031 252.285156 177.542969 252.324219 177.632812 252.359375 L 179.667969 253.164062 C 179.757812 253.199219 179.851562 253.234375 179.941406 253.261719 L 182.03125 253.910156 C 182.125 253.941406 182.21875 253.964844 182.3125 253.988281 L 184.445312 254.476562 C 184.539062 254.5 184.632812 254.515625 184.730469 254.53125 L 186.894531 254.859375 C 186.988281 254.871094 187.085938 254.882812 187.179688 254.890625 C 187.179688 254.890625 187.179688 254.890625 187.183594 254.890625 L 189.363281 255.054688 C 189.460938 255.0625 189.558594 255.066406 189.652344 255.066406 L 191.84375 255.0625 C 191.9375 255.0625 192.035156 255.058594 192.132812 255.050781 L 194.316406 254.886719 C 194.410156 254.878906 194.507812 254.867188 194.601562 254.851562 L 196.765625 254.519531 C 196.859375 254.507812 196.957031 254.488281 197.050781 254.464844 L 199.183594 253.972656 C 199.277344 253.953125 199.371094 253.925781 199.460938 253.898438 L 201.550781 253.246094 C 201.644531 253.214844 201.734375 253.183594 201.824219 253.148438 L 203.859375 252.339844 C 203.949219 252.304688 204.035156 252.265625 204.125 252.222656 L 206.089844 251.261719 C 206.175781 251.222656 206.257812 251.179688 206.339844 251.128906 L 208.132812 250.085938 C 208.210938 250.039062 208.289062 249.992188 208.363281 249.941406 L 210.074219 248.773438 C 210.152344 248.71875 210.226562 248.664062 210.296875 248.609375 L 211.921875 247.320312 C 211.992188 247.261719 212.0625 247.203125 212.128906 247.144531 L 213.660156 245.742188 C 213.726562 245.679688 213.792969 245.617188 213.855469 245.550781 L 215.277344 244.042969 C 215.34375 243.976562 215.402344 243.90625 215.460938 243.835938 L 216.773438 242.230469 C 216.832031 242.160156 216.886719 242.085938 216.941406 242.011719 L 218.136719 240.320312 C 218.1875 240.242188 218.238281 240.167969 218.285156 240.089844 L 219.355469 238.3125 C 219.402344 238.234375 219.449219 238.15625 219.488281 238.074219 L 220.429688 236.226562 C 220.472656 236.144531 220.511719 236.0625 220.546875 235.976562 L 221.351562 234.066406 C 221.390625 233.984375 221.421875 233.898438 221.449219 233.8125 L 222.121094 231.847656 C 222.148438 231.761719 222.175781 231.671875 222.199219 231.585938 L 222.722656 229.578125 C 222.746094 229.492188 222.769531 229.402344 222.785156 229.3125 L 223.167969 227.273438 C 223.183594 227.183594 223.195312 227.09375 223.207031 227.003906 L 223.421875 225.121094 L 223.417969 225.121094 C 223.445312 224.960938 223.460938 224.800781 223.464844 224.636719 L 223.660156 218.894531 C 223.664062 218.789062 223.664062 218.683594 223.65625 218.578125 L 223.378906 212.839844 C 223.375 212.734375 223.363281 212.628906 223.351562 212.523438 L 222.597656 206.828125 C 222.585938 206.722656 222.566406 206.621094 222.542969 206.515625 L 221.324219 200.902344 C 221.300781 200.800781 221.273438 200.695312 221.242188 200.597656 L 219.5625 195.101562 C 219.535156 195 219.5 194.902344 219.460938 194.804688 L 217.332031 189.464844 C 217.292969 189.367188 217.25 189.269531 217.203125 189.175781 L 214.640625 184.03125 C 214.59375 183.9375 214.542969 183.847656 214.488281 183.753906 L 211.511719 178.839844 C 211.457031 178.75 211.398438 178.664062 211.335938 178.578125 L 207.964844 173.925781 C 207.902344 173.839844 207.835938 173.757812 207.769531 173.675781 L 204.023438 169.320312 C 203.953125 169.242188 203.882812 169.164062 203.804688 169.089844 L 199.714844 165.054688 C 199.640625 164.980469 199.5625 164.910156 199.480469 164.84375 L 195.070312 161.160156 C 194.988281 161.09375 194.902344 161.03125 194.816406 160.96875 L 190.117188 157.664062 C 190.03125 157.605469 189.941406 157.546875 189.851562 157.492188 L 184.894531 154.589844 C 184.800781 154.535156 184.710938 154.484375 184.613281 154.4375 L 179.433594 151.953125 C 179.339844 151.90625 179.242188 151.867188 179.144531 151.828125 L 173.773438 149.777344 C 173.675781 149.742188 173.578125 149.707031 173.476562 149.679688 L 167.957031 148.078125 C 167.855469 148.050781 167.753906 148.023438 167.648438 148.003906 L 162.015625 146.863281 C 161.914062 146.84375 161.808594 146.828125 161.703125 146.816406 L 155.996094 146.144531 C 155.945312 146.140625 155.894531 146.136719 155.839844 146.128906 C 155.789062 146.125 155.734375 146.125 155.683594 146.121094 L 149.941406 145.925781 C 149.898438 145.925781 149.855469 145.925781 149.8125 145.925781 Z M 61.070312 69.792969 L 296.390625 72.246094 L 295.589844 79.519531 L 295.585938 79.558594 L 291.75 117.207031 L 291.746094 117.242188 L 288.207031 154.921875 L 288.203125 154.960938 L 284.957031 192.664062 L 284.957031 192.703125 L 282.183594 228.058594 L 282.179688 228.097656 L 279.667969 263.476562 L 279.667969 263.511719 L 278.464844 282.402344 L 43.453125 256.820312 L 44.625 236.84375 L 47.09375 202.597656 L 50.027344 168.382812 L 53.253906 135.730469 L 56.902344 103.121094 L 60.964844 70.558594 Z M 313.875 55.960938 L 315.050781 62.464844 L 319.597656 90.917969 L 323.5625 119.453125 L 326.945312 148.074219 L 329.746094 176.75 L 331.847656 203.816406 L 333.429688 230.917969 L 334.492188 258.050781 L 335.035156 285.191406 L 335.054688 312.339844 L 334.765625 328.054688 L 313.875 307.167969 Z M 304.117188 92.085938 L 304.117188 308.035156 L 284.566406 347.136719 L 285.167969 334.878906 L 287.15625 299.507812 L 289.402344 264.152344 L 291.914062 228.804688 L 294.683594 193.476562 L 297.921875 155.816406 L 301.460938 118.179688 Z M 310.332031 317.421875 L 331.195312 338.285156 L 289.472656 359.144531 Z M 42.878906 266.574219 L 277.84375 292.152344 L 277.414062 298.90625 L 277.414062 298.945312 L 275.421875 334.355469 L 275.421875 334.390625 L 273.945312 364.5625 L 40.113281 335.332031 L 41.0625 305.421875 L 42.613281 271.121094 Z M 309.003906 -0.03125 C 308.96875 -0.03125 308.9375 -0.0273438 308.902344 -0.0273438 L 65.636719 -0.0273438 C 65.597656 -0.0273438 65.558594 -0.0273438 65.519531 -0.0273438 C 63.148438 -0.0273438 61.066406 1.703125 60.703125 4.121094 L 55.796875 36.628906 L 55.785156 36.691406 L 51.296875 69.257812 L 51.289062 69.320312 L 47.214844 101.945312 L 47.207031 102.003906 L 43.554688 134.675781 L 43.546875 134.738281 L 40.3125 167.457031 L 40.304688 167.519531 L 37.371094 201.796875 L 37.363281 201.863281 L 34.890625 236.175781 L 34.886719 236.242188 L 32.871094 270.582031 L 32.867188 270.648438 L 31.3125 305.015625 L 31.308594 305.082031 L 30.21875 339.464844 C 30.136719 342.015625 32.027344 344.171875 34.515625 344.464844 L 34.515625 344.46875 L 277.957031 374.894531 L 277.953125 374.898438 C 278.15625 374.921875 278.359375 374.933594 278.5625 374.933594 C 279.328125 374.933594 280.074219 374.753906 280.746094 374.417969 L 341.441406 344.070312 L 341.433594 344.070312 C 343.101562 343.320312 344.273438 341.660156 344.308594 339.710938 L 344.8125 312.472656 L 344.8125 312.378906 L 344.792969 285.136719 L 344.792969 285.042969 L 344.25 257.804688 L 344.246094 257.710938 L 343.179688 230.492188 L 343.175781 230.398438 L 341.585938 203.199219 L 341.582031 203.105469 L 339.46875 175.945312 L 339.460938 175.851562 L 336.652344 147.074219 L 336.640625 146.976562 L 333.246094 118.261719 L 333.234375 118.164062 L 329.253906 89.523438 L 329.242188 89.425781 L 324.679688 60.875 L 324.660156 60.777344 L 319.519531 32.324219 L 319.5 32.226562 L 313.777344 3.886719 C 313.3125 1.570312 311.277344 -0.03125 309.003906 -0.03125 Z M 309.003906 -0.03125 " fill-opacity="1" fill-rule="nonzero"/></svg>