<svg xmlns="http://www.w3.org/2000/svg" xmlns:xlink="http://www.w3.org/1999/xlink" width="500" zoomAndPan="magnify" viewBox="0 0 375 374.999991" height="500" preserveAspectRatio="xMidYMid meet" version="1.0"><path fill="#000000" d="M 367.660156 143.40625 C 365.957031 194.050781 361.898438 244.421875 348.835938 293.621094 C 346.433594 302.667969 343.382812 311.613281 339.828125 320.269531 C 337.929688 324.894531 334.296875 328.792969 331.488281 333.046875 C 330.808594 334.085938 330.027344 335.160156 329.6875 336.328125 C 327.984375 342.109375 326.457031 347.953125 324.769531 353.75 C 324.347656 355.230469 323.796875 356.769531 322.902344 357.972656 C 322.351562 358.703125 320.90625 359.304688 320.0625 359.09375 C 319.886719 359.042969 319.707031 358.945312 319.527344 358.816406 C 318.621094 359.628906 317.5 359.96875 316.265625 360.003906 C 316.574219 359.921875 316.882812 359.824219 317.191406 359.726562 C 315.863281 358.703125 314.59375 357.746094 313.378906 356.820312 C 314.578125 357.746094 315.84375 358.703125 317.191406 359.726562 C 311.171875 361.757812 306.871094 360.019531 303.105469 358.234375 C 298.839844 356.203125 295.5625 356.753906 291.992188 359.320312 C 289.832031 360.878906 287.445312 362.179688 285.078125 363.429688 C 279.964844 366.140625 278.214844 365.734375 274.9375 361.203125 C 274.027344 359.9375 273.199219 358.621094 271.902344 356.65625 C 268.527344 359.289062 265.3125 361.855469 262.019531 364.339844 C 256 368.882812 253.695312 368.496094 249.554688 362.292969 C 248.4375 360.621094 247.414062 358.898438 246.164062 356.902344 C 242.382812 359.417969 238.78125 361.984375 235.03125 364.304688 C 227.617188 368.882812 225.636719 368.347656 221.191406 360.945312 C 220.734375 360.179688 220.214844 359.449219 219.277344 358.003906 C 216.890625 360.117188 214.632812 362.113281 212.363281 364.078125 C 210.675781 365.539062 209.101562 367.195312 207.234375 368.398438 C 203.890625 370.558594 201.554688 370.214844 199.039062 367.066406 C 197.109375 364.648438 195.648438 361.835938 193.570312 358.589844 C 190.648438 360.457031 187.695312 362.324219 184.742188 364.207031 C 176.613281 369.371094 174.992188 368.851562 171.617188 360.082031 C 171.308594 359.273438 170.867188 358.492188 170.140625 356.964844 C 166.632812 359.109375 163.355469 361.203125 159.980469 363.152344 C 148.785156 369.617188 145.796875 368.574219 141.011719 356.65625 C 140.523438 355.457031 140.035156 354.238281 139.304688 352.417969 C 135.265625 355.132812 131.648438 357.648438 127.929688 360.003906 C 122.527344 363.429688 119.832031 362.40625 118.195312 356.332031 C 117.5625 353.976562 117.15625 351.574219 116.621094 349.074219 C 111.101562 351.800781 105.992188 354.496094 100.75 356.867188 C 93.902344 359.953125 91.90625 358.882812 89.714844 351.492188 C 89.277344 350.015625 88.726562 348.570312 88.078125 346.703125 C 84.101562 348.261719 80.449219 349.773438 76.734375 351.136719 C 70.40625 353.441406 69.089844 352.746094 67.109375 346.363281 C 66.933594 345.777344 66.574219 345.226562 66.039062 344.105469 C 63.863281 345.582031 61.949219 347.078125 59.855469 348.246094 C 57.535156 349.546875 55.152344 350.859375 52.636719 351.625 C 46.566406 353.492188 44.148438 352.289062 41.359375 346.65625 C 40.59375 345.097656 39.71875 343.585938 38.582031 341.492188 C 36.292969 343.179688 34.445312 344.675781 32.464844 345.972656 C 29.316406 348.019531 28.003906 347.597656 26.25 344.171875 C 24.335938 340.417969 22.421875 336.652344 20.246094 332.398438 C 17.128906 333.242188 14.386719 334.070312 11.628906 334.71875 C 6.242188 335.988281 3.191406 333.699219 3.675781 328.160156 C 4.082031 323.5 5.300781 318.921875 6.207031 314.324219 C 6.746094 311.613281 6.03125 309.40625 5.007812 306.757812 C 3.042969 301.660156 1.648438 296.089844 1.355469 290.632812 C 0.238281 269.3125 2.410156 248.125 5.511719 227.0625 C 11.0625 189.195312 17.875 151.574219 28.148438 114.648438 C 32.886719 97.601562 38.144531 80.730469 45.851562 64.765625 C 48.074219 60.171875 51.191406 56.03125 53.851562 51.648438 C 55.898438 48.253906 58.785156 45.851562 62.4375 44.484375 C 65.324219 43.414062 66.316406 41.5625 66.753906 38.511719 C 67.5 33.21875 68.878906 28.019531 70.257812 22.839844 C 70.761719 20.941406 71.734375 19.074219 72.886719 17.449219 C 75.304688 14.039062 77.15625 13.78125 80.824219 16.003906 C 81.957031 16.703125 82.996094 17.578125 84.085938 18.359375 C 84.992188 19.007812 85.917969 19.625 87.539062 20.746094 C 92.328125 18.539062 97.019531 16.476562 101.609375 14.25 C 107.242188 11.523438 107.921875 11.765625 110.113281 17.886719 C 110.40625 18.699219 110.761719 19.496094 111.378906 20.957031 C 115.5 18.894531 119.394531 16.898438 123.324219 14.980469 C 125.125 14.105469 126.941406 13.195312 128.855469 12.644531 C 131.761719 11.816406 134.128906 12.660156 135.574219 15.519531 C 136.253906 16.882812 137.066406 18.164062 137.976562 19.789062 C 143.265625 16.816406 148.199219 13.910156 153.261719 11.230469 C 160.078125 7.609375 160.515625 7.789062 165.15625 14.1875 C 165.675781 14.902344 166.261719 15.582031 166.84375 16.25 C 166.972656 16.394531 167.234375 16.410156 167.511719 16.523438 C 172.554688 13.4375 177.765625 10.515625 182.683594 7.15625 C 185.523438 5.207031 187.175781 6.050781 188.703125 8.488281 C 190.34375 11.101562 191.882812 13.78125 193.554688 16.574219 C 197.886719 13.78125 201.683594 10.972656 205.773438 8.761719 C 211.730469 5.53125 212.167969 5.824219 215.933594 11.34375 C 217.035156 12.953125 218.351562 14.429688 219.714844 16.132812 C 224.582031 13.570312 229.125 11.34375 233.492188 8.8125 C 237.109375 6.699219 237.660156 6.621094 239.835938 9.769531 C 240.808594 11.183594 241.703125 12.675781 242.804688 14.382812 C 246.539062 12.074219 249.832031 9.800781 253.320312 7.933594 C 259.746094 4.507812 261.140625 4.980469 265.425781 11.035156 C 266.058594 11.929688 266.773438 12.757812 267.585938 13.765625 C 270.179688 12.058594 272.5 10.257812 275.066406 8.941406 C 277.402344 7.738281 279.933594 6.652344 282.496094 6.277344 C 287.59375 5.546875 288.289062 6.195312 289.652344 10.972656 C 290.320312 13.277344 290.917969 15.582031 291.683594 18.375 C 296.535156 16.214844 300.738281 14.203125 305.054688 12.449219 C 310.019531 10.433594 311.027344 10.710938 314.171875 14.804688 C 316.347656 17.628906 318.328125 20.601562 320.84375 24.125 C 324.558594 22.109375 328.242188 20.179688 331.863281 18.148438 C 339.261719 14.023438 342.019531 15.355469 343.675781 23.863281 C 343.886719 24.9375 344.292969 25.976562 344.875 27.890625 C 349.777344 26.332031 354.53125 24.804688 359.1875 23.328125 C 363.003906 26.59375 363.878906 30.34375 363.035156 34.890625 C 362.160156 39.710938 361.703125 44.617188 361.867188 49.226562 C 362.871094 51.988281 364.542969 54.699219 364.769531 57.507812 C 367.109375 86.101562 368.632812 114.730469 367.660156 143.40625 Z M 367.660156 143.40625 " fill-opacity="1" fill-rule="nonzero"/><path fill="#ec838e" d="M 319.546875 358.832031 C 318.636719 359.644531 317.515625 359.984375 316.285156 360.019531 C 316.589844 359.9375 316.898438 359.839844 317.207031 359.742188 C 312.453125 356.105469 308.640625 353.230469 304.859375 350.308594 C 300.398438 346.832031 296.097656 346.621094 291.4375 350.226562 C 288 352.890625 284.105469 354.96875 280.5 357.273438 C 279.511719 356.1875 278.945312 355.765625 278.636719 355.195312 C 274.917969 348.554688 272.988281 348.261719 266.5625 352.90625 C 263.171875 355.359375 259.648438 357.648438 255.789062 360.292969 C 254.3125 357.84375 253.191406 355.941406 252.023438 354.09375 C 249.34375 349.820312 248.421875 349.449219 243.941406 351.492188 C 238.878906 353.816406 233.914062 356.316406 228.753906 358.816406 C 228.167969 358.101562 227.535156 357.46875 227.066406 356.738281 C 222.34375 349.300781 222.328125 349.285156 214.730469 353.976562 C 211.015625 356.269531 207.363281 358.671875 203.4375 361.1875 C 202.121094 358.671875 201.164062 356.902344 200.273438 355.113281 C 197.628906 349.855469 196.785156 349.578125 191.574219 352.339844 C 187.503906 354.496094 183.414062 356.65625 179.617188 358.671875 C 175.851562 355.324219 178.1875 348.945312 172.621094 347.53125 C 165.496094 352.9375 157.644531 356.347656 149.5625 360.292969 C 147.808594 356.445312 146.480469 353.394531 145.035156 350.40625 C 142.8125 345.746094 140.019531 344.738281 135.316406 347.042969 C 133.511719 347.921875 131.90625 349.1875 130.203125 350.257812 C 128.371094 351.414062 126.519531 352.53125 124.261719 353.929688 C 123.386719 351.023438 122.785156 348.667969 121.960938 346.410156 C 120.546875 342.546875 119.378906 341.785156 115.46875 343.164062 C 111.070312 344.707031 106.835938 346.753906 102.566406 348.667969 C 100.425781 349.625 98.363281 350.746094 95.996094 351.914062 C 95.101562 349.464844 94.550781 347.773438 93.871094 346.136719 C 91.761719 340.988281 90.867188 340.484375 85.203125 341.734375 C 81.535156 342.546875 77.917969 343.652344 74.265625 344.640625 C 73.699219 344.039062 73.179688 343.617188 72.839844 343.082031 C 69.382812 337.691406 69.414062 337.757812 63.378906 339.933594 C 58.625 341.636719 53.804688 343.132812 49.164062 344.65625 C 42.296875 332.964844 40.335938 332.367188 30.402344 338.179688 C 28.328125 334.605469 27.042969 329.769531 23.945312 327.835938 C 20.894531 325.917969 15.992188 326.941406 11.335938 326.632812 C 11.660156 323.027344 12.003906 319.195312 12.375 314.925781 C 16.871094 316.515625 20.585938 317.929688 24.382812 319.132812 C 52.179688 327.964844 80.773438 332.964844 109.660156 336.425781 C 136.09375 339.589844 162.609375 341.832031 189.238281 342.578125 C 227.730469 343.652344 266.207031 344.21875 304.582031 340.371094 C 308.429688 339.980469 312.257812 338.261719 315.8125 336.585938 C 315.957031 336.523438 316.089844 336.425781 316.21875 336.3125 C 318.75 336.359375 321.265625 336.359375 323.78125 336.3125 C 321.378906 341.214844 319.886719 346.296875 318.507812 351.511719 C 318.050781 353.199219 317.972656 355.082031 318.183594 356.820312 C 318.261719 357.46875 318.878906 358.378906 319.546875 358.832031 Z M 358.75 52.457031 C 353.136719 51.242188 353.054688 47.164062 353.640625 42.632812 C 354.125 38.917969 354.335938 35.164062 354.757812 30.359375 C 351.789062 32.144531 349.808594 33.492188 347.699219 34.546875 C 343.757812 36.546875 341.355469 35.683594 339.683594 31.691406 C 338.757812 29.480469 338.15625 27.144531 337.121094 24.027344 C 333.695312 26.089844 330.742188 27.972656 327.707031 29.691406 C 320.632812 33.71875 317.921875 32.972656 313.605469 25.925781 C 312.097656 23.472656 310.585938 21.039062 308.914062 18.328125 C 304.777344 20.46875 301.160156 22.628906 297.328125 24.269531 C 289.832031 27.484375 286.863281 26.007812 284.378906 18.195312 C 283.84375 16.539062 283.339844 14.882812 282.707031 12.871094 C 279.558594 15.226562 276.800781 17.5 273.847656 19.464844 C 267.503906 23.652344 265.070312 23.066406 260.753906 16.671875 C 260.152344 15.777344 259.453125 14.933594 258.773438 14.007812 C 255.136719 16.328125 251.828125 18.570312 248.402344 20.601562 C 242.253906 24.238281 241.035156 23.914062 236.945312 18.082031 C 236.332031 17.207031 235.699219 16.328125 234.835938 15.113281 C 232.402344 17.140625 230.308594 19.074219 228.039062 20.761719 C 222.195312 25.113281 219 24.773438 214.230469 19.398438 C 212.914062 17.921875 211.679688 16.363281 210.496094 14.964844 C 206.554688 17.613281 202.96875 20.273438 199.152344 22.53125 C 194.21875 25.472656 191.851562 24.917969 188.25 20.339844 C 186.625 18.261719 185.230469 16.003906 183.589844 13.617188 C 179.875 16.6875 176.5 19.578125 173.011719 22.304688 C 167.65625 26.496094 165.546875 26.105469 161.621094 20.488281 C 160.5 18.878906 159.378906 17.253906 158.277344 15.664062 C 153.652344 19.007812 149.511719 22.386719 145.003906 25.179688 C 137.8125 29.644531 135.71875 28.929688 131.175781 21.476562 C 130.722656 20.730469 130.152344 20.0625 129.328125 18.960938 C 125.351562 21.199219 121.488281 23.394531 117.625 25.570312 C 116.070312 26.445312 114.558594 27.453125 112.921875 28.152344 C 108.765625 29.921875 106.527344 28.898438 105.308594 24.675781 C 104.773438 22.792969 104.546875 20.8125 104.011719 18.003906 C 100.605469 20.257812 97.683594 22.191406 94.761719 24.125 C 87.847656 28.71875 87.816406 28.703125 81.648438 23.507812 C 81.164062 23.101562 80.464844 22.953125 79.441406 22.515625 C 77.660156 28.054688 75.921875 33.445312 73.84375 39.84375 C 77.449219 39.191406 79.769531 38.6875 82.105469 38.378906 C 103.152344 35.585938 124.167969 32.582031 145.230469 30.132812 C 171.03125 27.128906 196.980469 26.039062 222.941406 26.527344 C 258.351562 27.175781 293.5 30.117188 327.851562 39.386719 C 333.226562 40.832031 338.464844 42.8125 343.773438 44.566406 C 344.40625 44.777344 345.054688 45.003906 345.65625 45.28125 C 347.554688 46.175781 349.648438 47.425781 348.625 49.714844 C 348.496094 50.007812 348.25 50.28125 347.941406 50.527344 C 351.578125 51.613281 355.179688 52.667969 358.75 53.839844 C 358.75 53.367188 358.75 52.914062 358.75 52.457031 Z M 358.75 52.457031 " fill-opacity="1" fill-rule="nonzero"/><path fill="#fac0ba" d="M 358.75 53.824219 C 358.75 60.527344 358.75 66.8125 358.75 73.097656 C 358.75 76.085938 358.75 79.074219 358.75 82.058594 C 357.046875 81.832031 355.34375 81.636719 353.605469 81.476562 C 353.671875 81.378906 353.734375 81.28125 353.785156 81.167969 C 352.015625 80.402344 350.539062 79.445312 348.933594 79.136719 C 344.988281 78.359375 341.015625 77.546875 337.023438 77.300781 C 318.507812 76.164062 299.976562 74.785156 281.441406 74.28125 C 252.785156 73.503906 224.128906 74.410156 195.648438 77.691406 C 171.90625 80.421875 148.230469 84.042969 124.734375 88.328125 C 96.597656 93.460938 68.683594 99.808594 42.445312 111.792969 C 41.910156 112.035156 41.210938 111.96875 39.734375 112.148438 C 40.496094 109.242188 40.984375 106.675781 41.84375 104.242188 C 46.550781 90.957031 52.179688 77.9375 55.800781 64.378906 C 58.300781 55.074219 64.125 51.371094 72.171875 49.082031 C 74.316406 48.464844 76.488281 47.878906 78.679688 47.523438 C 88.15625 45.964844 97.601562 44.097656 107.144531 43.058594 C 128.027344 40.785156 148.945312 38.511719 169.894531 37.050781 C 195.8125 35.230469 221.773438 35.230469 247.722656 36.917969 C 267.375 38.203125 286.929688 40.265625 306.207031 44.40625 C 316.460938 46.597656 326.71875 48.855469 336.988281 50.996094 C 339.390625 51.5 341.875 51.972656 344.292969 51.839844 C 345.429688 51.777344 346.984375 51.273438 347.910156 50.527344 C 351.5625 51.597656 355.179688 52.667969 358.75 53.824219 Z M 343.011719 239.730469 C 342.199219 241.90625 340.023438 242.441406 338.269531 242.976562 C 333.808594 244.375 329.214844 245.511719 324.609375 246.273438 C 294.570312 251.226562 264.386719 254.832031 233.960938 256 C 188.363281 257.769531 142.746094 259.539062 97.113281 260.675781 C 76.992188 261.179688 56.839844 260.433594 36.714844 259.683594 C 28.539062 259.375 20.40625 257.527344 11.9375 256.324219 C 11.984375 256.292969 11.402344 256.535156 11.367188 256.84375 C 9.890625 270.402344 8.855469 283.945312 10.085938 297.648438 C 10.800781 305.523438 14.859375 309.292969 21.851562 310.898438 C 37.949219 314.601562 53.949219 318.921875 70.226562 321.679688 C 130.203125 331.878906 190.730469 334.25 251.4375 332.851562 C 270.425781 332.414062 289.394531 330.726562 308.363281 329.621094 C 310.148438 329.523438 312.03125 329.054688 313.6875 329.460938 C 315.210938 329.832031 317.355469 330.921875 317.664062 332.105469 C 317.953125 333.226562 317.175781 335.386719 316.203125 336.246094 C 318.734375 336.296875 321.25 336.296875 323.765625 336.246094 C 324.316406 335.109375 324.933594 333.972656 325.597656 332.851562 C 329.167969 326.84375 330.464844 319.472656 332.6875 312.6875 C 340.65625 288.328125 346.15625 263.4375 350.070312 238.171875 C 347.730469 238.707031 345.378906 239.210938 343.011719 239.730469 Z M 343.011719 239.730469 " fill-opacity="1" fill-rule="nonzero"/><path fill="#df4d68" d="M 12.503906 244.242188 C 14.226562 244.519531 15.960938 244.796875 17.699219 245.054688 C 17.679688 245.121094 17.664062 245.183594 17.632812 245.234375 C 19.773438 246.0625 21.867188 247.3125 24.089844 247.636719 C 28.945312 248.367188 33.859375 248.953125 38.761719 249.015625 C 52.410156 249.179688 66.070312 249.210938 79.71875 248.984375 C 107.90625 248.53125 136.109375 248.269531 164.28125 247.167969 C 191.316406 246.109375 218.316406 244.066406 245.351562 242.539062 C 279.804688 240.605469 313.898438 236.253906 347.441406 228.023438 C 348.609375 227.730469 349.875 227.875 351.027344 227.8125 C 351.203125 228.800781 351.398438 229.238281 351.335938 229.644531 C 350.929688 232.488281 350.507812 235.328125 350.070312 238.152344 C 347.714844 238.691406 345.363281 239.191406 342.992188 239.714844 C 343.238281 239.03125 343.367188 238.203125 343.300781 237.148438 C 340.917969 237.503906 338.789062 237.765625 336.664062 238.136719 C 321.054688 240.898438 305.539062 244.648438 289.800781 246.242188 C 259.777344 249.292969 229.644531 251.324219 199.527344 253.386719 C 183.914062 254.457031 168.238281 255.007812 152.582031 255.1875 C 114.105469 255.625 75.613281 255.871094 37.136719 255.773438 C 28.78125 255.753906 20.40625 254.019531 11.660156 253.027344 C 11.953125 249.617188 12.019531 247.183594 12.40625 244.777344 C 12.457031 244.617188 12.472656 244.4375 12.503906 244.242188 Z M 353.605469 81.492188 C 351.722656 84.65625 349.242188 83.441406 347.066406 83.292969 C 330.335938 82.109375 313.636719 80.632812 296.890625 79.722656 C 267.339844 78.113281 237.808594 79.203125 208.355469 81.476562 C 178.691406 83.765625 149.300781 88.3125 120.09375 94.011719 C 99.679688 97.988281 79.445312 102.683594 59.757812 109.484375 C 53.851562 111.53125 48.207031 114.277344 42.394531 116.566406 C 38.730469 118.011719 36.878906 120.542969 36.035156 124.410156 C 35.792969 125.5625 35.53125 126.714844 35.273438 127.867188 C 36.554688 127.085938 37.917969 126.421875 39.34375 125.871094 C 39.539062 125.640625 39.765625 125.429688 40.011719 125.300781 C 45.367188 122.589844 50.640625 119.519531 56.285156 117.570312 C 78.714844 109.808594 101.820312 104.613281 125.109375 100.214844 C 156.117188 94.335938 187.421875 90.601562 218.886719 88.457031 C 251.746094 86.21875 284.625 86.3125 317.46875 89.089844 C 331.035156 90.242188 344.601562 91.558594 358.75 92.84375 C 358.75 89.269531 358.75 85.679688 358.75 82.09375 C 357.046875 81.847656 355.34375 81.652344 353.605469 81.492188 Z M 136.289062 196.648438 C 135.199219 195.011719 133.96875 193.433594 133.042969 191.699219 C 124.539062 175.703125 116.085938 159.710938 107.664062 143.667969 C 106.527344 141.492188 105.925781 138.796875 102.664062 139.199219 C 98.964844 139.671875 99.226562 142.644531 98.964844 145.339844 C 98.378906 151.574219 97.617188 157.792969 97.097656 164.042969 C 96.027344 176.984375 94.988281 189.910156 94.113281 202.871094 C 93.820312 207.222656 95.3125 209.398438 97.894531 209.65625 C 100.570312 209.917969 102.046875 207.933594 102.453125 203.503906 C 102.550781 202.382812 102.582031 201.261719 102.617188 200.140625 C 102.890625 191.859375 103.085938 183.578125 103.476562 175.3125 C 103.769531 169.222656 104.304688 163.152344 104.726562 157.078125 C 106.285156 158.132812 106.882812 159.285156 107.5 160.40625 C 114.785156 173.753906 122.039062 187.117188 129.390625 200.449219 C 130.460938 202.382812 131.695312 204.347656 133.253906 205.890625 C 136.386719 208.976562 140.605469 208.503906 143.007812 204.867188 C 143.964844 203.40625 144.660156 201.652344 145.003906 199.929688 C 146.1875 194.019531 147.355469 188.09375 148.183594 182.117188 C 150.144531 167.925781 152.109375 153.734375 151.445312 139.347656 C 151.363281 137.5625 151.460938 135.726562 151.023438 134.019531 C 150.8125 133.226562 149.59375 132.414062 148.6875 132.1875 C 148.152344 132.054688 146.949219 132.949219 146.722656 133.597656 C 146.007812 135.710938 145.425781 137.902344 145.132812 140.09375 C 143.605469 151.394531 142.164062 162.695312 140.71875 174.015625 C 139.777344 181.46875 138.867188 188.921875 137.960938 196.390625 C 137.390625 196.488281 136.839844 196.570312 136.289062 196.648438 Z M 200.273438 188.886719 C 200.90625 192.167969 201.3125 195.53125 202.300781 198.695312 C 202.660156 199.832031 204.507812 201.277344 205.5625 201.195312 C 206.570312 201.117188 207.625 199.347656 208.320312 198.128906 C 208.710938 197.445312 208.53125 196.375 208.484375 195.496094 C 207.65625 175.671875 203.097656 156.640625 196.136719 138.160156 C 195.144531 135.515625 193.554688 132.882812 191.625 130.820312 C 187.746094 126.679688 182.40625 127.203125 178.964844 131.730469 C 178.023438 132.964844 177.214844 134.347656 176.582031 135.757812 C 168.011719 154.902344 159.492188 174.078125 154.738281 194.652344 C 154.136719 197.25 153.570312 199.929688 153.617188 202.578125 C 153.636719 203.777344 155 205.628906 156.085938 205.921875 C 157.074219 206.183594 158.875 204.980469 159.65625 203.941406 C 160.53125 202.773438 160.679688 201.035156 161.117188 199.539062 C 162.429688 195.109375 163.710938 190.675781 165.042969 186.128906 C 176.710938 185.171875 187.761719 184.261719 199.121094 183.335938 C 199.589844 185.480469 199.949219 187.183594 200.273438 188.886719 Z M 185.929688 137.398438 C 192.664062 149.65625 195.566406 162.761719 198.132812 176.484375 C 187.859375 177.488281 178.140625 178.449219 167.203125 179.519531 C 172.960938 164.433594 178.578125 150.679688 185.929688 137.398438 Z M 312.746094 160.878906 C 316.316406 168.332031 319.871094 175.816406 323.472656 183.253906 C 324.152344 184.652344 324.753906 186.355469 325.921875 187.183594 C 327.1875 188.078125 329.425781 188.855469 330.546875 188.289062 C 331.585938 187.769531 332.136719 185.414062 332.105469 183.871094 C 332.074219 182.425781 331.019531 180.980469 330.367188 179.566406 C 326.929688 172.050781 323.421875 164.546875 320.03125 157.015625 C 318.863281 154.414062 317.988281 151.703125 316.917969 148.910156 C 321.234375 144.996094 325.257812 141.457031 329.152344 137.789062 C 330.757812 136.261719 332.445312 134.65625 333.484375 132.753906 C 334.117188 131.601562 334.230469 129.183594 333.484375 128.484375 C 332.429688 127.492188 330.125 126.828125 328.8125 127.316406 C 326.585938 128.109375 324.476562 129.652344 322.726562 131.324219 C 314.289062 139.332031 305.980469 147.464844 297.636719 155.570312 C 296.273438 156.898438 294.910156 158.230469 292.378906 160.699219 C 292.753906 155.421875 293.078125 151.738281 293.242188 148.019531 C 293.5 141.765625 293.726562 135.5 293.824219 129.246094 C 293.855469 126.925781 293.289062 124.441406 290.285156 124.621094 C 287.722656 124.765625 287.480469 127.039062 287.414062 129.164062 C 287.269531 132.964844 287.269531 136.78125 286.878906 140.566406 C 285.386719 155.03125 283.730469 169.46875 282.222656 183.9375 C 281.914062 186.828125 281.621094 189.796875 282.027344 192.625 C 282.222656 194.035156 284.121094 196.339844 285.078125 196.261719 C 286.683594 196.113281 288.421875 194.621094 289.554688 193.257812 C 290.285156 192.378906 290.058594 190.691406 290.171875 189.359375 C 290.515625 185.574219 290.757812 181.777344 291.164062 177.992188 C 291.324219 176.484375 291.375 174.566406 292.28125 173.609375 C 297.882812 167.632812 303.722656 161.886719 310.019531 155.503906 C 311.203125 157.824219 312 159.335938 312.746094 160.878906 Z M 40.320312 207.757812 C 42.332031 209.738281 44.832031 211.636719 47.460938 212.515625 C 58.640625 216.21875 77.105469 212.402344 83.46875 195.886719 C 88.5625 182.621094 81.648438 170.117188 67.726562 167.488281 C 65.761719 167.113281 63.734375 166.96875 61.804688 166.449219 C 57.195312 165.214844 56.058594 162.941406 58.054688 158.539062 C 60.164062 153.929688 63.621094 150.46875 68.101562 148.082031 C 72.222656 145.875 76.34375 144.511719 80.546875 148 C 82.007812 149.21875 84.214844 149.984375 85.171875 148.019531 C 85.851562 146.589844 85.578125 143.992188 84.667969 142.609375 C 82.378906 139.101562 78.519531 138.40625 74.574219 138.566406 C 64.886719 138.988281 53.480469 148.328125 50.949219 157.808594 C 48.855469 165.699219 52.066406 170.929688 60.101562 172.570312 C 62.730469 173.105469 65.421875 173.347656 68.019531 173.964844 C 74.980469 175.605469 78.550781 180.589844 78.03125 187.6875 C 77.511719 194.832031 71.863281 201.617188 64.578125 203.566406 C 56.253906 205.808594 48.238281 205.144531 40.464844 200.191406 C 37.414062 203.257812 38.386719 205.875 40.320312 207.757812 Z M 253.175781 188.011719 C 242.59375 192.527344 235.257812 189.328125 232.046875 178.253906 C 228.199219 165.019531 230.765625 152.597656 238.195312 141.132812 C 241.328125 136.292969 245.644531 132.769531 251.324219 131.34375 C 256.355469 130.074219 260.445312 132.007812 264.128906 135.433594 C 264.875 136.132812 266.96875 136.390625 267.699219 135.855469 C 268.753906 135.078125 269.871094 133.257812 269.660156 132.105469 C 269.335938 130.285156 268.347656 127.964844 266.902344 127.085938 C 263.933594 125.300781 260.574219 123.53125 257.199219 123.140625 C 245.921875 121.828125 237.953125 127.785156 231.917969 136.472656 C 223.933594 147.984375 221.289062 160.960938 223.152344 174.777344 C 223.898438 180.347656 225.863281 185.609375 229.417969 190.121094 C 236.882812 199.605469 252.394531 200.921875 261.078125 192.65625 C 263.414062 190.429688 266.15625 188.011719 263.285156 183.367188 C 259.566406 185.074219 256.402344 186.632812 253.175781 188.011719 Z M 253.175781 188.011719 " fill-opacity="1" fill-rule="nonzero"/><path fill="#ffffff" d="M 359.511719 97.890625 C 304.84375 90.585938 250.625 89.464844 196.394531 94.871094 C 142.585938 100.230469 89.34375 108.707031 38.015625 127.933594 C 38.484375 127.28125 38.875 126.4375 39.378906 125.835938 C 37.964844 126.40625 36.585938 127.054688 35.304688 127.835938 C 30.273438 150.714844 24.839844 173.496094 20.214844 196.4375 C 17.03125 212.238281 14.988281 228.28125 12.519531 244.226562 C 14.242188 244.503906 15.976562 244.777344 17.714844 245.039062 C 17.828125 244.683594 17.941406 244.324219 18.054688 243.96875 C 22.792969 244.421875 27.53125 245.28125 32.269531 245.265625 C 57.324219 245.152344 82.398438 245.136719 107.453125 244.453125 C 134.277344 243.722656 161.132812 242.78125 187.90625 241.027344 C 221.367188 238.835938 254.828125 236.207031 288.195312 232.828125 C 309.742188 230.652344 331.019531 226.332031 352.550781 220.277344 C 357.386719 179.859375 359.902344 139.121094 359.511719 97.890625 Z M 85.171875 148.019531 C 84.230469 149.984375 82.007812 149.21875 80.546875 148 C 76.328125 144.511719 72.222656 145.875 68.101562 148.082031 C 63.621094 150.484375 60.164062 153.945312 58.054688 158.539062 C 56.042969 162.941406 57.179688 165.199219 61.804688 166.449219 C 63.734375 166.96875 65.761719 167.113281 67.726562 167.488281 C 81.648438 170.117188 88.5625 182.621094 83.46875 195.886719 C 77.121094 212.402344 58.65625 216.21875 47.460938 212.515625 C 44.832031 211.636719 42.347656 209.738281 40.320312 207.757812 C 38.371094 205.855469 37.414062 203.242188 40.464844 200.191406 C 48.238281 205.125 56.269531 205.808594 64.578125 203.566406 C 71.863281 201.601562 77.496094 194.816406 78.03125 187.6875 C 78.550781 180.589844 74.980469 175.605469 68.019531 173.964844 C 65.40625 173.347656 62.730469 173.121094 60.101562 172.570312 C 52.066406 170.929688 48.839844 165.683594 50.949219 157.808594 C 53.480469 148.328125 64.886719 138.988281 74.574219 138.566406 C 78.519531 138.40625 82.378906 139.101562 84.667969 142.609375 C 85.578125 143.992188 85.871094 146.574219 85.171875 148.019531 Z M 148.167969 182.117188 C 147.339844 188.09375 146.171875 194.019531 144.984375 199.929688 C 144.644531 201.652344 143.949219 203.40625 142.988281 204.867188 C 140.589844 208.503906 136.371094 208.976562 133.238281 205.890625 C 131.679688 204.347656 130.429688 202.398438 129.375 200.449219 C 122.039062 187.136719 114.769531 173.769531 107.484375 160.40625 C 106.867188 159.269531 106.285156 158.132812 104.710938 157.078125 C 104.289062 163.152344 103.734375 169.242188 103.460938 175.3125 C 103.070312 183.59375 102.890625 191.875 102.601562 200.140625 C 102.566406 201.261719 102.535156 202.382812 102.4375 203.503906 C 102.03125 207.933594 100.554688 209.917969 97.878906 209.65625 C 95.28125 209.414062 93.804688 207.222656 94.097656 202.871094 C 94.972656 189.929688 96.011719 176.984375 97.082031 164.042969 C 97.601562 157.808594 98.363281 151.574219 98.949219 145.339844 C 99.207031 142.660156 98.933594 139.671875 102.648438 139.199219 C 105.910156 138.796875 106.511719 141.507812 107.648438 143.667969 C 116.070312 159.691406 124.523438 175.703125 133.027344 191.699219 C 133.953125 193.433594 135.183594 195.011719 136.273438 196.648438 C 136.824219 196.570312 137.375 196.472656 137.925781 196.390625 C 138.851562 188.9375 139.746094 181.46875 140.6875 174.015625 C 142.128906 162.714844 143.558594 151.394531 145.101562 140.09375 C 145.390625 137.886719 145.976562 135.695312 146.691406 133.597656 C 146.917969 132.933594 148.117188 132.054688 148.652344 132.1875 C 149.5625 132.414062 150.796875 133.226562 150.992188 134.019531 C 151.429688 135.710938 151.332031 137.5625 151.414062 139.347656 C 152.09375 153.734375 150.144531 167.925781 148.167969 182.117188 Z M 208.339844 198.128906 C 207.625 199.347656 206.585938 201.132812 205.578125 201.195312 C 204.507812 201.277344 202.675781 199.832031 202.316406 198.695312 C 201.328125 195.53125 200.9375 192.167969 200.289062 188.886719 C 199.949219 187.183594 199.609375 185.480469 199.152344 183.320312 C 187.792969 184.246094 176.742188 185.152344 165.074219 186.113281 C 163.746094 190.640625 162.445312 195.074219 161.148438 199.523438 C 160.710938 201.019531 160.566406 202.738281 159.6875 203.925781 C 158.910156 204.980469 157.109375 206.164062 156.117188 205.90625 C 155.03125 205.613281 153.667969 203.761719 153.652344 202.5625 C 153.601562 199.929688 154.171875 197.234375 154.769531 194.636719 C 159.507812 174.0625 168.027344 154.886719 176.613281 135.742188 C 177.246094 134.328125 178.058594 132.949219 179 131.714844 C 182.4375 127.183594 187.777344 126.664062 191.65625 130.804688 C 193.585938 132.867188 195.175781 135.5 196.167969 138.144531 C 203.128906 156.625 207.6875 175.671875 208.515625 195.480469 C 208.550781 196.375 208.726562 197.445312 208.339844 198.128906 Z M 267.664062 135.855469 C 266.933594 136.390625 264.84375 136.132812 264.097656 135.433594 C 260.410156 132.023438 256.339844 130.074219 251.292969 131.34375 C 245.613281 132.769531 241.3125 136.292969 238.164062 141.132812 C 230.730469 152.582031 228.167969 165.019531 232.015625 178.253906 C 235.242188 189.328125 242.5625 192.507812 253.140625 188.011719 C 256.386719 186.632812 259.550781 185.074219 263.234375 183.367188 C 266.109375 188.011719 263.347656 190.429688 261.027344 192.65625 C 252.347656 200.9375 236.832031 199.621094 229.367188 190.121094 C 225.816406 185.609375 223.851562 180.332031 223.105469 174.777344 C 221.238281 160.976562 223.867188 147.984375 231.867188 136.472656 C 237.90625 127.785156 245.871094 121.828125 257.152344 123.140625 C 260.507812 123.53125 263.886719 125.285156 266.855469 127.085938 C 268.296875 127.964844 269.289062 130.285156 269.613281 132.105469 C 269.839844 133.257812 268.738281 135.078125 267.664062 135.855469 Z M 333.484375 132.722656 C 332.429688 134.621094 330.757812 136.246094 329.152344 137.753906 C 325.257812 141.425781 321.25 144.964844 316.917969 148.878906 C 317.988281 151.671875 318.863281 154.398438 320.03125 156.980469 C 323.421875 164.53125 326.929688 172.015625 330.367188 179.535156 C 331.019531 180.964844 332.074219 182.394531 332.105469 183.839844 C 332.136719 185.363281 331.585938 187.734375 330.546875 188.253906 C 329.425781 188.808594 327.1875 188.042969 325.921875 187.152344 C 324.753906 186.324219 324.152344 184.632812 323.472656 183.222656 C 319.871094 175.785156 316.332031 168.300781 312.746094 160.847656 C 312 159.304688 311.203125 157.792969 310.003906 155.390625 C 303.691406 161.769531 297.863281 167.535156 292.265625 173.496094 C 291.359375 174.46875 291.324219 176.386719 291.148438 177.878906 C 290.742188 181.664062 290.496094 185.460938 290.15625 189.246094 C 290.042969 190.578125 290.253906 192.265625 289.539062 193.144531 C 288.40625 194.523438 286.667969 196.015625 285.0625 196.148438 C 284.105469 196.226562 282.222656 193.921875 282.011719 192.507812 C 281.605469 189.683594 281.898438 186.710938 282.207031 183.824219 C 283.714844 169.371094 285.371094 154.917969 286.863281 140.453125 C 287.253906 136.667969 287.253906 132.851562 287.398438 129.050781 C 287.480469 126.941406 287.722656 124.667969 290.269531 124.503906 C 293.273438 124.328125 293.839844 126.8125 293.808594 129.132812 C 293.726562 135.402344 293.5 141.652344 293.222656 147.90625 C 293.0625 151.605469 292.722656 155.308594 292.363281 160.585938 C 294.894531 158.117188 296.257812 156.785156 297.621094 155.453125 C 305.980469 147.351562 314.269531 139.21875 322.710938 131.210938 C 324.460938 129.554688 326.554688 128.011719 328.792969 127.199219 C 330.109375 126.730469 332.414062 127.378906 333.46875 128.371094 C 334.230469 129.148438 334.117188 131.585938 333.484375 132.722656 Z M 167.203125 179.519531 C 172.960938 164.433594 178.578125 150.679688 185.929688 137.398438 C 192.664062 149.65625 195.566406 162.761719 198.132812 176.484375 C 187.859375 177.488281 178.140625 178.449219 167.203125 179.519531 Z M 167.203125 179.519531 " fill-opacity="1" fill-rule="nonzero"/></svg>