<svg xmlns="http://www.w3.org/2000/svg" xmlns:xlink="http://www.w3.org/1999/xlink" width="500" zoomAndPan="magnify" viewBox="0 0 375 374.999991" height="500" preserveAspectRatio="xMidYMid meet" version="1.0"><defs><clipPath id="id1"><path d="M 8 163 L 367.933594 163 L 367.933594 291.941406 L 8 291.941406 Z M 8 163 " clip-rule="nonzero"/></clipPath></defs><g clip-path="url(#id1)"><path fill="#000000" d="M 356.640625 190.417969 C 353.988281 174.898438 340.609375 163.632812 324.820312 163.632812 L 51.210938 163.632812 C 35.433594 163.632812 22.054688 174.898438 19.394531 190.414062 L 8.554688 253.660156 C 7.101562 262.140625 9.042969 270.679688 14.023438 277.703125 C 19.003906 284.730469 26.433594 289.394531 34.933594 290.84375 C 36.730469 291.152344 38.546875 291.304688 40.371094 291.304688 L 335.660156 291.304688 C 353.460938 291.304688 367.941406 276.851562 367.941406 259.089844 C 367.941406 257.277344 367.789062 255.460938 367.484375 253.660156 Z M 335.660156 282.328125 L 40.371094 282.328125 C 39.058594 282.328125 37.738281 282.21875 36.449219 282 C 23.789062 279.839844 15.253906 267.804688 17.417969 255.175781 L 28.261719 191.925781 C 30.179688 180.734375 39.832031 172.609375 51.210938 172.609375 L 324.820312 172.609375 C 336.207031 172.609375 345.863281 180.730469 347.769531 191.929688 L 358.609375 255.171875 C 358.828125 256.46875 358.941406 257.777344 358.941406 259.089844 C 358.941406 271.902344 348.496094 282.328125 335.660156 282.328125 Z M 335.660156 282.328125 " fill-opacity="1" fill-rule="nonzero"/></g><path fill="#000000" d="M 272.371094 203.636719 C 269.992188 199.011719 265.949219 195.589844 260.996094 194 C 256.039062 192.410156 250.769531 192.839844 246.125 195.210938 C 243.503906 196.554688 241.179688 198.515625 239.40625 200.882812 C 235.507812 206.097656 229.824219 209.601562 224.191406 210.675781 L 152.636719 210.746094 C 146.214844 209.601562 140.523438 206.097656 136.628906 200.882812 C 130.203125 192.285156 117.949219 190.507812 109.34375 196.929688 C 100.738281 203.339844 98.960938 215.554688 105.386719 224.148438 C 106.300781 225.375 107.363281 226.488281 108.546875 227.464844 C 101.679688 233.160156 99.425781 243.054688 103.664062 251.304688 C 107.117188 258.011719 113.957031 261.871094 121.039062 261.871094 C 124.03125 261.871094 127.070312 261.183594 129.90625 259.726562 C 132.542969 258.375 134.867188 256.414062 136.628906 254.054688 C 140.523438 248.839844 146.214844 245.335938 151.84375 244.261719 L 223.402344 244.191406 C 229.824219 245.335938 235.507812 248.839844 239.40625 254.058594 C 245.828125 262.640625 258.082031 264.421875 266.6875 258.007812 C 275.296875 251.59375 277.070312 239.382812 270.648438 230.796875 C 269.734375 229.566406 268.671875 228.449219 267.488281 227.472656 C 274.355469 221.777344 276.605469 211.886719 272.371094 203.636719 Z M 257.070312 230.363281 C 257.683594 231.550781 258.632812 232.496094 259.820312 233.105469 C 261.234375 233.832031 262.488281 234.886719 263.4375 236.160156 C 266.898438 240.785156 265.941406 247.359375 261.3125 250.816406 C 256.671875 254.257812 250.070312 253.308594 246.617188 248.6875 C 241.347656 241.636719 233.664062 236.902344 224.191406 235.285156 L 151.054688 235.355469 C 142.375 236.902344 134.6875 241.636719 129.414062 248.6875 C 128.46875 249.957031 127.214844 251.011719 125.796875 251.738281 C 123.308594 253.019531 120.46875 253.238281 117.792969 252.394531 C 115.125 251.539062 112.953125 249.691406 111.667969 247.207031 C 109.027344 242.066406 111.066406 235.738281 116.210938 233.105469 C 117.71875 232.339844 118.839844 231.023438 119.355469 229.414062 C 119.878906 227.800781 119.738281 226.085938 118.957031 224.558594 C 118.335938 223.371094 117.378906 222.417969 116.214844 221.832031 C 114.800781 221.109375 113.542969 220.046875 112.597656 218.78125 C 109.132812 214.152344 110.09375 207.574219 114.726562 204.121094 C 116.605469 202.71875 118.8125 202.042969 120.996094 202.042969 C 124.195312 202.042969 127.359375 203.5 129.414062 206.246094 C 134.6875 213.300781 142.375 218.035156 151.84375 219.652344 L 224.984375 219.582031 C 233.664062 218.035156 241.347656 213.300781 246.613281 206.25 C 247.566406 204.980469 248.824219 203.917969 250.234375 203.195312 C 255.390625 200.5625 261.722656 202.597656 264.359375 207.730469 C 267.003906 212.871094 264.964844 219.195312 259.820312 221.832031 C 258.3125 222.601562 257.191406 223.917969 256.671875 225.535156 C 256.152344 227.148438 256.300781 228.871094 257.070312 230.363281 Z M 257.070312 230.363281 " fill-opacity="1" fill-rule="nonzero"/><path fill="#000000" d="M 64.6875 154.152344 C 65.347656 154.496094 66.050781 154.652344 66.746094 154.652344 C 68.375 154.652344 69.945312 153.769531 70.746094 152.21875 C 72.921875 148.011719 75.855469 144.324219 79.46875 141.257812 C 94.65625 128.351562 117.554688 130.179688 130.5 145.363281 C 132.117188 147.257812 134.949219 147.476562 136.84375 145.875 C 138.734375 144.265625 138.960938 141.433594 137.351562 139.542969 C 134.355469 136.03125 130.835938 133.289062 127.128906 130.933594 C 128.945312 120.800781 134.976562 111.792969 143.96875 106.59375 C 152.117188 101.875 161.609375 100.601562 170.746094 103.019531 C 179.855469 105.441406 187.476562 111.253906 192.210938 119.390625 C 192.335938 119.609375 192.53125 119.742188 192.683594 119.929688 C 192.890625 120.179688 193.066406 120.445312 193.324219 120.652344 C 193.652344 120.910156 194.027344 121.066406 194.40625 121.222656 C 194.558594 121.285156 194.667969 121.398438 194.828125 121.445312 C 194.84375 121.449219 194.855469 121.445312 194.871094 121.449219 C 195.238281 121.554688 195.617188 121.546875 196 121.554688 C 196.222656 121.5625 196.449219 121.628906 196.667969 121.601562 C 196.679688 121.597656 196.695312 121.589844 196.707031 121.589844 C 197.292969 121.511719 197.847656 121.320312 198.347656 121.027344 C 198.351562 121.023438 198.355469 121.023438 198.359375 121.023438 C 198.402344 120.996094 198.425781 120.949219 198.472656 120.921875 C 198.914062 120.644531 199.316406 120.3125 199.640625 119.890625 C 199.84375 119.628906 199.953125 119.320312 200.09375 119.023438 C 200.195312 118.8125 200.347656 118.640625 200.414062 118.410156 C 203.910156 106.589844 214.039062 97.609375 226.214844 95.539062 C 242.636719 92.734375 258.132812 102.800781 262.800781 118.292969 C 256.535156 120.355469 250.664062 123.742188 245.804688 128.191406 C 243.972656 129.867188 243.851562 132.703125 245.527344 134.53125 C 247.203125 136.351562 250.050781 136.480469 251.882812 134.808594 C 255.992188 131.046875 260.972656 128.199219 266.300781 126.5625 C 275.957031 123.589844 286.171875 124.554688 295.082031 129.265625 C 304.007812 133.972656 310.554688 141.863281 313.523438 151.484375 C 314.109375 153.417969 315.894531 154.652344 317.820312 154.652344 C 318.257812 154.652344 318.707031 154.59375 319.144531 154.457031 C 321.515625 153.722656 322.851562 151.210938 322.113281 148.84375 C 318.441406 136.929688 310.332031 127.160156 299.289062 121.328125 C 290.652344 116.777344 281.039062 115.148438 271.554688 116.367188 C 265.828125 96.234375 245.792969 83.085938 224.703125 86.691406 C 211.988281 88.855469 201.113281 96.96875 195.105469 108.09375 C 189.34375 101.449219 181.753906 96.652344 173.058594 94.34375 C 161.628906 91.324219 149.695312 92.902344 139.453125 98.824219 C 128.945312 104.90625 121.46875 115.078125 118.648438 126.714844 C 103.800781 121.222656 86.539062 123.46875 73.636719 134.417969 C 69.128906 138.25 65.464844 142.851562 62.75 148.109375 C 61.613281 150.308594 62.480469 153.019531 64.6875 154.152344 Z M 64.6875 154.152344 " fill-opacity="1" fill-rule="nonzero"/></svg>