<svg xmlns="http://www.w3.org/2000/svg" xmlns:xlink="http://www.w3.org/1999/xlink" width="500" zoomAndPan="magnify" viewBox="0 0 375 374.999991" height="500" preserveAspectRatio="xMidYMid meet" version="1.0"><defs><clipPath id="id1"><path d="M 27 68.121094 L 373 68.121094 L 373 251 L 27 251 Z M 27 68.121094 " clip-rule="nonzero"/></clipPath></defs><path fill="#8dd5e7" d="M 372.464844 199.125 C 373.238281 218.09375 349.546875 251.613281 338.992188 266.605469 C 331.242188 277.65625 323.308594 287.636719 310.207031 292.390625 C 295.890625 297.621094 279.394531 298.210938 264.335938 299.757812 C 246.574219 301.597656 228.785156 303.011719 210.972656 303.992188 C 174.757812 306.246094 138.53125 306.421875 102.292969 304.507812 C 83.4375 303.367188 59.523438 298.761719 47.933594 282.851562 C 47.933594 282.851562 47.640625 282.851562 47.566406 282.554688 C 47.492188 282.261719 46.644531 281.082031 46.199219 280.34375 C 45.757812 279.609375 45.054688 278.652344 44.613281 277.730469 C 36.347656 264.46875 28.597656 250.914062 21.214844 237.210938 C 14.277344 224.28125 7.96875 210.875 6.085938 196.140625 C 2.175781 165.640625 14.460938 140.003906 29.152344 114.253906 C 38.5625 98.785156 48.007812 92.449219 51.847656 90.863281 C 54.132812 89.90625 52.472656 95.101562 53.136719 97.164062 C 53.269531 97.679688 53.269531 98.195312 53.136719 98.710938 C 53.484375 98.65625 53.832031 98.664062 54.175781 98.734375 C 54.519531 98.800781 54.84375 98.925781 55.140625 99.109375 C 55.441406 99.289062 55.703125 99.519531 55.921875 99.792969 C 56.144531 100.066406 56.308594 100.367188 56.421875 100.699219 C 62.105469 115.027344 71.8125 126.703125 81.960938 138.085938 C 90.816406 148.03125 99.785156 158.714844 111.667969 165.125 C 136.910156 178.714844 169.199219 177.90625 197.097656 178.863281 C 224.996094 179.820312 253.636719 180.667969 280.871094 188.441406 C 295.1875 192.53125 309.027344 198.164062 323.566406 201.445312 C 337.257812 204.539062 351.390625 204.648438 364.679688 209.472656 C 366.117188 209.988281 363.386719 205.789062 362.941406 204.90625 C 358.257812 196.730469 371.910156 185.863281 372.464844 199.125 Z M 372.464844 199.125 " fill-opacity="1" fill-rule="nonzero"/><g clip-path="url(#id1)"><path fill="#c5e8f3" d="M 372.464844 199.125 C 371.875 221.667969 354.675781 229.953125 334.824219 233.527344 C 320.6875 236.070312 306.445312 238.207031 292.199219 240.121094 C 285.582031 241.003906 278.949219 241.839844 272.308594 242.625 C 265.296875 243.472656 245.515625 244.613281 245.332031 244.613281 C 209.09375 247.449219 178.277344 251.171875 142 250.214844 C 118.234375 249.625 85.648438 252.425781 69.671875 231.058594 C 60 218.054688 53.726562 201.589844 46.421875 187.300781 C 40.035156 174.738281 33.097656 162.066406 29.667969 148.289062 C 23.835938 124.789062 30.554688 101.105469 52.917969 89.355469 C 69.339844 81.066406 92.253906 76.128906 109.527344 74.25 C 151.523438 70.191406 193.617188 68.359375 235.808594 68.761719 C 269.503906 68.761719 302.570312 72.777344 315.078125 83.753906 C 321.929688 90.226562 327.984375 97.371094 333.234375 105.191406 C 340.703125 114.996094 347.441406 125.273438 353.460938 136.023438 C 363.792969 154.738281 373.019531 177.355469 372.464844 199.125 Z M 372.464844 199.125 " fill-opacity="1" fill-rule="nonzero"/></g><path fill="#91d6ea" d="M 182.707031 160.335938 C 182.707031 160.335938 182.742188 160.371094 182.707031 160.335938 Z M 182.707031 160.335938 " fill-opacity="1" fill-rule="nonzero"/><path fill="#8dd5e7" d="M 164.03125 181.625 C 163.792969 182.925781 163.394531 184.171875 162.84375 185.371094 C 162.289062 186.570312 161.597656 187.683594 160.765625 188.707031 C 159.9375 189.734375 158.992188 190.640625 157.933594 191.433594 C 156.871094 192.222656 155.734375 192.871094 154.511719 193.375 C 152.582031 193.824219 150.648438 193.824219 148.71875 193.375 C 148.222656 193.273438 147.753906 193.09375 147.316406 192.835938 C 146.878906 192.582031 146.492188 192.261719 146.160156 191.878906 C 145.824219 191.496094 145.5625 191.070312 145.367188 190.601562 C 145.175781 190.132812 145.0625 189.648438 145.027344 189.140625 C 145.007812 188.640625 145.066406 188.148438 145.203125 187.667969 C 145.339844 187.183594 145.546875 186.734375 145.824219 186.320312 C 146.101562 185.902344 146.4375 185.539062 146.832031 185.226562 C 147.226562 184.917969 147.65625 184.675781 148.128906 184.5 L 149.199219 184.058594 C 150.820312 182.804688 152.59375 182.140625 153.699219 180.375 C 154.226562 179.429688 154.488281 178.414062 154.488281 177.335938 C 154.488281 176.253906 154.226562 175.242188 153.699219 174.296875 C 151.449219 170.171875 144.992188 169.066406 141.117188 167.261719 C 135.582031 164.644531 129.527344 159.894531 131.667969 153.117188 C 132.21875 151.613281 132.953125 150.203125 133.867188 148.886719 C 134.78125 147.570312 135.847656 146.394531 137.066406 145.351562 C 138.285156 144.308594 139.613281 143.4375 141.058594 142.738281 C 142.5 142.039062 144.007812 141.53125 145.582031 141.21875 C 149.824219 140.261719 152.1875 146.558594 147.796875 147.773438 C 146.382812 148.140625 145.078125 148.738281 143.878906 149.566406 C 142.679688 150.398438 141.660156 151.40625 140.820312 152.601562 C 139.234375 154.957031 139.125 156.6875 141.410156 158.492188 C 145.582031 161.773438 151.449219 161.992188 156.171875 164.683594 C 156.882812 165.109375 157.554688 165.589844 158.191406 166.117188 C 158.828125 166.644531 159.421875 167.21875 159.976562 167.835938 C 160.527344 168.449219 161.03125 169.105469 161.488281 169.796875 C 161.941406 170.484375 162.34375 171.207031 162.691406 171.957031 C 163.039062 172.707031 163.332031 173.480469 163.566406 174.273438 C 163.796875 175.066406 163.972656 175.871094 164.085938 176.691406 C 164.199219 177.511719 164.25 178.335938 164.242188 179.160156 C 164.234375 179.988281 164.164062 180.808594 164.03125 181.625 Z M 196.546875 158.015625 C 196.859375 159.140625 197.035156 160.285156 197.074219 161.449219 C 197.117188 162.617188 197.019531 163.769531 196.785156 164.914062 C 196.550781 166.058594 196.1875 167.15625 195.691406 168.214844 C 195.195312 169.269531 194.582031 170.253906 193.851562 171.164062 C 193.5 171.558594 193.128906 171.929688 192.738281 172.28125 C 192.347656 172.632812 191.9375 172.960938 191.511719 173.265625 C 191.085938 173.574219 190.640625 173.855469 190.183594 174.117188 C 189.726562 174.375 189.257812 174.609375 188.773438 174.816406 C 188.289062 175.023438 187.796875 175.203125 187.292969 175.355469 C 186.789062 175.511719 186.28125 175.636719 185.761719 175.734375 C 185.246094 175.832031 184.726562 175.902344 184.199219 175.945312 C 183.675781 175.984375 183.152344 176 182.625 175.984375 C 182.097656 175.964844 181.574219 175.921875 181.054688 175.851562 C 180.535156 175.777344 180.019531 175.675781 179.507812 175.546875 C 178.996094 175.417969 178.496094 175.261719 178.003906 175.078125 C 177.511719 174.894531 177.027344 174.683594 176.558594 174.449219 C 176.089844 174.214844 175.632812 173.953125 175.191406 173.667969 C 174.75 173.382812 174.324219 173.074219 173.917969 172.742188 C 173.507812 172.410156 173.121094 172.054688 172.753906 171.679688 C 172.382812 171.308594 172.035156 170.914062 171.707031 170.503906 C 170.21875 168.152344 169.417969 165.585938 169.308594 162.804688 C 169.117188 160.527344 169.238281 158.269531 169.679688 156.027344 C 170.101562 153.886719 170.984375 151.957031 172.335938 150.242188 C 172.632812 149.910156 173.074219 149.800781 173.40625 149.542969 C 173.738281 149.285156 173.40625 149.359375 173.40625 149.285156 C 173.898438 148.804688 174.425781 148.367188 174.988281 147.976562 C 175.550781 147.582031 176.144531 147.242188 176.765625 146.949219 C 177.386719 146.65625 178.027344 146.414062 178.691406 146.230469 C 179.351562 146.042969 180.023438 145.914062 180.707031 145.839844 C 181.390625 145.769531 182.074219 145.753906 182.761719 145.792969 C 183.449219 145.835938 184.125 145.933594 184.796875 146.089844 C 185.464844 146.246094 186.117188 146.453125 186.75 146.71875 C 187.386719 146.984375 187.992188 147.296875 188.574219 147.664062 C 190.566406 148.769531 192.265625 150.222656 193.667969 152.019531 C 195.070312 153.816406 196.066406 155.8125 196.65625 158.015625 Z M 227.839844 162.949219 C 225.375 163.949219 222.839844 164.722656 220.238281 165.273438 C 219.105469 165.5 217.960938 165.636719 216.804688 165.675781 L 216.4375 165.675781 C 216.4375 166.339844 216.4375 167.003906 216.65625 167.664062 C 217.484375 170.648438 217.484375 173.632812 216.65625 176.617188 C 216.53125 176.910156 216.355469 177.171875 216.125 177.394531 C 215.894531 177.617188 215.632812 177.785156 215.332031 177.90625 C 215.035156 178.023438 214.726562 178.078125 214.40625 178.070312 C 214.085938 178.066406 213.777344 178 213.484375 177.871094 C 211.953125 177.03125 210.855469 175.800781 210.199219 174.1875 C 209.480469 172.6875 208.941406 171.128906 208.574219 169.507812 C 207.800781 166.488281 207.210938 163.429688 206.695312 160.371094 C 205.808594 155.140625 204.664062 149.320312 207.210938 144.460938 C 207.535156 143.8125 207.914062 143.199219 208.351562 142.621094 C 208.789062 142.042969 209.277344 141.507812 209.8125 141.019531 C 210.347656 140.53125 210.925781 140.09375 211.539062 139.710938 C 212.15625 139.328125 212.800781 139.003906 213.476562 138.738281 C 214.152344 138.472656 214.847656 138.273438 215.5625 138.136719 C 216.273438 138 216.992188 137.925781 217.71875 137.921875 C 218.445312 137.917969 219.164062 137.976562 219.878906 138.105469 C 220.59375 138.230469 221.292969 138.421875 221.972656 138.675781 C 224.460938 139.875 226.644531 141.492188 228.519531 143.519531 C 230.390625 145.550781 231.824219 147.851562 232.820312 150.425781 L 240.644531 165.53125 C 240.78125 165.769531 240.890625 166.023438 240.976562 166.289062 C 241.0625 166.550781 241.121094 166.820312 241.152344 167.09375 C 241.183594 167.371094 241.191406 167.644531 241.167969 167.921875 C 241.144531 168.199219 241.097656 168.46875 241.023438 168.738281 C 240.945312 169.003906 240.847656 169.257812 240.71875 169.507812 C 240.59375 169.753906 240.445312 169.984375 240.273438 170.203125 C 240.101562 170.421875 239.910156 170.617188 239.699219 170.796875 C 239.488281 170.980469 239.261719 171.136719 239.019531 171.273438 C 238.777344 171.40625 238.523438 171.515625 238.257812 171.601562 C 237.996094 171.6875 237.726562 171.746094 237.449219 171.78125 C 237.175781 171.8125 236.898438 171.820312 236.621094 171.796875 C 236.34375 171.773438 236.074219 171.726562 235.804688 171.652344 C 235.539062 171.578125 235.28125 171.476562 235.035156 171.351562 C 234.789062 171.226562 234.554688 171.078125 234.335938 170.90625 C 234.117188 170.734375 233.917969 170.542969 233.738281 170.332031 C 233.558594 170.121094 233.398438 169.898438 233.265625 169.65625 L 228.539062 161.660156 C 228.761719 162.140625 228.503906 162.730469 227.949219 162.949219 Z M 266.992188 153.816406 C 269.007812 152.429688 270.570312 150.648438 271.679688 148.476562 C 272.328125 147.152344 272.730469 145.761719 272.886719 144.300781 C 273.046875 142.839844 272.953125 141.394531 272.601562 139.964844 C 272.273438 138.695312 271.777344 137.492188 271.121094 136.355469 C 270.460938 135.21875 269.660156 134.191406 268.722656 133.273438 C 267.78125 132.355469 266.738281 131.578125 265.585938 130.945312 C 264.433594 130.3125 263.21875 129.84375 261.9375 129.542969 C 260.730469 129.265625 259.511719 129.171875 258.277344 129.257812 C 257.042969 129.339844 255.84375 129.601562 254.6875 130.035156 C 253.527344 130.472656 252.457031 131.0625 251.472656 131.8125 C 250.492188 132.5625 249.636719 133.441406 248.910156 134.441406 C 248.074219 135.578125 247.4375 136.816406 246.996094 138.160156 C 246.554688 139.5 246.332031 140.875 246.328125 142.285156 C 246.3125 143.53125 246.488281 144.75 246.863281 145.941406 C 247.234375 147.128906 247.78125 148.234375 248.503906 149.25 C 248.503906 149.507812 248.984375 149.578125 249.207031 149.726562 C 249.832031 151.9375 250.425781 154.109375 251.050781 156.285156 C 252.132812 159.253906 253.363281 162.164062 254.742188 165.015625 C 255.886719 167.8125 257.066406 170.613281 258.433594 173.414062 C 259.796875 176.210938 260.757812 181.109375 264.484375 181.882812 C 264.886719 181.972656 265.292969 181.992188 265.699219 181.945312 C 266.109375 181.898438 266.496094 181.789062 266.867188 181.609375 C 267.238281 181.433594 267.570312 181.203125 267.867188 180.914062 C 268.160156 180.625 268.398438 180.300781 268.582031 179.933594 C 270.390625 176.949219 267.769531 173.082031 266.515625 170.316406 L 262.824219 161.699219 C 262.011719 159.929688 261.125 158.015625 260.277344 156.320312 C 262.773438 156.082031 265.046875 155.246094 267.105469 153.816406 Z M 266.992188 153.816406 " fill-opacity="1" fill-rule="nonzero"/><path fill="#8dd5e7" d="M 270.351562 103.832031 C 254.039062 107.917969 175.363281 112.414062 158.71875 114.882812 C 142.074219 117.347656 126.429688 117.71875 110.300781 121.328125 C 104.175781 122.691406 92.773438 126.632812 89.597656 132.855469 C 86.425781 139.082031 88.308594 146.117188 90.226562 151.9375 C 92.699219 159.304688 96.277344 166.375 99.265625 173.558594 C 102.734375 181.882812 106.058594 189.914062 110.339844 197.90625 C 110.535156 198.246094 110.664062 198.605469 110.714844 198.992188 C 110.769531 199.382812 110.746094 199.761719 110.648438 200.140625 C 110.550781 200.519531 110.382812 200.863281 110.148438 201.175781 C 109.910156 201.488281 109.625 201.742188 109.285156 201.941406 C 108.949219 202.140625 108.585938 202.265625 108.199219 202.320312 C 107.808594 202.371094 107.425781 202.351562 107.046875 202.25 C 106.667969 202.152344 106.324219 201.984375 106.011719 201.75 C 105.699219 201.515625 105.445312 201.226562 105.246094 200.890625 C 99.636719 191.757812 93.214844 183.578125 86.792969 175.105469 C 81.375 168.0625 77.304688 160.316406 74.578125 151.863281 C 69.78125 135.730469 73.953125 118.046875 91.589844 113.074219 C 110.691406 107.941406 130.117188 104.773438 149.863281 103.574219 C 168.976562 102.097656 254.152344 95.984375 272.972656 100.699219 C 276.257812 101.507812 273.671875 102.984375 270.351562 103.832031 Z M 327.074219 172.675781 C 321.390625 158.679688 315.191406 144.902344 309.433594 130.941406 C 307.773438 126.925781 304.636719 128.398438 306.222656 132.636719 C 310.425781 144.113281 313.746094 155.839844 316.1875 167.8125 C 317.550781 173.855469 319.433594 179.894531 315.667969 184.683594 C 312.71875 188.367188 303.417969 190.835938 298.988281 192.273438 C 293.304688 194.1875 272.125 201.074219 265.777344 202.289062 C 253.230469 204.757812 234.886719 209.65625 222.265625 211.609375 C 219.277344 212.125 219.277344 215.515625 222.265625 215.292969 C 238.976562 214.410156 255.558594 212.460938 272.011719 209.4375 C 285.730469 207.449219 299.1875 204.34375 312.386719 200.117188 C 326.410156 195.328125 332.09375 185.125 327.074219 172.675781 Z M 327.074219 172.675781 " fill-opacity="1" fill-rule="nonzero"/><path fill="#c5e8f3" d="M 191.007812 159.671875 C 191.035156 159.953125 191.035156 160.238281 191.007812 160.519531 C 191.023438 160.816406 191.023438 161.109375 191.007812 161.402344 C 190.933594 161.664062 190.824219 161.910156 190.675781 162.140625 C 190.601562 162.382812 190.503906 162.617188 190.382812 162.839844 L 189.496094 163.980469 L 188.351562 164.867188 L 186.988281 165.417969 L 185.4375 165.601562 L 185.066406 165.601562 L 183.59375 165.417969 C 183.292969 165.351562 183.007812 165.242188 182.742188 165.085938 L 181.894531 164.71875 L 181.304688 164.238281 L 180.714844 163.796875 C 180.386719 163.441406 180.089844 163.0625 179.828125 162.65625 C 179.566406 162.175781 179.355469 161.671875 179.199219 161.144531 L 178.980469 159.671875 C 178.980469 159.378906 178.980469 159.007812 178.980469 158.824219 C 179.027344 158.269531 179.175781 157.742188 179.421875 157.242188 L 179.605469 156.800781 C 179.683594 156.425781 179.78125 156.058594 179.902344 155.695312 L 180.824219 154.515625 C 181.554688 153.789062 182.414062 153.285156 183.40625 153.003906 L 184.996094 152.785156 L 185.214844 152.785156 C 185.472656 152.785156 186.542969 152.785156 186.800781 153.003906 L 187.539062 153.300781 L 188.277344 153.632812 C 188.6875 153.917969 189.082031 154.226562 189.460938 154.550781 C 189.679688 154.773438 190.160156 155.4375 190.382812 155.730469 C 190.382812 155.730469 190.566406 156.171875 190.675781 156.429688 C 190.792969 156.65625 190.890625 156.890625 190.972656 157.132812 L 190.972656 157.316406 L 191.195312 158.824219 Z M 226.398438 151.605469 C 226.683594 150.648438 226.683594 149.691406 226.398438 148.734375 C 226.136719 147.816406 225.667969 147.019531 224.996094 146.339844 C 224.65625 146.011719 224.273438 145.742188 223.855469 145.527344 C 223.074219 145.085938 222.238281 144.851562 221.34375 144.828125 L 220.238281 144.828125 C 219.277344 144.820312 218.378906 145.054688 217.542969 145.527344 C 217.117188 145.8125 216.714844 146.117188 216.324219 146.449219 L 216.066406 146.707031 C 215.339844 147.433594 214.847656 148.292969 214.589844 149.285156 C 214.402344 149.996094 214.402344 150.710938 214.589844 151.421875 C 214.621094 152.136719 214.84375 152.789062 215.253906 153.375 L 216.066406 154.480469 C 216.304688 154.652344 216.550781 154.8125 216.804688 154.957031 C 216.804688 154.957031 216.804688 154.957031 216.804688 155.179688 C 217.140625 155.476562 217.5 155.746094 217.875 155.988281 C 218.296875 156.261719 218.753906 156.457031 219.242188 156.578125 C 219.859375 156.746094 220.488281 156.808594 221.125 156.765625 C 221.765625 156.722656 222.378906 156.578125 222.96875 156.324219 C 223.558594 156.074219 224.089844 155.734375 224.566406 155.304688 C 225.039062 154.875 225.429688 154.378906 225.734375 153.816406 L 226.253906 152.601562 C 226.253906 152.378906 226.253906 152.046875 226.253906 151.753906 Z M 267.324219 140.554688 C 267.589844 141.511719 267.589844 142.46875 267.324219 143.429688 L 266.773438 144.71875 C 266.457031 145.371094 265.992188 145.886719 265.371094 146.265625 C 264.847656 146.765625 264.234375 147.082031 263.523438 147.222656 C 262.882812 147.394531 262.234375 147.480469 261.570312 147.480469 L 259.980469 147.222656 L 259.722656 147.222656 L 259.058594 146.964844 C 258.605469 146.832031 258.210938 146.601562 257.878906 146.265625 C 257.667969 146.121094 257.484375 145.949219 257.324219 145.75 C 257.222656 145.664062 257.113281 145.589844 256.992188 145.527344 C 256.636719 145.183594 256.332031 144.792969 256.078125 144.367188 C 255.824219 143.9375 255.632812 143.484375 255.503906 143.003906 C 255.375 142.523438 255.3125 142.035156 255.3125 141.539062 C 255.316406 141.042969 255.382812 140.554688 255.515625 140.078125 C 255.800781 139.058594 256.316406 138.171875 257.066406 137.425781 C 257.46875 137.039062 257.914062 136.707031 258.394531 136.429688 C 259.316406 135.878906 260.3125 135.609375 261.382812 135.621094 C 261.910156 135.597656 262.425781 135.660156 262.933594 135.804688 L 263.710938 136.136719 C 264.492188 136.378906 265.15625 136.808594 265.703125 137.425781 C 266.109375 137.816406 266.453125 138.261719 266.734375 138.75 C 267.015625 139.3125 267.226562 139.902344 267.363281 140.519531 Z M 267.324219 140.554688 " fill-opacity="1" fill-rule="nonzero"/><path fill="#ffffff" d="M 63.542969 102.800781 C 62.046875 103.777344 60.644531 104.886719 59.347656 106.121094 C 58.050781 107.351562 56.875 108.695312 55.824219 110.140625 C 54.769531 111.589844 53.855469 113.121094 53.082031 114.734375 C 52.308594 116.347656 51.6875 118.015625 51.21875 119.742188 C 50.273438 123.8125 50.117188 127.914062 50.738281 132.046875 C 50.738281 133.226562 51.699219 135.730469 52.03125 137.570312 C 52.144531 137.972656 52.21875 138.378906 52.257812 138.789062 C 52.292969 139.203125 52.289062 139.617188 52.25 140.03125 C 52.207031 140.445312 52.125 140.847656 52.007812 141.246094 C 51.886719 141.644531 51.730469 142.027344 51.539062 142.398438 C 51.347656 142.765625 51.121094 143.113281 50.863281 143.4375 C 50.605469 143.761719 50.320312 144.0625 50.003906 144.332031 C 49.6875 144.605469 49.351562 144.84375 48.992188 145.050781 C 48.628906 145.257812 48.253906 145.429688 47.859375 145.566406 C 46.859375 145.820312 45.855469 145.816406 44.855469 145.546875 C 43.855469 145.277344 42.988281 144.78125 42.25 144.054688 C 41.304688 142.886719 40.554688 141.609375 40 140.214844 C 39.449219 138.820312 39.113281 137.375 39.003906 135.878906 C 38.539062 133.28125 38.394531 130.664062 38.5625 128.03125 C 38.921875 123.078125 40.152344 118.351562 42.25 113.847656 C 43.175781 111.96875 44.253906 110.175781 45.480469 108.472656 C 46.703125 106.769531 48.0625 105.179688 49.554688 103.703125 C 51.046875 102.226562 52.648438 100.886719 54.367188 99.675781 C 56.082031 98.46875 57.886719 97.410156 59.78125 96.5 C 60.195312 96.304688 60.632812 96.1875 61.089844 96.152344 C 61.546875 96.121094 61.996094 96.167969 62.4375 96.300781 C 62.875 96.4375 63.277344 96.644531 63.636719 96.925781 C 64 97.207031 64.296875 97.546875 64.535156 97.941406 C 64.769531 98.332031 64.925781 98.757812 65 99.207031 C 65.078125 99.660156 65.070312 100.109375 64.980469 100.558594 C 64.890625 101.007812 64.71875 101.425781 64.472656 101.8125 C 64.222656 102.199219 63.914062 102.527344 63.542969 102.800781 Z M 91.777344 89.757812 C 91.535156 88.914062 91.105469 88.175781 90.484375 87.550781 L 89.449219 86.777344 C 88.671875 86.296875 87.820312 86.0625 86.90625 86.074219 C 86.210938 86.039062 85.558594 86.1875 84.949219 86.519531 C 84.328125 86.722656 83.800781 87.066406 83.363281 87.550781 C 82.855469 87.992188 82.5 88.53125 82.292969 89.167969 C 81.980469 89.785156 81.847656 90.433594 81.886719 91.121094 C 81.886719 91.5625 81.886719 92.007812 81.886719 92.449219 C 82.140625 93.296875 82.582031 94.035156 83.214844 94.660156 L 84.210938 95.46875 C 85 95.917969 85.847656 96.140625 86.757812 96.132812 C 87.449219 96.167969 88.101562 96.019531 88.710938 95.691406 C 89.417969 95.484375 90.007812 95.105469 90.484375 94.546875 C 90.964844 94.09375 91.308594 93.554688 91.515625 92.925781 C 91.816406 92.324219 91.960938 91.683594 91.960938 91.011719 Z M 348.550781 165.75 C 347.296875 162.324219 341.910156 163.652344 343.015625 167.261719 C 346.042969 177.242188 348.144531 188.367188 344.453125 198.496094 C 342.980469 202.1875 340.707031 205.296875 337.628906 207.816406 C 334.269531 210.726562 330.246094 211.132812 326.554688 213.378906 C 326.042969 213.703125 325.59375 214.097656 325.207031 214.566406 C 324.824219 215.035156 324.519531 215.550781 324.300781 216.117188 C 324.082031 216.679688 323.953125 217.265625 323.921875 217.871094 C 323.890625 218.476562 323.953125 219.070312 324.113281 219.65625 C 324.269531 220.238281 324.519531 220.785156 324.851562 221.292969 C 325.183594 221.796875 325.589844 222.238281 326.066406 222.613281 C 326.542969 222.992188 327.0625 223.285156 327.632812 223.492188 C 328.203125 223.703125 328.792969 223.816406 329.398438 223.839844 C 334.96875 224.320312 340.46875 219.898438 343.9375 215.921875 C 347.386719 211.800781 349.847656 207.160156 351.320312 201.996094 C 355.488281 189.953125 352.941406 177.28125 348.550781 165.75 Z M 301.167969 214.851562 C 300.804688 214.851562 300.441406 214.886719 300.085938 214.957031 C 299.730469 215.027344 299.382812 215.132812 299.046875 215.273438 C 298.710938 215.410156 298.394531 215.582031 298.089844 215.78125 C 297.789062 215.984375 297.507812 216.214844 297.253906 216.46875 C 296.996094 216.726562 296.765625 217.003906 296.5625 217.308594 C 296.363281 217.609375 296.191406 217.925781 296.050781 218.261719 C 295.914062 218.597656 295.808594 218.945312 295.738281 219.300781 C 295.667969 219.65625 295.632812 220.015625 295.632812 220.378906 C 295.632812 220.738281 295.667969 221.097656 295.738281 221.453125 C 295.808594 221.8125 295.914062 222.15625 296.050781 222.492188 C 296.191406 222.828125 296.363281 223.144531 296.5625 223.445312 C 296.765625 223.75 296.996094 224.027344 297.253906 224.285156 C 297.507812 224.539062 297.789062 224.769531 298.089844 224.972656 C 298.394531 225.171875 298.710938 225.34375 299.046875 225.480469 C 299.382812 225.621094 299.730469 225.726562 300.085938 225.796875 C 300.441406 225.867188 300.804688 225.902344 301.167969 225.902344 C 301.53125 225.902344 301.890625 225.867188 302.246094 225.796875 C 302.601562 225.726562 302.949219 225.621094 303.285156 225.480469 C 303.621094 225.34375 303.941406 225.171875 304.242188 224.972656 C 304.542969 224.769531 304.824219 224.539062 305.082031 224.285156 C 305.335938 224.027344 305.566406 223.75 305.769531 223.445312 C 305.972656 223.144531 306.140625 222.828125 306.28125 222.492188 C 306.421875 222.15625 306.523438 221.8125 306.597656 221.453125 C 306.667969 221.097656 306.703125 220.738281 306.703125 220.378906 C 306.703125 220.015625 306.667969 219.65625 306.597656 219.300781 C 306.523438 218.941406 306.421875 218.597656 306.28125 218.261719 C 306.140625 217.925781 305.972656 217.609375 305.769531 217.308594 C 305.566406 217.003906 305.335938 216.726562 305.082031 216.46875 C 304.824219 216.214844 304.542969 215.984375 304.242188 215.78125 C 303.941406 215.582031 303.621094 215.410156 303.285156 215.273438 C 302.949219 215.132812 302.601562 215.027344 302.246094 214.957031 C 301.890625 214.886719 301.53125 214.851562 301.167969 214.851562 Z M 301.167969 214.851562 " fill-opacity="1" fill-rule="nonzero"/></svg>