<svg xmlns="http://www.w3.org/2000/svg" xmlns:xlink="http://www.w3.org/1999/xlink" width="500" zoomAndPan="magnify" viewBox="0 0 375 374.999991" height="500" preserveAspectRatio="xMidYMid meet" version="1.0"><defs><clipPath id="id1"><path d="M 13.125 130 L 361.875 130 L 361.875 375 L 13.125 375 Z M 13.125 130 " clip-rule="nonzero"/></clipPath><clipPath id="id2"><path d="M 284.679688 222.003906 L 333.429688 222.003906 L 333.429688 279 L 284.679688 279 Z M 284.679688 222.003906 " clip-rule="nonzero"/></clipPath><clipPath id="id3"><path d="M 296 239 L 316 239 L 316 250 L 296 250 Z M 296 239 " clip-rule="nonzero"/></clipPath><clipPath id="id4"><path d="M 293.949219 244.464844 L 313.484375 234.902344 L 324.363281 257.132812 L 304.828125 266.695312 Z M 293.949219 244.464844 " clip-rule="nonzero"/></clipPath><clipPath id="id5"><path d="M 293.949219 244.464844 L 313.484375 234.902344 L 324.363281 257.132812 L 304.828125 266.695312 Z M 293.949219 244.464844 " clip-rule="nonzero"/></clipPath><clipPath id="id6"><path d="M 308 240 L 322 240 L 322 262 L 308 262 Z M 308 240 " clip-rule="nonzero"/></clipPath><clipPath id="id7"><path d="M 293.949219 244.464844 L 313.484375 234.902344 L 324.363281 257.132812 L 304.828125 266.695312 Z M 293.949219 244.464844 " clip-rule="nonzero"/></clipPath><clipPath id="id8"><path d="M 293.949219 244.464844 L 313.484375 234.902344 L 324.363281 257.132812 L 304.828125 266.695312 Z M 293.949219 244.464844 " clip-rule="nonzero"/></clipPath><clipPath id="id9"><path d="M 296 249 L 315 249 L 315 262 L 296 262 Z M 296 249 " clip-rule="nonzero"/></clipPath><clipPath id="id10"><path d="M 293.949219 244.464844 L 313.484375 234.902344 L 324.363281 257.132812 L 304.828125 266.695312 Z M 293.949219 244.464844 " clip-rule="nonzero"/></clipPath><clipPath id="id11"><path d="M 293.949219 244.464844 L 313.484375 234.902344 L 324.363281 257.132812 L 304.828125 266.695312 Z M 293.949219 244.464844 " clip-rule="nonzero"/></clipPath><clipPath id="id12"><path d="M 293 236 L 325 236 L 325 265 L 293 265 Z M 293 236 " clip-rule="nonzero"/></clipPath><clipPath id="id13"><path d="M 293.949219 244.464844 L 313.484375 234.902344 L 324.363281 257.132812 L 304.828125 266.695312 Z M 293.949219 244.464844 " clip-rule="nonzero"/></clipPath><clipPath id="id14"><path d="M 293.949219 244.464844 L 313.484375 234.902344 L 324.363281 257.132812 L 304.828125 266.695312 Z M 293.949219 244.464844 " clip-rule="nonzero"/></clipPath></defs><path fill="#3b82f6" d="M 303.75 95.953125 L 286.3125 108.449219 C 283.695312 110.195312 283.117188 113.972656 284.859375 116.585938 C 286.023438 118.332031 287.765625 118.914062 289.507812 118.914062 C 290.671875 118.914062 291.835938 118.621094 292.707031 117.75 L 310.144531 105.253906 C 312.757812 103.507812 313.339844 99.730469 311.597656 97.117188 C 309.851562 94.789062 306.367188 94.210938 303.75 95.953125 Z M 303.75 95.953125 " fill-opacity="1" fill-rule="nonzero"/><g clip-path="url(#id1)"><path fill="#3b82f6" d="M 353.15625 212.203125 L 353.15625 159.601562 C 353.15625 143.617188 340.367188 130.539062 324.382812 130.539062 L 41.898438 130.539062 C 25.914062 130.539062 13.125 143.617188 13.125 159.601562 L 13.125 345.601562 C 13.125 361.585938 25.914062 374.664062 41.898438 374.664062 L 324.382812 374.664062 C 340.367188 374.664062 353.15625 361.585938 353.15625 345.601562 L 353.15625 292.996094 C 358.097656 291.835938 361.875 287.183594 361.875 281.664062 L 361.875 223.539062 C 361.875 218.015625 358.097656 213.65625 353.15625 212.203125 Z M 350.25 223.539062 L 350.25 281.664062 L 258.121094 281.664062 C 248.53125 281.664062 240.683594 273.816406 240.683594 264.226562 L 240.683594 240.976562 C 240.683594 231.382812 248.53125 223.539062 258.121094 223.539062 Z M 324.382812 363.039062 L 41.898438 363.039062 C 32.304688 363.039062 24.460938 355.191406 24.460938 345.601562 L 24.460938 159.601562 C 24.460938 150.007812 32.304688 142.164062 41.898438 142.164062 L 324.382812 142.164062 C 333.976562 142.164062 341.820312 150.007812 341.820312 159.601562 L 341.820312 211.914062 L 258.121094 211.914062 C 242.136719 211.914062 229.351562 224.992188 229.351562 240.976562 L 229.351562 264.226562 C 229.351562 280.210938 242.136719 293.289062 258.121094 293.289062 L 341.820312 293.289062 L 341.820312 345.601562 C 341.820312 355.191406 333.976562 363.039062 324.382812 363.039062 Z M 324.382812 363.039062 " fill-opacity="1" fill-rule="nonzero"/></g><path fill="#3b82f6" d="M 270.328125 252.601562 C 270.328125 252.980469 270.289062 253.359375 270.214844 253.734375 C 270.140625 254.109375 270.03125 254.472656 269.886719 254.824219 C 269.738281 255.175781 269.558594 255.511719 269.347656 255.828125 C 269.136719 256.148438 268.894531 256.441406 268.625 256.710938 C 268.355469 256.980469 268.0625 257.222656 267.746094 257.433594 C 267.425781 257.644531 267.09375 257.824219 266.738281 257.96875 C 266.386719 258.117188 266.023438 258.226562 265.648438 258.300781 C 265.273438 258.375 264.898438 258.414062 264.515625 258.414062 C 264.132812 258.414062 263.757812 258.375 263.382812 258.300781 C 263.007812 258.226562 262.644531 258.117188 262.292969 257.96875 C 261.9375 257.824219 261.605469 257.644531 261.285156 257.433594 C 260.96875 257.222656 260.675781 256.980469 260.40625 256.710938 C 260.136719 256.441406 259.894531 256.148438 259.683594 255.828125 C 259.46875 255.511719 259.292969 255.175781 259.144531 254.824219 C 259 254.472656 258.890625 254.109375 258.816406 253.734375 C 258.742188 253.359375 258.703125 252.980469 258.703125 252.601562 C 258.703125 252.21875 258.742188 251.839844 258.816406 251.464844 C 258.890625 251.089844 259 250.726562 259.144531 250.375 C 259.292969 250.023438 259.46875 249.6875 259.683594 249.371094 C 259.894531 249.054688 260.136719 248.761719 260.40625 248.488281 C 260.675781 248.21875 260.96875 247.980469 261.285156 247.765625 C 261.605469 247.554688 261.9375 247.375 262.292969 247.230469 C 262.644531 247.082031 263.007812 246.972656 263.382812 246.898438 C 263.757812 246.824219 264.132812 246.789062 264.515625 246.789062 C 264.898438 246.789062 265.273438 246.824219 265.648438 246.898438 C 266.023438 246.972656 266.386719 247.082031 266.738281 247.230469 C 267.09375 247.375 267.425781 247.554688 267.746094 247.765625 C 268.0625 247.980469 268.355469 248.21875 268.625 248.488281 C 268.894531 248.761719 269.136719 249.054688 269.347656 249.371094 C 269.558594 249.6875 269.738281 250.023438 269.886719 250.375 C 270.03125 250.726562 270.140625 251.089844 270.214844 251.464844 C 270.289062 251.839844 270.328125 252.21875 270.328125 252.601562 Z M 270.328125 252.601562 " fill-opacity="1" fill-rule="nonzero"/><path fill="#3b82f6" d="M 217.144531 15.449219 C 218.015625 14.578125 219.179688 14.289062 220.632812 14.289062 C 222.375 14.289062 224.117188 15.160156 225.28125 16.613281 L 229.929688 23.007812 L 96.242188 118.914062 L 116.007812 118.914062 L 260.15625 15.449219 C 261.320312 14.578125 262.480469 14.289062 263.644531 14.289062 C 265.386719 14.289062 267.132812 15.160156 268.292969 16.613281 L 280.210938 32.886719 L 161.925781 118.914062 L 181.6875 118.914062 L 287.183594 42.476562 L 340.660156 116.007812 C 341.53125 117.167969 341.820312 118.621094 341.53125 120.074219 C 341.53125 120.945312 340.949219 121.820312 340.660156 122.398438 C 344.148438 123.851562 347.632812 126.179688 350.539062 128.503906 C 351.703125 126.46875 352.867188 124.144531 353.15625 121.820312 C 354.027344 117.167969 352.867188 112.519531 349.960938 109.03125 L 277.882812 9.929688 C 272.363281 2.082031 261.320312 0.335938 253.761719 6.148438 L 239.523438 16.320312 L 234.871094 9.929688 C 229.351562 2.082031 218.304688 0.335938 210.75 6.148438 L 52.941406 118.914062 L 72.703125 118.914062 Z M 217.144531 15.449219 " fill-opacity="1" fill-rule="nonzero"/><g clip-path="url(#id2)"><path fill="#3b82f6" d="M 286.371094 237.253906 L 309.054688 224.003906 L 331.742188 237.253906 L 331.742188 263.753906 L 309.054688 277.015625 L 286.371094 263.753906 L 286.371094 237.253906 M 284.679688 236.261719 L 284.679688 264.746094 L 309.054688 278.988281 L 333.429688 264.746094 L 333.429688 236.261719 L 309.054688 222.023438 Z M 284.679688 236.261719 " fill-opacity="1" fill-rule="nonzero"/></g><g clip-path="url(#id3)"><g clip-path="url(#id4)"><g clip-path="url(#id5)"><path fill="#60a5fa" d="M 303.835938 239.925781 L 296.679688 249.402344 L 308.554688 249.570312 L 315.710938 240.089844 Z M 303.835938 239.925781 " fill-opacity="1" fill-rule="nonzero"/></g></g></g><g clip-path="url(#id6)"><g clip-path="url(#id7)"><g clip-path="url(#id8)"><path fill="#3b82f6" d="M 308.554688 249.570312 L 314.453125 261.625 L 321.609375 252.144531 L 315.710938 240.089844 Z M 308.554688 249.570312 " fill-opacity="1" fill-rule="nonzero"/></g></g></g><g clip-path="url(#id9)"><g clip-path="url(#id10)"><g clip-path="url(#id11)"><path fill="#2563eb" d="M 308.554688 249.570312 L 314.453125 261.625 L 302.582031 261.457031 L 296.679688 249.402344 Z M 308.554688 249.570312 " fill-opacity="1" fill-rule="nonzero"/></g></g></g><g clip-path="url(#id12)"><g clip-path="url(#id13)"><g clip-path="url(#id14)"><path strokeLinecap="butt" transform="matrix(0.475723, -0.232819, 0.236001, 0.482224, 289.005835, 245.769915)" fill="none" stroke-linejoin="miter" d="M 30.003847 2.374934 L 9.99927 12.376546 L 9.997338 37.373732 L 29.99972 47.371176 L 50.001055 37.376099 L 49.996363 12.375714 Z M 30.003847 2.374934 " stroke="#4d4d4d" stroke-width="1" stroke-opacity="1" stroke-miterlimit="4"/></g></g></g><path strokeLinecap="butt" transform="matrix(0.75, 0, 0, 0.75, 39.603517, 197.817702)" fill="none" stroke-linejoin="miter" d="M 41.289063 90.826403 L 68.42969 36.993066 L 89.263024 36.993066 L 74.044273 108.998279 L 60.252606 108.998279 L 67.393231 74.914944 C 69.132815 66.805568 70.856773 59.565984 72.565107 53.196192 L 72.320315 53.196192 L 44.294271 108.998279 L 30.455729 108.998279 L 27.45052 53.196192 L 27.252604 53.196192 C 26.893229 56.086817 26.268228 59.878484 25.382812 64.576401 C 24.492187 69.26911 21.424478 84.076403 16.16927 108.998279 L 2.627602 108.998279 L 17.846353 36.993066 L 37.742188 36.993066 L 41.091146 90.826403 Z M 91.372399 108.998279 L 106.59115 36.993066 L 121.65886 36.993066 L 109.054692 96.388903 L 134.268236 96.388903 L 131.611985 108.998279 Z M 190.559906 58.862859 C 189.049489 63.654526 187.164072 68.560777 184.898447 73.586819 L 168.940113 108.998279 L 152.28907 108.998279 L 150.075528 36.993066 L 164.210946 36.993066 L 164.507821 76.295152 C 164.507821 78.003486 164.440113 80.842027 164.309904 84.815986 C 164.179696 88.789945 164.013029 91.644111 163.815113 93.388903 L 164.111988 93.388903 C 164.835946 91.284736 165.934904 88.321195 167.414071 84.498278 C 168.88803 80.670152 169.872405 78.284736 170.367196 77.33161 L 188.539072 36.993066 L 201.841157 36.993066 L 202.872407 79.987861 C 202.872407 84.784736 202.726573 89.248278 202.429698 93.388903 L 202.726573 93.388903 C 204.138032 89.14932 206.289074 83.420153 209.179699 76.196194 L 225.4297 36.993066 L 240.648451 36.993066 L 208.783865 108.998279 L 191.742198 108.998279 L 190.658864 73.48786 L 190.559906 66.64411 C 190.559906 63.753485 190.627614 61.159734 190.757823 58.862859 Z M 190.559906 58.862859 " stroke="#3b82f6" stroke-width="3.782625" stroke-opacity="1" stroke-miterlimit="4"/></svg>