<svg xmlns="http://www.w3.org/2000/svg" xmlns:xlink="http://www.w3.org/1999/xlink" width="500" zoomAndPan="magnify" viewBox="0 0 375 374.999991" height="500" preserveAspectRatio="xMidYMid meet" version="1.0"><defs><clipPath id="id1"><path d="M 54.464844 136 L 320.714844 136 L 320.714844 323 L 54.464844 323 Z M 54.464844 136 " clip-rule="nonzero"/></clipPath><clipPath id="id2"><path d="M 265.136719 210.433594 L 298.933594 210.433594 L 298.933594 249.425781 L 265.136719 249.425781 Z M 265.136719 210.433594 " clip-rule="nonzero"/></clipPath><clipPath id="id3"><path d="M 273 222 L 287 222 L 287 230 L 273 230 Z M 273 222 " clip-rule="nonzero"/></clipPath><clipPath id="id4"><path d="M 271.472656 225.585938 L 285.015625 218.957031 L 292.558594 234.371094 L 279.015625 241 Z M 271.472656 225.585938 " clip-rule="nonzero"/></clipPath><clipPath id="id5"><path d="M 271.472656 225.585938 L 285.015625 218.957031 L 292.558594 234.371094 L 279.015625 241 Z M 271.472656 225.585938 " clip-rule="nonzero"/></clipPath><clipPath id="id6"><path d="M 281 222 L 291 222 L 291 238 L 281 238 Z M 281 222 " clip-rule="nonzero"/></clipPath><clipPath id="id7"><path d="M 271.472656 225.585938 L 285.015625 218.957031 L 292.558594 234.371094 L 279.015625 241 Z M 271.472656 225.585938 " clip-rule="nonzero"/></clipPath><clipPath id="id8"><path d="M 271.472656 225.585938 L 285.015625 218.957031 L 292.558594 234.371094 L 279.015625 241 Z M 271.472656 225.585938 " clip-rule="nonzero"/></clipPath><clipPath id="id9"><path d="M 273 229 L 286 229 L 286 238 L 273 238 Z M 273 229 " clip-rule="nonzero"/></clipPath><clipPath id="id10"><path d="M 271.472656 225.585938 L 285.015625 218.957031 L 292.558594 234.371094 L 279.015625 241 Z M 271.472656 225.585938 " clip-rule="nonzero"/></clipPath><clipPath id="id11"><path d="M 271.472656 225.585938 L 285.015625 218.957031 L 292.558594 234.371094 L 279.015625 241 Z M 271.472656 225.585938 " clip-rule="nonzero"/></clipPath><clipPath id="id12"><path d="M 271 220 L 293 220 L 293 240 L 271 240 Z M 271 220 " clip-rule="nonzero"/></clipPath><clipPath id="id13"><path d="M 271.472656 225.585938 L 285.015625 218.957031 L 292.558594 234.371094 L 279.015625 241 Z M 271.472656 225.585938 " clip-rule="nonzero"/></clipPath><clipPath id="id14"><path d="M 271.472656 225.585938 L 285.015625 218.957031 L 292.558594 234.371094 L 279.015625 241 Z M 271.472656 225.585938 " clip-rule="nonzero"/></clipPath></defs><rect x="-37.5" width="450" fill="#ffffff" y="-37.499999" height="449.999989" fill-opacity="1"/><rect x="-37.5" width="450" fill="#ffffff" y="-37.499999" height="449.999989" fill-opacity="1"/><rect x="-37.5" width="450" fill="#ffffff" y="-37.499999" height="449.999989" fill-opacity="1"/><path fill="#3b82f6" d="M 17.25 0 L 357.75 0 C 362.324219 0 366.710938 1.816406 369.949219 5.050781 C 373.183594 8.289062 375 12.675781 375 17.25 L 375 357.75 C 375 362.324219 373.183594 366.710938 369.949219 369.949219 C 366.710938 373.183594 362.324219 375 357.75 375 L 17.25 375 C 12.675781 375 8.289062 373.183594 5.050781 369.949219 C 1.816406 366.710938 0 362.324219 0 357.75 L 0 17.25 C 0 12.675781 1.816406 8.289062 5.050781 5.050781 C 8.289062 1.816406 12.675781 0 17.25 0 " fill-opacity="1" fill-rule="nonzero"/><path fill="#ffffff" d="M 276.339844 110.617188 L 263.027344 120.140625 C 261.027344 121.46875 260.585938 124.347656 261.917969 126.339844 C 262.804688 127.667969 264.136719 128.113281 265.464844 128.113281 C 266.355469 128.113281 267.242188 127.890625 267.90625 127.226562 L 281.21875 117.703125 C 283.214844 116.375 283.660156 113.496094 282.328125 111.503906 C 280.996094 109.730469 278.335938 109.289062 276.339844 110.617188 Z M 276.339844 110.617188 " fill-opacity="1" fill-rule="nonzero"/><g clip-path="url(#id1)"><path fill="#ffffff" d="M 314.058594 199.199219 L 314.058594 159.117188 C 314.058594 146.933594 304.292969 136.96875 292.089844 136.96875 L 76.429688 136.96875 C 64.226562 136.96875 54.464844 146.933594 54.464844 159.117188 L 54.464844 300.847656 C 54.464844 313.027344 64.226562 322.992188 76.429688 322.992188 L 292.089844 322.992188 C 304.292969 322.992188 314.058594 313.027344 314.058594 300.847656 L 314.058594 260.761719 C 317.828125 259.878906 320.714844 256.335938 320.714844 252.125 L 320.714844 207.835938 C 320.714844 203.628906 317.828125 200.304688 314.058594 199.199219 Z M 311.839844 207.835938 L 311.839844 252.125 L 241.503906 252.125 C 234.183594 252.125 228.191406 246.148438 228.191406 238.839844 L 228.191406 221.121094 C 228.191406 213.816406 234.183594 207.835938 241.503906 207.835938 Z M 292.089844 314.132812 L 76.429688 314.132812 C 69.105469 314.132812 63.117188 308.15625 63.117188 300.847656 L 63.117188 159.117188 C 63.117188 151.808594 69.105469 145.828125 76.429688 145.828125 L 292.089844 145.828125 C 299.414062 145.828125 305.402344 151.808594 305.402344 159.117188 L 305.402344 198.976562 L 241.503906 198.976562 C 229.300781 198.976562 219.539062 208.941406 219.539062 221.121094 L 219.539062 238.839844 C 219.539062 251.019531 229.300781 260.984375 241.503906 260.984375 L 305.402344 260.984375 L 305.402344 300.847656 C 305.402344 308.15625 299.414062 314.132812 292.089844 314.132812 Z M 292.089844 314.132812 " fill-opacity="1" fill-rule="nonzero"/></g><path fill="#ffffff" d="M 250.824219 229.980469 C 250.824219 230.273438 250.792969 230.558594 250.738281 230.84375 C 250.679688 231.128906 250.597656 231.40625 250.484375 231.675781 C 250.375 231.945312 250.238281 232.199219 250.074219 232.441406 C 249.914062 232.683594 249.730469 232.90625 249.523438 233.113281 C 249.316406 233.320312 249.09375 233.503906 248.851562 233.664062 C 248.609375 233.824219 248.351562 233.960938 248.082031 234.074219 C 247.8125 234.183594 247.535156 234.269531 247.25 234.324219 C 246.964844 234.382812 246.675781 234.410156 246.386719 234.410156 C 246.09375 234.410156 245.804688 234.382812 245.519531 234.324219 C 245.234375 234.269531 244.957031 234.183594 244.6875 234.074219 C 244.417969 233.960938 244.164062 233.824219 243.921875 233.664062 C 243.679688 233.503906 243.453125 233.320312 243.246094 233.113281 C 243.042969 232.90625 242.859375 232.683594 242.695312 232.441406 C 242.535156 232.199219 242.398438 231.945312 242.285156 231.675781 C 242.175781 231.40625 242.089844 231.128906 242.03125 230.84375 C 241.976562 230.558594 241.949219 230.273438 241.949219 229.980469 C 241.949219 229.691406 241.976562 229.402344 242.03125 229.117188 C 242.089844 228.832031 242.175781 228.554688 242.285156 228.285156 C 242.398438 228.015625 242.535156 227.761719 242.695312 227.519531 C 242.859375 227.277344 243.042969 227.054688 243.246094 226.847656 C 243.453125 226.644531 243.679688 226.460938 243.921875 226.296875 C 244.164062 226.136719 244.417969 226 244.6875 225.890625 C 244.957031 225.777344 245.234375 225.695312 245.519531 225.636719 C 245.804688 225.582031 246.09375 225.550781 246.386719 225.550781 C 246.675781 225.550781 246.964844 225.582031 247.25 225.636719 C 247.535156 225.695312 247.8125 225.777344 248.082031 225.890625 C 248.351562 226 248.609375 226.136719 248.851562 226.296875 C 249.09375 226.460938 249.316406 226.644531 249.523438 226.847656 C 249.730469 227.054688 249.914062 227.277344 250.074219 227.519531 C 250.238281 227.761719 250.375 228.015625 250.484375 228.285156 C 250.597656 228.554688 250.679688 228.832031 250.738281 229.117188 C 250.792969 229.402344 250.824219 229.691406 250.824219 229.980469 Z M 250.824219 229.980469 " fill-opacity="1" fill-rule="nonzero"/><path fill="#ffffff" d="M 210.21875 49.273438 C 210.886719 48.609375 211.773438 48.386719 212.882812 48.386719 C 214.214844 48.386719 215.542969 49.050781 216.433594 50.160156 L 219.980469 55.03125 L 117.917969 128.113281 L 133.007812 128.113281 L 243.058594 49.273438 C 243.945312 48.609375 244.832031 48.386719 245.71875 48.386719 C 247.050781 48.386719 248.382812 49.050781 249.269531 50.160156 L 258.367188 62.5625 L 168.0625 128.113281 L 183.152344 128.113281 L 263.691406 69.867188 L 304.515625 125.898438 C 305.183594 126.78125 305.402344 127.890625 305.183594 128.996094 C 305.183594 129.660156 304.738281 130.324219 304.515625 130.769531 C 307.179688 131.875 309.839844 133.648438 312.058594 135.417969 C 312.949219 133.871094 313.835938 132.097656 314.058594 130.324219 C 314.722656 126.78125 313.835938 123.238281 311.617188 120.582031 L 256.589844 45.066406 C 252.375 39.085938 243.945312 37.757812 238.175781 42.1875 L 227.304688 49.9375 L 223.753906 45.066406 C 219.539062 39.085938 211.105469 37.757812 205.339844 42.1875 L 84.859375 128.113281 L 99.949219 128.113281 Z M 210.21875 49.273438 " fill-opacity="1" fill-rule="nonzero"/><g clip-path="url(#id2)"><path fill="#ffffff" d="M 266.304688 220.863281 L 282.035156 211.796875 L 297.761719 220.863281 L 297.761719 238.996094 L 282.035156 248.070312 L 266.304688 238.996094 L 266.304688 220.863281 M 265.136719 220.183594 L 265.136719 239.675781 L 282.035156 249.417969 L 298.933594 239.675781 L 298.933594 220.183594 L 282.035156 210.441406 Z M 265.136719 220.183594 " fill-opacity="1" fill-rule="nonzero"/></g><g clip-path="url(#id3)"><g clip-path="url(#id4)"><g clip-path="url(#id5)"><path fill="#ffffff" d="M 278.328125 222.441406 L 273.367188 229.011719 L 281.597656 229.125 L 286.558594 222.554688 Z M 278.328125 222.441406 " fill-opacity="1" fill-rule="nonzero"/></g></g></g><g clip-path="url(#id6)"><g clip-path="url(#id7)"><g clip-path="url(#id8)"><path fill="#d9d9d9" d="M 281.597656 229.125 L 285.6875 237.484375 L 290.648438 230.914062 L 286.558594 222.554688 Z M 281.597656 229.125 " fill-opacity="1" fill-rule="nonzero"/></g></g></g><g clip-path="url(#id9)"><g clip-path="url(#id10)"><g clip-path="url(#id11)"><path fill="#a6a6a6" d="M 281.597656 229.125 L 285.6875 237.484375 L 277.457031 237.367188 L 273.367188 229.011719 Z M 281.597656 229.125 " fill-opacity="1" fill-rule="nonzero"/></g></g></g><g clip-path="url(#id12)"><g clip-path="url(#id13)"><g clip-path="url(#id14)"><path strokeLinecap="butt" transform="matrix(0.329799, -0.161404, 0.163609, 0.334306, 268.04656, 226.492617)" fill="none" stroke-linejoin="miter" d="M 29.996612 2.375869 L 10.004574 12.377255 L 10.001534 37.380978 L 29.999638 47.374989 L 50.001232 37.378217 L 50.004272 12.374494 Z M 29.996612 2.375869 " stroke="#4d4d4d" stroke-width="1" stroke-opacity="1" stroke-miterlimit="4"/></g></g></g><path strokeLinecap="butt" transform="matrix(0.5722, 0, 0, 0.5722, 74.664888, 188.421652)" fill="none" stroke-linejoin="miter" d="M 41.286587 90.82313 L 68.429643 36.994408 L 89.264806 36.994408 L 74.04121 109.002697 L 60.251227 109.002697 L 67.391981 74.916862 C 69.132796 66.806714 70.859957 59.563559 72.566638 53.194225 L 72.320876 53.194225 L 44.297172 109.002697 L 30.452575 109.002697 L 27.448817 53.194225 L 27.250842 53.194225 C 26.889025 56.088756 26.267793 59.877588 25.380319 64.574375 C 24.492845 69.271161 21.420819 84.078326 16.171068 109.002697 L 2.626847 109.002697 L 17.843615 36.994408 L 37.743517 36.994408 L 41.095439 90.82313 Z M 91.367437 109.002697 L 106.591032 36.994408 L 121.657613 36.994408 L 109.05548 96.393737 L 134.266573 96.393737 L 131.610977 109.002697 Z M 190.559742 58.860406 C 189.051036 63.652767 187.160033 68.561182 184.89356 73.585651 L 168.939506 109.002697 L 152.289125 109.002697 L 150.077266 36.994408 L 164.208586 36.994408 L 164.508962 76.29586 C 164.508962 78.002541 164.440694 80.842459 164.310987 84.815612 C 164.174452 88.788766 164.010611 91.649163 163.812636 93.389978 L 164.113012 93.389978 C 164.836644 91.287347 165.935747 88.324549 167.410319 84.494756 C 168.891719 80.671791 169.874767 78.282437 170.366291 77.333522 L 188.539031 36.994408 L 201.83749 36.994408 L 202.875152 79.989118 C 202.875152 84.781479 202.724965 89.252983 202.431415 93.389978 L 202.724965 93.389978 C 204.138096 89.150582 206.288515 83.422961 209.176219 76.200286 L 225.43065 36.994408 L 240.647418 36.994408 L 208.787096 109.002697 L 191.740765 109.002697 L 190.662143 73.490077 L 190.559742 66.642872 C 190.559742 63.755168 190.628009 61.161012 190.757717 58.860406 Z M 190.559742 58.860406 " stroke="#ffffff" stroke-width="3.782625" stroke-opacity="1" stroke-miterlimit="4"/></svg>