<svg xmlns="http://www.w3.org/2000/svg" xmlns:xlink="http://www.w3.org/1999/xlink" width="128" zoomAndPan="magnify" viewBox="0 0 96 95.999999" height="128" preserveAspectRatio="xMidYMid meet" version="1.0"><defs><clipPath id="id1"><path d="M 75 48 L 94.429688 48 L 94.429688 81 L 75 81 Z M 75 48 " clip-rule="nonzero"/></clipPath><clipPath id="id2"><path d="M 48 1.429688 L 81 1.429688 L 81 21 L 48 21 Z M 48 1.429688 " clip-rule="nonzero"/></clipPath><clipPath id="id3"><path d="M 15 1.429688 L 47 1.429688 L 47 21 L 15 21 Z M 15 1.429688 " clip-rule="nonzero"/></clipPath><clipPath id="id4"><path d="M 48 75 L 81 75 L 81 94.429688 L 48 94.429688 Z M 48 75 " clip-rule="nonzero"/></clipPath><clipPath id="id5"><path d="M 15 75 L 47 75 L 47 94.429688 L 15 94.429688 Z M 15 75 " clip-rule="nonzero"/></clipPath><clipPath id="id6"><path d="M 1.429688 48 L 21 48 L 21 81 L 1.429688 81 Z M 1.429688 48 " clip-rule="nonzero"/></clipPath><clipPath id="id7"><path d="M 1.429688 15 L 21 15 L 21 47 L 1.429688 47 Z M 1.429688 15 " clip-rule="nonzero"/></clipPath><clipPath id="id8"><path d="M 75 15 L 94.429688 15 L 94.429688 47 L 75 47 Z M 75 15 " clip-rule="nonzero"/></clipPath></defs><path fill="#100f0d" d="M 54.03125 59.445312 C 54.171875 59.554688 54.3125 59.671875 54.445312 59.800781 L 56.621094 61.980469 C 56.640625 61.996094 56.679688 61.996094 56.699219 61.980469 L 61.980469 56.699219 C 61.996094 56.679688 61.996094 56.640625 61.980469 56.621094 L 59.800781 54.445312 C 59.671875 54.3125 59.554688 54.175781 59.445312 54.03125 C 58.851562 55.152344 58.085938 56.203125 57.144531 57.144531 C 56.203125 58.089844 55.148438 58.855469 54.03125 59.445312 " fill-opacity="1" fill-rule="nonzero"/><path fill="#100f0d" d="M 59.445312 41.828125 C 59.554688 41.683594 59.671875 41.546875 59.800781 41.414062 L 61.980469 39.238281 C 61.996094 39.21875 61.996094 39.179688 61.980469 39.160156 L 56.699219 33.878906 C 56.679688 33.863281 56.640625 33.863281 56.621094 33.878906 L 54.445312 36.058594 C 54.3125 36.1875 54.175781 36.304688 54.03125 36.414062 C 55.152344 37.007812 56.203125 37.773438 57.144531 38.714844 C 58.085938 39.65625 58.851562 40.707031 59.445312 41.828125 " fill-opacity="1" fill-rule="nonzero"/><path fill="#100f0d" d="M 27.949219 65.175781 C 27.546875 65.578125 27.546875 66.234375 27.949219 66.636719 L 29.222656 67.910156 C 29.625 68.3125 30.28125 68.3125 30.683594 67.910156 L 36.542969 62.046875 L 33.8125 59.316406 L 27.949219 65.175781 " fill-opacity="1" fill-rule="nonzero"/><g clip-path="url(#id1)"><path fill="#100f0d" d="M 75.261719 73.917969 L 81.496094 80.152344 C 89.890625 71.414062 94.199219 60.183594 94.429688 48.878906 L 85.617188 48.878906 C 85.394531 57.925781 81.941406 66.902344 75.261719 73.917969 " fill-opacity="1" fill-rule="nonzero"/></g><g clip-path="url(#id2)"><path fill="#100f0d" d="M 73.917969 20.597656 L 80.152344 14.363281 C 71.414062 5.96875 60.183594 1.660156 48.878906 1.429688 L 48.878906 10.242188 C 57.925781 10.464844 66.898438 13.917969 73.917969 20.597656 " fill-opacity="1" fill-rule="nonzero"/></g><g clip-path="url(#id3)"><path fill="#100f0d" d="M 46.980469 10.242188 L 46.980469 1.429688 C 35.675781 1.660156 24.445312 5.96875 15.707031 14.363281 L 21.941406 20.597656 C 28.960938 13.917969 37.933594 10.464844 46.980469 10.242188 " fill-opacity="1" fill-rule="nonzero"/></g><g clip-path="url(#id4)"><path fill="#100f0d" d="M 48.878906 85.617188 L 48.878906 94.429688 C 60.183594 94.199219 71.414062 89.890625 80.152344 81.496094 L 73.917969 75.261719 C 66.898438 81.941406 57.925781 85.394531 48.878906 85.617188 " fill-opacity="1" fill-rule="nonzero"/></g><g clip-path="url(#id5)"><path fill="#100f0d" d="M 21.941406 75.261719 L 15.707031 81.496094 C 24.445312 89.890625 35.675781 94.199219 46.980469 94.429688 L 46.980469 85.617188 C 37.933594 85.394531 28.960938 81.941406 21.941406 75.261719 " fill-opacity="1" fill-rule="nonzero"/></g><g clip-path="url(#id6)"><path fill="#100f0d" d="M 10.242188 48.878906 L 1.429688 48.878906 C 1.660156 60.183594 5.96875 71.414062 14.363281 80.152344 L 20.597656 73.917969 C 13.917969 66.902344 10.464844 57.925781 10.242188 48.878906 " fill-opacity="1" fill-rule="nonzero"/></g><g clip-path="url(#id7)"><path fill="#100f0d" d="M 20.597656 21.941406 L 14.363281 15.707031 C 5.96875 24.445312 1.660156 35.675781 1.429688 46.980469 L 10.242188 46.980469 C 10.464844 37.933594 13.917969 28.960938 20.597656 21.941406 " fill-opacity="1" fill-rule="nonzero"/></g><path fill="#100f0d" d="M 29.222656 27.949219 L 27.949219 29.222656 C 27.546875 29.625 27.546875 30.28125 27.949219 30.683594 L 33.8125 36.542969 L 36.542969 33.8125 L 30.683594 27.949219 C 30.28125 27.546875 29.625 27.546875 29.222656 27.949219 " fill-opacity="1" fill-rule="nonzero"/><g clip-path="url(#id8)"><path fill="#100f0d" d="M 85.617188 46.980469 L 94.429688 46.980469 C 94.199219 35.675781 89.890625 24.445312 81.496094 15.707031 L 75.261719 21.941406 C 81.941406 28.960938 85.394531 37.933594 85.617188 46.980469 " fill-opacity="1" fill-rule="nonzero"/></g><path fill="#100f0d" d="M 41.824219 36.414062 C 41.683594 36.304688 41.542969 36.1875 41.414062 36.058594 L 39.238281 33.878906 C 39.21875 33.863281 39.179688 33.863281 39.160156 33.878906 L 33.878906 39.160156 C 33.863281 39.179688 33.863281 39.21875 33.878906 39.238281 L 36.058594 41.414062 C 36.1875 41.546875 36.304688 41.683594 36.414062 41.828125 C 37.007812 40.707031 37.773438 39.65625 38.714844 38.714844 C 39.65625 37.773438 40.707031 37.007812 41.824219 36.414062 " fill-opacity="1" fill-rule="nonzero"/><path fill="#100f0d" d="M 66.636719 67.910156 L 67.910156 66.636719 C 68.3125 66.234375 68.3125 65.578125 67.910156 65.175781 L 62.046875 59.316406 L 59.316406 62.046875 L 65.175781 67.910156 C 65.578125 68.3125 66.234375 68.3125 66.636719 67.910156 " fill-opacity="1" fill-rule="nonzero"/><path fill="#100f0d" d="M 67.910156 29.222656 L 66.636719 27.949219 C 66.234375 27.546875 65.578125 27.546875 65.175781 27.949219 L 59.316406 33.8125 L 62.046875 36.542969 L 67.910156 30.683594 C 68.3125 30.28125 68.3125 29.625 67.910156 29.222656 " fill-opacity="1" fill-rule="nonzero"/><path fill="#100f0d" d="M 42.933594 42.9375 C 44.269531 41.601562 46.042969 40.867188 47.929688 40.867188 C 49.816406 40.867188 51.589844 41.601562 52.921875 42.9375 C 54.257812 44.269531 54.992188 46.042969 54.992188 47.929688 C 54.992188 49.816406 54.257812 51.589844 52.921875 52.925781 C 51.546875 54.300781 49.738281 54.988281 47.929688 54.988281 C 46.121094 54.988281 44.3125 54.300781 42.933594 52.925781 C 40.183594 50.167969 40.183594 45.691406 42.933594 42.9375 Z M 46.84375 59.003906 C 46.859375 59.003906 46.871094 59.007812 46.886719 59.007812 C 47.582031 59.074219 48.28125 59.074219 48.972656 59.007812 C 48.988281 59.007812 49 59.003906 49.015625 59.003906 C 51.496094 58.761719 53.90625 57.695312 55.800781 55.800781 C 57.695312 53.90625 58.761719 51.492188 59.003906 49.015625 C 59.003906 49 59.007812 48.988281 59.007812 48.972656 C 59.074219 48.28125 59.074219 47.578125 59.007812 46.886719 C 59.007812 46.871094 59.003906 46.859375 59.003906 46.84375 C 58.761719 44.367188 57.695312 41.953125 55.800781 40.058594 C 53.910156 38.164062 51.496094 37.097656 49.019531 36.855469 C 49.003906 36.855469 48.984375 36.851562 48.964844 36.851562 C 48.621094 36.820312 48.273438 36.800781 47.929688 36.800781 C 47.582031 36.800781 47.234375 36.820312 46.886719 36.851562 C 46.871094 36.851562 46.859375 36.855469 46.84375 36.855469 C 44.363281 37.097656 41.953125 38.164062 40.058594 40.058594 C 38.164062 41.953125 37.097656 44.367188 36.855469 46.84375 C 36.855469 46.859375 36.851562 46.871094 36.851562 46.886719 C 36.785156 47.578125 36.785156 48.28125 36.851562 48.972656 C 36.851562 48.988281 36.855469 49 36.855469 49.015625 C 37.097656 51.492188 38.164062 53.90625 40.058594 55.800781 C 41.953125 57.695312 44.363281 58.761719 46.84375 59.003906 " fill-opacity="1" fill-rule="nonzero"/><path fill="#100f0d" d="M 39.238281 61.980469 L 41.414062 59.800781 C 41.546875 59.671875 41.683594 59.554688 41.828125 59.445312 C 40.707031 58.851562 39.65625 58.085938 38.714844 57.144531 C 37.773438 56.203125 37.007812 55.152344 36.414062 54.03125 C 36.304688 54.175781 36.1875 54.3125 36.058594 54.445312 L 33.878906 56.621094 C 33.863281 56.640625 33.863281 56.679688 33.878906 56.699219 L 39.160156 61.980469 C 39.179688 61.996094 39.21875 61.996094 39.238281 61.980469 " fill-opacity="1" fill-rule="nonzero"/></svg>