<svg xmlns="http://www.w3.org/2000/svg" xmlns:xlink="http://www.w3.org/1999/xlink" width="128" zoomAndPan="magnify" viewBox="0 0 96 95.999999" height="128" preserveAspectRatio="xMidYMid meet" version="1.0"><defs><clipPath id="id1"><path d="M 14.714844 2.640625 L 81.464844 2.640625 L 81.464844 93.390625 L 14.714844 93.390625 Z M 14.714844 2.640625 " clip-rule="nonzero"/></clipPath></defs><g clip-path="url(#id1)"><path fill="#000000" d="M 22.316406 93.390625 L 73.867188 93.390625 C 74.363281 93.386719 74.855469 93.339844 75.34375 93.242188 C 75.832031 93.144531 76.304688 93 76.765625 92.8125 C 77.226562 92.621094 77.664062 92.386719 78.074219 92.113281 C 78.488281 91.835938 78.871094 91.523438 79.222656 91.171875 C 79.574219 90.820312 79.890625 90.4375 80.167969 90.027344 C 80.445312 89.613281 80.675781 89.179688 80.867188 88.71875 C 81.058594 88.261719 81.203125 87.789062 81.300781 87.300781 C 81.398438 86.816406 81.445312 86.324219 81.449219 85.828125 L 81.449219 27.703125 C 81.449219 26.75 81.273438 25.828125 80.925781 24.9375 C 80.574219 24.050781 80.074219 23.253906 79.421875 22.558594 L 63.132812 5.058594 C 62.414062 4.289062 61.570312 3.691406 60.605469 3.273438 C 59.640625 2.851562 58.628906 2.640625 57.578125 2.640625 L 22.316406 2.640625 C 21.820312 2.640625 21.328125 2.6875 20.839844 2.785156 C 20.351562 2.882812 19.875 3.027344 19.417969 3.21875 C 18.957031 3.40625 18.519531 3.640625 18.105469 3.917969 C 17.695312 4.191406 17.3125 4.507812 16.957031 4.855469 C 16.605469 5.207031 16.292969 5.589844 16.015625 6.003906 C 15.738281 6.414062 15.507812 6.851562 15.316406 7.308594 C 15.125 7.769531 14.980469 8.242188 14.882812 8.726562 C 14.785156 9.214844 14.734375 9.707031 14.734375 10.203125 L 14.734375 85.828125 C 14.734375 86.324219 14.785156 86.816406 14.882812 87.300781 C 14.980469 87.789062 15.125 88.261719 15.316406 88.71875 C 15.507812 89.179688 15.738281 89.613281 16.015625 90.027344 C 16.292969 90.4375 16.605469 90.820312 16.957031 91.171875 C 17.3125 91.523438 17.695312 91.835938 18.105469 92.113281 C 18.519531 92.386719 18.957031 92.621094 19.417969 92.8125 C 19.875 93 20.351562 93.144531 20.839844 93.242188 C 21.328125 93.339844 21.820312 93.386719 22.316406 93.390625 Z M 46.574219 60.113281 C 46.574219 59.914062 46.613281 59.722656 46.691406 59.535156 C 46.769531 59.351562 46.878906 59.1875 47.019531 59.042969 C 47.160156 58.902344 47.324219 58.792969 47.511719 58.71875 C 47.695312 58.640625 47.890625 58.601562 48.089844 58.601562 C 48.292969 58.601562 48.484375 58.640625 48.671875 58.71875 C 48.859375 58.792969 49.019531 58.902344 49.164062 59.042969 C 49.304688 59.1875 49.414062 59.351562 49.492188 59.535156 C 49.570312 59.722656 49.609375 59.914062 49.609375 60.113281 C 49.609375 60.316406 49.570312 60.507812 49.492188 60.691406 C 49.414062 60.878906 49.304688 61.042969 49.164062 61.183594 C 49.019531 61.324219 48.859375 61.433594 48.671875 61.511719 C 48.484375 61.589844 48.292969 61.625 48.089844 61.625 C 47.890625 61.625 47.695312 61.589844 47.511719 61.511719 C 47.324219 61.433594 47.160156 61.324219 47.019531 61.183594 C 46.878906 61.042969 46.769531 60.878906 46.691406 60.691406 C 46.613281 60.507812 46.574219 60.316406 46.574219 60.113281 Z M 76.453125 23.8125 L 65.679688 23.8125 C 65.15625 23.8125 64.652344 23.714844 64.171875 23.515625 C 63.6875 23.3125 63.261719 23.03125 62.894531 22.660156 C 62.523438 22.292969 62.238281 21.867188 62.039062 21.386719 C 61.839844 20.90625 61.738281 20.402344 61.738281 19.882812 L 61.738281 8.003906 Z M 22.316406 5.664062 L 43.542969 5.664062 L 43.542969 18.652344 L 33.363281 28.804688 C 33.039062 28.648438 32.699219 28.535156 32.347656 28.457031 C 31.996094 28.378906 31.640625 28.34375 31.28125 28.351562 C 30.921875 28.359375 30.570312 28.40625 30.222656 28.496094 C 29.871094 28.585938 29.539062 28.714844 29.222656 28.882812 C 28.902344 29.050781 28.609375 29.253906 28.339844 29.488281 C 28.070312 29.726562 27.828125 29.988281 27.621094 30.28125 C 27.414062 30.574219 27.242188 30.886719 27.109375 31.21875 C 26.972656 31.554688 26.878906 31.898438 26.824219 32.25 C 26.773438 32.605469 26.761719 32.960938 26.789062 33.320312 C 26.820312 33.675781 26.890625 34.027344 27.003906 34.367188 C 27.117188 34.707031 27.265625 35.03125 27.457031 35.335938 C 27.644531 35.640625 27.867188 35.921875 28.121094 36.175781 C 28.375 36.429688 28.65625 36.648438 28.960938 36.835938 C 29.265625 37.027344 29.589844 37.175781 29.933594 37.289062 C 30.273438 37.398438 30.625 37.472656 30.980469 37.5 C 31.339844 37.53125 31.699219 37.519531 32.054688 37.464844 C 32.410156 37.414062 32.753906 37.320312 33.085938 37.183594 C 33.421875 37.050781 33.734375 36.878906 34.027344 36.671875 C 34.320312 36.464844 34.585938 36.226562 34.824219 35.957031 C 35.058594 35.6875 35.261719 35.394531 35.429688 35.074219 C 35.597656 34.757812 35.726562 34.425781 35.816406 34.078125 C 35.90625 33.730469 35.953125 33.378906 35.960938 33.019531 C 35.96875 32.660156 35.933594 32.304688 35.855469 31.957031 C 35.78125 31.605469 35.664062 31.269531 35.507812 30.945312 L 46.132812 20.347656 C 46.429688 20.050781 46.574219 19.695312 46.574219 19.277344 L 46.574219 5.664062 L 57.578125 5.664062 C 57.960938 5.667969 58.335938 5.722656 58.703125 5.824219 L 58.703125 19.882812 C 58.707031 20.339844 58.75 20.789062 58.839844 21.238281 C 58.929688 21.6875 59.0625 22.121094 59.238281 22.542969 C 59.414062 22.964844 59.628906 23.367188 59.882812 23.746094 C 60.136719 24.125 60.425781 24.476562 60.75 24.800781 C 61.074219 25.121094 61.425781 25.410156 61.804688 25.664062 C 62.1875 25.917969 62.589844 26.132812 63.011719 26.308594 C 63.433594 26.484375 63.871094 26.613281 64.320312 26.703125 C 64.769531 26.792969 65.222656 26.839844 65.679688 26.839844 L 78.332031 26.839844 C 78.386719 27.125 78.414062 27.414062 78.414062 27.703125 L 78.414062 47.257812 L 74.492188 47.257812 L 67.347656 40.125 C 67.503906 39.804688 67.621094 39.464844 67.695312 39.117188 C 67.773438 38.765625 67.808594 38.410156 67.800781 38.050781 C 67.792969 37.695312 67.746094 37.339844 67.65625 36.992188 C 67.566406 36.644531 67.4375 36.3125 67.269531 35.996094 C 67.101562 35.679688 66.898438 35.386719 66.660156 35.117188 C 66.425781 34.847656 66.160156 34.609375 65.867188 34.398438 C 65.574219 34.191406 65.261719 34.023438 64.925781 33.886719 C 64.59375 33.753906 64.25 33.660156 63.894531 33.605469 C 63.539062 33.550781 63.179688 33.542969 62.820312 33.570312 C 62.464844 33.601562 62.113281 33.671875 61.773438 33.785156 C 61.429688 33.898438 61.105469 34.046875 60.800781 34.234375 C 60.492188 34.421875 60.214844 34.644531 59.960938 34.898438 C 59.707031 35.152344 59.484375 35.429688 59.296875 35.734375 C 59.105469 36.042969 58.957031 36.363281 58.84375 36.707031 C 58.730469 37.046875 58.660156 37.394531 58.628906 37.753906 C 58.601562 38.109375 58.613281 38.464844 58.664062 38.820312 C 58.71875 39.175781 58.8125 39.519531 58.949219 39.851562 C 59.082031 40.183594 59.253906 40.496094 59.460938 40.789062 C 59.667969 41.082031 59.910156 41.347656 60.179688 41.582031 C 60.449219 41.820312 60.742188 42.023438 61.0625 42.191406 C 61.378906 42.355469 61.710938 42.484375 62.0625 42.574219 C 62.410156 42.664062 62.761719 42.714844 63.121094 42.71875 C 63.480469 42.726562 63.835938 42.691406 64.1875 42.613281 C 64.539062 42.539062 64.878906 42.421875 65.203125 42.265625 L 72.792969 49.839844 C 73.089844 50.136719 73.449219 50.285156 73.867188 50.28125 L 78.414062 50.28125 L 78.414062 85.828125 C 78.414062 86.125 78.386719 86.417969 78.328125 86.710938 C 78.269531 87.003906 78.183594 87.289062 78.070312 87.5625 C 77.953125 87.839844 77.8125 88.101562 77.648438 88.347656 C 77.484375 88.59375 77.292969 88.824219 77.082031 89.035156 C 76.871094 89.246094 76.640625 89.433594 76.394531 89.597656 C 76.144531 89.765625 75.882812 89.90625 75.605469 90.019531 C 75.332031 90.132812 75.046875 90.21875 74.753906 90.277344 C 74.460938 90.335938 74.164062 90.363281 73.867188 90.363281 L 60.222656 90.363281 L 60.222656 74.351562 L 65.851562 68.734375 C 66.175781 68.890625 66.515625 69.007812 66.867188 69.082031 C 67.21875 69.160156 67.574219 69.195312 67.933594 69.1875 C 68.292969 69.183594 68.644531 69.132812 68.996094 69.042969 C 69.34375 68.953125 69.675781 68.824219 69.992188 68.660156 C 70.3125 68.492188 70.605469 68.289062 70.875 68.050781 C 71.144531 67.816406 71.386719 67.550781 71.59375 67.257812 C 71.800781 66.964844 71.972656 66.652344 72.109375 66.320312 C 72.242188 65.988281 72.335938 65.644531 72.390625 65.289062 C 72.441406 64.933594 72.453125 64.578125 72.425781 64.222656 C 72.394531 63.863281 72.324219 63.515625 72.210938 63.175781 C 72.097656 62.832031 71.949219 62.511719 71.757812 62.203125 C 71.570312 61.898438 71.351562 61.621094 71.09375 61.367188 C 70.839844 61.113281 70.5625 60.890625 70.253906 60.703125 C 69.949219 60.515625 69.625 60.367188 69.28125 60.253906 C 68.941406 60.140625 68.589844 60.070312 68.234375 60.039062 C 67.875 60.011719 67.519531 60.019531 67.164062 60.074219 C 66.804688 60.128906 66.460938 60.222656 66.128906 60.355469 C 65.796875 60.492188 65.480469 60.660156 65.1875 60.867188 C 64.894531 61.078125 64.628906 61.316406 64.394531 61.585938 C 64.15625 61.855469 63.953125 62.148438 63.785156 62.464844 C 63.617188 62.78125 63.488281 63.113281 63.398438 63.460938 C 63.308594 63.808594 63.261719 64.164062 63.253906 64.519531 C 63.246094 64.878906 63.28125 65.234375 63.359375 65.585938 C 63.4375 65.933594 63.550781 66.273438 63.707031 66.59375 L 57.632812 72.65625 C 57.335938 72.953125 57.1875 73.308594 57.1875 73.726562 L 57.1875 90.363281 L 49.609375 90.363281 L 49.609375 64.375 C 49.941406 64.253906 50.261719 64.101562 50.558594 63.90625 C 50.859375 63.714844 51.128906 63.492188 51.375 63.234375 C 51.621094 62.980469 51.835938 62.699219 52.015625 62.390625 C 52.195312 62.085938 52.335938 61.761719 52.441406 61.425781 C 52.542969 61.085938 52.609375 60.738281 52.628906 60.382812 C 52.652344 60.03125 52.632812 59.679688 52.574219 59.328125 C 52.515625 58.980469 52.414062 58.640625 52.273438 58.316406 C 52.136719 57.988281 51.960938 57.683594 51.75 57.398438 C 51.535156 57.113281 51.296875 56.855469 51.023438 56.625 C 50.75 56.398438 50.457031 56.203125 50.140625 56.042969 C 49.820312 55.882812 49.488281 55.761719 49.144531 55.679688 C 48.796875 55.597656 48.445312 55.558594 48.089844 55.558594 C 47.734375 55.558594 47.386719 55.597656 47.039062 55.679688 C 46.691406 55.761719 46.363281 55.882812 46.042969 56.042969 C 45.726562 56.203125 45.429688 56.398438 45.160156 56.625 C 44.886719 56.855469 44.644531 57.113281 44.433594 57.398438 C 44.222656 57.683594 44.046875 57.988281 43.90625 58.316406 C 43.769531 58.640625 43.667969 58.980469 43.609375 59.328125 C 43.546875 59.679688 43.53125 60.03125 43.550781 60.382812 C 43.574219 60.738281 43.636719 61.085938 43.742188 61.425781 C 43.847656 61.761719 43.988281 62.085938 44.167969 62.390625 C 44.347656 62.699219 44.5625 62.980469 44.808594 63.234375 C 45.054688 63.492188 45.324219 63.714844 45.625 63.90625 C 45.921875 64.101562 46.238281 64.253906 46.574219 64.375 L 46.574219 90.363281 L 38.996094 90.363281 L 38.996094 73.726562 C 38.996094 73.308594 38.847656 72.953125 38.550781 72.65625 L 32.476562 66.59375 C 32.632812 66.273438 32.746094 65.933594 32.824219 65.585938 C 32.902344 65.234375 32.9375 64.878906 32.929688 64.519531 C 32.921875 64.164062 32.875 63.808594 32.785156 63.460938 C 32.695312 63.113281 32.566406 62.78125 32.398438 62.464844 C 32.230469 62.148438 32.027344 61.855469 31.789062 61.585938 C 31.554688 61.316406 31.289062 61.078125 30.996094 60.867188 C 30.703125 60.660156 30.386719 60.492188 30.054688 60.355469 C 29.722656 60.222656 29.375 60.128906 29.019531 60.074219 C 28.664062 60.019531 28.308594 60.011719 27.949219 60.039062 C 27.589844 60.070312 27.242188 60.140625 26.898438 60.253906 C 26.558594 60.367188 26.234375 60.515625 25.929688 60.703125 C 25.621094 60.890625 25.34375 61.113281 25.085938 61.367188 C 24.832031 61.621094 24.613281 61.898438 24.421875 62.203125 C 24.234375 62.511719 24.085938 62.832031 23.972656 63.175781 C 23.859375 63.515625 23.789062 63.863281 23.757812 64.222656 C 23.726562 64.578125 23.738281 64.933594 23.792969 65.289062 C 23.847656 65.644531 23.941406 65.988281 24.074219 66.320312 C 24.210938 66.652344 24.382812 66.964844 24.589844 67.257812 C 24.796875 67.550781 25.035156 67.816406 25.308594 68.050781 C 25.578125 68.289062 25.871094 68.492188 26.191406 68.660156 C 26.507812 68.824219 26.839844 68.953125 27.1875 69.042969 C 27.535156 69.132812 27.890625 69.183594 28.25 69.1875 C 28.609375 69.195312 28.964844 69.160156 29.316406 69.082031 C 29.667969 69.007812 30.003906 68.890625 30.328125 68.734375 L 35.960938 74.351562 L 35.960938 90.363281 L 22.316406 90.363281 C 22.019531 90.363281 21.722656 90.335938 21.429688 90.277344 C 21.136719 90.21875 20.851562 90.132812 20.574219 90.019531 C 20.300781 89.90625 20.039062 89.765625 19.789062 89.597656 C 19.542969 89.433594 19.3125 89.246094 19.101562 89.035156 C 18.890625 88.824219 18.699219 88.59375 18.535156 88.347656 C 18.367188 88.101562 18.230469 87.839844 18.113281 87.5625 C 18 87.289062 17.914062 87.003906 17.855469 86.710938 C 17.796875 86.417969 17.769531 86.125 17.769531 85.828125 L 17.769531 50.28125 L 37.855469 50.28125 C 38.277344 50.285156 38.632812 50.136719 38.929688 49.839844 L 46.523438 42.265625 C 46.847656 42.421875 47.183594 42.539062 47.535156 42.613281 C 47.886719 42.691406 48.242188 42.726562 48.601562 42.71875 C 48.960938 42.714844 49.316406 42.664062 49.664062 42.574219 C 50.011719 42.484375 50.34375 42.355469 50.664062 42.191406 C 50.980469 42.023438 51.273438 41.820312 51.542969 41.582031 C 51.816406 41.347656 52.054688 41.082031 52.261719 40.789062 C 52.46875 40.496094 52.640625 40.183594 52.777344 39.851562 C 52.910156 39.519531 53.003906 39.175781 53.058594 38.820312 C 53.113281 38.464844 53.125 38.109375 53.09375 37.753906 C 53.0625 37.394531 52.992188 37.046875 52.878906 36.707031 C 52.765625 36.363281 52.617188 36.042969 52.429688 35.734375 C 52.238281 35.429688 52.019531 35.152344 51.765625 34.898438 C 51.511719 34.644531 51.230469 34.421875 50.921875 34.234375 C 50.617188 34.046875 50.292969 33.898438 49.953125 33.785156 C 49.609375 33.671875 49.261719 33.601562 48.902344 33.570312 C 48.542969 33.542969 48.1875 33.550781 47.832031 33.605469 C 47.476562 33.660156 47.132812 33.753906 46.796875 33.886719 C 46.464844 34.023438 46.152344 34.191406 45.855469 34.398438 C 45.5625 34.609375 45.296875 34.847656 45.0625 35.117188 C 44.824219 35.386719 44.621094 35.679688 44.453125 35.996094 C 44.285156 36.3125 44.15625 36.644531 44.066406 36.992188 C 43.976562 37.339844 43.929688 37.695312 43.921875 38.050781 C 43.914062 38.410156 43.949219 38.765625 44.027344 39.117188 C 44.105469 39.464844 44.222656 39.804688 44.375 40.125 L 37.230469 47.257812 L 17.769531 47.257812 L 17.769531 10.203125 C 17.769531 9.902344 17.796875 9.609375 17.855469 9.316406 C 17.914062 9.023438 18 8.742188 18.113281 8.464844 C 18.230469 8.191406 18.367188 7.929688 18.535156 7.679688 C 18.699219 7.433594 18.890625 7.203125 19.101562 6.992188 C 19.3125 6.78125 19.542969 6.59375 19.789062 6.429688 C 20.039062 6.261719 20.300781 6.125 20.574219 6.007812 C 20.851562 5.894531 21.136719 5.808594 21.429688 5.75 C 21.722656 5.691406 22.019531 5.664062 22.316406 5.664062 Z M 32.929688 32.890625 C 32.929688 33.089844 32.890625 33.28125 32.8125 33.46875 C 32.738281 33.652344 32.628906 33.816406 32.484375 33.957031 C 32.34375 34.101562 32.179688 34.210938 31.992188 34.285156 C 31.808594 34.363281 31.613281 34.402344 31.414062 34.402344 C 31.210938 34.402344 31.019531 34.363281 30.832031 34.285156 C 30.648438 34.210938 30.484375 34.101562 30.339844 33.957031 C 30.199219 33.816406 30.089844 33.652344 30.011719 33.46875 C 29.9375 33.28125 29.898438 33.089844 29.898438 32.890625 C 29.898438 32.6875 29.9375 32.496094 30.011719 32.308594 C 30.089844 32.125 30.199219 31.960938 30.339844 31.820312 C 30.484375 31.679688 30.648438 31.570312 30.832031 31.492188 C 31.019531 31.414062 31.210938 31.375 31.414062 31.375 C 31.613281 31.375 31.808594 31.414062 31.992188 31.492188 C 32.179688 31.570312 32.34375 31.679688 32.484375 31.820312 C 32.628906 31.960938 32.738281 32.125 32.8125 32.308594 C 32.890625 32.496094 32.929688 32.6875 32.929688 32.890625 Z M 63.253906 39.695312 C 63.050781 39.695312 62.859375 39.65625 62.671875 39.582031 C 62.488281 39.503906 62.324219 39.394531 62.179688 39.253906 C 62.039062 39.109375 61.929688 38.945312 61.851562 38.761719 C 61.777344 38.578125 61.738281 38.382812 61.738281 38.183594 C 61.738281 37.980469 61.777344 37.789062 61.851562 37.605469 C 61.929688 37.417969 62.039062 37.253906 62.179688 37.113281 C 62.324219 36.972656 62.488281 36.863281 62.671875 36.785156 C 62.859375 36.707031 63.050781 36.671875 63.253906 36.671875 C 63.453125 36.671875 63.648438 36.707031 63.832031 36.785156 C 64.019531 36.863281 64.183594 36.972656 64.324219 37.113281 C 64.46875 37.253906 64.578125 37.417969 64.652344 37.605469 C 64.730469 37.789062 64.769531 37.980469 64.769531 38.183594 C 64.769531 38.382812 64.730469 38.578125 64.652344 38.761719 C 64.578125 38.945312 64.46875 39.109375 64.324219 39.253906 C 64.183594 39.394531 64.019531 39.503906 63.832031 39.582031 C 63.648438 39.65625 63.453125 39.695312 63.253906 39.695312 Z M 66.285156 64.652344 C 66.285156 64.449219 66.324219 64.257812 66.402344 64.074219 C 66.476562 63.886719 66.585938 63.722656 66.730469 63.582031 C 66.871094 63.441406 67.035156 63.332031 67.222656 63.253906 C 67.40625 63.175781 67.601562 63.140625 67.800781 63.140625 C 68.003906 63.140625 68.195312 63.175781 68.382812 63.253906 C 68.566406 63.332031 68.730469 63.441406 68.875 63.582031 C 69.015625 63.722656 69.125 63.886719 69.203125 64.074219 C 69.28125 64.257812 69.316406 64.449219 69.316406 64.652344 C 69.316406 64.851562 69.28125 65.046875 69.203125 65.230469 C 69.125 65.414062 69.015625 65.578125 68.875 65.722656 C 68.730469 65.863281 68.566406 65.972656 68.382812 66.050781 C 68.195312 66.125 68.003906 66.164062 67.800781 66.164062 C 67.601562 66.164062 67.40625 66.125 67.222656 66.050781 C 67.035156 65.972656 66.871094 65.863281 66.730469 65.722656 C 66.585938 65.578125 66.476562 65.414062 66.402344 65.230469 C 66.324219 65.046875 66.285156 64.851562 66.285156 64.652344 Z M 28.382812 66.164062 C 28.179688 66.164062 27.988281 66.125 27.800781 66.050781 C 27.617188 65.972656 27.453125 65.863281 27.308594 65.722656 C 27.167969 65.578125 27.058594 65.414062 26.980469 65.230469 C 26.902344 65.046875 26.863281 64.851562 26.863281 64.652344 C 26.863281 64.449219 26.902344 64.257812 26.980469 64.074219 C 27.058594 63.886719 27.167969 63.722656 27.308594 63.582031 C 27.453125 63.441406 27.617188 63.332031 27.800781 63.253906 C 27.988281 63.175781 28.179688 63.140625 28.382812 63.140625 C 28.582031 63.140625 28.777344 63.175781 28.960938 63.253906 C 29.148438 63.332031 29.3125 63.441406 29.453125 63.582031 C 29.59375 63.722656 29.703125 63.886719 29.78125 64.074219 C 29.859375 64.257812 29.898438 64.449219 29.898438 64.652344 C 29.898438 64.851562 29.859375 65.046875 29.78125 65.230469 C 29.703125 65.414062 29.59375 65.578125 29.453125 65.722656 C 29.3125 65.863281 29.148438 65.972656 28.960938 66.050781 C 28.777344 66.125 28.582031 66.164062 28.382812 66.164062 Z M 46.953125 38.183594 C 46.953125 37.980469 46.992188 37.789062 47.070312 37.605469 C 47.148438 37.417969 47.257812 37.253906 47.398438 37.113281 C 47.539062 36.972656 47.703125 36.863281 47.890625 36.785156 C 48.074219 36.707031 48.269531 36.671875 48.46875 36.671875 C 48.671875 36.671875 48.863281 36.707031 49.050781 36.785156 C 49.238281 36.863281 49.402344 36.972656 49.542969 37.113281 C 49.683594 37.253906 49.792969 37.417969 49.871094 37.605469 C 49.949219 37.789062 49.988281 37.980469 49.988281 38.183594 C 49.988281 38.382812 49.949219 38.578125 49.871094 38.761719 C 49.792969 38.945312 49.683594 39.109375 49.542969 39.253906 C 49.402344 39.394531 49.238281 39.503906 49.050781 39.582031 C 48.863281 39.65625 48.671875 39.695312 48.46875 39.695312 C 48.269531 39.695312 48.074219 39.65625 47.890625 39.582031 C 47.703125 39.503906 47.539062 39.394531 47.398438 39.253906 C 47.257812 39.109375 47.148438 38.945312 47.070312 38.761719 C 46.992188 38.578125 46.953125 38.382812 46.953125 38.183594 Z M 46.953125 38.183594 " fill-opacity="1" fill-rule="nonzero"/></g><path fill="#000000" d="M 23.832031 13.226562 L 35.960938 13.226562 C 36.164062 13.226562 36.355469 13.1875 36.542969 13.113281 C 36.726562 13.035156 36.890625 12.925781 37.035156 12.785156 C 37.175781 12.640625 37.285156 12.476562 37.363281 12.292969 C 37.441406 12.109375 37.476562 11.914062 37.476562 11.714844 C 37.476562 11.511719 37.441406 11.320312 37.363281 11.136719 C 37.285156 10.949219 37.175781 10.785156 37.035156 10.644531 C 36.890625 10.503906 36.726562 10.394531 36.542969 10.316406 C 36.355469 10.238281 36.164062 10.203125 35.960938 10.203125 L 23.832031 10.203125 C 23.632812 10.203125 23.4375 10.238281 23.253906 10.316406 C 23.066406 10.394531 22.902344 10.503906 22.761719 10.644531 C 22.617188 10.785156 22.507812 10.949219 22.433594 11.136719 C 22.355469 11.320312 22.316406 11.511719 22.316406 11.714844 C 22.316406 11.914062 22.355469 12.109375 22.433594 12.292969 C 22.507812 12.476562 22.617188 12.640625 22.761719 12.785156 C 22.902344 12.925781 23.066406 13.035156 23.253906 13.113281 C 23.4375 13.1875 23.632812 13.226562 23.832031 13.226562 Z M 23.832031 13.226562 " fill-opacity="1" fill-rule="nonzero"/><path fill="#000000" d="M 23.832031 19.277344 L 29.898438 19.277344 C 30.097656 19.277344 30.292969 19.238281 30.476562 19.160156 C 30.664062 19.085938 30.828125 18.976562 30.96875 18.832031 C 31.113281 18.691406 31.222656 18.527344 31.296875 18.34375 C 31.375 18.15625 31.414062 17.964844 31.414062 17.765625 C 31.414062 17.5625 31.375 17.371094 31.296875 17.183594 C 31.222656 17 31.113281 16.835938 30.96875 16.695312 C 30.828125 16.554688 30.664062 16.445312 30.476562 16.367188 C 30.292969 16.289062 30.097656 16.25 29.898438 16.25 L 23.832031 16.25 C 23.632812 16.25 23.4375 16.289062 23.253906 16.367188 C 23.066406 16.445312 22.902344 16.554688 22.761719 16.695312 C 22.617188 16.835938 22.507812 17 22.433594 17.183594 C 22.355469 17.371094 22.316406 17.5625 22.316406 17.765625 C 22.316406 17.964844 22.355469 18.15625 22.433594 18.34375 C 22.507812 18.527344 22.617188 18.691406 22.761719 18.832031 C 22.902344 18.976562 23.066406 19.085938 23.253906 19.160156 C 23.4375 19.238281 23.632812 19.277344 23.832031 19.277344 Z M 23.832031 19.277344 " fill-opacity="1" fill-rule="nonzero"/></svg>