<svg xmlns="http://www.w3.org/2000/svg" xmlns:xlink="http://www.w3.org/1999/xlink" width="128" zoomAndPan="magnify" viewBox="0 0 96 95.999999" height="128" preserveAspectRatio="xMidYMid meet" version="1.0"><defs><clipPath id="id1"><path d="M 1.546875 13.160156 L 94.546875 13.160156 L 94.546875 82.910156 L 1.546875 82.910156 Z M 1.546875 13.160156 " clip-rule="nonzero"/></clipPath></defs><g clip-path="url(#id1)"><path fill="#040606" d="M 63.15625 49.074219 C 63.15625 60.261719 50.003906 67.714844 48.046875 68.796875 C 46.082031 67.714844 32.9375 60.160156 32.9375 49.074219 L 32.9375 35.929688 C 42.554688 34.757812 46.773438 29.84375 48.046875 27.886719 C 49.316406 29.84375 53.4375 34.847656 63.15625 35.929688 Z M 80.320312 70.367188 C 82.871094 70.367188 84.9375 72.421875 84.9375 74.972656 C 84.9375 77.523438 82.871094 79.589844 80.320312 79.589844 C 77.769531 79.589844 75.714844 77.523438 75.714844 74.972656 C 75.714844 72.421875 77.867188 70.367188 80.320312 70.367188 Z M 15.773438 79.589844 C 13.222656 79.589844 11.164062 77.523438 11.164062 74.972656 C 11.164062 72.421875 13.222656 70.367188 15.773438 70.367188 C 18.324219 70.367188 20.378906 72.421875 20.378906 74.972656 C 20.378906 77.523438 18.222656 79.589844 15.773438 79.589844 Z M 9.496094 52.707031 C 6.9375 52.707031 4.882812 50.640625 4.882812 48.097656 C 4.882812 45.546875 6.945312 43.484375 9.496094 43.484375 C 12.039062 43.484375 14.105469 45.546875 14.105469 48.097656 C 14.105469 50.640625 12.039062 52.707031 9.496094 52.707031 Z M 15.773438 25.824219 C 13.222656 25.824219 11.164062 23.769531 11.164062 21.214844 C 11.164062 18.664062 13.222656 16.609375 15.773438 16.609375 C 18.324219 16.609375 20.378906 18.664062 20.378906 21.214844 C 20.28125 23.769531 18.222656 25.824219 15.773438 25.824219 Z M 80.320312 16.601562 C 82.871094 16.601562 84.9375 18.664062 84.9375 21.214844 C 84.9375 23.769531 82.871094 25.824219 80.320312 25.824219 C 77.769531 25.824219 75.714844 23.769531 75.714844 21.214844 C 75.8125 18.664062 77.867188 16.601562 80.320312 16.601562 Z M 86.59375 43.484375 C 89.15625 43.484375 91.210938 45.546875 91.210938 48.097656 C 91.210938 50.640625 89.15625 52.707031 86.59375 52.707031 C 84.042969 52.707031 81.988281 50.640625 81.988281 48.097656 C 81.988281 45.546875 84.042969 43.484375 86.59375 43.484375 Z M 78.652344 49.859375 C 79.4375 53.492188 82.671875 56.238281 86.503906 56.238281 C 90.914062 56.238281 94.546875 52.605469 94.546875 48.191406 C 94.546875 43.78125 90.914062 40.148438 86.503906 40.148438 C 82.671875 40.148438 79.4375 42.898438 78.652344 46.523438 L 66.6875 46.523438 L 66.6875 34.261719 C 66.6875 33.378906 65.996094 32.59375 65.023438 32.496094 C 62.757812 32.304688 60.902344 32.007812 59.226562 31.511719 L 64.039062 22.984375 L 72.46875 22.984375 C 73.253906 26.609375 76.496094 29.355469 80.320312 29.355469 C 84.738281 29.355469 88.371094 25.722656 88.371094 21.316406 C 88.371094 16.800781 84.738281 13.265625 80.320312 13.265625 C 76.496094 13.265625 73.253906 16.015625 72.46875 19.648438 L 63.054688 19.648438 C 62.46875 19.648438 61.875 19.9375 61.488281 20.53125 L 55.898438 30.339844 C 52.066406 28.375 50.789062 25.824219 50.695312 25.722656 C 50.210938 24.742188 49.128906 24.058594 47.949219 24.058594 C 46.773438 24.058594 45.792969 24.75 45.199219 25.722656 C 45.097656 25.921875 43.828125 28.375 40.003906 30.4375 L 34.40625 20.621094 C 34.117188 20.035156 33.523438 19.746094 32.839844 19.746094 L 23.417969 19.746094 C 22.640625 16.113281 19.398438 13.363281 15.574219 13.363281 C 11.15625 13.363281 7.53125 16.996094 7.53125 21.414062 C 7.53125 25.824219 11.15625 29.457031 15.574219 29.457031 C 19.398438 29.457031 22.640625 26.707031 23.417969 23.082031 L 31.855469 23.082031 L 36.667969 31.609375 C 35 32.105469 33.136719 32.496094 30.882812 32.59375 C 30.1875 32.59375 29.402344 33.378906 29.402344 34.261719 L 29.402344 46.332031 L 17.441406 46.332031 C 16.65625 42.699219 13.417969 39.949219 9.589844 39.949219 C 5.179688 39.949219 1.546875 43.582031 1.546875 48 C 1.546875 52.410156 5.179688 56.042969 9.589844 56.042969 C 13.417969 56.042969 16.65625 53.292969 17.441406 49.667969 L 29.503906 49.667969 C 29.800781 55.746094 33.136719 60.75 36.867188 64.578125 L 32.054688 73.117188 L 23.617188 73.117188 C 22.832031 69.484375 19.59375 66.734375 15.773438 66.734375 C 11.355469 66.734375 7.730469 70.367188 7.730469 74.785156 C 7.730469 79.191406 11.355469 82.824219 15.773438 82.824219 C 19.59375 82.824219 22.832031 80.078125 23.617188 76.453125 L 33.035156 76.453125 C 33.621094 76.453125 34.21875 76.15625 34.605469 75.566406 L 39.507812 66.832031 C 43.140625 69.878906 46.378906 71.546875 46.675781 71.738281 C 47.0625 71.933594 47.558594 72.035156 48.046875 72.035156 C 48.535156 72.035156 49.027344 71.933594 49.425781 71.738281 C 49.714844 71.546875 52.949219 69.878906 56.574219 66.832031 L 61.488281 75.566406 C 61.777344 76.15625 62.371094 76.453125 63.054688 76.453125 L 72.46875 76.453125 C 73.253906 80.078125 76.496094 82.824219 80.320312 82.824219 C 84.738281 82.824219 88.371094 79.191406 88.371094 74.785156 C 88.371094 70.367188 84.738281 66.734375 80.320312 66.734375 C 76.496094 66.734375 73.253906 69.484375 72.46875 73.117188 L 64.039062 73.117188 L 59.226562 64.578125 C 62.957031 60.847656 66.292969 55.84375 66.589844 49.667969 L 78.652344 49.667969 L 78.652344 49.859375 " fill-opacity="1" fill-rule="nonzero"/></g><path fill="#040606" d="M 51.382812 41.230469 L 51.382812 43.878906 C 49.21875 43.484375 46.964844 43.484375 44.710938 43.878906 L 44.710938 41.230469 C 44.710938 39.363281 46.179688 37.894531 48.046875 37.894531 C 49.914062 37.894531 51.382812 39.464844 51.382812 41.230469 Z M 49.714844 53.492188 C 49.714844 53.589844 49.714844 53.789062 49.613281 53.878906 C 49.515625 53.976562 49.417969 54.078125 49.21875 54.078125 L 46.867188 54.078125 C 46.773438 54.078125 46.578125 53.976562 46.476562 53.878906 C 46.378906 53.789062 46.378906 53.589844 46.378906 53.492188 L 47.164062 50.640625 C 46.578125 50.351562 46.089844 49.667969 46.089844 48.972656 C 46.089844 47.902344 46.964844 47.019531 48.046875 47.019531 C 49.128906 47.019531 50.003906 47.902344 50.003906 48.972656 C 50.003906 49.765625 49.613281 50.351562 48.929688 50.640625 Z M 41.960938 41.230469 L 41.960938 44.566406 C 41.277344 44.765625 40.492188 45.050781 39.804688 45.351562 C 39.410156 45.546875 39.121094 45.9375 39.121094 46.332031 L 39.121094 56.527344 C 39.121094 57.125 39.609375 57.609375 40.195312 57.609375 L 55.601562 57.609375 C 56.1875 57.609375 56.683594 57.125 56.683594 56.527344 L 56.683594 46.421875 C 56.683594 46.035156 56.386719 45.640625 55.996094 45.449219 C 55.304688 45.152344 54.617188 44.855469 53.835938 44.664062 L 53.835938 41.230469 C 53.835938 37.894531 51.085938 35.144531 47.75 35.144531 C 44.414062 35.144531 41.960938 37.894531 41.960938 41.230469 " fill-opacity="1" fill-rule="nonzero"/></svg>