<svg xmlns="http://www.w3.org/2000/svg" xmlns:xlink="http://www.w3.org/1999/xlink" width="128" zoomAndPan="magnify" viewBox="0 0 96 95.999999" height="128" preserveAspectRatio="xMidYMid meet" version="1.0"><defs><clipPath id="id1"><path d="M 31 3.171875 L 65 3.171875 L 65 27 L 31 27 Z M 31 3.171875 " clip-rule="nonzero"/></clipPath><clipPath id="id2"><path d="M 39.269531 69.0625 L 57 69.0625 L 57 93.152344 L 39.269531 93.152344 Z M 39.269531 69.0625 " clip-rule="nonzero"/></clipPath><clipPath id="id3"><path d="M 2.578125 29 L 93.753906 29 L 93.753906 66.816406 L 2.578125 66.816406 Z M 2.578125 29 " clip-rule="nonzero"/></clipPath></defs><g clip-path="url(#id1)"><path fill="#000000" d="M 39.328125 19.582031 C 39.328125 14.710938 43.296875 10.746094 48.167969 10.746094 C 53.039062 10.746094 57.003906 14.710938 57.003906 19.582031 L 57.003906 26.316406 L 64.578125 26.316406 L 64.578125 19.582031 C 64.578125 10.535156 57.21875 3.171875 48.167969 3.171875 C 39.117188 3.171875 31.757812 10.535156 31.757812 19.582031 L 31.757812 26.316406 L 39.328125 26.316406 L 39.328125 19.582031 " fill-opacity="1" fill-rule="nonzero"/></g><g clip-path="url(#id2)"><path fill="#000000" d="M 48.167969 88.136719 C 46.152344 88.136719 44.519531 86.503906 44.519531 84.492188 C 44.519531 82.476562 46.152344 80.847656 48.167969 80.847656 C 50.179688 80.847656 51.8125 82.476562 51.8125 84.492188 C 51.8125 86.503906 50.179688 88.136719 48.167969 88.136719 Z M 51.546875 76.441406 L 51.546875 69.234375 L 44.789062 69.234375 L 44.789062 76.441406 C 42.039062 76.441406 39.816406 78.671875 39.816406 81.417969 L 39.816406 88.175781 C 39.816406 90.921875 42.039062 93.152344 44.789062 93.152344 L 51.546875 93.152344 C 54.292969 93.152344 56.523438 90.921875 56.523438 88.175781 L 56.523438 81.417969 C 56.523438 78.671875 54.292969 76.441406 51.546875 76.441406 " fill-opacity="1" fill-rule="nonzero"/></g><g clip-path="url(#id3)"><path fill="#000000" d="M 76.152344 40.128906 C 76.710938 40.128906 77.246094 39.90625 77.636719 39.511719 L 82.074219 35.082031 L 86.976562 35.082031 C 87.648438 36.054688 88.769531 36.691406 90.039062 36.691406 C 92.089844 36.691406 93.753906 35.027344 93.753906 32.976562 C 93.753906 30.925781 92.089844 29.261719 90.039062 29.261719 C 88.769531 29.261719 87.648438 29.898438 86.976562 30.871094 L 81.199219 30.871094 C 80.644531 30.871094 80.109375 31.09375 79.714844 31.488281 L 75.28125 35.921875 L 70.894531 35.921875 L 70.894531 32.207031 L 25.445312 32.207031 L 25.445312 35.921875 L 21.054688 35.921875 L 16.621094 31.488281 C 16.226562 31.09375 15.691406 30.871094 15.132812 30.871094 L 9.355469 30.871094 C 8.6875 29.898438 7.566406 29.261719 6.296875 29.261719 C 4.242188 29.261719 2.578125 30.925781 2.578125 32.976562 C 2.578125 35.027344 4.242188 36.691406 6.296875 36.691406 C 7.566406 36.691406 8.6875 36.054688 9.355469 35.082031 L 14.261719 35.082031 L 18.695312 39.511719 C 19.089844 39.90625 19.625 40.128906 20.183594 40.128906 L 25.445312 40.128906 L 25.445312 45.878906 L 17.5625 45.878906 C 16.894531 44.910156 15.773438 44.269531 14.5 44.269531 C 12.449219 44.269531 10.785156 45.933594 10.785156 47.984375 C 10.785156 50.039062 12.449219 51.703125 14.5 51.703125 C 15.773438 51.703125 16.894531 51.0625 17.5625 50.089844 L 25.445312 50.089844 L 25.445312 55.839844 L 20.183594 55.839844 C 19.480469 55.839844 18.820312 56.191406 18.433594 56.777344 L 15.691406 60.890625 L 12.722656 60.890625 C 12.054688 59.917969 10.933594 59.277344 9.664062 59.277344 C 7.609375 59.277344 5.945312 60.941406 5.945312 62.992188 C 5.945312 65.046875 7.609375 66.710938 9.664062 66.710938 C 10.933594 66.710938 12.054688 66.070312 12.722656 65.097656 L 16.816406 65.097656 C 17.519531 65.097656 18.179688 64.746094 18.566406 64.160156 L 21.308594 60.046875 L 25.445312 60.046875 L 25.445312 63.765625 L 37.789062 63.765625 L 37.789062 57.484375 L 33.351562 53.046875 C 32.957031 52.652344 32.738281 52.117188 32.738281 51.5625 L 32.738281 45.785156 C 31.765625 45.117188 31.125 43.996094 31.125 42.722656 C 31.125 40.675781 32.789062 39.007812 34.84375 39.007812 C 36.894531 39.007812 38.558594 40.675781 38.558594 42.722656 C 38.558594 43.996094 37.917969 45.117188 36.945312 45.785156 L 36.945312 50.691406 L 41.378906 55.121094 C 41.773438 55.515625 41.996094 56.050781 41.996094 56.609375 L 41.996094 63.765625 L 46.0625 63.765625 L 46.0625 53.992188 C 45.089844 53.320312 44.449219 52.199219 44.449219 50.929688 C 44.449219 48.878906 46.117188 47.214844 48.167969 47.214844 C 50.21875 47.214844 51.882812 48.878906 51.882812 50.929688 C 51.882812 52.199219 51.246094 53.320312 50.273438 53.992188 L 50.273438 63.765625 L 54.339844 63.765625 L 54.339844 56.609375 C 54.339844 56.050781 54.558594 55.515625 54.953125 55.121094 L 59.390625 50.691406 L 59.390625 45.785156 C 58.414062 45.117188 57.777344 43.996094 57.777344 42.722656 C 57.777344 40.675781 59.441406 39.007812 61.492188 39.007812 C 63.546875 39.007812 65.210938 40.675781 65.210938 42.722656 C 65.210938 43.996094 64.570312 45.117188 63.597656 45.785156 L 63.597656 51.5625 C 63.597656 52.117188 63.375 52.652344 62.980469 53.046875 L 58.546875 57.484375 L 58.546875 63.765625 L 70.894531 63.765625 L 70.894531 60.046875 L 75.027344 60.046875 L 77.765625 64.160156 C 78.160156 64.746094 78.8125 65.097656 79.519531 65.097656 L 83.609375 65.097656 C 84.28125 66.070312 85.402344 66.710938 86.671875 66.710938 C 88.726562 66.710938 90.386719 65.046875 90.386719 62.992188 C 90.386719 60.941406 88.726562 59.277344 86.671875 59.277344 C 85.402344 59.277344 84.28125 59.917969 83.609375 60.890625 L 80.644531 60.890625 L 77.902344 56.777344 C 77.511719 56.191406 76.855469 55.839844 76.152344 55.839844 L 70.894531 55.839844 L 70.894531 50.089844 L 78.773438 50.089844 C 79.441406 51.0625 80.558594 51.703125 81.832031 51.703125 C 83.886719 51.703125 85.550781 50.039062 85.550781 47.984375 C 85.550781 45.933594 83.886719 44.269531 81.832031 44.269531 C 80.558594 44.269531 79.441406 44.910156 78.773438 45.878906 L 70.894531 45.878906 L 70.894531 40.128906 L 76.152344 40.128906 " fill-opacity="1" fill-rule="nonzero"/></g></svg>