<svg xmlns="http://www.w3.org/2000/svg" xmlns:xlink="http://www.w3.org/1999/xlink" width="128" zoomAndPan="magnify" viewBox="0 0 96 95.999999" height="128" preserveAspectRatio="xMidYMid meet" version="1.0"><defs><clipPath id="id1"><path d="M 1 2.160156 L 95 2.160156 L 95 93 L 1 93 Z M 1 2.160156 " clip-rule="nonzero"/></clipPath><clipPath id="id2"><path d="M 0 2.160156 L 96 2.160156 L 96 93.660156 L 0 93.660156 Z M 0 2.160156 " clip-rule="nonzero"/></clipPath></defs><g clip-path="url(#id1)"><path fill="#ffffff" d="M 94.574219 2.46875 L 86.863281 11.046875 L 86.863281 73.792969 C 86.863281 92.535156 55.964844 78.90625 47.066406 92.535156 C 38.164062 78.90625 7.265625 92.535156 7.265625 73.792969 L 7.265625 11.046875 L 1.148438 2.46875 L 94.574219 2.46875 " fill-opacity="1" fill-rule="nonzero"/></g><g clip-path="url(#id2)"><path stroke-linecap="butt" transform="matrix(0.0301508, 0, 0, -0.0300929, -10.82412, 111.105171)" fill="none" stroke-linejoin="miter" d="M 1922.626995 788.173268 C 1529.291048 1124.760703 705.047537 805.697103 705.047537 1239.898788 L 705.047537 3361.970283 L 620.317066 3485.026546 L 3254.735103 3485.026546 L 3114.942781 3365.734663 L 3114.942781 1239.898788 C 3114.942781 806.086522 2314.537813 1123.462641 1922.626995 788.173268 Z M 1922.626995 788.173268 " stroke="#171717" stroke-width="30" stroke-opacity="1" stroke-miterlimit="10"/><path stroke-linecap="butt" transform="matrix(0.0301508, 0, 0, -0.0300929, -10.82412, 111.105171)" fill="none" stroke-linejoin="miter" d="M 3495.711671 3600.034825 L 3229.989659 3324.975521 L 3229.989659 1239.898788 C 3229.989659 617.088718 2205.191456 1069.982494 1910.059938 617.088718 C 1614.798862 1069.982494 590.000659 617.088718 590.000659 1239.898788 L 590.000659 3324.975521 L 397.089846 3600.034825 Z M 3495.711671 3600.034825 " stroke="#171717" stroke-width="40" stroke-opacity="1" stroke-miterlimit="10"/></g></svg>