<svg xmlns="http://www.w3.org/2000/svg" xmlns:xlink="http://www.w3.org/1999/xlink" width="128" zoomAndPan="magnify" viewBox="0 0 96 95.999999" height="128" preserveAspectRatio="xMidYMid meet" version="1.0"><defs><clipPath id="id1"><path d="M 2 11 L 94.234375 11 L 94.234375 85.148438 L 2 85.148438 Z M 2 11 " clip-rule="nonzero"/></clipPath></defs><g clip-path="url(#id1)"><path fill="#000000" d="M 75 13.113281 C 72.738281 10.898438 69.085938 10.929688 66.863281 13.1875 L 58.925781 21.261719 C 58.480469 21.714844 58.488281 22.441406 58.941406 22.886719 L 59.410156 23.34375 C 53.773438 24.917969 48.25 26.964844 42.960938 29.46875 C 41.144531 28.855469 39.222656 28.539062 37.269531 28.574219 L 32.035156 28.683594 C 31.972656 28.449219 31.855469 28.230469 31.664062 28.074219 L 22.871094 20.945312 C 21.675781 19.976562 20.175781 19.535156 18.652344 19.691406 C 17.121094 19.847656 15.746094 20.589844 14.777344 21.78125 L 2.292969 37.128906 C 2.101562 37.367188 2.011719 37.667969 2.042969 37.972656 C 2.074219 38.273438 2.226562 38.554688 2.460938 38.746094 L 11.257812 45.875 C 12.292969 46.714844 13.558594 47.160156 14.875 47.160156 C 14.972656 47.160156 15.070312 47.152344 15.167969 47.144531 C 15.203125 52.6875 17.121094 57.976562 20.667969 62.257812 C 19.84375 64.238281 20.238281 66.601562 21.859375 68.195312 C 22.878906 69.195312 24.226562 69.746094 25.652344 69.746094 C 25.667969 69.746094 25.683594 69.746094 25.699219 69.746094 C 26.257812 69.742188 26.792969 69.628906 27.308594 69.464844 C 27.347656 70.867188 27.910156 72.183594 28.917969 73.167969 C 29.933594 74.171875 31.28125 74.722656 32.710938 74.722656 C 32.726562 74.722656 32.742188 74.722656 32.757812 74.722656 C 33.402344 74.714844 34.023438 74.582031 34.613281 74.363281 C 34.683594 75.660156 35.199219 76.933594 36.199219 77.914062 C 37.234375 78.933594 38.597656 79.46875 39.988281 79.46875 C 40.359375 79.46875 40.730469 79.429688 41.097656 79.351562 C 41.25 79.585938 41.417969 79.808594 41.613281 80.015625 L 45.039062 83.660156 C 45.957031 84.632812 47.199219 85.125 48.441406 85.125 C 49.589844 85.125 50.738281 84.707031 51.636719 83.867188 C 52.371094 83.175781 52.851562 82.292969 53.03125 81.324219 C 54.6875 82.03125 56.675781 81.742188 58.066406 80.4375 C 58.78125 79.769531 59.230469 78.925781 59.425781 78.039062 C 60.113281 78.40625 60.863281 78.609375 61.621094 78.609375 C 62.765625 78.609375 63.917969 78.191406 64.816406 77.351562 C 65.726562 76.496094 66.246094 75.34375 66.289062 74.097656 C 66.289062 73.992188 66.289062 73.882812 66.289062 73.777344 C 67.574219 73.910156 68.925781 73.496094 69.945312 72.539062 C 70.855469 71.6875 71.378906 70.53125 71.417969 69.289062 C 71.457031 68.042969 71.007812 66.859375 70.152344 65.949219 L 68.132812 63.800781 C 76.144531 59.910156 81.1875 51.734375 81.046875 42.820312 C 81.261719 42.84375 81.476562 42.878906 81.691406 42.878906 C 83.183594 42.878906 84.671875 42.308594 85.796875 41.164062 L 93.734375 33.089844 C 94.179688 32.640625 94.175781 31.914062 93.71875 31.46875 Z M 12.707031 44.09375 L 4.804688 37.6875 L 16.5625 23.230469 C 17.144531 22.515625 17.96875 22.070312 18.886719 21.972656 C 19.800781 21.875 20.703125 22.144531 21.417969 22.726562 L 29.324219 29.132812 L 17.5625 43.589844 C 17.140625 44.109375 16.589844 44.480469 15.96875 44.683594 C 15.941406 44.695312 15.917969 44.703125 15.894531 44.714844 C 15.683594 44.777344 15.464844 44.824219 15.238281 44.84375 C 14.316406 44.933594 13.421875 44.671875 12.707031 44.09375 Z M 17.46875 46.535156 C 18.183594 46.175781 18.828125 45.679688 19.347656 45.039062 L 30.761719 31.007812 L 37.316406 30.871094 C 40.925781 30.796875 44.507812 32.109375 47.230469 34.570312 L 60.316406 46.410156 C 60.917969 46.957031 61.273438 47.707031 61.3125 48.519531 C 61.355469 49.332031 61.074219 50.109375 60.527344 50.714844 C 59.980469 51.316406 59.230469 51.671875 58.414062 51.710938 C 57.601562 51.753906 56.820312 51.46875 56.21875 50.925781 L 48.777344 44.191406 C 48.464844 43.914062 48.027344 43.820312 47.632812 43.957031 C 42.410156 45.730469 36.851562 45.859375 31.554688 44.320312 C 30.941406 44.136719 30.304688 44.492188 30.128906 45.101562 C 29.953125 45.710938 30.300781 46.347656 30.914062 46.523438 C 32.226562 46.90625 33.558594 47.1875 34.894531 47.378906 C 34.757812 47.4375 34.632812 47.519531 34.523438 47.632812 L 22.042969 60.300781 C 18.96875 56.363281 17.363281 51.550781 17.46875 46.535156 Z M 50.0625 82.191406 C 49.113281 83.085938 47.609375 83.039062 46.714844 82.085938 L 43.292969 78.445312 C 42.859375 77.984375 42.628906 77.382812 42.648438 76.753906 C 42.667969 76.121094 42.933594 75.535156 43.394531 75.101562 C 43.851562 74.675781 44.433594 74.460938 45.015625 74.460938 C 45.648438 74.460938 46.277344 74.714844 46.742188 75.207031 L 50.203125 78.882812 C 51.0625 79.835938 51.003906 81.308594 50.0625 82.191406 Z M 56.492188 78.761719 C 55.542969 79.65625 54.039062 79.609375 53.144531 78.65625 L 51.890625 77.328125 C 51.875 77.308594 51.863281 77.292969 51.847656 77.277344 C 51.839844 77.269531 51.832031 77.261719 51.820312 77.25 L 48.421875 73.636719 C 47.988281 73.175781 47.761719 72.574219 47.78125 71.941406 C 47.800781 71.3125 48.066406 70.726562 48.527344 70.292969 C 48.988281 69.863281 49.601562 69.625 50.222656 69.652344 C 50.855469 69.671875 51.441406 69.9375 51.871094 70.398438 C 51.875 70.398438 51.875 70.398438 51.875 70.402344 L 56.597656 75.421875 C 57.492188 76.371094 57.445312 77.871094 56.492188 78.761719 Z M 63.242188 75.675781 C 62.78125 76.105469 62.1875 76.335938 61.546875 76.316406 C 60.914062 76.292969 60.328125 76.03125 59.894531 75.570312 L 58.28125 73.855469 C 58.277344 73.851562 58.277344 73.851562 58.273438 73.847656 C 58.273438 73.847656 58.273438 73.84375 58.269531 73.84375 L 53.550781 68.824219 C 53.117188 68.367188 52.890625 67.765625 52.910156 67.132812 C 52.929688 66.503906 53.195312 65.917969 53.65625 65.484375 C 54.097656 65.070312 54.671875 64.84375 55.277344 64.84375 C 55.300781 64.84375 55.324219 64.84375 55.351562 64.84375 C 55.984375 64.863281 56.570312 65.128906 57.003906 65.589844 L 63.347656 72.332031 C 63.78125 72.792969 64.007812 73.394531 63.988281 74.027344 C 63.96875 74.65625 63.703125 75.242188 63.242188 75.675781 Z M 68.371094 70.863281 C 67.421875 71.757812 65.921875 71.714844 65.023438 70.761719 L 58.683594 64.019531 C 58.683594 64.019531 58.683594 64.019531 58.683594 64.015625 C 57.789062 63.066406 57.832031 61.566406 58.785156 60.675781 C 59.738281 59.78125 61.242188 59.828125 62.132812 60.777344 L 68.476562 67.523438 C 69.371094 68.472656 69.324219 69.972656 68.371094 70.863281 Z M 66.472656 62.035156 L 63.8125 59.207031 C 62.050781 57.335938 59.089844 57.238281 57.210938 59 C 56.191406 59.957031 55.695312 61.269531 55.742188 62.570312 C 55.636719 62.558594 55.53125 62.550781 55.425781 62.546875 C 54.183594 62.496094 52.992188 62.957031 52.082031 63.808594 C 51.054688 64.773438 50.578125 66.097656 50.636719 67.40625 C 49.332031 67.269531 47.980469 67.65625 46.949219 68.617188 C 45.921875 69.582031 45.449219 70.902344 45.503906 72.210938 C 45.390625 72.199219 45.28125 72.171875 45.164062 72.167969 C 43.921875 72.132812 42.730469 72.574219 41.820312 73.425781 C 40.910156 74.28125 40.390625 75.433594 40.351562 76.679688 C 40.34375 76.835938 40.371094 76.988281 40.378906 77.140625 C 39.453125 77.257812 38.507812 76.957031 37.8125 76.277344 C 36.589844 75.078125 36.570312 73.105469 37.773438 71.882812 L 49.980469 59.492188 C 50.425781 59.042969 50.417969 58.3125 49.964844 57.871094 C 49.511719 57.425781 48.78125 57.429688 48.339844 57.882812 L 34.929688 71.496094 C 34.347656 72.085938 33.570312 72.417969 32.738281 72.425781 C 32.730469 72.425781 32.71875 72.425781 32.710938 72.425781 C 31.886719 72.425781 31.117188 72.109375 30.527344 71.53125 C 29.9375 70.949219 29.605469 70.171875 29.597656 69.34375 C 29.59375 68.511719 29.910156 67.730469 30.492188 67.136719 L 43.902344 53.523438 C 44.347656 53.074219 44.339844 52.34375 43.886719 51.902344 C 43.433594 51.457031 42.703125 51.460938 42.261719 51.914062 L 27.875 66.519531 C 27.289062 67.113281 26.511719 67.441406 25.679688 67.449219 C 24.890625 67.539062 24.066406 67.140625 23.472656 66.558594 C 22.25 65.355469 22.234375 63.386719 23.433594 62.164062 L 36.160156 49.242188 C 36.609375 48.792969 36.601562 48.0625 36.148438 47.621094 C 36.09375 47.566406 36.03125 47.542969 35.96875 47.503906 C 39.910156 47.921875 43.894531 47.546875 47.726562 46.34375 L 54.671875 52.628906 C 55.664062 53.523438 56.929688 54.011719 58.257812 54.011719 C 58.347656 54.011719 58.4375 54.007812 58.527344 54.003906 C 59.957031 53.933594 61.269531 53.3125 62.230469 52.257812 C 63.191406 51.199219 63.683594 49.832031 63.613281 48.40625 C 63.542969 46.980469 62.917969 45.667969 61.859375 44.707031 L 48.777344 32.867188 C 47.851562 32.03125 46.835938 31.324219 45.769531 30.722656 C 50.785156 28.46875 55.988281 26.605469 61.296875 25.195312 L 77.664062 41.238281 C 77.992188 41.558594 78.351562 41.816406 78.730469 42.046875 C 79.199219 50.617188 74.308594 58.558594 66.472656 62.035156 Z M 84.15625 39.554688 C 82.824219 40.910156 80.632812 40.929688 79.273438 39.597656 L 61.375 22.050781 L 68.507812 14.796875 C 69.839844 13.445312 72.03125 13.421875 73.386719 14.753906 L 91.289062 32.300781 Z M 84.15625 39.554688 " fill-opacity="1" fill-rule="nonzero"/></g></svg>