<svg xmlns="http://www.w3.org/2000/svg" xmlns:xlink="http://www.w3.org/1999/xlink" width="128" zoomAndPan="magnify" viewBox="0 0 96 95.999999" height="128" preserveAspectRatio="xMidYMid meet" version="1.0"><defs><clipPath id="id1"><path d="M 6.476562 26.152344 L 43.976562 26.152344 L 43.976562 69.652344 L 6.476562 69.652344 Z M 6.476562 26.152344 " clip-rule="nonzero"/></clipPath><clipPath id="id2"><path d="M 6.480469 29.277344 L 89.730469 29.277344 L 89.730469 66.777344 L 6.480469 66.777344 Z M 6.480469 29.277344 " clip-rule="nonzero"/></clipPath><clipPath id="id3"><path d="M 14 38 L 32 38 L 32 47 L 14 47 Z M 14 38 " clip-rule="nonzero"/></clipPath><clipPath id="id4"><path d="M 11.980469 42.363281 L 29.617188 34.042969 L 38.898438 53.714844 L 21.261719 62.035156 Z M 11.980469 42.363281 " clip-rule="nonzero"/></clipPath><clipPath id="id5"><path d="M 11.980469 42.363281 L 29.617188 34.042969 L 38.898438 53.714844 L 21.261719 62.035156 Z M 11.980469 42.363281 " clip-rule="nonzero"/></clipPath><clipPath id="id6"><path d="M 11.980469 42.363281 L 29.617188 34.042969 L 38.898438 53.714844 L 21.261719 62.035156 Z M 11.980469 42.363281 " clip-rule="nonzero"/></clipPath><clipPath id="id7"><path d="M 24 38 L 37 38 L 37 58 L 24 58 Z M 24 38 " clip-rule="nonzero"/></clipPath><clipPath id="id8"><path d="M 11.980469 42.363281 L 29.617188 34.042969 L 38.898438 53.714844 L 21.261719 62.035156 Z M 11.980469 42.363281 " clip-rule="nonzero"/></clipPath><clipPath id="id9"><path d="M 11.980469 42.363281 L 29.617188 34.042969 L 38.898438 53.714844 L 21.261719 62.035156 Z M 11.980469 42.363281 " clip-rule="nonzero"/></clipPath><clipPath id="id10"><path d="M 11.980469 42.363281 L 29.617188 34.042969 L 38.898438 53.714844 L 21.261719 62.035156 Z M 11.980469 42.363281 " clip-rule="nonzero"/></clipPath><clipPath id="id11"><path d="M 14 46 L 30 46 L 30 58 L 14 58 Z M 14 46 " clip-rule="nonzero"/></clipPath><clipPath id="id12"><path d="M 11.980469 42.363281 L 29.617188 34.042969 L 38.898438 53.714844 L 21.261719 62.035156 Z M 11.980469 42.363281 " clip-rule="nonzero"/></clipPath><clipPath id="id13"><path d="M 11.980469 42.363281 L 29.617188 34.042969 L 38.898438 53.714844 L 21.261719 62.035156 Z M 11.980469 42.363281 " clip-rule="nonzero"/></clipPath><clipPath id="id14"><path d="M 11.980469 42.363281 L 29.617188 34.042969 L 38.898438 53.714844 L 21.261719 62.035156 Z M 11.980469 42.363281 " clip-rule="nonzero"/></clipPath><clipPath id="id15"><path d="M 11 35 L 39 35 L 39 61 L 11 61 Z M 11 35 " clip-rule="nonzero"/></clipPath><clipPath id="id16"><path d="M 11.980469 42.363281 L 29.617188 34.042969 L 38.898438 53.714844 L 21.261719 62.035156 Z M 11.980469 42.363281 " clip-rule="nonzero"/></clipPath><clipPath id="id17"><path d="M 11.980469 42.363281 L 29.617188 34.042969 L 38.898438 53.714844 L 21.261719 62.035156 Z M 11.980469 42.363281 " clip-rule="nonzero"/></clipPath><clipPath id="id18"><path d="M 11.980469 42.363281 L 29.617188 34.042969 L 38.898438 53.714844 L 21.261719 62.035156 Z M 11.980469 42.363281 " clip-rule="nonzero"/></clipPath></defs><g clip-path="url(#id1)"><path fill="#000000" d="M 43.976562 58.773438 L 25.226562 69.640625 L 6.476562 58.773438 L 6.476562 37.035156 L 25.226562 26.164062 L 43.976562 37.035156 Z M 43.976562 58.773438 " fill-opacity="1" fill-rule="nonzero"/></g><g clip-path="url(#id2)"><path fill="#000000" d="M 85.703125 43.871094 L 43.242188 43.871094 C 41.394531 35.550781 33.960938 29.308594 25.085938 29.308594 C 14.828125 29.308594 6.480469 37.648438 6.480469 47.894531 C 6.480469 58.140625 14.828125 66.480469 25.085938 66.480469 C 33.960938 66.480469 41.394531 60.238281 43.242188 51.917969 L 65.882812 51.917969 L 65.882812 61.308594 C 65.882812 63.53125 67.6875 65.332031 69.914062 65.332031 C 72.136719 65.332031 73.941406 63.53125 73.941406 61.308594 L 73.941406 51.917969 L 81.675781 51.917969 L 81.675781 61.308594 C 81.675781 63.53125 83.480469 65.332031 85.703125 65.332031 C 87.925781 65.332031 89.730469 63.53125 89.730469 61.308594 L 89.730469 47.894531 C 89.730469 45.671875 87.925781 43.871094 85.703125 43.871094 Z M 25.085938 58.433594 C 19.269531 58.433594 14.539062 53.707031 14.539062 47.894531 C 14.539062 42.082031 19.269531 37.355469 25.085938 37.355469 C 30.90625 37.355469 35.636719 42.082031 35.636719 47.894531 C 35.636719 53.707031 30.90625 58.433594 25.085938 58.433594 Z M 25.085938 58.433594 " fill-opacity="1" fill-rule="nonzero"/></g><g clip-path="url(#id3)"><g clip-path="url(#id4)"><g clip-path="url(#id5)"><g clip-path="url(#id6)"><path fill="#f9f9f9" d="M 20.898438 38.417969 L 14.324219 46.734375 L 24.925781 46.949219 L 31.5 38.632812 Z M 20.898438 38.417969 " fill-opacity="1" fill-rule="nonzero"/></g></g></g></g><g clip-path="url(#id7)"><g clip-path="url(#id8)"><g clip-path="url(#id9)"><g clip-path="url(#id10)"><path fill="#ececec" d="M 24.925781 46.949219 L 29.957031 57.617188 L 36.53125 49.300781 L 31.5 38.632812 Z M 24.925781 46.949219 " fill-opacity="1" fill-rule="nonzero"/></g></g></g></g><g clip-path="url(#id11)"><g clip-path="url(#id12)"><g clip-path="url(#id13)"><g clip-path="url(#id14)"><path fill="#cccccc" d="M 24.925781 46.949219 L 29.957031 57.617188 L 19.355469 57.402344 L 14.324219 46.734375 Z M 24.925781 46.949219 " fill-opacity="1" fill-rule="nonzero"/></g></g></g></g><g clip-path="url(#id15)"><g clip-path="url(#id16)"><g clip-path="url(#id17)"><g clip-path="url(#id18)"><path stroke-linecap="butt" transform="matrix(0.429388, -0.202559, 0.201293, 0.426705, 7.542714, 43.48482)" fill="none" stroke-linejoin="miter" d="M 29.999488 2.375678 L 10.002289 12.372757 L 9.999932 37.372466 L 29.999008 47.378772 L 49.999717 37.374206 L 50.002074 12.374497 Z M 29.999488 2.375678 " stroke="#4d4d4d" stroke-width="1" stroke-opacity="1" stroke-miterlimit="4"/></g></g></g></g></svg>