<svg xmlns="http://www.w3.org/2000/svg" xmlns:xlink="http://www.w3.org/1999/xlink" width="128" zoomAndPan="magnify" viewBox="0 0 96 95.999999" height="128" preserveAspectRatio="xMidYMid meet" version="1.0"><defs><clipPath id="id1"><path d="M 17.621094 1.621094 L 78.371094 1.621094 L 78.371094 61 L 17.621094 61 Z M 17.621094 1.621094 " clip-rule="nonzero"/></clipPath><clipPath id="id2"><path d="M 59 1.621094 L 78.371094 1.621094 L 78.371094 21 L 59 21 Z M 59 1.621094 " clip-rule="nonzero"/></clipPath><clipPath id="id3"><path d="M 32 66 L 52 66 L 52 94.621094 L 32 94.621094 Z M 32 66 " clip-rule="nonzero"/></clipPath><clipPath id="id4"><path d="M 48 83 L 57 83 L 57 94.621094 L 48 94.621094 Z M 48 83 " clip-rule="nonzero"/></clipPath></defs><g clip-path="url(#id1)"><path fill="#000000" d="M 19.003906 60.402344 C 18.230469 60.402344 17.605469 59.773438 17.605469 58.996094 L 17.605469 3.195312 C 17.605469 2.421875 18.230469 1.789062 19.003906 1.789062 L 60.589844 1.789062 C 60.964844 1.789062 61.320312 1.9375 61.582031 2.203125 L 77.855469 18.535156 C 78.117188 18.796875 78.261719 19.15625 78.261719 19.527344 L 78.261719 58.0625 C 78.261719 58.835938 77.636719 59.464844 76.863281 59.464844 C 76.085938 59.464844 75.460938 58.835938 75.460938 58.0625 L 75.460938 20.109375 L 60.007812 4.601562 L 20.40625 4.601562 L 20.40625 58.992188 C 20.40625 59.769531 19.78125 60.398438 19.003906 60.398438 " fill-opacity="1" fill-rule="nonzero"/></g><g clip-path="url(#id2)"><path fill="#000000" d="M 61.992188 18.121094 L 73.480469 18.121094 L 61.992188 6.589844 Z M 76.863281 20.933594 L 60.589844 20.933594 C 59.816406 20.933594 59.191406 20.304688 59.191406 19.527344 L 59.191406 3.195312 C 59.191406 2.625 59.53125 2.113281 60.054688 1.894531 C 60.578125 1.679688 61.179688 1.800781 61.582031 2.203125 L 77.855469 18.535156 C 78.253906 18.933594 78.375 19.542969 78.160156 20.066406 C 77.9375 20.589844 77.429688 20.933594 76.863281 20.933594 " fill-opacity="1" fill-rule="nonzero"/></g><path fill="#000000" d="M 67.042969 48.578125 L 28.824219 48.578125 C 28.046875 48.578125 27.421875 47.949219 27.421875 47.175781 C 27.421875 46.398438 28.046875 45.765625 28.824219 45.765625 L 67.042969 45.765625 C 67.820312 45.765625 68.445312 46.398438 68.445312 47.175781 C 68.445312 47.949219 67.820312 48.578125 67.042969 48.578125 " fill-opacity="1" fill-rule="nonzero"/><path fill="#000000" d="M 67.042969 39.734375 L 28.824219 39.734375 C 28.046875 39.734375 27.421875 39.105469 27.421875 38.332031 C 27.421875 37.550781 28.046875 36.925781 28.824219 36.925781 L 67.042969 36.925781 C 67.820312 36.925781 68.445312 37.550781 68.445312 38.332031 C 68.445312 39.105469 67.820312 39.734375 67.042969 39.734375 " fill-opacity="1" fill-rule="nonzero"/><path fill="#000000" d="M 67.042969 30.890625 L 28.824219 30.890625 C 28.046875 30.890625 27.421875 30.261719 27.421875 29.484375 C 27.421875 28.710938 28.046875 28.082031 28.824219 28.082031 L 67.042969 28.082031 C 67.820312 28.082031 68.445312 28.710938 68.445312 29.484375 C 68.445312 30.261719 67.820312 30.890625 67.042969 30.890625 " fill-opacity="1" fill-rule="nonzero"/><path fill="#000000" d="M 71.890625 86.339844 L 67.804688 86.339844 C 67.308594 86.339844 66.855469 86.078125 66.601562 85.65625 L 57.6875 70.761719 C 57.300781 70.109375 57.492188 69.269531 58.128906 68.859375 L 64.445312 64.761719 C 64.667969 64.613281 64.933594 64.535156 65.203125 64.535156 L 71.890625 64.535156 C 72.660156 64.535156 73.292969 65.164062 73.292969 65.941406 C 73.292969 66.71875 72.660156 67.347656 71.890625 67.347656 L 65.617188 67.347656 L 60.789062 70.480469 L 68.597656 83.53125 L 71.890625 83.53125 C 72.660156 83.53125 73.292969 84.15625 73.292969 84.933594 C 73.292969 85.707031 72.660156 86.339844 71.890625 86.339844 " fill-opacity="1" fill-rule="nonzero"/><path fill="#000000" d="M 68.054688 86.339844 L 60.746094 86.339844 C 60.347656 86.339844 59.976562 86.167969 59.710938 85.878906 L 50.859375 76.089844 C 50.308594 75.476562 49.359375 75.425781 48.742188 75.964844 L 48.355469 76.304688 C 45.867188 78.492188 42.210938 78.539062 39.664062 76.410156 C 38.53125 75.460938 38.375 73.757812 39.3125 72.617188 L 43.957031 66.984375 C 45.875 64.660156 49.3125 63.886719 52.039062 65.195312 L 59.492188 68.769531 C 60.191406 69.101562 60.484375 69.945312 60.152344 70.644531 C 59.820312 71.34375 58.984375 71.640625 58.285156 71.304688 L 50.832031 67.730469 C 49.242188 66.972656 47.234375 67.417969 46.113281 68.773438 L 41.476562 74.40625 C 42.9375 75.484375 45.058594 75.460938 46.507812 74.191406 L 46.894531 73.847656 C 48.660156 72.304688 51.371094 72.46875 52.9375 74.203125 L 61.371094 83.53125 L 68.054688 83.53125 C 68.828125 83.53125 69.457031 84.15625 69.457031 84.933594 C 69.457031 85.707031 68.828125 86.339844 68.054688 86.339844 " fill-opacity="1" fill-rule="nonzero"/><g clip-path="url(#id3)"><path fill="#000000" d="M 49.1875 93.503906 L 49.191406 93.507812 Z M 49.992188 94.535156 L 47.539062 94.535156 C 46.398438 94.535156 45.28125 94.132812 44.386719 93.414062 L 33.515625 84.925781 C 33.15625 84.644531 32.957031 84.207031 32.976562 83.75 L 33.71875 67.738281 C 33.757812 66.988281 34.371094 66.398438 35.117188 66.398438 L 45.148438 66.398438 C 45.921875 66.398438 46.550781 67.03125 46.550781 67.804688 C 46.550781 68.578125 45.921875 69.207031 45.148438 69.207031 L 36.457031 69.207031 L 35.808594 83.15625 L 46.132812 91.210938 C 46.542969 91.542969 47.035156 91.71875 47.539062 91.71875 L 47.628906 91.71875 L 44.460938 88.09375 C 43.957031 87.503906 44.011719 86.617188 44.59375 86.109375 C 45.175781 85.601562 46.066406 85.65625 46.574219 86.238281 L 51.296875 91.65625 C 51.742188 92.164062 51.847656 92.894531 51.570312 93.511719 C 51.292969 94.128906 50.675781 94.535156 49.992188 94.535156 " fill-opacity="1" fill-rule="nonzero"/></g><g clip-path="url(#id4)"><path fill="#000000" d="M 50.347656 94.160156 C 49.730469 94.160156 49.171875 93.75 48.996094 93.125 C 48.789062 92.382812 49.226562 91.605469 49.972656 91.398438 L 52.820312 90.605469 L 48.894531 85.824219 C 48.402344 85.226562 48.488281 84.339844 49.082031 83.847656 C 49.679688 83.355469 50.566406 83.4375 51.054688 84.042969 L 55.53125 89.488281 C 55.980469 90.035156 56.152344 90.773438 55.976562 91.464844 C 55.804688 92.152344 55.3125 92.726562 54.660156 93 L 50.71875 94.109375 C 50.59375 94.140625 50.46875 94.160156 50.347656 94.160156 " fill-opacity="1" fill-rule="nonzero"/></g><path fill="#000000" d="M 54.804688 92.296875 C 54.238281 92.296875 53.707031 91.953125 53.492188 91.386719 C 53.21875 90.660156 53.585938 89.847656 54.3125 89.578125 L 56.730469 88.664062 L 52.925781 83.152344 C 52.472656 82.519531 52.613281 81.640625 53.238281 81.183594 C 53.867188 80.730469 54.742188 80.875 55.195312 81.5 L 59.054688 86.859375 C 59.53125 87.523438 59.714844 88.363281 59.546875 89.164062 C 59.382812 89.964844 58.886719 90.667969 58.1875 91.089844 C 58.113281 91.132812 58.039062 91.167969 57.960938 91.203125 L 55.300781 92.207031 C 55.132812 92.269531 54.96875 92.296875 54.804688 92.296875 " fill-opacity="1" fill-rule="nonzero"/><path fill="#000000" d="M 58.144531 90.4375 C 57.515625 90.4375 56.949219 90.007812 56.785156 89.371094 C 56.597656 88.617188 57.054688 87.855469 57.808594 87.667969 L 60.199219 87.070312 C 60.964844 86.777344 61.574219 85.90625 61.574219 84.941406 C 61.574219 84.167969 62.199219 83.535156 62.972656 83.535156 C 63.75 83.535156 64.378906 84.15625 64.378906 84.933594 C 64.378906 87.082031 63.027344 89.015625 61.019531 89.75 L 58.484375 90.390625 C 58.371094 90.421875 58.257812 90.4375 58.144531 90.4375 " fill-opacity="1" fill-rule="nonzero"/><path fill="#000000" d="M 34.375 85.222656 L 23.976562 85.222656 C 23.207031 85.222656 22.574219 84.589844 22.574219 83.816406 C 22.574219 83.042969 23.207031 82.414062 23.976562 82.414062 L 33.039062 82.414062 L 33.703125 68.042969 L 33.429688 67.347656 L 23.976562 67.347656 C 23.207031 67.347656 22.574219 66.71875 22.574219 65.941406 C 22.574219 65.164062 23.207031 64.535156 23.976562 64.535156 L 34.375 64.535156 C 34.949219 64.535156 35.464844 64.886719 35.675781 65.417969 L 36.417969 67.285156 C 36.492188 67.472656 36.53125 67.671875 36.519531 67.871094 L 35.773438 83.882812 C 35.742188 84.632812 35.128906 85.222656 34.375 85.222656 " fill-opacity="1" fill-rule="nonzero"/></svg>