<svg xmlns="http://www.w3.org/2000/svg" xmlns:xlink="http://www.w3.org/1999/xlink" width="500" zoomAndPan="magnify" viewBox="0 0 375 374.999991" height="500" preserveAspectRatio="xMidYMid meet" version="1.0"><defs><clipPath id="id1"><path d="M 4.5625 0 L 370.5625 0 L 370.5625 375 L 4.5625 375 Z M 4.5625 0 " clip-rule="nonzero"/></clipPath></defs><path fill="#000000" d="M 242.566406 214.273438 C 242.597656 214.246094 242.632812 214.238281 242.664062 214.210938 C 242.691406 214.183594 242.699219 214.144531 242.726562 214.117188 C 249.449219 207.347656 253.621094 198.027344 253.621094 187.753906 C 253.621094 177.476562 249.453125 168.160156 242.726562 161.390625 C 242.699219 161.359375 242.6875 161.324219 242.664062 161.292969 C 242.636719 161.265625 242.597656 161.257812 242.566406 161.230469 C 235.800781 154.503906 226.484375 150.332031 216.210938 150.332031 C 205.933594 150.332031 196.621094 154.5 189.851562 161.230469 C 189.824219 161.257812 189.789062 161.269531 189.757812 161.292969 C 189.726562 161.320312 189.722656 161.359375 189.695312 161.390625 C 182.96875 168.160156 178.800781 177.476562 178.800781 187.753906 C 178.800781 198.027344 182.964844 207.347656 189.695312 214.117188 C 189.722656 214.144531 189.730469 214.183594 189.757812 214.210938 C 189.785156 214.242188 189.824219 214.246094 189.851562 214.273438 C 196.621094 221.003906 205.933594 225.171875 216.207031 225.171875 C 226.480469 225.171875 235.800781 221.003906 242.566406 214.273438 Z M 219.191406 219.0625 L 219.191406 198.871094 C 220.171875 198.605469 221.097656 198.214844 221.960938 197.714844 L 236.238281 211.992188 C 231.511719 215.902344 225.628906 218.453125 219.191406 219.0625 Z M 240.445312 207.78125 L 226.171875 193.5 C 226.671875 192.636719 227.0625 191.714844 227.328125 190.730469 L 247.515625 190.730469 C 246.90625 197.171875 244.355469 203.058594 240.445312 207.78125 Z M 247.511719 184.773438 L 227.324219 184.773438 C 227.058594 183.789062 226.671875 182.863281 226.171875 182 L 240.445312 167.722656 C 244.355469 172.445312 246.90625 178.332031 247.511719 184.773438 Z M 219.191406 156.441406 C 225.632812 157.046875 231.515625 159.597656 236.238281 163.507812 L 221.960938 177.785156 C 221.097656 177.285156 220.175781 176.894531 219.191406 176.632812 Z M 221.808594 187.75 C 221.808594 190.835938 219.296875 193.347656 216.214844 193.347656 C 213.128906 193.347656 210.617188 190.835938 210.617188 187.75 C 210.617188 184.664062 213.128906 182.152344 216.214844 182.152344 C 219.296875 182.152344 221.808594 184.664062 221.808594 187.75 Z M 213.234375 156.441406 L 213.234375 176.632812 C 212.25 176.898438 211.328125 177.289062 210.464844 177.789062 L 196.191406 163.511719 C 200.910156 159.601562 206.796875 157.050781 213.234375 156.441406 Z M 191.980469 167.722656 L 206.253906 182 C 205.753906 182.863281 205.363281 183.789062 205.101562 184.773438 L 184.914062 184.773438 C 185.519531 178.332031 188.070312 172.445312 191.980469 167.722656 Z M 184.910156 190.730469 L 205.097656 190.730469 C 205.363281 191.710938 205.753906 192.636719 206.253906 193.5 L 191.980469 207.78125 C 188.070312 203.058594 185.519531 197.171875 184.910156 190.730469 Z M 213.234375 219.0625 C 206.796875 218.457031 200.914062 215.90625 196.191406 211.996094 L 210.464844 197.714844 C 211.328125 198.21875 212.25 198.605469 213.234375 198.871094 Z M 213.234375 219.0625 " fill-opacity="1" fill-rule="nonzero"/><path fill="#000000" d="M 216.214844 307.46875 C 210.269531 307.46875 205.433594 312.308594 205.433594 318.25 C 205.433594 324.191406 210.269531 329.027344 216.214844 329.027344 C 222.15625 329.027344 226.988281 324.191406 226.988281 318.25 C 226.988281 312.308594 222.152344 307.46875 216.214844 307.46875 Z M 216.214844 323.070312 C 213.554688 323.070312 211.390625 320.90625 211.390625 318.25 C 211.390625 315.59375 213.554688 313.425781 216.214844 313.425781 C 218.871094 313.425781 221.035156 315.59375 221.035156 318.25 C 221.035156 320.90625 218.871094 323.070312 216.214844 323.070312 Z M 216.214844 323.070312 " fill-opacity="1" fill-rule="nonzero"/><path fill="#000000" d="M 308.457031 269.253906 C 305.695312 269.253906 302.9375 270.304688 300.835938 272.40625 C 296.636719 276.609375 296.636719 283.449219 300.835938 287.652344 C 304.90625 291.726562 312.003906 291.726562 316.074219 287.652344 C 320.277344 283.449219 320.277344 276.609375 316.074219 272.40625 C 313.972656 270.304688 311.214844 269.253906 308.457031 269.253906 Z M 311.867188 283.4375 C 310.925781 284.378906 309.691406 284.851562 308.457031 284.851562 C 307.222656 284.851562 305.988281 284.378906 305.046875 283.4375 C 303.167969 281.558594 303.167969 278.496094 305.046875 276.617188 C 306.929688 274.734375 309.984375 274.734375 311.867188 276.617188 C 313.746094 278.496094 313.746094 281.558594 311.867188 283.4375 Z M 311.867188 283.4375 " fill-opacity="1" fill-rule="nonzero"/><path fill="#000000" d="M 346.664062 198.53125 C 352.605469 198.53125 357.4375 193.695312 357.4375 187.75 C 357.4375 181.804688 352.605469 176.972656 346.664062 176.972656 C 340.71875 176.972656 335.886719 181.808594 335.886719 187.75 C 335.886719 193.695312 340.71875 198.53125 346.664062 198.53125 Z M 346.664062 182.929688 C 349.324219 182.929688 351.484375 185.09375 351.484375 187.75 C 351.484375 190.410156 349.320312 192.574219 346.664062 192.574219 C 344.003906 192.574219 341.839844 190.410156 341.839844 187.75 C 341.84375 185.09375 344.003906 182.929688 346.664062 182.929688 Z M 346.664062 182.929688 " fill-opacity="1" fill-rule="nonzero"/><path fill="#000000" d="M 316.074219 103.101562 C 320.277344 98.898438 320.277344 92.054688 316.074219 87.851562 C 313.972656 85.75 311.214844 84.699219 308.457031 84.699219 C 305.695312 84.699219 302.9375 85.75 300.835938 87.851562 C 296.636719 92.054688 296.636719 98.898438 300.835938 103.101562 C 304.90625 107.171875 312.003906 107.171875 316.074219 103.101562 Z M 305.046875 92.0625 C 306.929688 90.183594 309.984375 90.183594 311.867188 92.0625 C 313.746094 93.945312 313.746094 97.003906 311.867188 98.886719 C 310.925781 99.828125 309.691406 100.300781 308.457031 100.300781 C 307.222656 100.300781 305.988281 99.828125 305.046875 98.886719 C 303.164062 97.003906 303.164062 93.945312 305.046875 92.0625 Z M 305.046875 92.0625 " fill-opacity="1" fill-rule="nonzero"/><path fill="#000000" d="M 216.214844 68.03125 C 222.15625 68.03125 226.988281 63.195312 226.988281 57.253906 C 226.988281 51.308594 222.152344 46.472656 216.214844 46.472656 C 210.269531 46.472656 205.433594 51.308594 205.433594 57.253906 C 205.433594 63.199219 210.269531 68.03125 216.214844 68.03125 Z M 216.214844 52.429688 C 218.871094 52.429688 221.035156 54.597656 221.035156 57.257812 C 221.035156 59.917969 218.871094 62.078125 216.214844 62.078125 C 213.554688 62.078125 211.390625 59.914062 211.390625 57.257812 C 211.390625 54.59375 213.554688 52.429688 216.214844 52.429688 Z M 216.214844 52.429688 " fill-opacity="1" fill-rule="nonzero"/><path fill="#000000" d="M 85.761719 176.972656 C 79.816406 176.972656 74.984375 181.808594 74.984375 187.75 C 74.984375 193.695312 79.820312 198.53125 85.761719 198.53125 C 91.703125 198.53125 96.539062 193.695312 96.539062 187.75 C 96.539062 181.808594 91.703125 176.972656 85.761719 176.972656 Z M 85.761719 192.574219 C 83.101562 192.574219 80.9375 190.410156 80.9375 187.75 C 80.9375 185.089844 83.105469 182.929688 85.761719 182.929688 C 88.417969 182.929688 90.582031 185.09375 90.582031 187.75 C 90.582031 190.410156 88.417969 192.574219 85.761719 192.574219 Z M 85.761719 192.574219 " fill-opacity="1" fill-rule="nonzero"/><path fill="#000000" d="M 18.53125 34.070312 C 18.53125 33.636719 18.613281 33.21875 18.78125 32.816406 C 18.945312 32.417969 19.183594 32.0625 19.488281 31.753906 C 19.796875 31.449219 20.152344 31.210938 20.550781 31.042969 C 20.953125 30.878906 21.371094 30.796875 21.804688 30.796875 C 22.242188 30.796875 22.65625 30.878906 23.058594 31.042969 C 23.460938 31.210938 23.816406 31.449219 24.121094 31.753906 C 24.429688 32.0625 24.664062 32.417969 24.832031 32.816406 C 25 33.21875 25.082031 33.636719 25.082031 34.070312 C 25.082031 34.507812 25 34.925781 24.832031 35.324219 C 24.664062 35.726562 24.429688 36.082031 24.121094 36.386719 C 23.816406 36.695312 23.460938 36.933594 23.058594 37.097656 C 22.65625 37.265625 22.242188 37.347656 21.804688 37.347656 C 21.371094 37.347656 20.953125 37.265625 20.550781 37.097656 C 20.152344 36.933594 19.796875 36.695312 19.488281 36.386719 C 19.183594 36.082031 18.945312 35.726562 18.78125 35.324219 C 18.613281 34.925781 18.53125 34.507812 18.53125 34.070312 Z M 18.53125 34.070312 " fill-opacity="1" fill-rule="nonzero"/><path fill="#000000" d="M 18.53125 18.96875 C 18.53125 18.53125 18.613281 18.113281 18.78125 17.714844 C 18.945312 17.3125 19.183594 16.957031 19.488281 16.652344 C 19.796875 16.34375 20.152344 16.105469 20.550781 15.941406 C 20.953125 15.773438 21.371094 15.691406 21.804688 15.691406 C 22.242188 15.691406 22.65625 15.773438 23.058594 15.941406 C 23.460938 16.105469 23.816406 16.34375 24.121094 16.652344 C 24.429688 16.957031 24.664062 17.3125 24.832031 17.714844 C 25 18.113281 25.082031 18.53125 25.082031 18.96875 C 25.082031 19.402344 25 19.820312 24.832031 20.222656 C 24.664062 20.621094 24.429688 20.976562 24.121094 21.285156 C 23.816406 21.589844 23.460938 21.828125 23.058594 21.996094 C 22.65625 22.160156 22.242188 22.242188 21.804688 22.242188 C 21.371094 22.242188 20.953125 22.160156 20.550781 21.996094 C 20.152344 21.828125 19.796875 21.589844 19.488281 21.285156 C 19.183594 20.976562 18.945312 20.621094 18.78125 20.222656 C 18.613281 19.820312 18.53125 19.402344 18.53125 18.96875 Z M 18.53125 18.96875 " fill-opacity="1" fill-rule="nonzero"/><g clip-path="url(#id1)"><path fill="#000000" d="M 7.804688 322.609375 C 6.164062 322.609375 4.828125 323.945312 4.828125 325.589844 L 4.828125 372.019531 C 4.828125 373.664062 6.164062 375 7.804688 375 L 69.617188 375 C 71.257812 375 72.59375 373.664062 72.59375 372.019531 L 72.59375 325.589844 C 72.59375 323.945312 71.257812 322.609375 69.617188 322.609375 L 54.199219 322.609375 L 54.199219 295.304688 L 105.757812 295.304688 C 135.027344 325.394531 174.191406 341.972656 216.214844 341.972656 C 301.222656 341.972656 370.378906 272.789062 370.378906 187.75 C 370.378906 102.710938 301.222656 33.53125 216.214844 33.53125 C 174.4375 33.53125 135.4375 49.945312 106.210938 79.738281 L 54.199219 79.738281 L 54.199219 52.429688 L 69.617188 52.429688 C 71.257812 52.429688 72.59375 51.097656 72.59375 49.453125 L 72.59375 3.019531 C 72.59375 1.375 71.257812 0.0429688 69.617188 0.0429688 L 7.804688 0.0429688 C 6.164062 0.0429688 4.828125 1.375 4.828125 3.019531 L 4.828125 49.453125 C 4.828125 51.097656 6.164062 52.429688 7.804688 52.429688 L 30.152344 52.429688 L 30.152344 322.609375 Z M 46 289.34375 L 46 267.714844 L 100.738281 267.714844 C 106.03125 267.714844 110.332031 263.410156 110.332031 258.117188 L 110.332031 246.023438 C 110.332031 242.097656 113.523438 238.902344 117.449219 238.902344 L 164.613281 238.902344 L 164.613281 256.863281 L 138.9375 256.863281 C 133.582031 256.863281 129.222656 261.222656 129.222656 266.582031 L 129.222656 282.222656 C 129.222656 286.148438 126.03125 289.34375 122.105469 289.34375 Z M 36.105469 322.609375 L 36.105469 52.429688 L 48.242188 52.429688 L 48.242188 79.738281 L 43.019531 79.738281 C 41.378906 79.738281 40.042969 81.074219 40.042969 82.71875 L 40.042969 110.304688 C 40.042969 111.949219 41.378906 113.285156 43.019531 113.285156 L 48.242188 113.285156 L 48.242188 261.757812 L 43.019531 261.757812 C 41.378906 261.757812 40.042969 263.09375 40.042969 264.738281 L 40.042969 292.324219 C 40.042969 293.96875 41.378906 295.304688 43.019531 295.304688 L 48.242188 295.304688 L 48.242188 322.609375 Z M 45.480469 328.566406 L 45.480469 352.59375 L 38.871094 352.59375 L 38.871094 328.566406 Z M 38.871094 46.472656 L 38.871094 22.449219 L 45.480469 22.449219 L 45.480469 46.472656 Z M 114.320312 141.667969 C 107.746094 156.164062 104.378906 171.632812 104.378906 187.75 C 104.378906 203.710938 107.6875 219.042969 114.136719 233.425781 C 108.539062 234.902344 104.378906 239.964844 104.378906 246.027344 L 104.378906 258.121094 C 104.378906 260.128906 102.746094 261.761719 100.738281 261.761719 L 87.808594 261.761719 C 74.871094 239.339844 68 213.804688 68 187.753906 C 68 161.519531 74.9375 135.8125 88.042969 113.285156 L 100.738281 113.285156 C 102.742188 113.285156 104.375 114.914062 104.375 116.921875 L 104.375 129.019531 C 104.378906 135.140625 108.628906 140.257812 114.320312 141.667969 Z M 185.257812 262.820312 C 186.902344 262.820312 188.238281 261.484375 188.238281 259.839844 L 188.238281 235.925781 C 188.238281 234.28125 186.902344 232.945312 185.257812 232.945312 L 174.925781 232.945312 L 183.757812 224.367188 C 191.710938 231.425781 201.953125 235.921875 213.234375 236.609375 L 213.234375 263.734375 C 213.234375 265.378906 214.566406 266.714844 216.210938 266.714844 C 217.855469 266.714844 219.1875 265.378906 219.1875 263.734375 L 219.1875 236.609375 C 230.453125 235.925781 240.683594 231.441406 248.632812 224.390625 L 267.816406 243.582031 C 268.980469 244.746094 270.863281 244.746094 272.027344 243.582031 C 273.191406 242.417969 273.191406 240.535156 272.027344 239.371094 L 252.84375 220.179688 C 259.886719 212.226562 264.371094 201.992188 265.054688 190.726562 L 292.171875 190.726562 C 293.816406 190.726562 295.148438 189.390625 295.148438 187.746094 C 295.148438 186.101562 293.816406 184.769531 292.171875 184.769531 L 265.054688 184.769531 C 264.371094 173.5 259.886719 163.265625 252.84375 155.3125 L 272.027344 136.121094 C 273.191406 134.957031 273.191406 133.074219 272.027344 131.910156 C 271.445312 131.332031 270.683594 131.039062 269.921875 131.039062 C 269.160156 131.039062 268.398438 131.332031 267.816406 131.910156 L 248.632812 151.101562 C 240.683594 144.054688 230.453125 139.570312 219.1875 138.886719 L 219.1875 111.761719 C 219.1875 110.117188 217.855469 108.78125 216.210938 108.78125 C 214.566406 108.78125 213.234375 110.117188 213.234375 111.761719 L 213.234375 138.886719 C 201.96875 139.570312 191.738281 144.054688 183.789062 151.101562 L 174.773438 142.085938 L 185.257812 142.085938 C 186.898438 142.085938 188.234375 140.75 188.234375 139.109375 L 188.234375 115.191406 C 188.234375 113.546875 186.898438 112.214844 185.257812 112.214844 L 167.742188 112.214844 C 182.171875 102.894531 198.742188 97.960938 216.210938 97.960938 C 265.699219 97.960938 305.964844 138.238281 305.964844 187.746094 C 305.964844 237.25 265.703125 277.53125 216.210938 277.53125 C 198.71875 277.53125 181.589844 272.328125 167.058594 262.816406 L 185.257812 262.816406 Z M 170.566406 256.863281 L 170.566406 238.902344 L 182.285156 238.902344 L 182.285156 256.863281 Z M 173.175781 187.75 C 173.175781 164.011719 192.484375 144.699219 216.214844 144.699219 C 239.945312 144.699219 259.25 164.011719 259.25 187.75 C 259.25 211.488281 239.945312 230.800781 216.214844 230.800781 C 192.484375 230.800781 173.175781 211.488281 173.175781 187.75 Z M 170.566406 136.136719 L 170.566406 118.175781 L 182.285156 118.175781 L 182.285156 136.136719 Z M 216.214844 283.492188 C 268.988281 283.492188 311.921875 240.546875 311.921875 187.75 C 311.921875 134.957031 268.988281 92.011719 216.214844 92.011719 C 194.664062 92.011719 174.386719 99.015625 157.457031 112.21875 L 142 112.21875 C 161.726562 92.84375 188.453125 81.835938 216.214844 81.835938 C 274.59375 81.835938 322.09375 129.351562 322.09375 187.753906 C 322.09375 246.15625 274.597656 293.671875 216.214844 293.671875 C 188.222656 293.671875 161.300781 282.484375 141.53125 262.820312 L 156.832031 262.820312 C 173.65625 276.148438 194.695312 283.492188 216.214844 283.492188 Z M 179.582031 155.320312 C 172.535156 163.273438 168.050781 173.507812 167.371094 184.773438 L 140.25 184.773438 C 138.609375 184.773438 137.273438 186.109375 137.273438 187.753906 C 137.273438 189.398438 138.609375 190.730469 140.25 190.730469 L 167.371094 190.730469 C 168.050781 201.984375 172.523438 212.207031 179.550781 220.152344 L 166.378906 232.949219 L 138.6875 232.949219 C 130.707031 219.273438 126.457031 203.695312 126.457031 187.753906 C 126.457031 171.625 130.800781 155.886719 138.960938 142.09375 L 166.355469 142.09375 Z M 120.503906 187.75 C 120.503906 203.59375 124.4375 219.097656 131.863281 232.945312 L 120.46875 232.945312 C 113.765625 218.773438 110.332031 203.585938 110.332031 187.75 C 110.332031 171.734375 113.839844 156.390625 120.6875 142.089844 L 132.113281 142.089844 C 124.527344 156.058594 120.503906 171.726562 120.503906 187.75 Z M 62.042969 187.75 C 62.042969 213.691406 68.558594 239.164062 80.921875 261.757812 L 54.195312 261.757812 L 54.195312 113.28125 L 81.175781 113.28125 C 68.644531 135.988281 62.042969 161.625 62.042969 187.75 Z M 216.214844 39.488281 C 297.9375 39.488281 364.425781 105.996094 364.425781 187.75 C 364.425781 269.503906 297.9375 336.015625 216.214844 336.015625 C 177.785156 336.015625 141.839844 321.601562 114.199219 295.300781 L 122.105469 295.300781 C 129.316406 295.300781 135.175781 289.433594 135.175781 282.222656 L 135.175781 266.582031 C 135.175781 266.054688 135.289062 265.5625 135.480469 265.109375 C 156.519531 287.0625 185.757812 299.625 216.214844 299.625 C 277.878906 299.625 328.050781 249.4375 328.050781 187.75 C 328.050781 126.0625 277.882812 75.875 216.214844 75.875 C 185.855469 75.875 156.6875 88.367188 135.664062 110.199219 C 135.382812 109.671875 135.179688 109.09375 135.179688 108.457031 L 135.179688 92.8125 C 135.179688 85.601562 129.316406 79.734375 122.109375 79.734375 L 114.691406 79.734375 C 142.265625 53.730469 178.039062 39.488281 216.214844 39.488281 Z M 107.246094 85.695312 C 107.371094 85.703125 107.488281 85.703125 107.613281 85.695312 L 122.101562 85.695312 C 126.027344 85.695312 129.21875 88.890625 129.21875 92.816406 L 129.21875 108.457031 C 129.21875 113.816406 133.578125 118.175781 138.933594 118.175781 L 164.609375 118.175781 L 164.609375 136.136719 L 137.25 136.136719 C 137.246094 136.136719 137.242188 136.136719 137.238281 136.136719 C 137.234375 136.136719 137.230469 136.136719 137.226562 136.136719 L 118.804688 136.136719 C 118.800781 136.136719 118.796875 136.136719 118.792969 136.136719 C 118.789062 136.136719 118.785156 136.136719 118.78125 136.136719 L 117.445312 136.136719 C 113.519531 136.136719 110.328125 132.941406 110.328125 129.015625 L 110.328125 116.921875 C 110.328125 111.628906 106.023438 107.324219 100.734375 107.324219 L 45.996094 107.324219 L 45.996094 85.691406 L 107.246094 85.691406 Z M 10.785156 46.472656 L 10.785156 6 L 66.636719 6 L 66.636719 46.472656 L 51.433594 46.472656 L 51.433594 19.472656 C 51.433594 17.828125 50.101562 16.492188 48.457031 16.492188 L 35.890625 16.492188 C 34.25 16.492188 32.914062 17.828125 32.914062 19.472656 L 32.914062 46.472656 Z M 32.914062 328.566406 L 32.914062 355.570312 C 32.914062 357.214844 34.25 358.550781 35.890625 358.550781 L 48.457031 358.550781 C 50.101562 358.550781 51.433594 357.214844 51.433594 355.570312 L 51.433594 328.566406 L 66.636719 328.566406 L 66.636719 369.042969 L 10.785156 369.042969 L 10.785156 328.566406 Z M 32.914062 328.566406 " fill-opacity="1" fill-rule="nonzero"/></g><path fill="#000000" d="M 18.53125 340.96875 C 18.53125 340.535156 18.613281 340.117188 18.78125 339.714844 C 18.945312 339.316406 19.183594 338.960938 19.488281 338.652344 C 19.796875 338.347656 20.152344 338.109375 20.550781 337.941406 C 20.953125 337.777344 21.371094 337.695312 21.804688 337.695312 C 22.242188 337.695312 22.65625 337.777344 23.058594 337.941406 C 23.460938 338.109375 23.816406 338.347656 24.121094 338.652344 C 24.429688 338.960938 24.664062 339.316406 24.832031 339.714844 C 25 340.117188 25.082031 340.535156 25.082031 340.96875 C 25.082031 341.40625 25 341.824219 24.832031 342.222656 C 24.664062 342.625 24.429688 342.980469 24.121094 343.285156 C 23.816406 343.59375 23.460938 343.832031 23.058594 343.996094 C 22.65625 344.164062 22.242188 344.246094 21.804688 344.246094 C 21.371094 344.246094 20.953125 344.164062 20.550781 343.996094 C 20.152344 343.832031 19.796875 343.59375 19.488281 343.285156 C 19.183594 342.980469 18.945312 342.625 18.78125 342.222656 C 18.613281 341.824219 18.53125 341.40625 18.53125 340.96875 Z M 18.53125 340.96875 " fill-opacity="1" fill-rule="nonzero"/><path fill="#000000" d="M 21.804688 359.347656 C 23.613281 359.347656 25.082031 357.882812 25.082031 356.070312 C 25.082031 354.261719 23.617188 352.792969 21.804688 352.792969 C 20 352.792969 18.53125 354.261719 18.53125 356.070312 C 18.535156 357.882812 20 359.347656 21.804688 359.347656 Z M 21.804688 359.347656 " fill-opacity="1" fill-rule="nonzero"/></svg>