<svg xmlns="http://www.w3.org/2000/svg" xmlns:xlink="http://www.w3.org/1999/xlink" width="500" zoomAndPan="magnify" viewBox="0 0 375 374.999991" height="500" preserveAspectRatio="xMidYMid meet" version="1.0"><defs><clipPath id="id1"><path d="M 0 49 L 375 49 L 375 326 L 0 326 Z M 0 49 " clip-rule="nonzero"/></clipPath><clipPath id="id2"><path d="M 360.566406 49.242188 L 361.183594 49.308594 L 361.796875 49.390625 L 362.398438 49.5 L 362.988281 49.632812 L 363.570312 49.789062 L 364.140625 49.964844 L 364.699219 50.171875 L 365.257812 50.386719 L 365.796875 50.628906 L 366.328125 50.894531 L 366.84375 51.175781 L 367.351562 51.476562 L 367.839844 51.792969 L 368.324219 52.132812 L 368.789062 52.492188 L 369.246094 52.855469 L 369.679688 53.246094 L 370.101562 53.65625 L 370.511719 54.078125 L 370.902344 54.511719 L 371.265625 54.96875 L 371.625 55.433594 L 371.964844 55.90625 L 372.28125 56.40625 L 372.582031 56.90625 L 372.863281 57.429688 L 373.128906 57.960938 L 373.371094 58.5 L 373.585938 59.050781 L 373.792969 59.617188 L 373.96875 60.1875 L 374.125 60.769531 L 374.257812 61.363281 L 374.367188 61.960938 L 374.449219 62.566406 L 374.515625 63.183594 L 374.550781 63.796875 L 374.566406 64.429688 L 374.566406 291.132812 L 374.550781 291.765625 L 374.515625 292.382812 L 374.449219 292.996094 L 374.367188 293.613281 L 374.257812 294.210938 L 374.125 294.800781 L 373.96875 295.382812 L 373.792969 295.957031 L 373.585938 296.511719 L 373.371094 297.070312 L 373.128906 297.609375 L 372.863281 298.140625 L 372.582031 298.65625 L 372.28125 299.164062 L 371.964844 299.65625 L 371.625 300.136719 L 371.265625 300.601562 L 370.902344 301.058594 L 370.511719 301.492188 L 370.101562 301.917969 L 369.679688 302.324219 L 369.246094 302.714844 L 368.789062 303.082031 L 368.324219 303.4375 L 367.839844 303.777344 L 367.351562 304.09375 L 366.84375 304.394531 L 366.328125 304.675781 L 365.796875 304.941406 L 365.257812 305.183594 L 364.699219 305.398438 L 364.140625 305.609375 L 363.570312 305.78125 L 362.988281 305.941406 L 362.398438 306.074219 L 361.796875 306.179688 L 361.183594 306.265625 L 360.566406 306.332031 L 359.953125 306.363281 L 359.320312 306.382812 L 351.183594 306.382812 L 351.183594 325.835938 L 304.417969 325.835938 L 304.417969 306.382812 L 70.605469 306.382812 L 70.605469 325.835938 L 23.84375 325.835938 L 23.84375 306.382812 L 15.703125 306.382812 L 15.074219 306.363281 L 14.457031 306.332031 L 13.84375 306.265625 L 13.234375 306.179688 L 12.636719 306.074219 L 12.046875 305.941406 L 11.464844 305.78125 L 10.890625 305.609375 L 10.324219 305.398438 L 9.777344 305.183594 L 9.238281 304.941406 L 8.703125 304.675781 L 8.179688 304.394531 L 7.683594 304.09375 L 7.183594 303.777344 L 6.710938 303.4375 L 6.242188 303.082031 L 5.785156 302.714844 L 5.355469 302.324219 L 4.929688 301.917969 L 4.523438 301.492188 L 4.132812 301.058594 L 3.765625 300.601562 L 3.410156 300.136719 L 3.066406 299.65625 L 2.753906 299.164062 L 2.453125 298.65625 L 2.171875 298.140625 L 1.902344 297.609375 L 1.664062 297.070312 L 1.445312 296.511719 L 1.238281 295.957031 L 1.066406 295.382812 L 0.90625 294.800781 L 0.773438 294.210938 L 0.664062 293.613281 L 0.582031 292.996094 L 0.515625 292.382812 L 0.484375 291.765625 L 0.464844 291.132812 L 0.464844 64.429688 L 0.484375 63.796875 L 0.515625 63.183594 L 0.582031 62.566406 L 0.664062 61.960938 L 0.773438 61.363281 L 0.90625 60.769531 L 1.066406 60.1875 L 1.238281 59.617188 L 1.445312 59.050781 L 1.664062 58.5 L 1.902344 57.960938 L 2.171875 57.429688 L 2.453125 56.90625 L 2.753906 56.40625 L 3.066406 55.90625 L 3.410156 55.433594 L 3.765625 54.96875 L 4.132812 54.511719 L 4.523438 54.078125 L 4.929688 53.65625 L 5.355469 53.246094 L 5.785156 52.855469 L 6.242188 52.492188 L 6.710938 52.132812 L 7.183594 51.792969 L 7.683594 51.476562 L 8.179688 51.175781 L 8.703125 50.894531 L 9.238281 50.628906 L 9.777344 50.386719 L 10.324219 50.171875 L 10.890625 49.964844 L 11.464844 49.789062 L 12.046875 49.632812 L 12.636719 49.5 L 13.234375 49.390625 L 13.84375 49.308594 L 14.457031 49.242188 L 15.074219 49.207031 L 15.703125 49.191406 L 359.320312 49.191406 L 359.953125 49.207031 Z M 53.769531 78.421875 L 53.628906 78.429688 L 53.347656 78.460938 L 53.207031 78.488281 L 53.074219 78.519531 L 52.941406 78.5625 L 52.808594 78.601562 L 52.683594 78.644531 L 52.558594 78.703125 L 52.433594 78.753906 L 52.308594 78.820312 L 52.191406 78.878906 L 51.957031 79.027344 L 51.851562 79.101562 L 51.742188 79.183594 L 51.644531 79.269531 L 51.542969 79.359375 L 51.445312 79.453125 L 51.351562 79.550781 L 51.261719 79.652344 L 51.175781 79.75 L 51.09375 79.859375 L 51.019531 79.964844 L 50.871094 80.199219 L 50.8125 80.316406 L 50.746094 80.441406 L 50.695312 80.566406 L 50.636719 80.691406 L 50.59375 80.816406 L 50.554688 80.949219 L 50.511719 81.082031 L 50.480469 81.214844 L 50.453125 81.355469 L 50.421875 81.636719 L 50.414062 81.777344 L 50.40625 81.921875 L 50.40625 104.367188 L 40.019531 104.367188 L 39.738281 104.382812 L 39.597656 104.398438 L 39.457031 104.417969 L 39.324219 104.441406 L 39.179688 104.472656 L 39.054688 104.515625 L 38.921875 104.558594 L 38.789062 104.597656 L 38.664062 104.65625 L 38.542969 104.707031 L 38.425781 104.773438 L 38.308594 104.832031 L 38.074219 104.980469 L 37.96875 105.054688 L 37.859375 105.140625 L 37.757812 105.222656 L 37.660156 105.3125 L 37.558594 105.40625 L 37.46875 105.503906 L 37.378906 105.605469 L 37.292969 105.703125 L 37.210938 105.8125 L 37.136719 105.921875 L 37.0625 106.039062 L 36.988281 106.152344 L 36.929688 106.269531 L 36.863281 106.394531 L 36.8125 106.519531 L 36.753906 106.644531 L 36.710938 106.769531 L 36.671875 106.902344 L 36.628906 107.035156 L 36.597656 107.167969 L 36.570312 107.308594 L 36.554688 107.449219 L 36.539062 107.59375 L 36.53125 107.734375 L 36.519531 107.875 L 36.519531 153.230469 L 36.53125 153.375 L 36.539062 153.515625 L 36.570312 153.796875 L 36.597656 153.9375 L 36.628906 154.070312 L 36.671875 154.203125 L 36.710938 154.339844 L 36.753906 154.460938 L 36.8125 154.585938 L 36.863281 154.710938 L 36.929688 154.835938 L 36.988281 154.953125 L 37.136719 155.1875 L 37.210938 155.292969 L 37.292969 155.402344 L 37.378906 155.5 L 37.558594 155.703125 L 37.660156 155.792969 L 37.757812 155.882812 L 37.859375 155.96875 L 37.96875 156.050781 L 38.074219 156.125 L 38.308594 156.273438 L 38.425781 156.332031 L 38.542969 156.398438 L 38.664062 156.449219 L 38.789062 156.507812 L 38.921875 156.550781 L 39.054688 156.589844 L 39.179688 156.632812 L 39.324219 156.664062 L 39.457031 156.691406 L 39.738281 156.722656 L 39.878906 156.730469 L 40.019531 156.742188 L 50.40625 156.742188 L 50.40625 203.644531 L 39.878906 203.644531 L 39.730469 203.652344 L 39.589844 203.667969 L 39.457031 203.695312 L 39.3125 203.71875 L 39.179688 203.746094 L 39.046875 203.785156 L 38.914062 203.828125 L 38.78125 203.867188 L 38.65625 203.917969 L 38.40625 204.035156 L 38.292969 204.101562 L 38.175781 204.167969 L 38.058594 204.242188 L 37.949219 204.316406 L 37.84375 204.402344 L 37.742188 204.492188 L 37.644531 204.574219 L 37.453125 204.765625 L 37.359375 204.867188 L 37.277344 204.976562 L 37.195312 205.082031 L 37.121094 205.191406 L 37.042969 205.308594 L 36.976562 205.421875 L 36.910156 205.539062 L 36.855469 205.664062 L 36.796875 205.789062 L 36.746094 205.914062 L 36.695312 206.046875 L 36.664062 206.171875 L 36.621094 206.3125 L 36.597656 206.445312 L 36.5625 206.585938 L 36.546875 206.71875 L 36.53125 206.863281 L 36.519531 207.011719 L 36.519531 252.226562 L 36.53125 252.371094 L 36.539062 252.511719 L 36.570312 252.792969 L 36.597656 252.933594 L 36.628906 253.066406 L 36.671875 253.199219 L 36.710938 253.332031 L 36.753906 253.457031 L 36.8125 253.582031 L 36.863281 253.707031 L 36.929688 253.832031 L 36.988281 253.949219 L 37.0625 254.066406 L 37.136719 254.179688 L 37.210938 254.289062 L 37.292969 254.398438 L 37.378906 254.496094 L 37.46875 254.597656 L 37.558594 254.695312 L 37.660156 254.789062 L 37.757812 254.878906 L 37.859375 254.964844 L 37.96875 255.046875 L 38.074219 255.121094 L 38.308594 255.269531 L 38.425781 255.328125 L 38.542969 255.394531 L 38.664062 255.445312 L 38.789062 255.503906 L 38.921875 255.542969 L 39.054688 255.585938 L 39.179688 255.628906 L 39.324219 255.660156 L 39.457031 255.6875 L 39.738281 255.71875 L 40.019531 255.734375 L 50.40625 255.734375 L 50.40625 276.496094 L 50.421875 276.777344 L 50.453125 277.058594 L 50.480469 277.203125 L 50.511719 277.335938 L 50.554688 277.46875 L 50.59375 277.601562 L 50.636719 277.726562 L 50.695312 277.851562 L 50.746094 277.972656 L 50.8125 278.097656 L 50.871094 278.214844 L 51.019531 278.449219 L 51.09375 278.554688 L 51.175781 278.664062 L 51.261719 278.765625 L 51.351562 278.863281 L 51.445312 278.964844 L 51.542969 279.054688 L 51.644531 279.148438 L 51.742188 279.230469 L 51.851562 279.3125 L 51.957031 279.386719 L 52.074219 279.460938 L 52.191406 279.539062 L 52.308594 279.59375 L 52.433594 279.660156 L 52.558594 279.710938 L 52.683594 279.769531 L 52.808594 279.8125 L 52.941406 279.851562 L 53.074219 279.894531 L 53.207031 279.929688 L 53.347656 279.953125 L 53.628906 279.984375 L 53.769531 279.996094 L 53.914062 280.003906 L 335.003906 280.003906 L 335.144531 279.996094 L 335.285156 279.984375 L 335.429688 279.96875 L 335.570312 279.953125 L 335.710938 279.929688 L 335.84375 279.894531 L 335.976562 279.851562 L 336.109375 279.8125 L 336.234375 279.769531 L 336.359375 279.710938 L 336.484375 279.660156 L 336.609375 279.59375 L 336.726562 279.539062 L 336.839844 279.460938 L 336.957031 279.386719 L 337.066406 279.3125 L 337.171875 279.230469 L 337.273438 279.148438 L 337.375 279.054688 L 337.472656 278.964844 L 337.566406 278.863281 L 337.65625 278.765625 L 337.738281 278.664062 L 337.820312 278.554688 L 337.898438 278.449219 L 338.046875 278.214844 L 338.105469 278.097656 L 338.171875 277.972656 L 338.222656 277.851562 L 338.28125 277.726562 L 338.320312 277.601562 L 338.363281 277.46875 L 338.402344 277.335938 L 338.4375 277.203125 L 338.460938 277.058594 L 338.480469 276.917969 L 338.496094 276.777344 L 338.511719 276.496094 L 338.511719 81.921875 L 338.503906 81.777344 L 338.496094 81.636719 L 338.480469 81.496094 L 338.460938 81.355469 L 338.4375 81.214844 L 338.402344 81.082031 L 338.363281 80.949219 L 338.320312 80.816406 L 338.28125 80.691406 L 338.222656 80.566406 L 338.171875 80.441406 L 338.105469 80.316406 L 338.046875 80.199219 L 337.898438 79.964844 L 337.820312 79.859375 L 337.738281 79.75 L 337.65625 79.652344 L 337.566406 79.550781 L 337.472656 79.453125 L 337.375 79.359375 L 337.273438 79.269531 L 337.171875 79.183594 L 337.066406 79.101562 L 336.957031 79.027344 L 336.839844 78.953125 L 336.726562 78.878906 L 336.609375 78.820312 L 336.484375 78.753906 L 336.359375 78.703125 L 336.234375 78.644531 L 336.109375 78.601562 L 335.976562 78.5625 L 335.84375 78.519531 L 335.710938 78.488281 L 335.570312 78.460938 L 335.429688 78.445312 L 335.285156 78.429688 L 335.144531 78.421875 L 335.003906 78.410156 L 53.914062 78.410156 Z M 57.421875 272.851562 L 57.421875 255.59375 L 67.847656 255.59375 L 68.128906 255.578125 L 68.269531 255.5625 L 68.410156 255.542969 L 68.550781 255.519531 L 68.683594 255.488281 L 68.820312 255.445312 L 68.953125 255.402344 L 69.074219 255.363281 L 69.199219 255.304688 L 69.324219 255.253906 L 69.449219 255.1875 L 69.566406 255.128906 L 69.800781 254.980469 L 69.90625 254.90625 L 70.015625 254.820312 L 70.117188 254.738281 L 70.214844 254.648438 L 70.316406 254.554688 L 70.40625 254.457031 L 70.496094 254.355469 L 70.582031 254.257812 L 70.664062 254.148438 L 70.738281 254.039062 L 70.8125 253.921875 L 70.886719 253.808594 L 70.945312 253.691406 L 71.011719 253.566406 L 71.0625 253.441406 L 71.121094 253.316406 L 71.164062 253.191406 L 71.203125 253.058594 L 71.246094 252.925781 L 71.277344 252.792969 L 71.304688 252.652344 L 71.335938 252.371094 L 71.347656 252.226562 L 71.355469 252.085938 L 71.355469 206.871094 L 71.347656 206.71875 L 71.328125 206.578125 L 71.304688 206.445312 L 71.277344 206.304688 L 71.253906 206.171875 L 71.210938 206.03125 L 71.171875 205.90625 L 71.128906 205.773438 L 71.078125 205.648438 L 71.023438 205.523438 L 70.964844 205.398438 L 70.832031 205.164062 L 70.753906 205.050781 L 70.679688 204.941406 L 70.597656 204.832031 L 70.507812 204.726562 L 70.421875 204.625 L 70.324219 204.535156 L 70.230469 204.433594 L 70.132812 204.351562 L 70.023438 204.257812 L 69.914062 204.175781 L 69.808594 204.101562 L 69.691406 204.027344 L 69.457031 203.894531 L 69.332031 203.835938 L 69.210938 203.777344 L 69.085938 203.726562 L 68.953125 203.6875 L 68.828125 203.644531 L 68.683594 203.601562 L 68.550781 203.578125 L 68.410156 203.554688 L 68.277344 203.527344 L 68.136719 203.511719 L 67.988281 203.503906 L 57.421875 203.503906 L 57.421875 156.507812 L 67.847656 156.507812 L 68.128906 156.492188 L 68.269531 156.472656 L 68.410156 156.457031 L 68.550781 156.433594 L 68.683594 156.398438 L 68.820312 156.359375 L 68.953125 156.316406 L 69.074219 156.273438 L 69.199219 156.21875 L 69.324219 156.167969 L 69.449219 156.101562 L 69.566406 156.042969 L 69.800781 155.894531 L 69.90625 155.816406 L 70.015625 155.734375 L 70.117188 155.652344 L 70.214844 155.558594 L 70.316406 155.46875 L 70.40625 155.367188 L 70.496094 155.269531 L 70.582031 155.167969 L 70.664062 155.0625 L 70.738281 154.953125 L 70.886719 154.71875 L 70.945312 154.605469 L 71.011719 154.480469 L 71.0625 154.355469 L 71.121094 154.230469 L 71.164062 154.105469 L 71.203125 153.972656 L 71.246094 153.839844 L 71.277344 153.707031 L 71.304688 153.566406 L 71.320312 153.421875 L 71.335938 153.28125 L 71.347656 153.140625 L 71.355469 153 L 71.355469 107.875 L 71.347656 107.734375 L 71.335938 107.59375 L 71.320312 107.449219 L 71.304688 107.308594 L 71.277344 107.167969 L 71.246094 107.035156 L 71.203125 106.902344 L 71.164062 106.769531 L 71.121094 106.644531 L 71.0625 106.519531 L 71.011719 106.394531 L 70.945312 106.269531 L 70.886719 106.152344 L 70.8125 106.039062 L 70.738281 105.921875 L 70.664062 105.8125 L 70.582031 105.703125 L 70.496094 105.605469 L 70.40625 105.503906 L 70.316406 105.40625 L 70.214844 105.3125 L 70.117188 105.222656 L 70.015625 105.140625 L 69.90625 105.054688 L 69.800781 104.980469 L 69.566406 104.832031 L 69.449219 104.773438 L 69.324219 104.707031 L 69.199219 104.65625 L 69.074219 104.597656 L 68.953125 104.558594 L 68.820312 104.515625 L 68.683594 104.472656 L 68.550781 104.441406 L 68.410156 104.417969 L 68.269531 104.398438 L 68.128906 104.382812 L 67.847656 104.367188 L 57.421875 104.367188 L 57.421875 85.335938 L 331.496094 85.335938 L 331.496094 272.851562 Z M 43.527344 248.71875 L 43.527344 210.660156 L 64.335938 210.660156 L 64.335938 248.71875 Z M 142.699219 123.355469 L 140.453125 123.585938 L 138.242188 123.902344 L 136.058594 124.308594 L 133.902344 124.792969 L 131.777344 125.367188 L 129.6875 126.023438 L 127.636719 126.746094 L 125.625 127.550781 L 123.652344 128.441406 L 121.714844 129.398438 L 119.828125 130.421875 L 117.984375 131.519531 L 116.1875 132.691406 L 114.441406 133.921875 L 112.738281 135.21875 L 111.09375 136.574219 L 109.503906 137.992188 L 107.964844 139.472656 L 106.484375 141.011719 L 105.066406 142.609375 L 103.703125 144.253906 L 102.40625 145.949219 L 101.175781 147.695312 L 100.011719 149.5 L 98.914062 151.34375 L 97.882812 153.230469 L 96.925781 155.160156 L 96.042969 157.140625 L 95.238281 159.152344 L 94.507812 161.203125 L 93.859375 163.292969 L 93.285156 165.410156 L 92.792969 167.566406 L 92.386719 169.75 L 92.070312 171.960938 L 91.839844 174.207031 L 91.695312 176.476562 L 91.648438 178.761719 L 91.648438 178.863281 L 91.695312 181.15625 L 91.839844 183.425781 L 92.0625 185.671875 L 92.386719 187.882812 L 92.785156 190.078125 L 93.277344 192.230469 L 93.851562 194.359375 L 94.5 196.445312 L 95.230469 198.5 L 96.042969 200.519531 L 96.925781 202.488281 L 97.882812 204.425781 L 98.914062 206.320312 L 100.011719 208.167969 L 101.183594 209.960938 L 102.414062 211.71875 L 103.71875 213.414062 L 105.082031 215.058594 L 106.503906 216.65625 L 107.984375 218.191406 L 109.519531 219.671875 L 111.117188 221.09375 L 112.769531 222.457031 L 114.476562 223.753906 L 116.222656 224.984375 L 118.023438 226.148438 L 119.871094 227.246094 L 121.765625 228.269531 L 123.703125 229.226562 L 125.683594 230.105469 L 127.703125 230.914062 L 129.753906 231.636719 L 131.851562 232.285156 L 133.96875 232.859375 L 136.132812 233.339844 L 138.316406 233.738281 L 140.539062 234.054688 L 142.78125 234.277344 L 145.050781 234.421875 L 147.347656 234.460938 L 149.640625 234.414062 L 151.910156 234.269531 L 154.15625 234.046875 L 156.375 233.722656 L 158.5625 233.324219 L 160.714844 232.832031 L 162.84375 232.257812 L 164.929688 231.609375 L 166.992188 230.878906 L 169.003906 230.0625 L 170.980469 229.183594 L 172.917969 228.226562 L 174.804688 227.195312 L 176.652344 226.097656 L 178.453125 224.925781 L 180.199219 223.695312 L 181.90625 222.390625 L 183.550781 221.027344 L 185.148438 219.605469 L 186.683594 218.125 L 188.164062 216.589844 L 189.578125 214.992188 L 190.941406 213.339844 L 192.238281 211.632812 L 193.46875 209.886719 L 194.632812 208.082031 L 195.730469 206.238281 L 196.753906 204.34375 L 197.707031 202.40625 L 198.589844 200.425781 L 199.394531 198.40625 L 200.128906 196.355469 L 200.777344 194.257812 L 201.339844 192.140625 L 201.824219 189.976562 L 202.222656 187.789062 L 202.539062 185.570312 L 202.761719 183.328125 L 202.90625 181.058594 L 202.945312 178.761719 L 202.894531 176.46875 L 202.753906 174.199219 L 202.53125 171.953125 L 202.207031 169.742188 L 201.808594 167.546875 L 201.316406 165.394531 L 200.742188 163.265625 L 200.09375 161.179688 L 199.363281 159.125 L 198.558594 157.105469 L 197.667969 155.136719 L 196.710938 153.199219 L 195.679688 151.304688 L 194.582031 149.457031 L 193.417969 147.664062 L 192.179688 145.910156 L 190.882812 144.210938 L 189.519531 142.566406 L 188.097656 140.96875 L 186.609375 139.433594 L 185.074219 137.953125 L 183.476562 136.53125 L 181.832031 135.167969 L 180.125 133.871094 L 178.371094 132.640625 L 176.566406 131.476562 L 174.722656 130.378906 L 172.828125 129.355469 L 170.890625 128.398438 L 168.917969 127.519531 L 166.898438 126.710938 L 164.847656 125.988281 L 162.75 125.339844 L 160.621094 124.765625 L 158.46875 124.285156 L 156.285156 123.886719 L 154.0625 123.570312 L 151.820312 123.347656 L 149.550781 123.203125 L 147.253906 123.164062 L 144.960938 123.210938 Z M 151.335938 130.296875 L 153.300781 130.496094 L 155.234375 130.777344 L 157.148438 131.128906 L 159.035156 131.558594 L 160.890625 132.058594 L 162.71875 132.625 L 164.511719 133.261719 L 166.277344 133.96875 L 167.996094 134.742188 L 169.691406 135.582031 L 171.347656 136.480469 L 172.960938 137.445312 L 174.53125 138.46875 L 176.0625 139.546875 L 177.539062 140.679688 L 178.988281 141.867188 L 180.375 143.113281 L 181.722656 144.410156 L 183.011719 145.757812 L 184.257812 147.15625 L 185.4375 148.59375 L 186.578125 150.082031 L 187.648438 151.609375 L 188.671875 153.191406 L 189.628906 154.804688 L 190.527344 156.457031 L 191.355469 158.152344 L 192.128906 159.875 L 192.828125 161.644531 L 193.46875 163.441406 L 194.035156 165.269531 L 194.523438 167.125 L 194.949219 169.011719 L 195.296875 170.921875 L 195.574219 172.859375 L 195.773438 174.820312 L 195.886719 176.808594 L 195.929688 178.8125 L 195.886719 180.816406 L 195.761719 182.804688 L 195.5625 184.765625 L 195.289062 186.703125 L 194.933594 188.613281 L 194.507812 190.5 L 194.007812 192.355469 L 193.4375 194.183594 L 192.796875 195.980469 L 192.089844 197.742188 L 191.316406 199.464844 L 190.476562 201.160156 L 189.578125 202.8125 L 188.621094 204.425781 L 187.601562 205.996094 L 186.519531 207.527344 L 185.378906 209.007812 L 184.191406 210.453125 L 182.953125 211.839844 L 181.65625 213.1875 L 180.308594 214.476562 L 178.914062 215.722656 L 177.464844 216.90625 L 175.976562 218.042969 L 174.449219 219.117188 L 172.875 220.136719 L 171.265625 221.09375 L 169.609375 221.992188 L 167.914062 222.824219 L 166.183594 223.597656 L 164.421875 224.296875 L 162.625 224.933594 L 160.796875 225.5 L 158.945312 225.992188 L 157.054688 226.414062 L 155.144531 226.765625 L 153.207031 227.039062 L 151.246094 227.238281 L 149.257812 227.355469 L 147.253906 227.394531 L 145.25 227.355469 L 143.273438 227.230469 L 141.3125 227.023438 L 139.375 226.746094 L 137.460938 226.390625 L 135.582031 225.964844 L 133.722656 225.46875 L 131.898438 224.894531 L 130.105469 224.253906 L 128.34375 223.546875 L 126.621094 222.773438 L 124.925781 221.941406 L 123.277344 221.042969 L 121.667969 220.078125 L 120.09375 219.066406 L 118.566406 217.984375 L 117.078125 216.847656 L 115.640625 215.65625 L 114.25 214.417969 L 112.902344 213.121094 L 111.617188 211.785156 L 110.367188 210.386719 L 109.179688 208.949219 L 108.050781 207.460938 L 106.976562 205.929688 L 105.953125 204.359375 L 105 202.746094 L 104.101562 201.09375 L 103.261719 199.40625 L 102.496094 197.675781 L 101.789062 195.914062 L 101.148438 194.117188 L 100.582031 192.296875 L 100.085938 190.441406 L 99.660156 188.554688 L 99.304688 186.644531 L 99.027344 184.707031 L 98.828125 182.746094 L 98.703125 180.765625 L 98.664062 178.761719 L 98.664062 178.722656 L 98.703125 176.71875 L 98.828125 174.730469 L 99.027344 172.769531 L 99.304688 170.832031 L 99.660156 168.917969 L 100.085938 167.03125 L 100.582031 165.179688 L 101.15625 163.351562 L 101.796875 161.554688 L 102.503906 159.792969 L 103.277344 158.0625 L 104.117188 156.375 L 105.015625 154.71875 L 105.972656 153.109375 L 106.992188 151.535156 L 108.074219 150.007812 L 109.214844 148.519531 L 110.402344 147.082031 L 111.648438 145.683594 L 112.945312 144.34375 L 114.285156 143.046875 L 115.679688 141.808594 L 117.128906 140.621094 L 118.617188 139.492188 L 120.144531 138.410156 L 121.714844 137.394531 L 123.335938 136.429688 L 124.992188 135.542969 L 126.679688 134.703125 L 128.410156 133.9375 L 130.171875 133.230469 L 131.976562 132.597656 L 133.796875 132.023438 L 135.65625 131.535156 L 137.546875 131.109375 L 139.457031 130.761719 L 141.394531 130.488281 L 143.355469 130.289062 L 145.34375 130.171875 L 147.347656 130.128906 L 149.351562 130.171875 Z M 146.964844 135.476562 L 146.824219 135.492188 L 146.691406 135.515625 L 146.546875 135.542969 L 146.414062 135.566406 L 146.273438 135.609375 L 146.148438 135.648438 L 146.015625 135.691406 L 145.890625 135.742188 L 145.765625 135.800781 L 145.640625 135.855469 L 145.527344 135.925781 L 145.410156 135.992188 L 145.292969 136.066406 L 145.183594 136.140625 L 145.078125 136.222656 L 144.96875 136.316406 L 144.867188 136.398438 L 144.777344 136.496094 L 144.679688 136.589844 L 144.59375 136.6875 L 144.503906 136.796875 L 144.421875 136.90625 L 144.34375 137.011719 L 144.269531 137.128906 L 144.136719 137.363281 L 144.019531 137.613281 L 143.972656 137.734375 L 143.929688 137.871094 L 143.886719 137.992188 L 143.847656 138.136719 L 143.820312 138.269531 L 143.796875 138.410156 L 143.773438 138.542969 L 143.753906 138.683594 L 143.746094 138.832031 L 143.746094 146.546875 L 142.617188 146.691406 L 141.503906 146.871094 L 140.40625 147.089844 L 139.316406 147.347656 L 138.234375 147.636719 L 137.179688 147.960938 L 136.140625 148.320312 L 135.109375 148.71875 L 134.101562 149.140625 L 133.113281 149.597656 L 132.140625 150.089844 L 131.183594 150.613281 L 130.253906 151.171875 L 129.339844 151.753906 L 128.449219 152.367188 L 127.578125 153.007812 L 126.738281 153.679688 L 125.914062 154.371094 L 125.109375 155.09375 L 124.335938 155.851562 L 123.585938 156.625 L 122.863281 157.421875 L 122.164062 158.246094 L 121.492188 159.09375 L 120.851562 159.957031 L 120.238281 160.847656 L 119.65625 161.761719 L 119.105469 162.691406 L 118.582031 163.648438 L 118.082031 164.621094 L 117.625 165.609375 L 117.203125 166.617188 L 116.804688 167.648438 L 116.445312 168.6875 L 116.121094 169.742188 L 115.832031 170.824219 L 115.574219 171.914062 L 115.355469 173.011719 L 115.171875 174.125 L 115.03125 175.253906 L 114.917969 176.585938 L 114.847656 177.90625 L 114.839844 179.21875 L 114.882812 180.523438 L 114.984375 181.8125 L 115.125 183.09375 L 115.324219 184.367188 L 115.566406 185.613281 L 115.855469 186.851562 L 116.195312 188.066406 L 116.585938 189.269531 L 117.019531 190.453125 L 117.492188 191.605469 L 118.007812 192.746094 L 118.574219 193.867188 L 119.179688 194.957031 L 119.820312 196.019531 L 120.503906 197.058594 L 121.226562 198.074219 L 121.992188 199.0625 L 122.789062 200.011719 L 123.621094 200.941406 L 124.492188 201.832031 L 125.390625 202.6875 L 126.332031 203.511719 L 127.292969 204.300781 L 128.300781 205.058594 L 129.332031 205.773438 L 130.386719 206.445312 L 131.476562 207.078125 L 132.597656 207.675781 L 133.738281 208.226562 L 134.910156 208.730469 L 136.105469 209.199219 L 137.320312 209.613281 L 138.566406 209.988281 L 139.832031 210.3125 L 141.113281 210.585938 L 142.425781 210.800781 L 143.746094 210.976562 L 145.078125 211.09375 L 146.398438 211.160156 L 147.710938 211.167969 L 149.015625 211.125 L 150.304688 211.027344 L 151.585938 210.886719 L 152.859375 210.6875 L 154.105469 210.445312 L 155.34375 210.152344 L 156.558594 209.8125 L 157.761719 209.421875 L 158.945312 208.988281 L 160.097656 208.515625 L 161.238281 208 L 162.359375 207.433594 L 163.449219 206.835938 L 164.511719 206.1875 L 165.550781 205.507812 L 166.566406 204.785156 L 167.554688 204.019531 L 168.503906 203.21875 L 169.433594 202.390625 L 170.324219 201.523438 L 171.179688 200.617188 L 172.003906 199.679688 L 172.792969 198.714844 L 173.550781 197.71875 L 174.265625 196.6875 L 174.9375 195.621094 L 175.570312 194.53125 L 176.167969 193.417969 L 176.71875 192.273438 L 177.226562 191.109375 L 177.691406 189.910156 L 178.105469 188.6875 L 178.480469 187.449219 L 178.804688 186.1875 L 179.078125 184.898438 L 179.292969 183.59375 L 179.46875 182.269531 L 179.585938 180.941406 L 179.652344 179.617188 L 179.660156 178.304688 L 179.617188 177 L 179.519531 175.710938 L 179.378906 174.429688 L 179.179688 173.160156 L 178.9375 171.914062 L 178.644531 170.671875 L 178.304688 169.460938 L 177.914062 168.253906 L 177.480469 167.074219 L 177.007812 165.917969 L 176.492188 164.78125 L 175.929688 163.65625 L 175.320312 162.566406 L 174.679688 161.503906 L 174 160.464844 L 173.277344 159.449219 L 172.511719 158.460938 L 171.714844 157.515625 L 170.882812 156.582031 L 170.007812 155.691406 L 169.109375 154.835938 L 168.171875 154.015625 L 167.207031 153.222656 L 166.199219 152.46875 L 165.171875 151.753906 L 164.113281 151.078125 L 163.027344 150.449219 L 161.902344 149.847656 L 160.765625 149.300781 L 159.59375 148.792969 L 158.394531 148.328125 L 157.179688 147.910156 L 155.933594 147.539062 L 154.671875 147.214844 L 153.390625 146.9375 L 152.078125 146.722656 L 150.753906 146.546875 L 150.753906 138.832031 L 150.746094 138.683594 L 150.730469 138.542969 L 150.714844 138.410156 L 150.679688 138.269531 L 150.65625 138.136719 L 150.613281 137.992188 L 150.582031 137.871094 L 150.53125 137.734375 L 150.480469 137.613281 L 150.363281 137.363281 L 150.230469 137.128906 L 150.15625 137.011719 L 150.082031 136.90625 L 150 136.796875 L 149.914062 136.6875 L 149.824219 136.589844 L 149.632812 136.398438 L 149.53125 136.316406 L 149.433594 136.222656 L 149.324219 136.140625 L 149.21875 136.066406 L 149.101562 135.992188 L 148.984375 135.925781 L 148.867188 135.855469 L 148.742188 135.800781 L 148.617188 135.742188 L 148.492188 135.691406 L 148.359375 135.648438 L 148.226562 135.609375 L 148.09375 135.566406 L 147.960938 135.542969 L 147.820312 135.515625 L 147.6875 135.492188 L 147.546875 135.476562 L 147.394531 135.464844 L 147.113281 135.464844 Z M 149.914062 153.449219 L 150.996094 153.574219 L 152.050781 153.738281 L 153.097656 153.957031 L 154.136719 154.203125 L 155.152344 154.503906 L 156.140625 154.835938 L 157.121094 155.21875 L 158.078125 155.636719 L 159.019531 156.082031 L 159.933594 156.574219 L 160.824219 157.097656 L 161.6875 157.664062 L 162.535156 158.253906 L 163.351562 158.878906 L 164.140625 159.542969 L 164.902344 160.222656 L 165.636719 160.945312 L 166.34375 161.695312 L 167.015625 162.46875 L 167.664062 163.273438 L 168.269531 164.097656 L 168.851562 164.953125 L 169.394531 165.835938 L 169.902344 166.734375 L 170.375 167.65625 L 170.816406 168.605469 L 171.214844 169.566406 L 171.570312 170.550781 L 171.886719 171.554688 L 172.171875 172.578125 L 172.402344 173.609375 L 172.59375 174.664062 L 172.742188 175.726562 L 172.851562 176.808594 L 172.910156 177.898438 L 172.925781 179.003906 L 172.894531 180.109375 L 172.808594 181.199219 L 172.6875 182.269531 L 172.519531 183.335938 L 172.304688 184.382812 L 172.046875 185.414062 L 171.753906 186.425781 L 171.414062 187.425781 L 171.039062 188.40625 L 170.625 189.363281 L 170.167969 190.292969 L 169.675781 191.207031 L 169.152344 192.097656 L 168.59375 192.96875 L 167.996094 193.808594 L 167.375 194.632812 L 166.714844 195.421875 L 166.027344 196.179688 L 165.304688 196.917969 L 164.554688 197.625 L 163.78125 198.300781 L 162.984375 198.9375 L 162.152344 199.554688 L 161.296875 200.128906 L 160.421875 200.675781 L 159.515625 201.183594 L 158.59375 201.65625 L 157.65625 202.089844 L 156.683594 202.488281 L 155.703125 202.847656 L 154.703125 203.164062 L 153.679688 203.445312 L 152.640625 203.679688 L 151.59375 203.878906 L 150.53125 204.027344 L 149.449219 204.125 L 148.359375 204.183594 L 147.253906 204.203125 L 146.15625 204.167969 L 145.078125 204.085938 L 144.003906 203.960938 L 142.949219 203.792969 L 141.910156 203.578125 L 140.886719 203.328125 L 139.871094 203.03125 L 138.882812 202.695312 L 137.910156 202.324219 L 136.964844 201.914062 L 136.03125 201.464844 L 135.117188 200.984375 L 134.234375 200.460938 L 133.371094 199.910156 L 132.53125 199.320312 L 131.71875 198.699219 L 130.925781 198.050781 L 130.164062 197.367188 L 129.429688 196.660156 L 128.722656 195.914062 L 128.050781 195.148438 L 127.410156 194.359375 L 126.796875 193.535156 L 126.214844 192.6875 L 125.664062 191.824219 L 125.15625 190.925781 L 124.683594 190.011719 L 124.242188 189.078125 L 123.835938 188.125 L 123.480469 187.140625 L 123.15625 186.152344 L 122.863281 185.140625 L 122.621094 184.117188 L 122.421875 183.070312 L 122.257812 182.011719 L 122.148438 180.941406 L 122.074219 179.859375 L 122.050781 178.761719 L 122.050781 178.53125 L 122.082031 177.425781 L 122.164062 176.335938 L 122.289062 175.253906 L 122.457031 174.199219 L 122.671875 173.152344 L 122.921875 172.113281 L 123.222656 171.097656 L 123.554688 170.109375 L 123.9375 169.128906 L 124.351562 168.171875 L 124.800781 167.230469 L 125.292969 166.316406 L 125.816406 165.429688 L 126.378906 164.5625 L 126.96875 163.714844 L 127.59375 162.902344 L 128.257812 162.109375 L 128.941406 161.347656 L 129.664062 160.613281 L 130.414062 159.90625 L 131.183594 159.234375 L 131.992188 158.585938 L 132.816406 157.980469 L 133.671875 157.398438 L 134.550781 156.855469 L 135.449219 156.351562 L 136.371094 155.875 L 137.320312 155.445312 L 138.285156 155.042969 L 139.265625 154.6875 L 140.273438 154.363281 L 141.292969 154.089844 L 142.324219 153.855469 L 143.382812 153.65625 L 144.445312 153.507812 L 145.527344 153.40625 L 146.613281 153.347656 L 147.71875 153.332031 L 148.828125 153.367188 Z M 43.527344 149.441406 L 43.527344 111.382812 L 64.335938 111.382812 L 64.335938 149.441406 Z M 43.527344 149.441406 " clip-rule="nonzero"/></clipPath><linearGradient x1="242.72" gradientTransform="matrix(0.831336, 0, 0, 0.831336, -14.265282, -22.162959)" y1="85.829979" x2="242.72" gradientUnits="userSpaceOnUse" y2="418.59997" id="id3"><stop stop-opacity="1" stop-color="rgb(17.298889%, 92.498779%, 100%)" offset="0"/><stop stop-opacity="1" stop-color="rgb(17.611694%, 92.3172%, 100%)" offset="0.00390625"/><stop stop-opacity="1" stop-color="rgb(17.926025%, 92.13562%, 100%)" offset="0.0078125"/><stop stop-opacity="1" stop-color="rgb(18.238831%, 91.952515%, 100%)" offset="0.0117187"/><stop stop-opacity="1" stop-color="rgb(18.553162%, 91.770935%, 100%)" offset="0.015625"/><stop stop-opacity="1" stop-color="rgb(18.867493%, 91.589355%, 100%)" offset="0.0195312"/><stop stop-opacity="1" stop-color="rgb(19.181824%, 91.407776%, 100%)" offset="0.0234375"/><stop stop-opacity="1" stop-color="rgb(19.494629%, 91.22467%, 100%)" offset="0.0273438"/><stop stop-opacity="1" stop-color="rgb(19.80896%, 91.043091%, 100%)" offset="0.03125"/><stop stop-opacity="1" stop-color="rgb(20.121765%, 90.859985%, 100%)" offset="0.0351562"/><stop stop-opacity="1" stop-color="rgb(20.436096%, 90.678406%, 100%)" offset="0.0390625"/><stop stop-opacity="1" stop-color="rgb(20.748901%, 90.496826%, 100%)" offset="0.0429687"/><stop stop-opacity="1" stop-color="rgb(21.063232%, 90.315247%, 100%)" offset="0.046875"/><stop stop-opacity="1" stop-color="rgb(21.376038%, 90.132141%, 100%)" offset="0.0507812"/><stop stop-opacity="1" stop-color="rgb(21.690369%, 89.950562%, 100%)" offset="0.0546875"/><stop stop-opacity="1" stop-color="rgb(22.003174%, 89.768982%, 100%)" offset="0.0585938"/><stop stop-opacity="1" stop-color="rgb(22.317505%, 89.587402%, 100%)" offset="0.0625"/><stop stop-opacity="1" stop-color="rgb(22.63031%, 89.404297%, 100%)" offset="0.0664062"/><stop stop-opacity="1" stop-color="rgb(22.944641%, 89.222717%, 100%)" offset="0.0703125"/><stop stop-opacity="1" stop-color="rgb(23.258972%, 89.039612%, 100%)" offset="0.0742187"/><stop stop-opacity="1" stop-color="rgb(23.573303%, 88.858032%, 100%)" offset="0.078125"/><stop stop-opacity="1" stop-color="rgb(23.886108%, 88.676453%, 100%)" offset="0.0820312"/><stop stop-opacity="1" stop-color="rgb(24.200439%, 88.494873%, 100%)" offset="0.0859375"/><stop stop-opacity="1" stop-color="rgb(24.513245%, 88.311768%, 100%)" offset="0.0898437"/><stop stop-opacity="1" stop-color="rgb(24.827576%, 88.130188%, 100%)" offset="0.09375"/><stop stop-opacity="1" stop-color="rgb(25.140381%, 87.948608%, 100%)" offset="0.0976562"/><stop stop-opacity="1" stop-color="rgb(25.454712%, 87.767029%, 100%)" offset="0.101562"/><stop stop-opacity="1" stop-color="rgb(25.767517%, 87.583923%, 100%)" offset="0.105469"/><stop stop-opacity="1" stop-color="rgb(26.081848%, 87.402344%, 100%)" offset="0.109375"/><stop stop-opacity="1" stop-color="rgb(26.394653%, 87.219238%, 100%)" offset="0.113281"/><stop stop-opacity="1" stop-color="rgb(26.708984%, 87.037659%, 100%)" offset="0.117188"/><stop stop-opacity="1" stop-color="rgb(27.02179%, 86.856079%, 100%)" offset="0.121094"/><stop stop-opacity="1" stop-color="rgb(27.336121%, 86.6745%, 100%)" offset="0.125"/><stop stop-opacity="1" stop-color="rgb(27.650452%, 86.491394%, 100%)" offset="0.128906"/><stop stop-opacity="1" stop-color="rgb(27.964783%, 86.309814%, 100%)" offset="0.132812"/><stop stop-opacity="1" stop-color="rgb(28.277588%, 86.128235%, 100%)" offset="0.136719"/><stop stop-opacity="1" stop-color="rgb(28.591919%, 85.946655%, 100%)" offset="0.140625"/><stop stop-opacity="1" stop-color="rgb(28.904724%, 85.76355%, 100%)" offset="0.144531"/><stop stop-opacity="1" stop-color="rgb(29.219055%, 85.58197%, 100%)" offset="0.148437"/><stop stop-opacity="1" stop-color="rgb(29.53186%, 85.398865%, 100%)" offset="0.152344"/><stop stop-opacity="1" stop-color="rgb(29.846191%, 85.217285%, 100%)" offset="0.15625"/><stop stop-opacity="1" stop-color="rgb(30.158997%, 85.035706%, 100%)" offset="0.160156"/><stop stop-opacity="1" stop-color="rgb(30.473328%, 84.854126%, 100%)" offset="0.164062"/><stop stop-opacity="1" stop-color="rgb(30.786133%, 84.671021%, 100%)" offset="0.167969"/><stop stop-opacity="1" stop-color="rgb(31.100464%, 84.489441%, 100%)" offset="0.171875"/><stop stop-opacity="1" stop-color="rgb(31.413269%, 84.307861%, 100%)" offset="0.175781"/><stop stop-opacity="1" stop-color="rgb(31.7276%, 84.126282%, 100%)" offset="0.179687"/><stop stop-opacity="1" stop-color="rgb(32.040405%, 83.943176%, 100%)" offset="0.183594"/><stop stop-opacity="1" stop-color="rgb(32.354736%, 83.761597%, 100%)" offset="0.1875"/><stop stop-opacity="1" stop-color="rgb(32.669067%, 83.580017%, 100%)" offset="0.191406"/><stop stop-opacity="1" stop-color="rgb(32.983398%, 83.398438%, 100%)" offset="0.195312"/><stop stop-opacity="1" stop-color="rgb(33.296204%, 83.215332%, 100%)" offset="0.199219"/><stop stop-opacity="1" stop-color="rgb(33.610535%, 83.033752%, 100%)" offset="0.203125"/><stop stop-opacity="1" stop-color="rgb(33.92334%, 82.850647%, 100%)" offset="0.207031"/><stop stop-opacity="1" stop-color="rgb(34.237671%, 82.669067%, 100%)" offset="0.210937"/><stop stop-opacity="1" stop-color="rgb(34.550476%, 82.487488%, 100%)" offset="0.214844"/><stop stop-opacity="1" stop-color="rgb(34.864807%, 82.305908%, 100%)" offset="0.21875"/><stop stop-opacity="1" stop-color="rgb(35.177612%, 82.122803%, 100%)" offset="0.222656"/><stop stop-opacity="1" stop-color="rgb(35.491943%, 81.941223%, 100%)" offset="0.226562"/><stop stop-opacity="1" stop-color="rgb(35.804749%, 81.759644%, 100%)" offset="0.230469"/><stop stop-opacity="1" stop-color="rgb(36.11908%, 81.578064%, 100%)" offset="0.234375"/><stop stop-opacity="1" stop-color="rgb(36.431885%, 81.394958%, 100%)" offset="0.238281"/><stop stop-opacity="1" stop-color="rgb(36.746216%, 81.213379%, 100%)" offset="0.242187"/><stop stop-opacity="1" stop-color="rgb(37.060547%, 81.030273%, 100%)" offset="0.246094"/><stop stop-opacity="1" stop-color="rgb(37.374878%, 80.848694%, 100%)" offset="0.25"/><stop stop-opacity="1" stop-color="rgb(37.687683%, 80.667114%, 100%)" offset="0.253906"/><stop stop-opacity="1" stop-color="rgb(38.002014%, 80.485535%, 100%)" offset="0.257813"/><stop stop-opacity="1" stop-color="rgb(38.314819%, 80.302429%, 100%)" offset="0.261719"/><stop stop-opacity="1" stop-color="rgb(38.62915%, 80.12085%, 100%)" offset="0.265625"/><stop stop-opacity="1" stop-color="rgb(38.941956%, 79.93927%, 100%)" offset="0.269531"/><stop stop-opacity="1" stop-color="rgb(39.256287%, 79.75769%, 100%)" offset="0.273438"/><stop stop-opacity="1" stop-color="rgb(39.569092%, 79.574585%, 100%)" offset="0.277344"/><stop stop-opacity="1" stop-color="rgb(39.883423%, 79.393005%, 100%)" offset="0.28125"/><stop stop-opacity="1" stop-color="rgb(40.196228%, 79.2099%, 100%)" offset="0.285156"/><stop stop-opacity="1" stop-color="rgb(40.510559%, 79.02832%, 100%)" offset="0.289062"/><stop stop-opacity="1" stop-color="rgb(40.823364%, 78.846741%, 100%)" offset="0.292969"/><stop stop-opacity="1" stop-color="rgb(41.137695%, 78.665161%, 100%)" offset="0.296875"/><stop stop-opacity="1" stop-color="rgb(41.452026%, 78.482056%, 100%)" offset="0.300781"/><stop stop-opacity="1" stop-color="rgb(41.766357%, 78.300476%, 100%)" offset="0.304688"/><stop stop-opacity="1" stop-color="rgb(42.079163%, 78.118896%, 100%)" offset="0.308594"/><stop stop-opacity="1" stop-color="rgb(42.393494%, 77.937317%, 100%)" offset="0.3125"/><stop stop-opacity="1" stop-color="rgb(42.706299%, 77.754211%, 100%)" offset="0.316406"/><stop stop-opacity="1" stop-color="rgb(43.02063%, 77.572632%, 100%)" offset="0.320312"/><stop stop-opacity="1" stop-color="rgb(43.333435%, 77.389526%, 100%)" offset="0.324219"/><stop stop-opacity="1" stop-color="rgb(43.647766%, 77.207947%, 100%)" offset="0.328125"/><stop stop-opacity="1" stop-color="rgb(43.960571%, 77.026367%, 100%)" offset="0.332031"/><stop stop-opacity="1" stop-color="rgb(44.274902%, 76.844788%, 100%)" offset="0.335938"/><stop stop-opacity="1" stop-color="rgb(44.587708%, 76.661682%, 100%)" offset="0.339844"/><stop stop-opacity="1" stop-color="rgb(44.902039%, 76.480103%, 100%)" offset="0.34375"/><stop stop-opacity="1" stop-color="rgb(45.214844%, 76.298523%, 100%)" offset="0.347656"/><stop stop-opacity="1" stop-color="rgb(45.529175%, 76.116943%, 100%)" offset="0.351562"/><stop stop-opacity="1" stop-color="rgb(45.84198%, 75.933838%, 100%)" offset="0.355469"/><stop stop-opacity="1" stop-color="rgb(46.156311%, 75.752258%, 100%)" offset="0.359375"/><stop stop-opacity="1" stop-color="rgb(46.470642%, 75.569153%, 100%)" offset="0.363281"/><stop stop-opacity="1" stop-color="rgb(46.784973%, 75.387573%, 100%)" offset="0.367188"/><stop stop-opacity="1" stop-color="rgb(47.097778%, 75.205994%, 100%)" offset="0.371094"/><stop stop-opacity="1" stop-color="rgb(47.412109%, 75.024414%, 100%)" offset="0.375"/><stop stop-opacity="1" stop-color="rgb(47.724915%, 74.841309%, 100%)" offset="0.378906"/><stop stop-opacity="1" stop-color="rgb(48.039246%, 74.659729%, 100%)" offset="0.382812"/><stop stop-opacity="1" stop-color="rgb(48.352051%, 74.478149%, 100%)" offset="0.386719"/><stop stop-opacity="1" stop-color="rgb(48.666382%, 74.29657%, 100%)" offset="0.390625"/><stop stop-opacity="1" stop-color="rgb(48.979187%, 74.113464%, 100%)" offset="0.394531"/><stop stop-opacity="1" stop-color="rgb(49.293518%, 73.931885%, 100%)" offset="0.398438"/><stop stop-opacity="1" stop-color="rgb(49.606323%, 73.750305%, 100%)" offset="0.402344"/><stop stop-opacity="1" stop-color="rgb(49.920654%, 73.568726%, 100%)" offset="0.40625"/><stop stop-opacity="1" stop-color="rgb(50.233459%, 73.38562%, 100%)" offset="0.410156"/><stop stop-opacity="1" stop-color="rgb(50.547791%, 73.204041%, 100%)" offset="0.414062"/><stop stop-opacity="1" stop-color="rgb(50.862122%, 73.020935%, 100%)" offset="0.417969"/><stop stop-opacity="1" stop-color="rgb(51.176453%, 72.839355%, 100%)" offset="0.421875"/><stop stop-opacity="1" stop-color="rgb(51.489258%, 72.657776%, 100%)" offset="0.425781"/><stop stop-opacity="1" stop-color="rgb(51.803589%, 72.476196%, 100%)" offset="0.429688"/><stop stop-opacity="1" stop-color="rgb(52.116394%, 72.293091%, 100%)" offset="0.433594"/><stop stop-opacity="1" stop-color="rgb(52.430725%, 72.111511%, 100%)" offset="0.4375"/><stop stop-opacity="1" stop-color="rgb(52.74353%, 71.929932%, 100%)" offset="0.441406"/><stop stop-opacity="1" stop-color="rgb(53.057861%, 71.748352%, 100%)" offset="0.445312"/><stop stop-opacity="1" stop-color="rgb(53.370667%, 71.565247%, 100%)" offset="0.449219"/><stop stop-opacity="1" stop-color="rgb(53.684998%, 71.383667%, 100%)" offset="0.453125"/><stop stop-opacity="1" stop-color="rgb(53.997803%, 71.200562%, 100%)" offset="0.457031"/><stop stop-opacity="1" stop-color="rgb(54.312134%, 71.018982%, 100%)" offset="0.460938"/><stop stop-opacity="1" stop-color="rgb(54.624939%, 70.837402%, 100%)" offset="0.464844"/><stop stop-opacity="1" stop-color="rgb(54.93927%, 70.655823%, 100%)" offset="0.46875"/><stop stop-opacity="1" stop-color="rgb(55.253601%, 70.472717%, 100%)" offset="0.472656"/><stop stop-opacity="1" stop-color="rgb(55.567932%, 70.291138%, 100%)" offset="0.476562"/><stop stop-opacity="1" stop-color="rgb(55.880737%, 70.109558%, 100%)" offset="0.480469"/><stop stop-opacity="1" stop-color="rgb(56.195068%, 69.927979%, 100%)" offset="0.484375"/><stop stop-opacity="1" stop-color="rgb(56.507874%, 69.744873%, 100%)" offset="0.488281"/><stop stop-opacity="1" stop-color="rgb(56.822205%, 69.563293%, 100%)" offset="0.492188"/><stop stop-opacity="1" stop-color="rgb(57.13501%, 69.380188%, 100%)" offset="0.496094"/><stop stop-opacity="1" stop-color="rgb(57.449341%, 69.198608%, 100%)" offset="0.5"/><stop stop-opacity="1" stop-color="rgb(57.762146%, 69.017029%, 100%)" offset="0.503906"/><stop stop-opacity="1" stop-color="rgb(58.076477%, 68.835449%, 100%)" offset="0.507813"/><stop stop-opacity="1" stop-color="rgb(58.389282%, 68.652344%, 100%)" offset="0.511719"/><stop stop-opacity="1" stop-color="rgb(58.703613%, 68.470764%, 100%)" offset="0.515625"/><stop stop-opacity="1" stop-color="rgb(59.016418%, 68.289185%, 100%)" offset="0.519531"/><stop stop-opacity="1" stop-color="rgb(59.33075%, 68.107605%, 100%)" offset="0.523438"/><stop stop-opacity="1" stop-color="rgb(59.643555%, 67.9245%, 100%)" offset="0.527344"/><stop stop-opacity="1" stop-color="rgb(59.957886%, 67.74292%, 100%)" offset="0.53125"/><stop stop-opacity="1" stop-color="rgb(60.272217%, 67.559814%, 100%)" offset="0.535156"/><stop stop-opacity="1" stop-color="rgb(60.586548%, 67.378235%, 100%)" offset="0.539062"/><stop stop-opacity="1" stop-color="rgb(60.899353%, 67.196655%, 100%)" offset="0.542969"/><stop stop-opacity="1" stop-color="rgb(61.213684%, 67.015076%, 100%)" offset="0.546875"/><stop stop-opacity="1" stop-color="rgb(61.526489%, 66.83197%, 100%)" offset="0.550781"/><stop stop-opacity="1" stop-color="rgb(61.84082%, 66.650391%, 100%)" offset="0.554687"/><stop stop-opacity="1" stop-color="rgb(62.153625%, 66.468811%, 100%)" offset="0.558594"/><stop stop-opacity="1" stop-color="rgb(62.467957%, 66.287231%, 100%)" offset="0.5625"/><stop stop-opacity="1" stop-color="rgb(62.780762%, 66.104126%, 100%)" offset="0.566406"/><stop stop-opacity="1" stop-color="rgb(63.095093%, 65.922546%, 100%)" offset="0.570312"/><stop stop-opacity="1" stop-color="rgb(63.407898%, 65.739441%, 100%)" offset="0.574219"/><stop stop-opacity="1" stop-color="rgb(63.722229%, 65.557861%, 100%)" offset="0.578125"/><stop stop-opacity="1" stop-color="rgb(64.035034%, 65.376282%, 100%)" offset="0.582031"/><stop stop-opacity="1" stop-color="rgb(64.349365%, 65.194702%, 100%)" offset="0.585937"/><stop stop-opacity="1" stop-color="rgb(64.663696%, 65.011597%, 100%)" offset="0.589844"/><stop stop-opacity="1" stop-color="rgb(64.978027%, 64.830017%, 100%)" offset="0.59375"/><stop stop-opacity="1" stop-color="rgb(65.290833%, 64.648438%, 100%)" offset="0.597656"/><stop stop-opacity="1" stop-color="rgb(65.605164%, 64.466858%, 100%)" offset="0.601562"/><stop stop-opacity="1" stop-color="rgb(65.917969%, 64.283752%, 100%)" offset="0.605469"/><stop stop-opacity="1" stop-color="rgb(66.2323%, 64.102173%, 100%)" offset="0.609375"/><stop stop-opacity="1" stop-color="rgb(66.545105%, 63.920593%, 100%)" offset="0.613281"/><stop stop-opacity="1" stop-color="rgb(66.859436%, 63.739014%, 100%)" offset="0.617187"/><stop stop-opacity="1" stop-color="rgb(67.172241%, 63.555908%, 100%)" offset="0.621094"/><stop stop-opacity="1" stop-color="rgb(67.486572%, 63.374329%, 100%)" offset="0.625"/><stop stop-opacity="1" stop-color="rgb(67.799377%, 63.191223%, 100%)" offset="0.628906"/><stop stop-opacity="1" stop-color="rgb(68.113708%, 63.009644%, 100%)" offset="0.632812"/><stop stop-opacity="1" stop-color="rgb(68.426514%, 62.828064%, 100%)" offset="0.636719"/><stop stop-opacity="1" stop-color="rgb(68.740845%, 62.646484%, 100%)" offset="0.640625"/><stop stop-opacity="1" stop-color="rgb(69.055176%, 62.463379%, 100%)" offset="0.644531"/><stop stop-opacity="1" stop-color="rgb(69.369507%, 62.281799%, 100%)" offset="0.648437"/><stop stop-opacity="1" stop-color="rgb(69.682312%, 62.10022%, 100%)" offset="0.652344"/><stop stop-opacity="1" stop-color="rgb(69.996643%, 61.91864%, 100%)" offset="0.65625"/><stop stop-opacity="1" stop-color="rgb(70.309448%, 61.735535%, 100%)" offset="0.660156"/><stop stop-opacity="1" stop-color="rgb(70.623779%, 61.553955%, 100%)" offset="0.664062"/><stop stop-opacity="1" stop-color="rgb(70.936584%, 61.37085%, 100%)" offset="0.667969"/><stop stop-opacity="1" stop-color="rgb(71.250916%, 61.18927%, 100%)" offset="0.671875"/><stop stop-opacity="1" stop-color="rgb(71.563721%, 61.00769%, 100%)" offset="0.675781"/><stop stop-opacity="1" stop-color="rgb(71.878052%, 60.826111%, 100%)" offset="0.679688"/><stop stop-opacity="1" stop-color="rgb(72.190857%, 60.643005%, 100%)" offset="0.683594"/><stop stop-opacity="1" stop-color="rgb(72.505188%, 60.461426%, 100%)" offset="0.6875"/><stop stop-opacity="1" stop-color="rgb(72.817993%, 60.279846%, 100%)" offset="0.691406"/><stop stop-opacity="1" stop-color="rgb(73.132324%, 60.098267%, 100%)" offset="0.695312"/><stop stop-opacity="1" stop-color="rgb(73.445129%, 59.915161%, 100%)" offset="0.699219"/><stop stop-opacity="1" stop-color="rgb(73.75946%, 59.733582%, 100%)" offset="0.703125"/><stop stop-opacity="1" stop-color="rgb(74.073792%, 59.550476%, 100%)" offset="0.707031"/><stop stop-opacity="1" stop-color="rgb(74.388123%, 59.368896%, 100%)" offset="0.710937"/><stop stop-opacity="1" stop-color="rgb(74.700928%, 59.187317%, 100%)" offset="0.714844"/><stop stop-opacity="1" stop-color="rgb(75.015259%, 59.005737%, 100%)" offset="0.71875"/><stop stop-opacity="1" stop-color="rgb(75.328064%, 58.822632%, 100%)" offset="0.722656"/><stop stop-opacity="1" stop-color="rgb(75.642395%, 58.641052%, 100%)" offset="0.726562"/><stop stop-opacity="1" stop-color="rgb(75.9552%, 58.459473%, 100%)" offset="0.730469"/><stop stop-opacity="1" stop-color="rgb(76.269531%, 58.277893%, 100%)" offset="0.734375"/><stop stop-opacity="1" stop-color="rgb(76.582336%, 58.094788%, 100%)" offset="0.738281"/><stop stop-opacity="1" stop-color="rgb(76.896667%, 57.913208%, 100%)" offset="0.742188"/><stop stop-opacity="1" stop-color="rgb(77.209473%, 57.730103%, 100%)" offset="0.746094"/><stop stop-opacity="1" stop-color="rgb(77.523804%, 57.548523%, 100%)" offset="0.75"/><stop stop-opacity="1" stop-color="rgb(77.836609%, 57.366943%, 100%)" offset="0.753906"/><stop stop-opacity="1" stop-color="rgb(78.15094%, 57.185364%, 100%)" offset="0.757812"/><stop stop-opacity="1" stop-color="rgb(78.465271%, 57.002258%, 100%)" offset="0.761719"/><stop stop-opacity="1" stop-color="rgb(78.779602%, 56.820679%, 100%)" offset="0.765625"/><stop stop-opacity="1" stop-color="rgb(79.092407%, 56.639099%, 100%)" offset="0.769531"/><stop stop-opacity="1" stop-color="rgb(79.406738%, 56.45752%, 100%)" offset="0.773437"/><stop stop-opacity="1" stop-color="rgb(79.719543%, 56.274414%, 100%)" offset="0.777344"/><stop stop-opacity="1" stop-color="rgb(80.033875%, 56.092834%, 100%)" offset="0.78125"/><stop stop-opacity="1" stop-color="rgb(80.34668%, 55.911255%, 100%)" offset="0.785156"/><stop stop-opacity="1" stop-color="rgb(80.661011%, 55.729675%, 100%)" offset="0.789062"/><stop stop-opacity="1" stop-color="rgb(80.973816%, 55.54657%, 100%)" offset="0.792969"/><stop stop-opacity="1" stop-color="rgb(81.288147%, 55.36499%, 100%)" offset="0.796875"/><stop stop-opacity="1" stop-color="rgb(81.600952%, 55.181885%, 100%)" offset="0.800781"/><stop stop-opacity="1" stop-color="rgb(81.915283%, 55.000305%, 100%)" offset="0.804688"/><stop stop-opacity="1" stop-color="rgb(82.228088%, 54.818726%, 100%)" offset="0.808594"/><stop stop-opacity="1" stop-color="rgb(82.542419%, 54.637146%, 100%)" offset="0.8125"/><stop stop-opacity="1" stop-color="rgb(82.85675%, 54.454041%, 100%)" offset="0.816406"/><stop stop-opacity="1" stop-color="rgb(83.171082%, 54.272461%, 100%)" offset="0.820312"/><stop stop-opacity="1" stop-color="rgb(83.483887%, 54.090881%, 100%)" offset="0.824219"/><stop stop-opacity="1" stop-color="rgb(83.798218%, 53.909302%, 100%)" offset="0.828125"/><stop stop-opacity="1" stop-color="rgb(84.111023%, 53.726196%, 100%)" offset="0.832031"/><stop stop-opacity="1" stop-color="rgb(84.425354%, 53.544617%, 100%)" offset="0.835937"/><stop stop-opacity="1" stop-color="rgb(84.738159%, 53.361511%, 100%)" offset="0.839844"/><stop stop-opacity="1" stop-color="rgb(85.05249%, 53.179932%, 100%)" offset="0.84375"/><stop stop-opacity="1" stop-color="rgb(85.365295%, 52.998352%, 100%)" offset="0.847656"/><stop stop-opacity="1" stop-color="rgb(85.679626%, 52.816772%, 100%)" offset="0.851562"/><stop stop-opacity="1" stop-color="rgb(85.992432%, 52.633667%, 100%)" offset="0.855469"/><stop stop-opacity="1" stop-color="rgb(86.306763%, 52.452087%, 100%)" offset="0.859375"/><stop stop-opacity="1" stop-color="rgb(86.619568%, 52.270508%, 100%)" offset="0.863281"/><stop stop-opacity="1" stop-color="rgb(86.933899%, 52.088928%, 100%)" offset="0.867188"/><stop stop-opacity="1" stop-color="rgb(87.246704%, 51.905823%, 100%)" offset="0.871094"/><stop stop-opacity="1" stop-color="rgb(87.561035%, 51.724243%, 100%)" offset="0.875"/><stop stop-opacity="1" stop-color="rgb(87.875366%, 51.541138%, 100%)" offset="0.878906"/><stop stop-opacity="1" stop-color="rgb(88.189697%, 51.359558%, 100%)" offset="0.882812"/><stop stop-opacity="1" stop-color="rgb(88.502502%, 51.177979%, 100%)" offset="0.886719"/><stop stop-opacity="1" stop-color="rgb(88.816833%, 50.996399%, 100%)" offset="0.890625"/><stop stop-opacity="1" stop-color="rgb(89.129639%, 50.813293%, 100%)" offset="0.894531"/><stop stop-opacity="1" stop-color="rgb(89.44397%, 50.631714%, 100%)" offset="0.898437"/><stop stop-opacity="1" stop-color="rgb(89.756775%, 50.450134%, 100%)" offset="0.902344"/><stop stop-opacity="1" stop-color="rgb(90.071106%, 50.268555%, 100%)" offset="0.90625"/><stop stop-opacity="1" stop-color="rgb(90.383911%, 50.085449%, 100%)" offset="0.910156"/><stop stop-opacity="1" stop-color="rgb(90.698242%, 49.90387%, 100%)" offset="0.914063"/><stop stop-opacity="1" stop-color="rgb(91.011047%, 49.720764%, 100%)" offset="0.917969"/><stop stop-opacity="1" stop-color="rgb(91.325378%, 49.539185%, 100%)" offset="0.921875"/><stop stop-opacity="1" stop-color="rgb(91.638184%, 49.357605%, 100%)" offset="0.925781"/><stop stop-opacity="1" stop-color="rgb(91.952515%, 49.176025%, 100%)" offset="0.929688"/><stop stop-opacity="1" stop-color="rgb(92.266846%, 48.99292%, 100%)" offset="0.933594"/><stop stop-opacity="1" stop-color="rgb(92.581177%, 48.81134%, 100%)" offset="0.9375"/><stop stop-opacity="1" stop-color="rgb(92.893982%, 48.629761%, 100%)" offset="0.941406"/><stop stop-opacity="1" stop-color="rgb(93.208313%, 48.448181%, 100%)" offset="0.945312"/><stop stop-opacity="1" stop-color="rgb(93.521118%, 48.265076%, 100%)" offset="0.949219"/><stop stop-opacity="1" stop-color="rgb(93.835449%, 48.083496%, 100%)" offset="0.953125"/><stop stop-opacity="1" stop-color="rgb(94.148254%, 47.900391%, 100%)" offset="0.957031"/><stop stop-opacity="1" stop-color="rgb(94.462585%, 47.718811%, 100%)" offset="0.960937"/><stop stop-opacity="1" stop-color="rgb(94.775391%, 47.537231%, 100%)" offset="0.964844"/><stop stop-opacity="1" stop-color="rgb(95.089722%, 47.355652%, 100%)" offset="0.96875"/><stop stop-opacity="1" stop-color="rgb(95.402527%, 47.172546%, 100%)" offset="0.972656"/><stop stop-opacity="1" stop-color="rgb(95.716858%, 46.990967%, 100%)" offset="0.976563"/><stop stop-opacity="1" stop-color="rgb(96.029663%, 46.809387%, 100%)" offset="0.980469"/><stop stop-opacity="1" stop-color="rgb(96.343994%, 46.627808%, 100%)" offset="0.984375"/><stop stop-opacity="1" stop-color="rgb(96.656799%, 46.444702%, 100%)" offset="0.988281"/><stop stop-opacity="1" stop-color="rgb(96.97113%, 46.263123%, 100%)" offset="0.992188"/><stop stop-opacity="1" stop-color="rgb(97.285461%, 46.081543%, 100%)" offset="0.996094"/><stop stop-opacity="1" stop-color="rgb(97.599792%, 45.899963%, 100%)" offset="1"/></linearGradient></defs><g clip-path="url(#id1)"><g clip-path="url(#id2)"><path fill="url(#id3)" d="M 0.464844 49.191406 L 0.464844 325.835938 L 374.566406 325.835938 L 374.566406 49.191406 Z M 0.464844 49.191406 " fill-rule="nonzero"/></g></g></svg>